<svg xmlns="http://www.w3.org/2000/svg" xmlns:xlink="http://www.w3.org/1999/xlink" width="282.682" height="148.33" viewBox="0 0 282.682 148.33"><defs><linearGradient id="a" x1="0.5" y1="1" x2="0.5" gradientUnits="objectBoundingBox"><stop offset="0" stop-color="gray" stop-opacity="0.251"/><stop offset="0.54" stop-color="gray" stop-opacity="0.122"/><stop offset="1" stop-color="gray" stop-opacity="0.102"/></linearGradient><linearGradient id="b" x1="0.5" y1="1" x2="0.5" y2="-0.001" xlink:href="#a"/></defs><g transform="translate(0 0.359)"><g transform="translate(109.655 9.958)" opacity="0.1"><ellipse cx="2.935" cy="3.843" rx="2.935" ry="3.843" transform="translate(11.062 79.331)" fill="#f35"/><path d="M525.269,443.183a4.643,4.643,0,0,0,.614-2.35c0-2.123-1.315-3.843-2.938-3.843S520,438.716,520,440.838a4.643,4.643,0,0,0,.614,2.35,4.8,4.8,0,0,0,0,4.7,4.8,4.8,0,0,0,0,4.7,4.627,4.627,0,0,0-.614,2.35c0,2.12,1.315,3.843,2.935,3.843s2.938-1.723,2.938-3.843a4.627,4.627,0,0,0-.614-2.35,4.8,4.8,0,0,0,0-4.7,4.8,4.8,0,0,0,0-4.7Z" transform="translate(-508.947 -376.451)" fill="#f35"/><ellipse cx="2.935" cy="3.843" rx="2.935" ry="3.843" transform="translate(11.062 55.847)" fill="#f35"/><ellipse cx="2.935" cy="3.843" rx="2.935" ry="3.843" transform="translate(11.062 51.151)" fill="#f35"/><path d="M480.159,225.12a13.688,13.688,0,0,1-1.094-1.609l7.712-1.266-8.341.062a14.088,14.088,0,0,1-.258-11.142l11.191,5.806-10.317-7.588a14.064,14.064,0,1,1,23.213,15.733,14.065,14.065,0,0,1,1.6,2.564l-10.015,5.215,10.675-3.583a14.064,14.064,0,0,1-2.267,13.206,14.062,14.062,0,1,1-22.1,0,14.062,14.062,0,0,1,0-17.389Z" transform="translate(-477.149 -202.271)" fill="#f35"/><path d="M505.273,323.974a14,14,0,0,1-3.01,8.695,14.062,14.062,0,1,1-22.1,0C478.274,330.275,505.273,322.4,505.273,323.974Z" transform="translate(-477.149 -292.43)" fill="#f35" opacity="0.1"/></g><g transform="translate(147.459 22.811)" opacity="0.1"><ellipse cx="2.195" cy="2.871" rx="2.195" ry="2.871" transform="translate(8.266 59.233)" fill="#f35"/><path d="M659.69,431.947a3.464,3.464,0,0,0,.457-1.754c0-1.586-.983-2.873-2.192-2.873s-2.195,1.29-2.195,2.873a3.439,3.439,0,0,0,.459,1.754,3.585,3.585,0,0,0,0,3.51,3.585,3.585,0,0,0,0,3.51,3.439,3.439,0,0,0-.459,1.754c0,1.586.983,2.873,2.195,2.873s2.192-1.29,2.192-2.873a3.464,3.464,0,0,0-.457-1.754,100943.494,100943.494,0,0,0,0-7.021Z" transform="translate(-647.496 -382.128)" fill="#f35"/><ellipse cx="2.195" cy="2.871" rx="2.195" ry="2.871" transform="translate(8.266 41.684)" fill="#f35"/><ellipse cx="2.195" cy="2.871" rx="2.195" ry="2.871" transform="translate(8.266 38.174)" fill="#f35"/><path d="M625.969,269.128a10.059,10.059,0,0,1-.818-1.2l5.765-.947-6.234.046a10.534,10.534,0,0,1-.2-8.328l8.364,4.341-7.714-5.674a10.51,10.51,0,1,1,17.356,11.761,10.63,10.63,0,0,1,1.2,1.916l-7.48,3.887,7.977-2.677a10.513,10.513,0,0,1-1.695,9.868,10.508,10.508,0,1,1-16.507,0,10.508,10.508,0,0,1,0-12.994Z" transform="translate(-623.72 -252.103)" fill="#f35"/><path d="M644.75,342.855a10.464,10.464,0,0,1-2.249,6.5,10.508,10.508,0,1,1-16.507,0C624.58,347.565,644.75,341.676,644.75,342.855Z" transform="translate(-623.734 -319.333)" fill="#f35" opacity="0.1"/></g><g transform="translate(253.676 -0.359)" opacity="0.1"><ellipse cx="2.935" cy="3.843" rx="2.935" ry="3.843" transform="translate(11.261 79.331)" fill="#f35"/><path d="M1079.8,403.183a4.643,4.643,0,0,1-.614-2.35c0-2.123,1.315-3.843,2.938-3.843s2.935,1.72,2.935,3.843a4.642,4.642,0,0,1-.614,2.35,4.8,4.8,0,0,1,0,4.7,4.8,4.8,0,0,1,0,4.7,4.628,4.628,0,0,1,.614,2.35c0,2.12-1.315,3.843-2.935,3.843s-2.938-1.723-2.938-3.843a4.628,4.628,0,0,1,.614-2.35,4.8,4.8,0,0,1,0-4.7A4.8,4.8,0,0,1,1079.8,403.183Z" transform="translate(-1067.931 -336.451)" fill="#f35"/><ellipse cx="2.935" cy="3.843" rx="2.935" ry="3.843" transform="translate(11.261 55.847)" fill="#f35"/><ellipse cx="2.935" cy="3.843" rx="2.935" ry="3.843" transform="translate(11.261 51.151)" fill="#f35"/><path d="M1060.724,185.12a13.7,13.7,0,0,0,1.094-1.609l-7.712-1.266,8.341.062a14.088,14.088,0,0,0,.258-11.142l-11.191,5.806,10.317-7.588a14.064,14.064,0,1,0-23.213,15.733,14.07,14.07,0,0,0-1.6,2.564l10.015,5.215-10.675-3.583a14.065,14.065,0,0,0,2.267,13.206,14.062,14.062,0,1,0,22.1,0,14.062,14.062,0,0,0,0-17.389Z" transform="translate(-1035.541 -162.271)" fill="#f35"/><path d="M1035.809,283.974a14,14,0,0,0,3.01,8.695,14.062,14.062,0,1,0,22.1,0C1062.809,290.275,1035.809,282.4,1035.809,283.974Z" transform="translate(-1035.74 -252.43)" fill="#f35" opacity="0.1"/></g><g transform="translate(228.971 21.263)" opacity="0.1"><ellipse cx="2.195" cy="2.871" rx="2.195" ry="2.871" transform="translate(8.37 59.233)" fill="#f35"/><path d="M972.686,425.947a3.463,3.463,0,0,1-.457-1.754c0-1.586.983-2.873,2.192-2.873s2.195,1.29,2.195,2.873a3.437,3.437,0,0,1-.459,1.754,3.585,3.585,0,0,1,0,3.51,3.585,3.585,0,0,1,0,3.51,3.437,3.437,0,0,1,.459,1.754c0,1.586-.983,2.873-2.195,2.873s-2.192-1.29-2.192-2.873a3.463,3.463,0,0,1,.457-1.754,3.611,3.611,0,0,1,0-3.51,3.611,3.611,0,0,1,0-3.51Z" transform="translate(-963.854 -376.128)" fill="#f35"/><ellipse cx="2.195" cy="2.871" rx="2.195" ry="2.871" transform="translate(8.37 41.684)" fill="#f35"/><ellipse cx="2.195" cy="2.871" rx="2.195" ry="2.871" transform="translate(8.37 38.174)" fill="#f35"/><path d="M958.534,263.128a10.063,10.063,0,0,0,.818-1.2l-5.765-.947,6.234.046a10.534,10.534,0,0,0,.2-8.328l-8.364,4.341,7.714-5.674a10.51,10.51,0,1,0-17.356,11.761,10.63,10.63,0,0,0-1.2,1.916l7.48,3.887-7.962-2.675a10.513,10.513,0,0,0,1.695,9.868,10.508,10.508,0,1,0,16.507,0,10.508,10.508,0,0,0,0-12.994Z" transform="translate(-939.756 -246.103)" fill="#f35"/><path d="M939.785,336.855a10.464,10.464,0,0,0,2.249,6.5,10.508,10.508,0,1,0,16.507,0C959.954,341.565,939.785,335.676,939.785,336.855Z" transform="translate(-939.773 -313.333)" fill="#f35" opacity="0.1"/></g><g transform="translate(1.885 -0.316)" opacity="0.1"><ellipse cx="2.935" cy="3.843" rx="2.935" ry="3.843" transform="translate(11.065 79.288)" fill="#f35"/><path d="M107.466,403.183a4.642,4.642,0,0,0,.614-2.35c0-2.123-1.315-3.843-2.935-3.843s-2.935,1.72-2.935,3.843a4.643,4.643,0,0,0,.611,2.35,4.815,4.815,0,0,0,0,4.7,4.815,4.815,0,0,0,0,4.7,4.625,4.625,0,0,0-.611,2.35c0,2.12,1.313,3.843,2.935,3.843s2.943-1.718,2.943-3.838a4.627,4.627,0,0,0-.614-2.35,4.8,4.8,0,0,0,0-4.7,4.8,4.8,0,0,0,0-4.7Z" transform="translate(-91.144 -336.494)" fill="#f35"/><ellipse cx="2.935" cy="3.843" rx="2.935" ry="3.843" transform="translate(11.065 55.804)" fill="#f35"/><ellipse cx="2.935" cy="3.843" rx="2.935" ry="3.843" transform="translate(11.065 51.107)" fill="#f35"/><path d="M62.324,185.244a14.012,14.012,0,0,1-1.094-1.609l7.714-1.266-8.349.075a14.088,14.088,0,0,1-.258-11.142l11.194,5.806-10.317-7.588a14.062,14.062,0,1,1,23.213,15.733,14.068,14.068,0,0,1,1.6,2.564l-10.018,5.2,10.678-3.583a14.08,14.08,0,0,1-2.27,13.206,14.062,14.062,0,1,1-22.1,0,14.062,14.062,0,0,1,0-17.389Z" transform="translate(-59.309 -162.439)" fill="#f35"/><path d="M87.433,283.974a14,14,0,0,1-3.01,8.695,14.062,14.062,0,1,1-22.1,0C60.434,290.275,87.433,282.4,87.433,283.974Z" transform="translate(-59.309 -252.473)" fill="#f35" opacity="0.1"/></g><g transform="translate(33.757 21.263)" opacity="0.1"><ellipse cx="2.195" cy="2.871" rx="2.195" ry="2.871" transform="translate(8.266 59.233)" fill="#f35"/><path d="M218.86,425.947a3.464,3.464,0,0,0,.457-1.754c0-1.586-.98-2.873-2.192-2.873s-2.195,1.29-2.195,2.873a3.464,3.464,0,0,0,.459,1.754,807551.457,807551.457,0,0,1,0,7.021,3.464,3.464,0,0,0-.459,1.754c0,1.586.983,2.873,2.195,2.873s2.192-1.29,2.192-2.873a3.464,3.464,0,0,0-.457-1.754,403770.467,403770.467,0,0,0,0-7.021Z" transform="translate(-206.663 -376.128)" fill="#f35"/><ellipse cx="2.195" cy="2.871" rx="2.195" ry="2.871" transform="translate(8.266 41.684)" fill="#f35"/><ellipse cx="2.195" cy="2.871" rx="2.195" ry="2.871" transform="translate(8.266 38.174)" fill="#f35"/><path d="M185.129,263.128a10.369,10.369,0,0,1-.818-1.2l5.765-.947-6.234.046a10.534,10.534,0,0,1-.2-8.328l8.364,4.341-7.714-5.674a10.51,10.51,0,1,1,17.356,11.761,10.348,10.348,0,0,1,1.2,1.916l-7.48,3.887,7.978-2.677a10.513,10.513,0,0,1-1.695,9.868,10.508,10.508,0,1,1-16.507,0,10.508,10.508,0,0,1,0-12.994Z" transform="translate(-182.88 -246.103)" fill="#f35"/><path d="M203.91,336.855a10.464,10.464,0,0,1-2.249,6.5,10.508,10.508,0,1,1-16.507,0C183.735,341.565,203.91,335.676,203.91,336.855Z" transform="translate(-182.894 -313.333)" fill="#f35" opacity="0.1"/></g><ellipse cx="141.341" cy="2.285" rx="141.341" ry="2.285" transform="translate(0 124.637)" fill="#f35" opacity="0.1"/><ellipse cx="141.341" cy="2.285" rx="141.341" ry="2.285" transform="translate(0 143.401)" fill="#f35" opacity="0.1"/><ellipse cx="141.341" cy="2.285" rx="141.341" ry="2.285" transform="translate(0 85.477)" fill="#f35" opacity="0.1"/><ellipse cx="141.341" cy="2.285" rx="141.341" ry="2.285" transform="translate(0 105.056)" fill="#f35" opacity="0.1"/><path d="M820.1,254.923a4.72,4.72,0,0,0-2.734.3,4.037,4.037,0,0,1-3.286,0,4.612,4.612,0,0,0-3.869.075,2.383,2.383,0,0,1-1.112.279c-1.568,0-2.871-1.578-3.141-3.66a3.064,3.064,0,0,0,.774-.843,4.4,4.4,0,0,1,7.859-.028,3.013,3.013,0,0,0,2.6,1.429h.041A3.245,3.245,0,0,1,820.1,254.923Z" transform="translate(-611.498 -226.722)" fill="#f35" opacity="0.1"/><path d="M824.861,231.629l-2.533,1.6,1.547-2.8a2.5,2.5,0,0,0-1.532-.544H822.3a2.928,2.928,0,0,1-.516-.039l-.872.544.369-.671a3.041,3.041,0,0,1-1.5-1.14l-1.548.975.97-1.764a4.494,4.494,0,0,0-3.441-1.738,4.72,4.72,0,0,0-3.941,2.43,2.943,2.943,0,0,1-2.6,1.4h-.085c-1.764,0-3.193,2-3.193,4.465s1.429,4.467,3.193,4.467a2.422,2.422,0,0,0,1.112-.279,4.606,4.606,0,0,1,3.869-.077,4.011,4.011,0,0,0,3.286,0,4.622,4.622,0,0,1,3.833.075,2.4,2.4,0,0,0,1.1.273c1.764,0,3.193-2,3.193-4.467A5.656,5.656,0,0,0,824.861,231.629Z" transform="translate(-611.483 -209.966)" fill="#f35" opacity="0.1"/><path d="M414.794,254.938a3.312,3.312,0,0,0-1.916.209,2.817,2.817,0,0,1-2.3,0,3.219,3.219,0,0,0-2.706.054,1.707,1.707,0,0,1-.774.193c-1.1,0-2.009-1.1-2.2-2.561a2.146,2.146,0,0,0,.549-.591,3.082,3.082,0,0,1,5.5-.021,2.112,2.112,0,0,0,1.823,1h.028A2.286,2.286,0,0,1,414.794,254.938Z" transform="translate(-313.88 -228.132)" fill="#f35" opacity="0.1"/><path d="M418.119,238.64l-1.772,1.125,1.076-1.958a1.741,1.741,0,0,0-1.07-.382h-.031a1.932,1.932,0,0,1-.366-.028l-.6.382.258-.469a2.141,2.141,0,0,1-1.052-.8l-1.076.681.681-1.233a3.149,3.149,0,0,0-2.409-1.22,3.3,3.3,0,0,0-2.757,1.7,2.063,2.063,0,0,1-1.823.983h-.059c-1.235,0-2.236,1.4-2.236,3.126s1,3.126,2.236,3.126a1.676,1.676,0,0,0,.774-.2,3.224,3.224,0,0,1,2.7-.052,2.77,2.77,0,0,0,2.3.015,3.234,3.234,0,0,1,2.682.052,1.671,1.671,0,0,0,.774.191c1.233,0,2.234-1.4,2.234-3.126a3.954,3.954,0,0,0-.464-1.922Z" transform="translate(-313.865 -216.408)" fill="#f35" opacity="0.1"/><path d="M321.59,333.348a3.307,3.307,0,0,1,1.914.209,2.822,2.822,0,0,0,2.3,0,3.229,3.229,0,0,1,2.706.052,1.668,1.668,0,0,0,.774.2c1.1,0,2.009-1.106,2.2-2.564a2.1,2.1,0,0,1-.547-.591,3.085,3.085,0,0,0-5.5-.018,2.112,2.112,0,0,1-1.821,1h-.028A2.3,2.3,0,0,0,321.59,333.348Z" transform="translate(-252.057 -286.319)" fill="#f35" opacity="0.1"/><path d="M307.315,317.087l1.775,1.125-1.078-1.955a1.751,1.751,0,0,1,1.073-.384h.028a2.2,2.2,0,0,0,.369-.026l.6.379-.258-.467a2.138,2.138,0,0,0,1.05-.8l1.076.681-.671-1.235a3.147,3.147,0,0,1,2.409-1.217,3.3,3.3,0,0,1,2.757,1.7,2.063,2.063,0,0,0,1.821.983h.062c1.233,0,2.234,1.4,2.234,3.126s-1,3.126-2.234,3.126a1.674,1.674,0,0,1-.774-.193,3.219,3.219,0,0,0-2.706-.054,2.8,2.8,0,0,1-1.155.258,2.836,2.836,0,0,1-1.145-.242,3.229,3.229,0,0,0-2.68.052,1.671,1.671,0,0,1-.774.191c-1.235,0-2.236-1.4-2.236-3.126A3.983,3.983,0,0,1,307.315,317.087Z" transform="translate(-241.124 -274.624)" fill="#f35" opacity="0.1"/><path d="M707.983,573.873c.673-1.248-.09-2.775-.967-3.887s-1.95-2.27-1.927-3.686c.034-2.035,2.195-3.24,3.92-4.318a19.162,19.162,0,0,0,3.521-2.837,5.192,5.192,0,0,0,1.081-1.45,5.863,5.863,0,0,0,.325-2.579q-.111-4.356-.431-8.707" transform="translate(-536.643 -447.691)" fill="none" stroke="#262626" stroke-miterlimit="10" stroke-width="4"/><path d="M732.19,537.136a3.175,3.175,0,0,0-1.586-2.6l-.712,1.406.023-1.7a3.175,3.175,0,1,0,2.275,2.9Z" transform="translate(-552.045 -438.562)" fill="#f35"/><path d="M711.231,615.934a3.175,3.175,0,0,1-5.994-1.29,3.1,3.1,0,0,1,.206-1.29,3.178,3.178,0,0,1,5.932.034L709.392,615l2.182-.516A3.157,3.157,0,0,1,711.231,615.934Z" transform="translate(-536.75 -495.87)" fill="#f35"/><path d="M712.844,587a3.175,3.175,0,0,1-1.006-6.229l-.018,1.308.72-1.424h0a3.176,3.176,0,0,1,.3,6.345Z" transform="translate(-539.931 -473.105)" fill="#f35"/><path d="M742.693,567.122a3.175,3.175,0,1,1,1.4-5.932l-.56,1.548,1.143-1.13a3.175,3.175,0,0,1-2,5.512Z" transform="translate(-562.071 -458.352)" fill="#f35"/><path d="M731.747,542.993c-.733.08-1.444.307-2.182.353a2.361,2.361,0,0,1-2.007-.7,10.184,10.184,0,0,1-.588-1.032,2.26,2.26,0,0,0-.8-.753,3.175,3.175,0,1,0,5.932,2.11C731.987,542.972,731.866,542.98,731.747,542.993Z" transform="translate(-552.031 -443.573)" opacity="0.1"/><path d="M742.733,572.349a3.175,3.175,0,0,1-3.02-4.529,2.35,2.35,0,0,1,.637.64,10.75,10.75,0,0,0,.629,1.05,2.59,2.59,0,0,0,2.107.735c.766-.039,1.506-.258,2.27-.322.106,0,.211-.015.32-.018A3.175,3.175,0,0,1,742.733,572.349Z" transform="translate(-562.111 -463.579)" opacity="0.1"/><path d="M712.847,592.41a3.175,3.175,0,0,1-3.046-4.47,2.578,2.578,0,0,1,.673.645,10.648,10.648,0,0,0,.689,1.07,2.876,2.876,0,0,0,2.247.774c.81-.034,1.547-.209,2.321-.258a3.18,3.18,0,0,1-2.884,2.239Z" transform="translate(-539.935 -478.51)" opacity="0.1"/><path d="M711.231,621.749a3.175,3.175,0,0,1-5.994-1.29,3.1,3.1,0,0,1,.206-1.29,3.17,3.17,0,0,1,.7.622c.3.366.5.774.851,1.127a3.968,3.968,0,0,0,2.628.923,13.334,13.334,0,0,0,1.612-.093Z" transform="translate(-536.75 -501.685)" opacity="0.1"/><path d="M97.983,501.873c.673-1.248-.09-2.775-.967-3.887s-1.95-2.275-1.927-3.686c.034-2.035,2.195-3.24,3.92-4.318a19.165,19.165,0,0,0,3.521-2.837,5.192,5.192,0,0,0,1.081-1.449,5.862,5.862,0,0,0,.325-2.579q-.113-4.356-.431-8.707" transform="translate(-83.975 -394.262)" fill="none" stroke="#262626" stroke-miterlimit="10" stroke-width="4"/><path d="M122.19,465.136a3.175,3.175,0,0,0-1.586-2.6l-.712,1.406.023-1.7a3.175,3.175,0,1,0,2.275,2.9Z" transform="translate(-99.377 -385.132)" fill="#f35"/><path d="M101.231,543.934a3.175,3.175,0,0,1-5.994-1.29,3.1,3.1,0,0,1,.206-1.29,3.178,3.178,0,0,1,5.932.034L99.392,543l2.182-.516a3.157,3.157,0,0,1-.343,1.447Z" transform="translate(-84.082 -442.44)" fill="#f35"/><path d="M102.844,515a3.175,3.175,0,0,1-1.006-6.229l-.018,1.308.72-1.424h0a3.176,3.176,0,0,1,.3,6.345Z" transform="translate(-87.263 -419.675)" fill="#f35"/><path d="M132.693,495.122a3.175,3.175,0,1,1,1.4-5.932l-.56,1.548,1.143-1.13a3.175,3.175,0,0,1-2,5.512Z" transform="translate(-109.403 -404.922)" fill="#f35"/><path d="M121.747,470.993c-.732.08-1.444.307-2.182.353a2.361,2.361,0,0,1-2.007-.7,10.18,10.18,0,0,1-.588-1.032,2.26,2.26,0,0,0-.8-.753,3.175,3.175,0,1,0,5.932,2.11C121.987,470.972,121.866,470.98,121.747,470.993Z" transform="translate(-99.362 -390.143)" opacity="0.1"/><path d="M132.733,500.349a3.175,3.175,0,0,1-3.02-4.529,2.349,2.349,0,0,1,.637.64,10.761,10.761,0,0,0,.629,1.05,2.59,2.59,0,0,0,2.107.735c.766-.039,1.506-.258,2.27-.322.106,0,.211-.016.32-.018A3.175,3.175,0,0,1,132.733,500.349Z" transform="translate(-109.443 -410.15)" opacity="0.1"/><path d="M102.847,520.41a3.175,3.175,0,0,1-3.046-4.47,2.579,2.579,0,0,1,.673.645,10.633,10.633,0,0,0,.689,1.07,2.875,2.875,0,0,0,2.246.774c.81-.034,1.548-.209,2.321-.258A3.18,3.18,0,0,1,102.847,520.41Z" transform="translate(-87.266 -425.08)" opacity="0.1"/><path d="M101.231,549.749a3.175,3.175,0,0,1-5.994-1.29,3.1,3.1,0,0,1,.206-1.29,3.17,3.17,0,0,1,.7.622c.3.366.5.774.851,1.127a3.968,3.968,0,0,0,2.628.923A13.335,13.335,0,0,0,101.231,549.749Z" transform="translate(-84.082 -448.255)" opacity="0.1"/><path d="M495.369,419.518c-.673-1.246.09-2.773.97-3.884s1.947-2.27,1.924-3.686c-.031-2.038-2.192-3.24-3.92-4.318a19.086,19.086,0,0,1-3.518-2.837,5.1,5.1,0,0,1-1.083-1.447,5.944,5.944,0,0,1-.325-2.579q.116-4.356.431-8.707" transform="translate(-376.591 -333.151)" fill="none" stroke="#262626" stroke-miterlimit="10" stroke-width="4"/><path d="M478.38,382.777a3.172,3.172,0,0,1,1.584-2.6l.712,1.406-.021-1.7a3.255,3.255,0,0,1,1.045-.126,3.175,3.175,0,1,1-3.319,3.025Z" transform="translate(-368.405 -324.016)" fill="#f35"/><path d="M499.331,461.5a3.175,3.175,0,1,0-.152-2.556l1.983,1.615-2.182-.516A3.156,3.156,0,0,0,499.331,461.5Z" transform="translate(-383.694 -381.249)" fill="#f35"/><path d="M497.712,432.644a3.175,3.175,0,0,0,1.008-6.229l.016,1.308-.72-1.424h0a3.175,3.175,0,0,0-3.327,3.015,3.137,3.137,0,0,0,.137,1.083,3.172,3.172,0,0,0,2.886,2.246Z" transform="translate(-380.507 -358.556)" fill="#f35"/><path d="M467.809,412.742a3.175,3.175,0,1,0-1.406-5.932l.562,1.548-1.155-1.106a3.149,3.149,0,0,0-1.032,2.192,3.071,3.071,0,0,0,.08.874,3.172,3.172,0,0,0,2.951,2.424Z" transform="translate(-358.311 -343.79)" fill="#f35"/><path d="M479.026,388.633c.733.08,1.444.307,2.179.353a2.372,2.372,0,0,0,2.009-.7,10.166,10.166,0,0,0,.586-1.032,2.267,2.267,0,0,1,.8-.753,3.175,3.175,0,1,1-5.932,2.107C478.786,388.61,478.9,388.62,479.026,388.633Z" transform="translate(-368.623 -329.025)" opacity="0.1"/><path d="M468.073,417.969a3.178,3.178,0,0,0,3.02-4.529,2.36,2.36,0,0,0-.64.64,10.764,10.764,0,0,1-.629,1.05,2.582,2.582,0,0,1-2.1.735c-.766-.039-1.506-.258-2.27-.322-.106,0-.214-.015-.32-.018A3.172,3.172,0,0,0,468.073,417.969Z" transform="translate(-358.575 -349.017)" opacity="0.1"/><path d="M498.124,438.05a3.172,3.172,0,0,0,3.046-4.47,2.535,2.535,0,0,0-.671.645,10.627,10.627,0,0,1-.689,1.07,2.881,2.881,0,0,1-2.249.774c-.812-.034-1.548-.209-2.321-.258a3.173,3.173,0,0,0,2.884,2.239Z" transform="translate(-380.919 -363.962)" opacity="0.1"/><path d="M500.34,467.389a3.175,3.175,0,0,0,5.79-2.579,3.048,3.048,0,0,0-.7.622c-.3.366-.516.774-.851,1.127a3.974,3.974,0,0,1-2.631.923A13.907,13.907,0,0,1,500.34,467.389Z" transform="translate(-384.704 -387.138)" opacity="0.1"/><circle cx="25.782" cy="25.782" r="25.782" transform="translate(175.327 35.384)" fill="#262626"/><path d="M808.988,373.649a19.532,19.532,0,0,0-4.127-2.757c-1.235-.593-1.689-.583-2.564.049-.727.516-1.2,1.014-2.035.831s-2.492-1.431-4.093-3.028-2.845-3.242-3.023-4.091.312-1.31.833-2.038c.629-.874.647-1.328.049-2.564a19.783,19.783,0,0,0-2.76-4.127c-.905-.9-1.1-.7-1.6-.516a9.235,9.235,0,0,0-1.462.774,4.412,4.412,0,0,0-1.754,1.854c-.353.753-.753,2.151,1.3,5.811a32.419,32.419,0,0,0,5.7,7.6h0a32.468,32.468,0,0,0,7.627,5.71c3.657,2.063,5.058,1.653,5.811,1.3a4.33,4.33,0,0,0,1.852-1.754,9.109,9.109,0,0,0,.774-1.462C809.693,374.75,809.894,374.549,808.988,373.649Z" transform="translate(-596.812 -305.834)" fill="#f35"/><path d="M757.485,300.86a25.792,25.792,0,1,0,25.779,25.784A25.792,25.792,0,0,0,757.485,300.86Zm0,48.133a22.354,22.354,0,1,1,22.354-22.354A22.354,22.354,0,0,1,757.485,348.993Z" transform="translate(-556.376 -265.474)" opacity="0.1"/><circle cx="25.782" cy="25.782" r="25.782" transform="translate(116.095 74.544)" fill="#262626"/><path d="M573.821,522.282l-7.72,7.854a.139.139,0,0,0,0,.2l5.416,5.759a.932.932,0,1,1-1.318,1.318l-5.388-5.739a.147.147,0,0,0-.206,0L563.293,533a5.77,5.77,0,0,1-4.127,1.736,5.9,5.9,0,0,1-4.2-1.785l-1.261-1.29a.147.147,0,0,0-.206,0l-5.375,5.726a.932.932,0,1,1-1.318-1.318l5.4-5.746a.155.155,0,0,0,0-.2l-7.72-7.854a.142.142,0,0,0-.242.1v15.715a2.3,2.3,0,0,0,2.293,2.293h25.243a2.3,2.3,0,0,0,2.293-2.293v-15.7a.142.142,0,0,0-.248-.1Z" transform="translate(-417.281 -429.746)" fill="#f35"/><path d="M561.689,525.75a3.9,3.9,0,0,0,2.816-1.161l11.243-11.444a2.244,2.244,0,0,0-1.419-.516H549.069a2.228,2.228,0,0,0-1.419.516L558.9,524.59A3.89,3.89,0,0,0,561.689,525.75Z" transform="translate(-419.811 -422.624)" fill="#f35"/><path d="M526.575,452.69a25.792,25.792,0,1,0,25.779,25.784A25.792,25.792,0,0,0,526.575,452.69Zm0,48.133a22.354,22.354,0,1,1,22.354-22.354A22.354,22.354,0,0,1,526.575,500.823Z" transform="translate(-385.023 -378.144)" opacity="0.1"/><circle cx="25.782" cy="25.782" r="25.782" transform="translate(54.909 55.29)" fill="#262626"/><path d="M335.278,430.16,325,453.873l.959.959,9.321-4.111,9.321,4.111.959-.959Z" transform="translate(-254.588 -361.425)" fill="#f35"/><path d="M290.6,378a25.792,25.792,0,1,0,25.779,25.788A25.792,25.792,0,0,0,290.6,378Zm0,48.133a18.382,18.382,0,1,1,0,.01Z" transform="translate(-209.914 -322.718)" opacity="0.1"/><path d="M805.508,571.659q-.351-.856-.72-1.707a5.067,5.067,0,0,0-.88-1.519,1.61,1.61,0,0,0-.516-.387,2.2,2.2,0,0,0-.673-.134,5.376,5.376,0,0,0-1.057-.028c-.137-.041-.291-.1-.444-.157a3.683,3.683,0,0,0,2.744-3.417v-.157a3.675,3.675,0,0,0-3.66-3.691,3.611,3.611,0,0,0-1.921.549,3.449,3.449,0,0,0-3.869,1.865,4.264,4.264,0,0,0-1.315,3.172v.163a3.693,3.693,0,0,0,3,3.773,1.718,1.718,0,0,0-.475.317,2.935,2.935,0,0,0-.637,1.945l-.039.516-.867.31a.16.16,0,0,0-.039.281l.828.591v.147a.644.644,0,0,0,.016.168,1.184,1.184,0,0,0-.32.457,2.109,2.109,0,0,0-.075.836l.031.72a5.652,5.652,0,0,0,.219,1.6c.108.32.578,1.091.916,1.1a33.372,33.372,0,0,0-.395,4.41c-.039.039.07.075.258.106.186,1.424.792,5.416,1.867,7.173a15.123,15.123,0,0,1,.4,1.744,33.4,33.4,0,0,0,.712,4.921,25.059,25.059,0,0,1,.694,4.013.4.4,0,0,0-.286.294c-.2.614-1.524,1.547-1.524,1.547a6.385,6.385,0,0,0-1.14.73c-.415.374-.4.712,1.444.5,3.559-.41,4.168-1.548,4.168-1.548s-.057-.191-.142-.438a4.762,4.762,0,0,0-.467-1.1c-.052-.049-.1.034-.165.163a22.088,22.088,0,0,1-.242-4.98,8.082,8.082,0,0,0-.407-2.974,5.628,5.628,0,0,1,0-1.947c.2-.82-.812-4.82-.812-4.82l-.583-2.945a.847.847,0,0,1,.163.343l.015.059.016.085a.159.159,0,0,0,.041.08c.4,1.651,1.486,6.224,1.486,6.894a10.939,10.939,0,0,0,1.016,2.871,19.322,19.322,0,0,0,1.117,4.715,6.836,6.836,0,0,1,.529,3.154h0a2.922,2.922,0,0,1-.325,1.047,2.492,2.492,0,0,0-.384.668l-.023.049s-.3.616-.1.72a5,5,0,0,0,2.44.307s.408-.516.408-.717a3.254,3.254,0,0,0-.046-.366c-.075-.485-.214-1.248-.217-1.256a3.519,3.519,0,0,0-.258-1.248l-.1-2.871a13.252,13.252,0,0,0-.712-5.744,9.531,9.531,0,0,1-.4-2.357c.111-.513-.2-5.948-.2-5.948l-.031-.077a5.876,5.876,0,0,1,.031-1.153,15.316,15.316,0,0,0-.408-3.895,3.38,3.38,0,0,1-.144-.849c.023-.214.093-.841.188-1.62a29.136,29.136,0,0,0,3-.258.374.374,0,0,0,.258-.1.361.361,0,0,0,.059-.209A10,10,0,0,0,805.508,571.659Zm-2.045,3.252c.106-.735.219-1.447.333-1.976l.015.046a14.339,14.339,0,0,1,.49,1.625A5.532,5.532,0,0,1,803.463,574.911Z" transform="translate(-602.026 -458.117)" fill="url(#a)"/><path d="M802.37,648.1s.609,5.476,1.927,7.6a14.762,14.762,0,0,1,.4,1.723,32.562,32.562,0,0,0,.709,4.864,26.84,26.84,0,0,1,.709,4.158s1.419,1.62,1.927.3a21.364,21.364,0,0,1-.3-5.272,7.937,7.937,0,0,0-.4-2.94,5.5,5.5,0,0,1,0-1.924c.2-.812-.812-4.764-.812-4.764l-.81-3.954Z" transform="translate(-608.834 -523.005)" fill="#be6f72"/><path d="M810.4,720.508s-.609,1.114-4.155,1.519c-1.842.209-1.854-.124-1.439-.5a6.424,6.424,0,0,1,1.135-.722s1.318-.91,1.519-1.519.913-.1.913-.1c1.014,1.519,1.217-.408,1.419-.2a4.575,4.575,0,0,1,.467,1.086C810.341,720.317,810.4,720.508,810.4,720.508Z" transform="translate(-610.475 -575.745)" fill="#ff6f61"/><path d="M810.4,723.676s-.609,1.114-4.155,1.519c-1.842.209-1.854-.124-1.439-.5.289.183.872.258,2.045-.214,1.689-.691,2.914-1.091,3.407-1.246C810.341,723.485,810.4,723.676,810.4,723.676Z" transform="translate(-610.475 -578.913)" opacity="0.1"/><path d="M815.349,661.482a7.939,7.939,0,0,0-.4-2.94,5.5,5.5,0,0,1,0-1.924c.2-.812-.812-4.764-.812-4.764l-.81-3.954-.7.041.8,3.913s1.014,3.951.813,4.764a5.5,5.5,0,0,0,0,1.924,7.708,7.708,0,0,1,.4,2.94,21.361,21.361,0,0,0,.3,5.272.888.888,0,0,1-.294.418.663.663,0,0,0,1-.418A21.361,21.361,0,0,1,815.349,661.482Z" transform="translate(-616.44 -523.005)" opacity="0.1"/><path d="M800.223,562.42a3.611,3.611,0,0,0-1.914.544,3.443,3.443,0,0,0-3.869,1.844,4.2,4.2,0,0,0-1.313,3.136c0,2.156,1.452,3.9,3.242,3.9a3.274,3.274,0,0,0,2.938-2.247,3.561,3.561,0,0,0,.913.119,3.65,3.65,0,0,0,0-7.3Z" transform="translate(-601.974 -459.572)" fill="#262626"/><path d="M820.53,650.65l.3.81s.3,5.372.2,5.881a9.579,9.579,0,0,0,.408,2.321,12.975,12.975,0,0,1,.709,5.674l.1,2.837s.4,1.114.2,1.318-1.731-.181-1.731-.181a7.229,7.229,0,0,0-.516-3.446A18.549,18.549,0,0,1,819.1,661.2a10.759,10.759,0,0,1-1.014-2.837c0-.81-1.622-7.4-1.622-7.4Z" transform="translate(-619.29 -525.046)" fill="#be6f72"/><path d="M801.558,631.9a25.562,25.562,0,0,1,.516-4.764,7.563,7.563,0,0,0,.451-1.617s6.136,1.109,6.644.7a8.8,8.8,0,0,0,.2,1.519,14.577,14.577,0,0,1,.4,3.853c-.111,1.217,0,1.215,0,1.215s-4.158.609-4.258,0-.4-.606-.4-.606S801.356,632.092,801.558,631.9Z" transform="translate(-608.225 -506.397)" fill="#262626"/><g transform="translate(193.332 119.827)" opacity="0.1"><path d="M804.925,649.659s-2.564-.07-3.338-.209v.209c-.2.2,3.549.3,3.549.3a.258.258,0,0,1,.139.057C805.139,649.659,804.925,649.659,804.925,649.659Z" transform="translate(-801.58 -643.982)"/><path d="M820.674,629.769a8.8,8.8,0,0,1-.2-1.519.436.436,0,0,1-.173.062,5.125,5.125,0,0,0,.173,1.153,16.1,16.1,0,0,1,.4,3.853c-.111,1.217,0,1.215,0,1.215s-3.289.482-4.085.16a1.219,1.219,0,0,0,.031.144c.1.609,4.258,0,4.258,0s-.1,0,0-1.215A15.068,15.068,0,0,0,820.674,629.769Z" transform="translate(-812.867 -628.25)"/><path d="M804.925,649.659s-2.564-.07-3.338-.209v.209c-.2.2,3.549.3,3.549.3a.258.258,0,0,1,.139.057C805.139,649.659,804.925,649.659,804.925,649.659Z" transform="translate(-801.58 -643.982)"/><path d="M820.674,629.769a8.8,8.8,0,0,1-.2-1.519.436.436,0,0,1-.173.062,5.125,5.125,0,0,0,.173,1.153,16.1,16.1,0,0,1,.4,3.853c-.111,1.217,0,1.215,0,1.215s-3.289.482-4.085.16a1.219,1.219,0,0,0,.031.144c.1.609,4.258,0,4.258,0s-.1,0,0-1.215A15.068,15.068,0,0,0,820.674,629.769Z" transform="translate(-812.867 -628.25)"/></g><path d="M812.622,584.181a1.344,1.344,0,0,0,.387.5.867.867,0,0,0,.364.157c-.227.132-.475.23-.7.361a12.475,12.475,0,0,0-1.032.774,2.1,2.1,0,0,1-1.184.459,1.45,1.45,0,0,0,.165-1.442,1.347,1.347,0,0,1-.181-.5.9.9,0,0,1,.5-.671c.193-.132.392-.258.593-.384.157-.1.395-.3.593-.3s.222.183.258.364A2.858,2.858,0,0,0,812.622,584.181Z" transform="translate(-614.822 -474.947)" fill="#be6f72"/><path d="M812.622,584.181a1.344,1.344,0,0,0,.387.5.867.867,0,0,0,.364.157c-.227.132-.475.23-.7.361a12.475,12.475,0,0,0-1.032.774,2.1,2.1,0,0,1-1.184.459,1.45,1.45,0,0,0,.165-1.442,1.347,1.347,0,0,1-.181-.5.9.9,0,0,1,.5-.671c.193-.132.392-.258.593-.384.157-.1.395-.3.593-.3s.222.183.258.364A2.858,2.858,0,0,0,812.622,584.181Z" transform="translate(-614.822 -474.947)" opacity="0.1"/><circle cx="2.332" cy="2.332" r="2.332" transform="translate(197.844 110.552)" fill="#be6f72"/><path d="M832.515,722.7c0,.2-.4.709-.4.709a5.02,5.02,0,0,1-2.432-.3c-.2-.1.1-.709.1-.709l.023-.049a2.459,2.459,0,0,1,.384-.66,2.886,2.886,0,0,0,.322-1.032c.629-1.032,1.746.446,1.746.446s.142.774.217,1.243A3.537,3.537,0,0,1,832.515,722.7Z" transform="translate(-629.046 -576.725)" fill="#ff6f61"/><path d="M832.515,728.6c0,.2-.4.709-.4.709a5.02,5.02,0,0,1-2.432-.3c-.2-.1.1-.709.1-.709l.023-.049a4.9,4.9,0,0,0,2.208.454l.462-.462C832.5,728.413,832.515,728.55,832.515,728.6Z" transform="translate(-629.046 -582.623)" opacity="0.1"/><circle cx="2.28" cy="2.28" r="2.28" transform="translate(193.232 105.737)" fill="#be6f72"/><path d="M800.775,598.385a2.863,2.863,0,0,0-.635,1.922l-.077,1.008a5.094,5.094,0,0,0-.018.818c0,.168.041.338.057.516s.021.4.023.606v1.491a1.758,1.758,0,0,0,.165.895.609.609,0,0,0,.774.279.882.882,0,0,0,.32-.5,7.7,7.7,0,0,0,.516-1.888c.021-.224.023-.449.044-.673s.059-.459.093-.686c.144-.949.209-1.909.273-2.865.018-.284.273-1.4-.1-1.524-.181-.059-.555.126-.727.188A2.047,2.047,0,0,0,800.775,598.385Z" transform="translate(-607.102 -485.808)" fill="#be6f72"/><path d="M800.775,598.385a2.863,2.863,0,0,0-.635,1.922l-.077,1.008a5.094,5.094,0,0,0-.018.818c0,.168.041.338.057.516s.021.4.023.606v1.491a1.758,1.758,0,0,0,.165.895.609.609,0,0,0,.774.279.882.882,0,0,0,.32-.5,7.7,7.7,0,0,0,.516-1.888c.021-.224.023-.449.044-.673s.059-.459.093-.686c.144-.949.209-1.909.273-2.865.018-.284.273-1.4-.1-1.524-.181-.059-.555.126-.727.188A2.047,2.047,0,0,0,800.775,598.385Z" transform="translate(-607.102 -485.808)" opacity="0.1"/><path d="M808.793,588.16a12.5,12.5,0,0,1-2.737,1.622s-.6.686-.7.851-.31,1.986-.516,2.394a1.937,1.937,0,0,0,0,2.228,3.864,3.864,0,0,1,.1,1.217c-.1.3-.469,1.419-.134,1.47s1.352.758,2.262.557,4.31.774,4.31.774a49.255,49.255,0,0,1,.97-6.146l-.913-.3s-2.533-1.519-1.014-3.851C810.415,588.972,808.991,588.668,808.793,588.16Z" transform="translate(-610.392 -478.673)" fill="#ff6f61"/><path d="M796.654,609.94l2.094,1.483a.155.155,0,0,0,.183,0L799.5,611a.16.16,0,0,0,0-.242l-1.612-1.432a.155.155,0,0,0-.157-.031l-1.034.371a.157.157,0,0,0-.041.276Z" transform="translate(-604.544 -494.348)" fill="#262626"/><path d="M798.813,617.667a5.611,5.611,0,0,1-.219-1.581l-.031-.714a2.064,2.064,0,0,1,.075-.825,1.349,1.349,0,0,1,.869-.761,3,3,0,0,1,1.184-.085.3.3,0,0,1,.152.041.283.283,0,0,1,.083.139.934.934,0,0,1,.046.745.773.773,0,0,1-.237.245c-.281.2-.609.335-.874.555a.318.318,0,0,0-.119.15.349.349,0,0,0,0,.162,2.594,2.594,0,0,0,.134.415.41.41,0,0,0,.116.175c.049.041.113.057.165.1.111.09.343.209.33.351a11.553,11.553,0,0,1-.469,1.6C799.785,619.377,798.963,618.1,798.813,617.667Z" transform="translate(-605.999 -497.608)" fill="#be6f72"/><g transform="translate(196.015 114.302)" opacity="0.1"><path d="M812.037,628.18h-.057a1.736,1.736,0,0,0,.663,0h.065A2.321,2.321,0,0,0,812.037,628.18Z" transform="translate(-811.98 -622.655)"/><path d="M829.966,606.83a46.787,46.787,0,0,0-1,6.126c.356.093.591.16.591.16a48.948,48.948,0,0,1,.965-6.133Z" transform="translate(-824.588 -606.83)"/></g><path d="M816.166,593.61a.774.774,0,0,0,.333.5,4.463,4.463,0,0,1,.591.6,4.238,4.238,0,0,1,.586,1.174,14.372,14.372,0,0,1,.487,1.6c-1.29.6-2.755.57-4.127.965a3.293,3.293,0,0,0-1.548.916,2.133,2.133,0,0,0-.57,1.679.219.219,0,0,0,.031.1.216.216,0,0,0,.181.072,1.548,1.548,0,0,0,.947-.325,4.507,4.507,0,0,0,.725-.712,1.166,1.166,0,0,1,.516-.382,8.441,8.441,0,0,1,2.321-.227,29.245,29.245,0,0,0,3.459-.273.279.279,0,0,0,.31-.31,9.922,9.922,0,0,0-1.032-4.418q-.348-.849-.717-1.689a5,5,0,0,0-.877-1.5,1.547,1.547,0,0,0-.516-.382,2.183,2.183,0,0,0-.691-.129,4.9,4.9,0,0,0-1.132-.021,2.413,2.413,0,0,0-.108.585,5.071,5.071,0,0,0,.624,1.978C816,593.512,816.107,593.517,816.166,593.61Z" transform="translate(-615.911 -480.654)" fill="#be6f72"/><path d="M811.667,606.67a1.89,1.89,0,0,0-.258.985,1.327,1.327,0,0,0,.065.4,1.305,1.305,0,0,0,.823.774" transform="translate(-615.541 -492.409)" fill="none" stroke="#000" stroke-miterlimit="10" stroke-width="1" opacity="0.1"/><path d="M804.068,571.482a1.187,1.187,0,0,0-.374.059,2.473,2.473,0,0,0-2.063-.872c-1.233,0-2.231.637-2.231,1.421s1,1.419,2.231,1.419a3.139,3.139,0,0,0,1.339-.284,1.215,1.215,0,1,0,1.094-1.744Z" transform="translate(-606.63 -465.694)" fill="#262626"/><path d="M804.154,576.415a1.212,1.212,0,0,1-1.094-.689,3.139,3.139,0,0,1-1.339.284c-1.23,0-2.228-.634-2.228-1.419a.861.861,0,0,1,0-.142.963.963,0,0,0-.114.446c0,.774,1,1.419,2.231,1.419a3.139,3.139,0,0,0,1.339-.284,1.215,1.215,0,0,0,2.288-.3A1.21,1.21,0,0,1,804.154,576.415Z" transform="translate(-606.615 -468.499)" opacity="0.1"/><path d="M794.413,565.407a3.443,3.443,0,0,1,3.869-1.844,3.647,3.647,0,0,1,5.55,2.8v-.3a3.647,3.647,0,0,0-5.563-3.1,3.443,3.443,0,0,0-3.869,1.844,4.2,4.2,0,0,0-1.313,3.136v.3A4.127,4.127,0,0,1,794.413,565.407Z" transform="translate(-601.945 -459.572)" opacity="0.1"/><path d="M880.063,497.991c.673-1.246-.09-2.775-.97-3.887s-1.947-2.267-1.924-3.686c.031-2.035,2.192-3.237,3.92-4.318a19.059,19.059,0,0,0,3.518-2.837,5.14,5.14,0,0,0,1.083-1.447,5.943,5.943,0,0,0,.325-2.579q-.114-4.359-.431-8.707" transform="translate(-664.34 -391.382)" fill="none" stroke="#262626" stroke-miterlimit="10" stroke-width="4"/><path d="M904.26,461.222a3.17,3.17,0,0,0-1.584-2.6l-.712,1.406.021-1.7a3.115,3.115,0,0,0-1.045-.126,3.175,3.175,0,1,0,3.319,3.023Z" transform="translate(-679.734 -382.229)" fill="#f35"/><path d="M883.311,539.947a3.175,3.175,0,1,1,.152-2.559L881.479,539l2.182-.516a3.158,3.158,0,0,1-.351,1.46Z" transform="translate(-664.447 -439.462)" fill="#f35"/><path d="M884.915,511.092a3.175,3.175,0,0,1-1.008-6.229l-.016,1.308.72-1.421h0a3.176,3.176,0,1,1,.3,6.345Z" transform="translate(-667.619 -416.774)" fill="#f35"/><path d="M914.77,491.212a3.175,3.175,0,1,1,1.406-5.932l-.562,1.548,1.156-1.109a3.157,3.157,0,0,1,1.032,2.192,3.065,3.065,0,0,1-.08.874A3.175,3.175,0,0,1,914.77,491.212Z" transform="translate(-689.767 -402.021)" fill="#f35"/><path d="M903.825,467.073c-.732.083-1.447.31-2.182.356a2.365,2.365,0,0,1-2.009-.7,9.852,9.852,0,0,1-.586-1.032,2.282,2.282,0,0,0-.8-.753,3.175,3.175,0,1,0,5.932,2.107C904.062,467.052,903.943,467.06,903.825,467.073Z" transform="translate(-679.725 -387.234)" opacity="0.1"/><path d="M914.807,496.439a3.178,3.178,0,0,1-3.02-4.529,2.35,2.35,0,0,1,.64.637,10.176,10.176,0,0,0,.629,1.05,2.584,2.584,0,0,0,2.1.738c.766-.036,1.506-.258,2.27-.322.106,0,.214-.018.32-.021A3.175,3.175,0,0,1,914.807,496.439Z" transform="translate(-689.805 -407.248)" opacity="0.1"/><path d="M884.916,516.475A3.172,3.172,0,0,1,881.87,512a2.618,2.618,0,0,1,.671.645c.258.348.4.75.689,1.07a2.939,2.939,0,0,0,2.249.789c.812-.018,1.547-.212,2.321-.271A3.175,3.175,0,0,1,884.916,516.475Z" transform="translate(-667.62 -422.156)" opacity="0.1"/><path d="M883.363,545.839a3.178,3.178,0,0,1-5.79-2.579,3.111,3.111,0,0,1,.7.622c.3.369.5.774.851,1.13a3.988,3.988,0,0,0,2.631.923A13.923,13.923,0,0,0,883.363,545.839Z" transform="translate(-664.499 -445.354)" opacity="0.1"/><path d="M1039.063,649.991c.673-1.246-.09-2.775-.97-3.887s-1.947-2.267-1.924-3.686c.031-2.035,2.192-3.237,3.92-4.318a19.06,19.06,0,0,0,3.518-2.837,5.141,5.141,0,0,0,1.083-1.447,5.943,5.943,0,0,0,.325-2.579q-.111-4.359-.431-8.707" transform="translate(-782.331 -504.178)" fill="none" stroke="#262626" stroke-miterlimit="10" stroke-width="4"/><path d="M1063.3,613.224a3.17,3.17,0,0,0-1.584-2.6l-.712,1.406.021-1.7a3.113,3.113,0,0,0-1.032-.126,3.175,3.175,0,1,0,3.319,3.023Z" transform="translate(-797.762 -495.027)" fill="#f35"/><path d="M1042.311,691.948a3.175,3.175,0,1,1,.152-2.559L1040.479,691l2.182-.516A3.156,3.156,0,0,1,1042.311,691.948Z" transform="translate(-782.437 -552.258)" fill="#f35"/><path d="M1043.915,663.093a3.175,3.175,0,0,1-1.008-6.229l-.016,1.308.72-1.421h0a3.176,3.176,0,1,1,.3,6.345Z" transform="translate(-785.61 -529.57)" fill="#f35"/><path d="M1073.77,643.212a3.175,3.175,0,1,1,1.406-5.932l-.562,1.548,1.156-1.109a3.157,3.157,0,0,1,1.032,2.192,3.067,3.067,0,0,1-.08.874A3.175,3.175,0,0,1,1073.77,643.212Z" transform="translate(-807.758 -514.817)" fill="#f35"/><path d="M1062.825,619.073c-.732.083-1.447.31-2.182.356a2.366,2.366,0,0,1-2.009-.7,9.837,9.837,0,0,1-.585-1.032,2.283,2.283,0,0,0-.8-.753,3.175,3.175,0,1,0,5.932,2.107C1063.062,619.052,1062.943,619.06,1062.825,619.073Z" transform="translate(-797.715 -500.03)" opacity="0.1"/><path d="M1073.808,648.439a3.177,3.177,0,0,1-3.02-4.529,2.352,2.352,0,0,1,.64.637,10.182,10.182,0,0,0,.629,1.05,2.583,2.583,0,0,0,2.1.738c.766-.036,1.506-.258,2.27-.322.106,0,.214-.018.32-.021A3.175,3.175,0,0,1,1073.808,648.439Z" transform="translate(-807.795 -520.044)" opacity="0.1"/><path d="M1043.916,668.475A3.172,3.172,0,0,1,1040.87,664a2.618,2.618,0,0,1,.671.645c.258.348.4.751.689,1.07a2.939,2.939,0,0,0,2.249.789c.813-.018,1.547-.211,2.321-.271A3.175,3.175,0,0,1,1043.916,668.475Z" transform="translate(-785.611 -534.952)" opacity="0.1"/><path d="M1042.363,697.839a3.178,3.178,0,0,1-5.79-2.579,3.11,3.11,0,0,1,.7.622c.3.369.516.774.851,1.13a3.988,3.988,0,0,0,2.631.923A13.908,13.908,0,0,0,1042.363,697.839Z" transform="translate(-782.489 -558.15)" opacity="0.1"/><path d="M430.505,567.072a2.53,2.53,0,0,0-1.008-2.043,139.672,139.672,0,0,0-4.452-5.115h0a2.518,2.518,0,0,0-.366-.085h-.436a2.9,2.9,0,0,0-2.806,2.481c-.905-.209-1.733.062-1.885.635a.774.774,0,0,0,.026.459,2,2,0,0,0,1.331,1.078l.088.026.132.034h.028a2.28,2.28,0,0,0-.217.978,2.254,2.254,0,0,0,1.215,2.012l-.059.036a.8.8,0,0,0-.2.273,4.091,4.091,0,0,0-.379.913c-.065.273-.075.557-.155.828-.15.5-.531.918-.575,1.437-.021.232.018.516-.147.665a.8.8,0,0,1-.132.093,1.065,1.065,0,0,0-.286.3,1,1,0,0,1-.2.289c-.15.111-.395.1-.467.273s.116.377.072.565-.2.224-.32.33a1.148,1.148,0,0,0-.276.516,1.692,1.692,0,0,1-1.393-.356,2.6,2.6,0,0,1,.144.516,2.259,2.259,0,0,0-.751-.377,2.37,2.37,0,0,1-.8-.593l.428-.059-1.891-2.886-.56-.116.5.962a.307.307,0,0,0-.17.2.874.874,0,0,0-.018.328,5.868,5.868,0,0,0,.129.774l.144.676c.013.062.028.126.046.188a1.775,1.775,0,0,0-.56.062,4.871,4.871,0,0,0-1.163-.276.646.646,0,0,0-.258,0,.668.668,0,0,0-.245.2,7.933,7.933,0,0,0-.864,1.217,42.5,42.5,0,0,1-3.647,4.913c-.877.356-1.762.694-2.646,1.032l-1.9.727a2.885,2.885,0,0,1-1.181.258c-.181,0-.4-.039-.516.116a1.086,1.086,0,0,0-.116.258l-.2.021h0a2.254,2.254,0,0,0-.457-.841.289.289,0,0,0-.214.165c-.046.085-.075.178-.129.258-.1.15-.279.222-.4.348s-.206.322-.346.451a1.367,1.367,0,0,1-.647.258,4.084,4.084,0,0,0-1.014.384,1.633,1.633,0,0,1-.374.173,1.4,1.4,0,0,1-.441.015l-1.006-.075a.8.8,0,0,0-.271.013.516.516,0,0,0-.32.516.813.813,0,0,0,.32.555,2.047,2.047,0,0,0,.573.3,16.8,16.8,0,0,0,2.682.794v.2a4.577,4.577,0,0,0,2.063.49.32.32,0,0,0,.155-.028.341.341,0,0,0,.129-.2,8.3,8.3,0,0,0,.4-1.976h0a1.031,1.031,0,0,0,.364-.093c.346-.1.691.142,1.05.181a2.867,2.867,0,0,0,1.266-.366l.181-.059a1.979,1.979,0,0,1-.418.4c-.173.124-.366.217-.534.346a3.673,3.673,0,0,1-.454.351,2.841,2.841,0,0,1-.348.134,2.3,2.3,0,0,0-.5.258,1.008,1.008,0,0,0-.338.33.5.5,0,0,0-.028.464.49.49,0,0,0,.333.232,1.366,1.366,0,0,0,.41,0c.547-.041,1.091-.09,1.635-.139a4.354,4.354,0,0,0,.683-.1c.119-.028.237-.067.356-.1a3.178,3.178,0,0,1,.622-.093.515.515,0,0,1,.181.018c.126.041.217.17.346.2a.516.516,0,0,0,.258-.034,5.753,5.753,0,0,1,1.21-.129.5.5,0,0,0,.469-.209c.083-.165-.067-.431-.134-.65a1.987,1.987,0,0,1-.057-.428,2.68,2.68,0,0,0-.3-1.016,2.652,2.652,0,0,1-.224-.464,11.73,11.73,0,0,0,2.226-1.13,3.98,3.98,0,0,1,1.269-.611,3.451,3.451,0,0,1,1.594.186,36.261,36.261,0,0,1,3.655,1.274c.57.235,1.137.482,1.725.66a2.69,2.69,0,0,0,.614.6,2.838,2.838,0,0,0,1.328.364,17.4,17.4,0,0,0,1.87.07,3.154,3.154,0,0,0,1.393-.258,1.432,1.432,0,0,0,.291-.193,1.155,1.155,0,0,0,.918-.338,2.226,2.226,0,0,0,.7-1.1c.152-.588.036-1.29.4-1.759.1-.129.222-.232.317-.361a1.016,1.016,0,0,0,.165-.6.122.122,0,0,1,.015-.023,2.185,2.185,0,0,0,.155-.593,3.392,3.392,0,0,1,.168-.469,14.491,14.491,0,0,0,.48-1.39,8.12,8.12,0,0,0,.222-.954c.039-.258.062-.516.083-.774a4.805,4.805,0,0,1,.235-1.194,9.718,9.718,0,0,0,.542-2.858v-.057a1.916,1.916,0,0,0,1.7-1.95,2.035,2.035,0,0,0-.178-.833A2.579,2.579,0,0,0,430.505,567.072Zm-9.228,11.212c.028.1.062.2.1.3-.152-.147-.3-.3-.451-.449.059.021.121.039.178.062a.965.965,0,0,1,.17.09Zm-.73-.5c-.892-.774-1.924-1.375-2.837-2.125.5.245.983.531,1.462.8q.854.487,1.731.936a1.416,1.416,0,0,1-.364.384Zm.379-1.95.044-.044v.307l-.24-.083a2.143,2.143,0,0,0,.188-.181Zm-7.849,2.089a7.384,7.384,0,0,0,.949-1.354,9.115,9.115,0,0,0,1.416,1.581C414.656,578.055,413.867,577.97,413.078,577.928Z" transform="translate(-307.219 -457.65)" fill="url(#b)"/><path d="M415.35,438.25l.562.113,1.916,2.835-.843.113Z" transform="translate(-308.222 -325.482)" fill="#2f2e41"/><path d="M414.49,645.379a11.036,11.036,0,0,0,.562,1.462,13.924,13.924,0,0,0,1.87-.534,5.9,5.9,0,0,0-.389-.516,1.924,1.924,0,0,0-.529-.4,1.454,1.454,0,0,0-.642,0C415.073,645.379,414.781,645.384,414.49,645.379Z" transform="translate(-320.996 -521.113)" fill="#fbbebe"/><path d="M402.144,643.8a1.166,1.166,0,0,1-.64-.727,2.342,2.342,0,0,0-.487-.869.279.279,0,0,0-.217.163c-.046.083-.075.175-.126.258-.1.147-.284.219-.413.343s-.206.317-.346.444a1.372,1.372,0,0,1-.653.258,4.228,4.228,0,0,0-1.032.379,1.78,1.78,0,0,1-.379.17,1.5,1.5,0,0,1-.444,0l-1.016-.072a.8.8,0,0,0-.258,0,.493.493,0,0,0-.322.516.774.774,0,0,0,.322.547,2.14,2.14,0,0,0,.578.294,17,17,0,0,0,2.724.774v.2a4.714,4.714,0,0,0,2.076.482.35.35,0,0,0,.155-.026.34.34,0,0,0,.129-.2,8.048,8.048,0,0,0,.426-2.208,1.758,1.758,0,0,0-.044-.57c-.057-.183.134-.106-.041-.178" transform="translate(-307.133 -518.775)" fill="#2f2e41"/><path d="M438.376,631.227c-3.013.181-5.989-.7-9.007-.794a4.4,4.4,0,0,0-1.119.07,5.637,5.637,0,0,0-1.109.431c-1.617.753-3.291,1.377-4.962,2l-1.922.714a2.909,2.909,0,0,1-1.189.258c-.183,0-.408-.039-.516.113a1.881,1.881,0,0,0,.041,1.664c.067.168.181.351.361.369a1.05,1.05,0,0,0,.366-.093c.348-.093.7.142,1.057.181a2.972,2.972,0,0,0,1.277-.361,11.077,11.077,0,0,1,2.187-.371,9.8,9.8,0,0,0,3.425-1.421,4,4,0,0,1,1.277-.6,3.534,3.534,0,0,1,1.607.183,36.869,36.869,0,0,1,3.686,1.254,17.184,17.184,0,0,0,1.924.7,6.963,6.963,0,0,0,4.315-.258c.482-.191,1.006-.516,1.032-1.047.018-.3-.214-.557-.366-.812-.1-.162-.2-.325-.3-.482C439.921,632.174,439.292,631.173,438.376,631.227Z" transform="translate(-323.877 -510.036)" fill="#2f2e41"/><path d="M438.376,631.227c-3.013.181-5.989-.7-9.007-.794a4.4,4.4,0,0,0-1.119.07,5.637,5.637,0,0,0-1.109.431c-1.617.753-3.291,1.377-4.962,2l-1.922.714a2.909,2.909,0,0,1-1.189.258c-.183,0-.408-.039-.516.113a1.881,1.881,0,0,0,.041,1.664c.067.168.181.351.361.369a1.05,1.05,0,0,0,.366-.093c.348-.093.7.142,1.057.181a2.972,2.972,0,0,0,1.277-.361,11.077,11.077,0,0,1,2.187-.371,9.8,9.8,0,0,0,3.425-1.421,4,4,0,0,1,1.277-.6,3.534,3.534,0,0,1,1.607.183,36.869,36.869,0,0,1,3.686,1.254,17.184,17.184,0,0,0,1.924.7,6.963,6.963,0,0,0,4.315-.258c.482-.191,1.006-.516,1.032-1.047.018-.3-.214-.557-.366-.812-.1-.162-.2-.325-.3-.482C439.921,632.174,439.292,631.173,438.376,631.227Z" transform="translate(-323.877 -510.036)" opacity="0.1"/><path d="M436.92,642.391q.707.24,1.426.444c.258-.441.774-.748.885-1.253a.119.119,0,0,0,0-.067.124.124,0,0,0-.054-.049,2.7,2.7,0,0,0-1.119-.328c-.31-.018-.451.3-.591.531C437.413,641.77,437.046,642.44,436.92,642.391Z" transform="translate(-337.641 -517.986)" fill="#fbbebe"/><path d="M426.077,642.721a1.031,1.031,0,0,1-.694-.457c-.064-.116-.137-.273-.271-.258s-.178.155-.206.276a7.734,7.734,0,0,1-.389,1.339,2.512,2.512,0,0,1-.833,1.1c-.175.121-.369.211-.542.34a3.722,3.722,0,0,1-.457.346,2.7,2.7,0,0,1-.351.129,2.431,2.431,0,0,0-.5.258.993.993,0,0,0-.343.328.472.472,0,0,0-.026.456.488.488,0,0,0,.333.227,1.4,1.4,0,0,0,.415,0c.549-.039,1.1-.088,1.648-.137a4.761,4.761,0,0,0,.689-.1l.359-.1a2.851,2.851,0,0,1,.627-.093.487.487,0,0,1,.183.018c.126.041.217.168.348.193a.584.584,0,0,0,.258-.034,5.7,5.7,0,0,1,1.22-.126.515.515,0,0,0,.475-.206c.1-.2-.067-.426-.137-.642a2.062,2.062,0,0,1-.057-.42,2.564,2.564,0,0,0-.3-1c-.139-.258-.33-.542-.232-.815a.774.774,0,0,0,.093-.281C427.346,642.621,426.33,642.778,426.077,642.721Z" transform="translate(-326.138 -518.631)" fill="#2f2e41"/><path d="M471.118,607.179a2.352,2.352,0,0,1-1.2-1.192c-.049-.114-.09-.235-.139-.348a2.646,2.646,0,0,0-.717-1,.353.353,0,0,0-.258-.111.281.281,0,0,0-.193.209.8.8,0,0,0-.021.322,5.74,5.74,0,0,0,.129.753l.147.665a1.46,1.46,0,0,0,.09.3,1.031,1.031,0,0,0,.245.291c.134.124.271.242.408.361a1.4,1.4,0,0,0,.258.178,1.5,1.5,0,0,0,.457.134,3.884,3.884,0,0,1,1.713.66v-.5a.655.655,0,0,0-.129-.359A2.287,2.287,0,0,0,471.118,607.179Z" transform="translate(-361.135 -490.821)" fill="#fbbebe"/><path d="M471.118,607.179a2.352,2.352,0,0,1-1.2-1.192c-.049-.114-.09-.235-.139-.348a2.646,2.646,0,0,0-.717-1,.353.353,0,0,0-.258-.111.281.281,0,0,0-.193.209.8.8,0,0,0-.021.322,5.74,5.74,0,0,0,.129.753l.147.665a1.46,1.46,0,0,0,.09.3,1.031,1.031,0,0,0,.245.291c.134.124.271.242.408.361a1.4,1.4,0,0,0,.258.178,1.5,1.5,0,0,0,.457.134,3.884,3.884,0,0,1,1.713.66v-.5a.655.655,0,0,0-.129-.359A2.287,2.287,0,0,0,471.118,607.179Z" transform="translate(-361.135 -490.821)" opacity="0.1"/><ellipse cx="0.732" cy="0.738" rx="0.732" ry="0.738" transform="translate(115.384 109.791)" fill="#2f2e41"/><path d="M485.858,590.417a.792.792,0,0,0-.578.083.8.8,0,0,0-.2.271,3.935,3.935,0,0,0-.382.9c-.064.258-.075.549-.157.815-.15.49-.534.905-.578,1.416-.021.23.018.5-.15.653a.945.945,0,0,1-.132.1.99.99,0,0,0-.289.3.973.973,0,0,1-.2.281c-.15.111-.4.1-.469.258s.116.371.072.557-.206.222-.322.325a1.127,1.127,0,0,0-.279.516,1.72,1.72,0,0,1-1.4-.348,4.467,4.467,0,0,1,.219,1.6.655.655,0,0,1-.129.5,8.938,8.938,0,0,1,1.72.3,1.186,1.186,0,0,0,.751,0,1.252,1.252,0,0,0,.346-.273,2.2,2.2,0,0,0,.709-1.094,6.428,6.428,0,0,0,.013-.74,4.173,4.173,0,0,1,.188-.9,10.712,10.712,0,0,0,.328-1.852c.034-.387.369-.7.544-1.032a5.052,5.052,0,0,0,.694-2.063C486.183,590.74,486.1,590.443,485.858,590.417Z" transform="translate(-370.196 -480.332)" fill="#2f2e41"/><path d="M485.858,590.417a.792.792,0,0,0-.578.083.8.8,0,0,0-.2.271,3.935,3.935,0,0,0-.382.9c-.064.258-.075.549-.157.815-.15.49-.534.905-.578,1.416-.021.23.018.5-.15.653a.945.945,0,0,1-.132.1.99.99,0,0,0-.289.3.973.973,0,0,1-.2.281c-.15.111-.4.1-.469.258s.116.371.072.557-.206.222-.322.325a1.127,1.127,0,0,0-.279.516,1.72,1.72,0,0,1-1.4-.348,4.467,4.467,0,0,1,.219,1.6.655.655,0,0,1-.129.5,8.938,8.938,0,0,1,1.72.3,1.186,1.186,0,0,0,.751,0,1.252,1.252,0,0,0,.346-.273,2.2,2.2,0,0,0,.709-1.094,6.428,6.428,0,0,0,.013-.74,4.173,4.173,0,0,1,.188-.9,10.712,10.712,0,0,0,.328-1.852c.034-.387.369-.7.544-1.032a5.052,5.052,0,0,0,.694-2.063C486.183,590.74,486.1,590.443,485.858,590.417Z" transform="translate(-370.196 -480.332)" opacity="0.1"/><path d="M454.5,618.148a6.8,6.8,0,0,1-1.594-1.331c-.967-.911-2.151-1.548-3.17-2.406a22.332,22.332,0,0,0-2.02-1.7,5.047,5.047,0,0,0-2.164-.756.575.575,0,0,0-.258,0,.593.593,0,0,0-.245.193,7.793,7.793,0,0,0-.874,1.2,70.517,70.517,0,0,1-4.643,6.071.387.387,0,0,0-.075.144.359.359,0,0,0,.057.224l.309.6c.173.34.451.735.823.668a.9.9,0,0,0,.431-.276l1.388-1.328,1.455-1.39a11.157,11.157,0,0,0,2.275-2.687,20.042,20.042,0,0,0,1.731,1.934c.2.258.366.549.547.828.286.444.614.861.939,1.29l1.669,2.128a3.192,3.192,0,0,0,.774.774,2.953,2.953,0,0,0,1.339.359,17.673,17.673,0,0,0,1.885.067,3.25,3.25,0,0,0,1.406-.258,1.274,1.274,0,0,0,.761-1.132,1.661,1.661,0,0,0-.24-.7A5.749,5.749,0,0,0,454.5,618.148Z" transform="translate(-339.523 -496.322)" fill="#2f2e41"/><ellipse cx="0.565" cy="0.567" rx="0.565" ry="0.567" transform="translate(116.003 110.472)" fill="#e8e8f0"/><path d="M501.244,587.432a1.086,1.086,0,0,1,.062.815,3.305,3.305,0,0,1-.364.751,3.57,3.57,0,0,1-.472.671,4.858,4.858,0,0,0,2.481-.712,3.6,3.6,0,0,0,1.566-1.364.722.722,0,0,1-.578-.108,2.064,2.064,0,0,1-.441-.41l-.436-.49a1.965,1.965,0,0,1-.258-.353.975.975,0,0,1-.116-.57,3.317,3.317,0,0,1-.578.48c-.312.2-.655.351-.97.552-.108.072-.356.186-.291.33S501.156,587.277,501.244,587.432Z" transform="translate(-384.8 -476.818)" fill="#fbbebe"/><path d="M501.244,587.432a1.086,1.086,0,0,1,.062.815,3.305,3.305,0,0,1-.364.751,3.57,3.57,0,0,1-.472.671,4.858,4.858,0,0,0,2.481-.712,3.6,3.6,0,0,0,1.566-1.364.722.722,0,0,1-.578-.108,2.064,2.064,0,0,1-.441-.41l-.436-.49a1.965,1.965,0,0,1-.258-.353.975.975,0,0,1-.116-.57,3.317,3.317,0,0,1-.578.48c-.312.2-.655.351-.97.552-.108.072-.356.186-.291.33S501.156,587.277,501.244,587.432Z" transform="translate(-384.8 -476.818)" opacity="0.1"/><path d="M493.633,592.6a.735.735,0,0,0,0,.851c.026.031.119.224.157.227a.142.142,0,0,0,.1-.052,6.475,6.475,0,0,0,.552-.658,1.227,1.227,0,0,1,.7-.459,1.517,1.517,0,0,1,.967.3.918.918,0,0,1,.333.258.9.9,0,0,1,.108.369,17.765,17.765,0,0,1,.1,2.344,9.24,9.24,0,0,1-.111,1.689c-.057.286-.139.567-.178.859a5.481,5.481,0,0,0-.036.774v1.078a2.837,2.837,0,0,0,.041.591c.052.235.162.454.237.683a4.471,4.471,0,0,1,.157.807l.147,1.114a1.409,1.409,0,0,1-.132,1.032c-.1.126-.222.23-.32.356-.364.475-.258,1.153-.4,1.733a2.161,2.161,0,0,1-.707,1.083,1.168,1.168,0,0,1-.931.333,1.276,1.276,0,0,1-.849-1,4.011,4.011,0,0,0-.436-1.308,3.467,3.467,0,0,0-.861-.72,1.488,1.488,0,0,1-.673-.874c-.028-.162,0-.33-.028-.5a1.168,1.168,0,0,0-.72-.947c-.232-.09-.516-.124-.65-.335a1.565,1.565,0,0,0,.678-.91,4.676,4.676,0,0,0,.165-1.15l.077-1.29a4.308,4.308,0,0,1,.307-1.674c.113-.232.258-.451.374-.681a7.38,7.38,0,0,0,.4-1c.186-.531.371-1.063.536-1.6a3.013,3.013,0,0,1,.294-.745C493.171,592.94,493.372,592.649,493.633,592.6Z" transform="translate(-377.179 -481.898)" fill="#e8e8f0"/><path d="M492.254,600.343h.343l.072-.516a1.074,1.074,0,0,1,.072-.3,1.8,1.8,0,0,1,.2-.289,3.771,3.771,0,0,0,.395-1.689,8.6,8.6,0,0,1,.753-2.208l.665-1.483a2.044,2.044,0,0,0,.144-.379,2.276,2.276,0,0,0,.041-.438c0-.23.072-1.065.08-1.29,0-.085-.188-.039-.227-.113-.083-.165-.2.281-.353.379a.867.867,0,0,0-.307.449c-.144.371-.232.774-.366,1.143a2.334,2.334,0,0,1-.622,1.011c-.137.119-.294.214-.423.343a2.315,2.315,0,0,0-.467,1.638C492.244,596.954,492.177,600.343,492.254,600.343Z" transform="translate(-378.676 -481.225)" fill="#2f2e41"/><path d="M502.5,590.369a1.171,1.171,0,0,0-.611.838,4.24,4.24,0,0,1-.31,1.032c-.418.727-1.483.939-1.78,1.725a3.173,3.173,0,0,0-.119.812c-.052.565-.237,1.109-.294,1.671a7.449,7.449,0,0,0,.031,1.313l.374,4.441a5.933,5.933,0,0,1-.111,1.955,1.883,1.883,0,0,0,1.119-.186c.348-.16.668-.379,1.006-.565a10.361,10.361,0,0,0,1.725-.97,1.055,1.055,0,0,0,.232-.258,2.231,2.231,0,0,0,.155-.583,3.149,3.149,0,0,1,.168-.459,13.523,13.523,0,0,0,.485-1.372,7.882,7.882,0,0,0,.222-.939c.041-.258.064-.516.085-.774a4.54,4.54,0,0,1,.237-1.173,9.453,9.453,0,0,0,.544-2.817,1.472,1.472,0,0,0-.028-.413,2.207,2.207,0,0,0-.227-.472c-.155-.291-.258-.611-.392-.908a4.466,4.466,0,0,0-1.524-1.6A1.161,1.161,0,0,0,502.5,590.369Z" transform="translate(-383.983 -480.287)" fill="#2f2e41"/><path d="M469.671,614.261a2.688,2.688,0,0,1-.709-.539c-.093-.108-.17-.23-.258-.338a1.757,1.757,0,0,0-.892-.516,4.358,4.358,0,0,0-1.032-.1,1.87,1.87,0,0,0-.689.083.7.7,0,0,0-.457.49.813.813,0,0,0,.348.722,1.641,1.641,0,0,0,.694.335,5.557,5.557,0,0,0,.627.075,9.125,9.125,0,0,1,3.415,1.411q1.424.81,2.9,1.506a6.035,6.035,0,0,0,.049-.89c0-.222-.018-.562-.227-.694a4.551,4.551,0,0,0-.923-.276,14.529,14.529,0,0,1-1.86-.753A9.247,9.247,0,0,1,469.671,614.261Z" transform="translate(-358.948 -496.931)" fill="#fbbebe"/><ellipse cx="2.197" cy="2.21" rx="2.197" ry="2.21" transform="translate(113.919 105.941)" fill="#fbbebe"/><path d="M498.341,599.374a3.523,3.523,0,0,0-.426.8c-.258.557-.7,1.032-.91,1.622s-.217,1.349-.658,1.831a.642.642,0,0,0-.193.279,1.333,1.333,0,0,1-.021.2c-.065.175-.351.183-.4.364-.015.052,0,.108-.026.16-.044.116-.2.134-.3.2-.214.144-.17.48-.322.689a.58.58,0,0,1-.549.193,1.936,1.936,0,0,1-.57-.214.549.549,0,0,0-.206-.064.425.425,0,0,0-.237.083,1.462,1.462,0,0,0-.593,1.251,4.086,4.086,0,0,0,.34,1.4.562.562,0,0,0,.111.209.493.493,0,0,0,.547.041,2.579,2.579,0,0,1,.534-.24c.34-.062.673.173,1.019.152a1.417,1.417,0,0,0,.686-.3,3.793,3.793,0,0,0,.923-.774c.15-.2.258-.423.392-.635a8.126,8.126,0,0,1,.555-.74l1.269-1.547a3.561,3.561,0,0,0,.34-.469,3.307,3.307,0,0,0,.258-.709,5.434,5.434,0,0,0,.258-1.261,4.848,4.848,0,0,0-.093-1.057,3.739,3.739,0,0,0-.258-1.008C499.53,599.245,498.859,598.771,498.341,599.374Z" transform="translate(-379.2 -486.787)" fill="#2f2e41"/><path d="M499.218,568.367a2.476,2.476,0,0,0-1.016-2.012,2.943,2.943,0,0,0-2.5-2.865,2.855,2.855,0,0,0-5.625.152c-.913-.206-1.749.062-1.9.624s.493,1.29,1.455,1.548a2.711,2.711,0,0,0,.934.093,2.858,2.858,0,0,0,1.965,1.225,2.933,2.933,0,0,0,2.146,2.213,2.463,2.463,0,0,0,.663.916v.214a1.86,1.86,0,0,0,3.719,0,1.986,1.986,0,0,0-.178-.823A2.486,2.486,0,0,0,499.218,568.367Z" transform="translate(-375.661 -458.663)" fill="#f86d70"/><path d="M488.788,564.381c.152-.562.988-.831,1.9-.624a2.9,2.9,0,0,1,2.837-2.445h.188a2.8,2.8,0,0,0-.81-.121,2.9,2.9,0,0,0-2.837,2.445c-.913-.206-1.749.062-1.9.624s.493,1.29,1.455,1.548a2.836,2.836,0,0,0,.552.1C489.252,565.626,488.635,564.956,488.788,564.381Z" transform="translate(-375.653 -458.659)" opacity="0.1"/><path d="M503.046,584.411a1.932,1.932,0,0,1,0-.211,2.409,2.409,0,0,1-.663-.916,2.925,2.925,0,0,1-2.146-2.216,2.85,2.85,0,0,1-1.968-1.223,2.476,2.476,0,0,1-.549-.015,2.865,2.865,0,0,0,1.9,1.127,2.933,2.933,0,0,0,2.146,2.213,2.463,2.463,0,0,0,.663.916v.214a1.893,1.893,0,0,0,1.849,1.924A1.924,1.924,0,0,1,503.046,584.411Z" transform="translate(-382.759 -472.492)" opacity="0.1"/><ellipse cx="0.338" cy="0.451" rx="0.338" ry="0.451" transform="translate(116.309 108.448) rotate(-37.22)" fill="#fbbebe"/></g></svg>