<svg xmlns="http://www.w3.org/2000/svg" width="233.046" height="228.421" viewBox="0 0 233.046 228.421"><g transform="translate(-90.617 -75.669)"><g transform="translate(90.999 75.669)"><ellipse cx="113.958" cy="7.544" rx="113.958" ry="7.544" transform="translate(2.84 111.126)" fill="#f2f2f2"/><path d="M467.727,324.894c-18.567,0-31.9,11.912-31.9,39.707,0,31.5,13.331,39.839,31.9,39.839s32.692-9.133,32.692-39.839C500.419,331.777,486.294,324.894,467.727,324.894Zm.122,69.09c-12.86,0-19.578-7.545-19.578-29.363,0-19.251,6.994-29.4,19.853-29.4s19.853,6.669,19.853,29.4c0,21.268-7.269,29.363-20.128,29.363Z" transform="translate(-355.296 -288.814)" fill="#2f2e41"/><path d="M175.433,393.812h-7.677V371.206a4.527,4.527,0,0,0-4.527-4.527h-1.8a4.527,4.527,0,0,0-4.527,4.527v22.606H135.25a2.585,2.585,0,0,1-2.285-3.792l22.917-43.375a4.527,4.527,0,0,0-2.07-6.209l-1.353-.639a4.527,4.527,0,0,0-5.926,1.959l-27.951,52.287a6.138,6.138,0,0,0-.725,2.894h0A6.139,6.139,0,0,0,124,403.076H156.9v14.294a5.427,5.427,0,0,0,5.427,5.427h0a5.427,5.427,0,0,0,5.427-5.427V403.076h7.677a4.632,4.632,0,0,0,4.632-4.632h0a4.632,4.632,0,0,0-4.632-4.632Z" transform="translate(-106.018 -300.157)" fill="#f35"/><path d="M833.43,393.812h-7.677V371.206a4.527,4.527,0,0,0-4.527-4.527h-1.8a4.527,4.527,0,0,0-4.527,4.527v22.606H793.247a2.585,2.585,0,0,1-2.285-3.792l22.918-43.375a4.527,4.527,0,0,0-2.07-6.209l-1.353-.639a4.527,4.527,0,0,0-5.926,1.959L776.58,394.044a6.139,6.139,0,0,0-.725,2.894h0a6.139,6.139,0,0,0,6.139,6.139H814.9v14.294a5.427,5.427,0,0,0,5.427,5.427h0a5.427,5.427,0,0,0,5.427-5.427V403.076h7.677a4.632,4.632,0,0,0,4.632-4.632h0a4.632,4.632,0,0,0-4.633-4.632Z" transform="translate(-621.865 -300.157)" fill="#f35"/><path d="M185.236,381.559h-7.677V358.953a4.527,4.527,0,0,0-4.527-4.527h-1.8a4.527,4.527,0,0,0-4.527,4.527v22.606H145.053a2.585,2.585,0,0,1-2.285-3.792l22.918-43.375a4.527,4.527,0,0,0-2.07-6.209l-1.353-.639a4.527,4.527,0,0,0-5.926,1.959l-27.951,52.287a6.139,6.139,0,0,0-.725,2.894h0a6.139,6.139,0,0,0,6.139,6.139h32.906v14.294a5.427,5.427,0,0,0,5.427,5.427h0a5.427,5.427,0,0,0,5.427-5.427V390.823h7.677a4.632,4.632,0,0,0,4.632-4.632h0a4.632,4.632,0,0,0-4.632-4.632Z" transform="translate(-113.703 -290.551)" fill="none" stroke="#262626" stroke-miterlimit="10" stroke-width="1"/><path d="M851.809,381.559h-7.677V358.953a4.527,4.527,0,0,0-4.527-4.527h-1.8a4.527,4.527,0,0,0-4.527,4.527v22.606H811.626a2.585,2.585,0,0,1-2.285-3.792l22.918-43.376a4.527,4.527,0,0,0-2.07-6.209l-1.353-.639a4.527,4.527,0,0,0-5.926,1.959l-27.951,52.287a6.138,6.138,0,0,0-.725,2.894h0a6.139,6.139,0,0,0,6.139,6.139h32.906v14.294a5.427,5.427,0,0,0,5.427,5.427h0a5.427,5.427,0,0,0,5.427-5.427V390.823h7.677a4.632,4.632,0,0,0,4.632-4.632h0a4.633,4.633,0,0,0-4.633-4.632Z" transform="translate(-636.273 -290.551)" fill="none" stroke="#262626" stroke-miterlimit="10" stroke-width="1"/><path d="M487.332,313.866c-18.567,0-31.9,11.912-31.9,39.707,0,31.5,13.331,39.839,31.9,39.839s32.692-9.133,32.692-39.839C520.024,320.749,505.9,313.866,487.332,313.866Zm.122,69.09c-12.86,0-19.578-7.545-19.578-29.363,0-19.251,6.993-29.4,19.853-29.4s19.853,6.669,19.853,29.4c0,21.268-7.268,29.363-20.128,29.363Z" transform="translate(-370.666 -280.169)" fill="none" stroke="#262626" stroke-miterlimit="10" stroke-width="1"/><circle cx="2.787" cy="2.787" r="2.787" transform="translate(98.996 1.156)" fill="#2f2e41"/><ellipse cx="7.817" cy="10.129" rx="7.817" ry="10.129" transform="translate(100.764 0)" fill="#2f2e41"/><path d="M537.292,206.288c-3.916,0-7.16-3.731-7.729-8.6a13.15,13.15,0,0,0-.089,1.529c0,5.594,3.5,10.129,7.817,10.129s7.818-4.535,7.818-10.129a13.191,13.191,0,0,0-.089-1.53C544.452,202.557,541.208,206.288,537.292,206.288Z" transform="translate(-428.711 -189.09)" opacity="0.1"/><path d="M596.369,331.872a2.9,2.9,0,0,1-1.693,1.628,14.964,14.964,0,0,1-5.781,1.135,9.762,9.762,0,0,1-1.543-.029,4.436,4.436,0,0,1-2.647-1.217.363.363,0,0,1,.009-.614,10.162,10.162,0,0,1,4.67-2.423c1.368-.395,3.755-1.417,5.248-1.279C596.077,329.207,596.581,331,596.369,331.872Z" transform="translate(-471.88 -292.081)" fill="#262626"/><path d="M596.369,331.872a2.9,2.9,0,0,1-1.693,1.628,14.964,14.964,0,0,1-5.781,1.135,9.762,9.762,0,0,1-1.543-.029,4.436,4.436,0,0,1-2.647-1.217.363.363,0,0,1,.009-.614,10.162,10.162,0,0,1,4.67-2.423c1.368-.395,3.755-1.417,5.248-1.279C596.077,329.207,596.581,331,596.369,331.872Z" transform="translate(-471.88 -292.081)" opacity="0.1"/><path d="M538.4,277.323a4.271,4.271,0,0,0-.259,3.257,5.69,5.69,0,0,0,1.907,2.7c2.181,1.748,5.182,1.989,7.977,1.964a61.5,61.5,0,0,0,7.325-.5,8.759,8.759,0,0,0,2.377-.552,3.643,3.643,0,0,0,2.038-2.058,2.507,2.507,0,0,0-.677-2.716,4.254,4.254,0,0,0-2.484-.679l-4.988-.3a8.458,8.458,0,0,1,1.749-1.143,7.887,7.887,0,0,0,1.9-2.017,27.871,27.871,0,0,1,2.9-2.985,4.286,4.286,0,0,0,1.445,2.338c.693.642,1.492,1.16,2.213,1.772,1.745,1.482,3,3.493,4.837,4.861a9.469,9.469,0,0,0,3.467-1.731l-.713-1.292a.852.852,0,0,0-.269-.335c-.2-.124-.462-.06-.7-.1-.627-.094-.9-.818-1.146-1.4a18.142,18.142,0,0,0-3.072-4.192,21.175,21.175,0,0,1-2.159-3.181,10.882,10.882,0,0,0-1.214-1.945,2.737,2.737,0,0,0-1.974-1.033,3.8,3.8,0,0,0-1.883.688,49.809,49.809,0,0,0-5.1,3.478,11.812,11.812,0,0,1-2.7,1.766c-.421.171-.864.287-1.268.5a8.479,8.479,0,0,0-1.821,1.526A12.107,12.107,0,0,1,538.4,277.323Z" transform="translate(-435.346 -242.688)" fill="#262626"/><path d="M565.077,221.788a5.135,5.135,0,0,1-.375,1.736,2.17,2.17,0,0,1-1.246,1.2,2.674,2.674,0,0,1-1.215.039,2.351,2.351,0,0,1-.99-.337,2.11,2.11,0,0,1-.786-1.457c-.085-.561-.047-1.134-.1-1.7a9.271,9.271,0,0,0-.26-1.351c-.037-.148-.074-.294-.111-.441s-.071-.294-.1-.44-.058-.277-.082-.416c-.02-.118-.037-.236-.05-.355a3.98,3.98,0,0,0-.175-1.039,3.155,3.155,0,0,0-.364-.617c-.062-.088-.122-.177-.177-.268a1.272,1.272,0,0,1-.21-.81.7.7,0,0,1,.032-.13c.005-.016.012-.033.018-.048a.389.389,0,0,0,.266-.248.741.741,0,0,0-.032-.384,2.444,2.444,0,0,0-.207-.494c-.057-.1-.251-.29-.252-.408,0-.238.462-.43.651-.523a3.628,3.628,0,0,1,1.857-.377,1.37,1.37,0,0,1,1.084.5,3.27,3.27,0,0,1,.264,1.074.319.319,0,0,0,.065.143.29.29,0,0,0,.16.073.982.982,0,0,0,.306.012h0a.632.632,0,0,0,.08-.012,1.071,1.071,0,0,0,.439-.19q.126-.034.255-.055l.01,0c.341,1.075.385,2.227.663,3.321a8.522,8.522,0,0,1,.364,1.642c0,.024,0,.05,0,.075,0,.18-.01.362,0,.541a1.5,1.5,0,0,0,.027.241,3.361,3.361,0,0,0,.114.377l0,.006c.013.039.025.08.035.12s.014.058.02.087v0A3.224,3.224,0,0,1,565.077,221.788Z" transform="translate(-451.589 -201.027)" fill="#fbbebe"/><circle cx="4.011" cy="4.011" r="4.011" transform="translate(104.706 5.71)" fill="#fbbebe"/><path d="M599.724,238.112a6.577,6.577,0,0,0-1.131-3.047q.156.928.313,1.855a.694.694,0,0,1-.727-.224,2.233,2.233,0,0,1-.381-.708,14.578,14.578,0,0,0-1.773-3.183,18.933,18.933,0,0,1-7.323-2.5c-2.246-1.233-4.348-2.712-6.564-4a9.42,9.42,0,0,0-1.2-.612c-.693-.278-1.472-.422-2.129-.749-.044-.022-.088-.045-.132-.069a2.716,2.716,0,0,1-.42-.282,2.231,2.231,0,0,1-.2-.185,4.4,4.4,0,0,1-.769-1.286c-.353-.78-.479-1.722-.831-2.5a2.417,2.417,0,0,1,.54-.381h0l.086-.043a2.581,2.581,0,0,1,.433-.158q.126-.034.255-.055l.01,0a2.5,2.5,0,0,1,1.186.094,5.485,5.485,0,0,1,1.5.923,24.626,24.626,0,0,1,2.192,1.739c.387.371.741.779,1.158,1.116a9.107,9.107,0,0,0,1.092.724l6.765,4.029c.763.455,1.527.91,2.274,1.391,1.134.731,2.227,1.524,3.319,2.316l1.931,1.4a2.1,2.1,0,0,1,.547.506,1.831,1.831,0,0,1,.243.742A6.781,6.781,0,0,1,599.724,238.112Z" transform="translate(-465.544 -206.539)" fill="#fbbebe"/><path d="M546.814,230.441c-.271,1.213-1.5,1.947-2.138,3.013-.8,1.323-.472,2.861-.173,4.376l-1.64,1.413c-.3.259-.6.519-.929.748a12.385,12.385,0,0,1-1.482.851l-1.452.747a6.939,6.939,0,0,1-1.421.6,5.477,5.477,0,0,1-2.91-.21,1.314,1.314,0,0,1-.318-.13.516.516,0,0,1-.151-.137.845.845,0,0,1-.1-.549,25.786,25.786,0,0,1,.871-4.686,13.81,13.81,0,0,1,2-4.91,14.77,14.77,0,0,1,1.713-2.487,3.991,3.991,0,0,0,.794-1.024,5.483,5.483,0,0,0,.2-1.782,3.7,3.7,0,0,1,.353-1.3h0a3.692,3.692,0,0,1,.377-.623l.2.46.129.3.166.386.474,1.1a4.662,4.662,0,0,0,.721,1.284,1.4,1.4,0,0,0,2.4-.184,4.592,4.592,0,0,0,.491-1.3,4.149,4.149,0,0,0,.054-1.693,20,20,0,0,0-.958-3.193,3.229,3.229,0,0,1-.233-1.052.719.719,0,0,1,.012-.121l.006-.031a2.583,2.583,0,0,1,.433-.158q.126-.034.255-.055.442,2.39.884,4.78c.007.037.014.075.021.113.042.228.085.457.133.685.043.207.089.413.141.617l0,.006c.018.069.036.138.055.207v0c.052.188.111.374.177.557C546.373,228.179,547.07,229.292,546.814,230.441Z" transform="translate(-432.332 -206.664)" fill="#f35"/><path d="M668.313,332.982a1.422,1.422,0,0,0,.132.679,1.626,1.626,0,0,0,1.375.606,40.7,40.7,0,0,0,9.131-.278,1.055,1.055,0,0,0,.465-.144c.43-.3.165-1.036-.3-1.271a5.9,5.9,0,0,0-1.541-.28,4.858,4.858,0,0,1-1.443-.626q-1.567-.9-3.088-1.877a2.451,2.451,0,0,0-2-.572A3.562,3.562,0,0,0,668.313,332.982Z" transform="translate(-537.554 -292.153)" fill="#262626"/><path d="M518.494,228.283h0c0,.029-.01.056-.016.084-.008.046-.016.093-.025.139-.084.432-.188.861-.307,1.288-.326,1.179-.763,2.34-1.2,3.483l-3.492,9.2c-.294.772-.587,1.545-.92,2.3-.111.252-.226.506-.341.763a10.621,10.621,0,0,0-.933,2.848,5.93,5.93,0,0,0-.042,1.953,2,2,0,0,0,1.13,1.506c.3.116.724.272.642.581-.044.17-.237.253-.411.281a1.58,1.58,0,0,1-1.289-.371c-.326-.289-.576-.738-1.009-.787a1.706,1.706,0,0,0-.85.273,5.145,5.145,0,0,1-3.6-.21,1.264,1.264,0,0,1,1.046-.886,8.466,8.466,0,0,1,1.451-.041.758.758,0,0,0,.441-.114.8.8,0,0,0,.238-.406,17.061,17.061,0,0,0,.694-2.84c.156-1.008.222-2.032.445-3.028.173-.777.441-1.53.671-2.292a48.528,48.528,0,0,0,1.093-4.769,16.85,16.85,0,0,0,.308-2.024c.039-.564.02-1.131.075-1.693a13.152,13.152,0,0,1,.456-2.16l.623-2.309a7.765,7.765,0,0,1,1.419-3.207,3.016,3.016,0,0,1,2.167-1.035,2.133,2.133,0,0,1,.46.05l.075.019a1.867,1.867,0,0,1,.47.194c.241-.153.363-.1.523.137a1.507,1.507,0,0,1,.19.82A11.329,11.329,0,0,1,518.494,228.283Z" transform="translate(-410.178 -210.355)" fill="#fbbebe"/><path d="M559.136,228.893l-.01.01-.055.055-.547.546-.268-1.125-.918-3.857a2.135,2.135,0,0,1,.46.05.7.7,0,0,1,.032-.13l.044.149.311,1.059.589,2.011.1.331h0Z" transform="translate(-450.555 -210.063)" fill="#f35"/><path d="M550.135,178.222a2.718,2.718,0,0,1-.8,1.922,2.664,2.664,0,0,1-.294.254,2.707,2.707,0,0,1-1.628.545h-3.261a2.72,2.72,0,0,1,0-5.44h3.261A2.728,2.728,0,0,1,550.135,178.222Z" transform="translate(-438.086 -171.697)" fill="#2f2e41"/><circle cx="2.787" cy="2.787" r="2.787" transform="translate(112.32 1.156)" fill="#2f2e41"/><path d="M595.184,163.234l-.1,0a2.786,2.786,0,0,1,0,5.569l.1,0a2.787,2.787,0,0,0,0-5.574Z" transform="translate(-480.145 -162.078)" opacity="0.1"/><path d="M524.081,163.234l.1,0a2.786,2.786,0,0,0,0,5.569l-.1,0a2.787,2.787,0,0,1,0-5.574Z" transform="translate(-422.298 -162.078)" opacity="0.1"/><path d="M553,198.159a2.707,2.707,0,0,1-1.628.545h-3.261a2.707,2.707,0,0,1-1.628-.545Z" transform="translate(-442.048 -189.458)" opacity="0.1"/><path d="M674.14,287.428s.7,2.025,1.346,1.486l-.513-2.646Z" transform="translate(-542.124 -258.532)" fill="#fbbebe"/><path d="M1059.173,545.782a4.5,4.5,0,1,0,.6-8.623l.113,2.314-1.095-1.983a4.479,4.479,0,0,0-2.308,2.532,4.415,4.415,0,0,0-.259,1.216A4.5,4.5,0,0,0,1059.173,545.782Z" transform="translate(-841.654 -455.145)" fill="#57b894"/><path d="M1091.926,558.6c-.386-1.968,1.288-3.713,2.943-4.847s3.587-2.248,4.152-4.173c.811-2.766-1.605-5.3-3.486-7.484a27.068,27.068,0,0,1-3.57-5.305,7.3,7.3,0,0,1-.854-2.412,8.326,8.326,0,0,1,.643-3.616q1.983-5.844,4.24-11.59" transform="translate(-868.989 -441.122)" fill="none" stroke="#262626" stroke-miterlimit="10" stroke-width="1"/><path d="M1060.022,543.024a4.5,4.5,0,1,0,.6-8.623l.113,2.314-1.095-1.983a4.48,4.48,0,0,0-2.308,2.533,4.41,4.41,0,0,0-.259,1.216A4.5,4.5,0,0,0,1060.022,543.024Z" transform="translate(-842.32 -452.983)" fill="none" stroke="#262626" stroke-miterlimit="10" stroke-width="1"/><path d="M1091.47,504.725a4.491,4.491,0,0,1,3.236-2.851l.37,2.2.686-2.311a4.5,4.5,0,1,1-4.293,2.962Z" transform="translate(-869.085 -427.474)" fill="#57b894"/><path d="M1092.61,501.047a4.491,4.491,0,0,1,3.236-2.851l.37,2.2.686-2.311a4.5,4.5,0,1,1-4.293,2.962Z" transform="translate(-869.978 -424.59)" fill="none" stroke="#262626" stroke-miterlimit="10" stroke-width="1"/><path d="M1097.284,593.832a4.5,4.5,0,0,0,3.979-8l-.527,1.776-.374-2.226-.011,0a4.5,4.5,0,0,0-3.066,8.453Z" transform="translate(-871.53 -492.813)" fill="#57b894"/><path d="M1098.284,590.107a4.5,4.5,0,0,0,3.979-8l-.527,1.776-.374-2.226-.011,0a4.5,4.5,0,1,0-3.066,8.453Z" transform="translate(-872.314 -489.893)" fill="none" stroke="#262626" stroke-miterlimit="10" stroke-width="1"/><path d="M1086.129,640.92A4.494,4.494,0,1,0,1087,637.4l2,3.015-2.737-1.6A4.452,4.452,0,0,0,1086.129,640.92Z" transform="translate(-865.055 -532.434)" fill="#57b894"/><path d="M1086.979,638.162a4.494,4.494,0,1,0,.866-3.521l2,3.015-2.737-1.6A4.452,4.452,0,0,0,1086.979,638.162Z" transform="translate(-865.721 -530.273)" fill="none" stroke="#262626" stroke-miterlimit="10" stroke-width="1"/><path d="M65,607.337a2.954,2.954,0,1,0,.393-5.665l.074,1.52-.719-1.3a2.943,2.943,0,0,0-1.516,1.664,2.9,2.9,0,0,0-.17.8A2.953,2.953,0,0,0,65,607.337Z" transform="translate(-63.054 -505.747)" fill="#57b894"/><path d="M86.518,615.759c-.254-1.293.846-2.44,1.933-3.185s2.357-1.477,2.728-2.742c.533-1.817-1.055-3.482-2.29-4.917a17.781,17.781,0,0,1-2.345-3.486,4.8,4.8,0,0,1-.561-1.585,5.47,5.47,0,0,1,.422-2.376q1.3-3.84,2.786-7.615" transform="translate(-81.012 -496.534)" fill="none" stroke="#262626" stroke-miterlimit="10" stroke-width="1"/><path d="M65.563,605.525a2.954,2.954,0,1,0,.393-5.666l.074,1.521-.719-1.3a2.943,2.943,0,0,0-1.516,1.664,2.9,2.9,0,0,0-.17.8A2.954,2.954,0,0,0,65.563,605.525Z" transform="translate(-63.495 -504.327)" fill="none" stroke="#262626" stroke-miterlimit="10" stroke-width="1"/><path d="M86.223,580.362a2.951,2.951,0,0,1,2.126-1.873l.243,1.445.451-1.518a2.954,2.954,0,1,1-2.82,1.946Z" transform="translate(-81.078 -487.566)" fill="#57b894"/><path d="M86.974,577.946a2.951,2.951,0,0,1,2.126-1.873l.243,1.445L89.795,576a2.954,2.954,0,1,1-2.82,1.946Z" transform="translate(-81.667 -485.672)" fill="none" stroke="#262626" stroke-miterlimit="10" stroke-width="1"/><path d="M90.045,638.907a2.954,2.954,0,0,0,2.614-5.255l-.346,1.167-.246-1.462-.008,0a2.954,2.954,0,1,0-2.015,5.554Z" transform="translate(-82.687 -530.496)" fill="#57b894"/><path d="M90.7,636.46A2.954,2.954,0,0,0,93.31,631.2l-.347,1.167-.246-1.463-.008,0A2.954,2.954,0,1,0,90.7,636.46Z" transform="translate(-83.197 -528.578)" fill="none" stroke="#262626" stroke-miterlimit="10" stroke-width="1"/><path d="M82.711,669.844a2.953,2.953,0,1,0,.569-2.313l1.316,1.981-1.8-1.052A2.927,2.927,0,0,0,82.711,669.844Z" transform="translate(-78.429 -556.528)" fill="#57b894"/><path d="M83.274,668.032a2.953,2.953,0,1,0,.569-2.313L85.16,667.7l-1.8-1.051A2.926,2.926,0,0,0,83.274,668.032Z" transform="translate(-78.87 -555.107)" fill="none" stroke="#262626" stroke-miterlimit="10" stroke-width="1"/><ellipse cx="3.673" cy="4.753" rx="3.673" ry="4.753" transform="translate(100.229 64.187)" fill="#2f2e41"/><ellipse cx="3.673" cy="4.753" rx="3.673" ry="4.753" transform="translate(120.212 64.295)" fill="#2f2e41"/><path d="M574.894,528.388c0,2.147-3,3.889-6.7,3.889s-6.7-1.741-6.7-3.889c0-1.86,2.249-3.416,5.254-3.8a11.268,11.268,0,0,1,3.847.166C573.112,525.319,574.894,526.734,574.894,528.388Z" transform="translate(-453.818 -445.298)" fill="#2f2e41"/><ellipse cx="3.673" cy="4.753" rx="3.673" ry="4.753" transform="translate(101.093 63.107)" fill="none" stroke="#262626" stroke-miterlimit="10" stroke-width="1"/><ellipse cx="3.673" cy="4.753" rx="3.673" ry="4.753" transform="translate(121.076 63.215)" fill="none" stroke="#262626" stroke-miterlimit="10" stroke-width="1"/><ellipse cx="6.697" cy="3.889" rx="6.697" ry="3.889" transform="translate(108.546 78.122)" fill="none" stroke="#262626" stroke-miterlimit="10" stroke-width="1"/><path d="M589.1,524.691a1.066,1.066,0,0,1-.285.733.937.937,0,0,1-.687.3h-2.16a1.008,1.008,0,0,1-.972-1.037,1.06,1.06,0,0,1,.177-.592,10.145,10.145,0,0,1,1.443-.1,10.3,10.3,0,0,1,2.4.276A1.094,1.094,0,0,1,589.1,524.691Z" transform="translate(-472.239 -444.906)" fill="#fff"/><circle cx="1.08" cy="1.08" r="1.08" transform="translate(103.685 65.484)" fill="#fff"/><circle cx="1.08" cy="1.08" r="1.08" transform="translate(123.777 65.484)" fill="#fff"/><circle cx="1.08" cy="1.08" r="1.08" transform="translate(124.857 75.637)" fill="#f35" opacity="0.3"/><circle cx="1.08" cy="1.08" r="1.08" transform="translate(98.501 75.637)" fill="#f35" opacity="0.3"/></g><path d="M20.349.459a19.266,19.266,0,0,1-9.563-2.27A15.486,15.486,0,0,1,4.539-8.237,20.644,20.644,0,0,1,2.346-18,20.644,20.644,0,0,1,4.539-27.77a15.325,15.325,0,0,1,6.247-6.4,19.443,19.443,0,0,1,9.563-2.244,19.443,19.443,0,0,1,9.563,2.244,15.167,15.167,0,0,1,6.222,6.4A20.844,20.844,0,0,1,38.3-18a20.644,20.644,0,0,1-2.193,9.766,15.486,15.486,0,0,1-6.248,6.426A19.158,19.158,0,0,1,20.349.459Zm0-7.191a7.7,7.7,0,0,0,6.375-2.881Q29.019-12.5,29.019-18T26.7-26.367a7.74,7.74,0,0,0-6.35-2.856,7.752,7.752,0,0,0-6.375,2.83q-2.295,2.831-2.3,8.39t2.3,8.415A7.723,7.723,0,0,0,20.349-6.732ZM55.9.408A15.729,15.729,0,0,1,48.629-1.2a11.531,11.531,0,0,1-4.845-4.565A13.624,13.624,0,0,1,42.075-12.7a13.485,13.485,0,0,1,1.708-6.911A11.45,11.45,0,0,1,48.6-24.123,15.9,15.9,0,0,1,55.9-25.7a15.9,15.9,0,0,1,7.293,1.581,11.45,11.45,0,0,1,4.819,4.514A13.485,13.485,0,0,1,69.717-12.7a13.624,13.624,0,0,1-1.709,6.936A11.566,11.566,0,0,1,63.189-1.2,15.689,15.689,0,0,1,55.9.408Zm0-6.783q4.845,0,4.845-6.324T55.9-19.023q-4.845,0-4.845,6.324T55.9-6.375ZM90.474-25.7a10.219,10.219,0,0,1,5.738,1.657,10.968,10.968,0,0,1,3.927,4.667,16.121,16.121,0,0,1,1.4,6.885,15.612,15.612,0,0,1-1.4,6.808,10.6,10.6,0,0,1-3.9,4.513A10.548,10.548,0,0,1,90.474.408a10.043,10.043,0,0,1-4.411-.969,7.813,7.813,0,0,1-3.136-2.6V9.18H73.848V-25.092h8.925v3.213a7.328,7.328,0,0,1,3.136-2.805A10.166,10.166,0,0,1,90.474-25.7ZM87.72-6.375a4.312,4.312,0,0,0,3.6-1.581,7.179,7.179,0,0,0,1.25-4.539,7.7,7.7,0,0,0-1.275-4.769,4.3,4.3,0,0,0-3.621-1.658,4.327,4.327,0,0,0-3.621,1.632A7.486,7.486,0,0,0,82.773-12.6a7.279,7.279,0,0,0,1.275,4.615A4.412,4.412,0,0,0,87.72-6.375Zm28.1,6.783a27.514,27.514,0,0,1-6.681-.765A15.241,15.241,0,0,1,103.989-2.6l2.295-6.171a18.144,18.144,0,0,0,4.641,2.116,17.171,17.171,0,0,0,5,.791,4.964,4.964,0,0,0,2.3-.433,1.324,1.324,0,0,0,.816-1.2,1.13,1.13,0,0,0-.586-1.02,9.241,9.241,0,0,0-2.371-.765l-4.029-.918a11.246,11.246,0,0,1-5.508-2.55,6.485,6.485,0,0,1-1.683-4.794,6.808,6.808,0,0,1,1.428-4.258,9.141,9.141,0,0,1,4-2.882,15.755,15.755,0,0,1,5.84-1.02,18.915,18.915,0,0,1,5.381.79,18.431,18.431,0,0,1,4.87,2.219l-2.346,5.916a19.228,19.228,0,0,0-4.105-1.963,12.355,12.355,0,0,0-3.9-.688,4.728,4.728,0,0,0-2.3.459,1.447,1.447,0,0,0-.816,1.326.979.979,0,0,0,.51.841,6.2,6.2,0,0,0,1.785.638l4.233.969a11.4,11.4,0,0,1,5.763,2.677A6.7,6.7,0,0,1,126.99-7.6a6.835,6.835,0,0,1-2.983,5.865Q121.023.408,115.821.408Zm13.617-36.414,11.118.051L137.7-12.444h-5.457ZM139.689-9.282V0h-9.435V-9.282Z" transform="translate(136 250)" fill="#262626"/><path d="M4.7,4.13H8.54a6.074,6.074,0,0,1,2.772.588A4.105,4.105,0,0,1,13.09,6.412a5.358,5.358,0,0,1,.616,2.646,5.448,5.448,0,0,1-.609,2.653,4.053,4.053,0,0,1-1.771,1.7A6.108,6.108,0,0,1,8.54,14H4.7Zm3.682,8.106q3.15,0,3.15-3.178T8.386,5.894h-1.5v6.342Zm6.832-5.11h2.114V14H15.218Zm2.2-3.3V5.8H15.148V3.822Zm5.852,3.136a2.254,2.254,0,0,1,1.834.721,3.338,3.338,0,0,1,.6,2.177V14H23.59V9.954a1.627,1.627,0,0,0-.259-1.022.972.972,0,0,0-.805-.322,1.39,1.39,0,0,0-1.057.42,1.559,1.559,0,0,0-.4,1.12V14H18.956V7.126h2.058v.98a2.409,2.409,0,0,1,.945-.854A2.858,2.858,0,0,1,23.268,6.958Zm12.18,0a2.805,2.805,0,0,1,1.575.455A3.019,3.019,0,0,1,38.1,8.687a4.378,4.378,0,0,1,.385,1.883,4.286,4.286,0,0,1-.385,1.869,2.818,2.818,0,0,1-2.653,1.673,2.765,2.765,0,0,1-1.267-.287,2.089,2.089,0,0,1-.875-.8v3.5H31.192V7.126h2.086v.966a2.143,2.143,0,0,1,.882-.833A2.731,2.731,0,0,1,35.448,6.958ZM34.832,12.5a1.4,1.4,0,0,0,1.148-.5,2.218,2.218,0,0,0,.406-1.435,2.366,2.366,0,0,0-.406-1.477,1.367,1.367,0,0,0-1.148-.525,1.382,1.382,0,0,0-1.148.511,2.3,2.3,0,0,0-.406,1.463,2.279,2.279,0,0,0,.406,1.449A1.382,1.382,0,0,0,34.832,12.5Zm7.994-5.544a3.12,3.12,0,0,1,2.275.728,3.054,3.054,0,0,1,.735,2.254V14h-2V12.978a1.676,1.676,0,0,1-.7.833,2.149,2.149,0,0,1-1.148.3,2.822,2.822,0,0,1-1.267-.28,2.219,2.219,0,0,1-.9-.784,2.005,2.005,0,0,1-.329-1.12,1.73,1.73,0,0,1,.385-1.19,2.3,2.3,0,0,1,1.239-.63,10.944,10.944,0,0,1,2.338-.2h.364V9.66a1.163,1.163,0,0,0-.266-.868,1.335,1.335,0,0,0-.924-.252,3.987,3.987,0,0,0-1.12.182,5.449,5.449,0,0,0-1.176.5l-.56-1.414A5.735,5.735,0,0,1,41.223,7.2,5.879,5.879,0,0,1,42.826,6.958Zm-.378,5.7a1.284,1.284,0,0,0,.994-.413,1.524,1.524,0,0,0,.378-1.071v-.238h-.238a4.784,4.784,0,0,0-1.589.182.659.659,0,0,0-.455.658.843.843,0,0,0,.259.63A.9.9,0,0,0,42.448,12.656Zm8.246,1.456a3.606,3.606,0,0,1-2.646-.952,3.471,3.471,0,0,1-.966-2.59,3.8,3.8,0,0,1,.462-1.9,3.183,3.183,0,0,1,1.3-1.267,4.074,4.074,0,0,1,1.946-.448,4.616,4.616,0,0,1,1.456.231,3.132,3.132,0,0,1,1.134.623l-.56,1.442a3.147,3.147,0,0,0-.889-.5,2.764,2.764,0,0,0-.945-.175,1.662,1.662,0,0,0-1.281.49,2.071,2.071,0,0,0-.455,1.456,2.1,2.1,0,0,0,.455,1.463,1.649,1.649,0,0,0,1.281.5,2.764,2.764,0,0,0,.945-.175,3.147,3.147,0,0,0,.889-.5l.56,1.456a3.339,3.339,0,0,1-1.176.616A5.022,5.022,0,0,1,50.694,14.112Zm6.692-7.154a3.12,3.12,0,0,1,2.275.728A3.054,3.054,0,0,1,60.4,9.94V14h-2V12.978a1.676,1.676,0,0,1-.7.833,2.149,2.149,0,0,1-1.148.3,2.822,2.822,0,0,1-1.267-.28,2.219,2.219,0,0,1-.9-.784,2.005,2.005,0,0,1-.329-1.12,1.73,1.73,0,0,1,.385-1.19,2.3,2.3,0,0,1,1.239-.63,10.944,10.944,0,0,1,2.338-.2h.364V9.66a1.163,1.163,0,0,0-.266-.868,1.335,1.335,0,0,0-.924-.252,3.987,3.987,0,0,0-1.12.182,5.449,5.449,0,0,0-1.176.5l-.56-1.414A5.735,5.735,0,0,1,55.783,7.2,5.879,5.879,0,0,1,57.386,6.958Zm-.378,5.7A1.284,1.284,0,0,0,58,12.243a1.524,1.524,0,0,0,.378-1.071v-.238h-.238a4.784,4.784,0,0,0-1.589.182.659.659,0,0,0-.455.658.843.843,0,0,0,.259.63A.9.9,0,0,0,57.008,12.656Zm8.778-.1a5.645,5.645,0,0,0,.672-.042l-.112,1.54a5.936,5.936,0,0,1-.812.056,3.235,3.235,0,0,1-2.289-.686,2.753,2.753,0,0,1-.721-2.086V8.708h-1.3V7.126h1.3V5.11h2.114V7.126H66.36V8.708H64.638v2.618Q64.638,12.558,65.786,12.558Zm7.8-1.6H69.1a1.77,1.77,0,0,0,.539,1.2,1.894,1.894,0,0,0,1.253.371,3.324,3.324,0,0,0,1.057-.175,3.405,3.405,0,0,0,.959-.5l.56,1.414a3.821,3.821,0,0,1-1.225.616,4.86,4.86,0,0,1-1.449.224,3.792,3.792,0,0,1-2.737-.959,3.445,3.445,0,0,1-1-2.611,3.889,3.889,0,0,1,.434-1.862,3.182,3.182,0,0,1,1.2-1.267,3.374,3.374,0,0,1,1.75-.455,2.931,2.931,0,0,1,2.289.938,3.66,3.66,0,0,1,.847,2.548ZM70.5,8.414a1.245,1.245,0,0,0-.959.385A1.918,1.918,0,0,0,69.1,9.912h2.7a1.827,1.827,0,0,0-.371-1.12A1.168,1.168,0,0,0,70.5,8.414ZM83.076,6.958a2.254,2.254,0,0,1,1.834.721,3.338,3.338,0,0,1,.6,2.177V14H83.4V9.954a1.627,1.627,0,0,0-.259-1.022.971.971,0,0,0-.8-.322,1.39,1.39,0,0,0-1.057.42,1.559,1.559,0,0,0-.4,1.12V14H78.764V7.126h2.058v.98a2.409,2.409,0,0,1,.945-.854A2.858,2.858,0,0,1,83.076,6.958Zm10.64.168V14H91.658v-.98a2.175,2.175,0,0,1-.847.812,2.84,2.84,0,0,1-3.122-.441,3.208,3.208,0,0,1-.637-2.177V7.126h2.114v4.13a1.35,1.35,0,0,0,.259.91,1,1,0,0,0,.791.294,1.3,1.3,0,0,0,1-.42,1.573,1.573,0,0,0,.385-1.106V7.126Zm9.786-.168a2.805,2.805,0,0,1,1.575.455,3.019,3.019,0,0,1,1.078,1.274,4.378,4.378,0,0,1,.385,1.883,4.286,4.286,0,0,1-.385,1.869,2.818,2.818,0,0,1-2.653,1.673,2.765,2.765,0,0,1-1.267-.287,2.089,2.089,0,0,1-.875-.8v3.5H99.246V7.126h2.086v.966a2.142,2.142,0,0,1,.882-.833A2.731,2.731,0,0,1,103.5,6.958Zm-.616,5.544a1.4,1.4,0,0,0,1.148-.5,2.218,2.218,0,0,0,.406-1.435,2.366,2.366,0,0,0-.406-1.477,1.367,1.367,0,0,0-1.148-.525,1.382,1.382,0,0,0-1.148.511,2.3,2.3,0,0,0-.406,1.463,2.279,2.279,0,0,0,.406,1.449A1.382,1.382,0,0,0,102.886,12.5ZM114.45,7.126V14h-2.058v-.98a2.175,2.175,0,0,1-.847.812,2.84,2.84,0,0,1-3.122-.441,3.208,3.208,0,0,1-.637-2.177V7.126H109.9v4.13a1.35,1.35,0,0,0,.259.91,1,1,0,0,0,.791.294,1.3,1.3,0,0,0,1-.42,1.573,1.573,0,0,0,.385-1.106V7.126Zm5.432,5.432a5.645,5.645,0,0,0,.672-.042l-.112,1.54a5.936,5.936,0,0,1-.812.056,3.235,3.235,0,0,1-2.289-.686,2.753,2.753,0,0,1-.721-2.086V8.708h-1.3V7.126h1.3V5.11h2.114V7.126h1.722V8.708h-1.722v2.618Q118.734,12.558,119.882,12.558Zm7.8-1.6H123.2a1.77,1.77,0,0,0,.539,1.2,1.894,1.894,0,0,0,1.253.371,3.324,3.324,0,0,0,1.057-.175,3.405,3.405,0,0,0,.959-.5l.56,1.414a3.821,3.821,0,0,1-1.225.616,4.86,4.86,0,0,1-1.449.224,3.792,3.792,0,0,1-2.737-.959,3.445,3.445,0,0,1-1-2.611,3.889,3.889,0,0,1,.434-1.862,3.182,3.182,0,0,1,1.2-1.267,3.374,3.374,0,0,1,1.75-.455,2.931,2.931,0,0,1,2.289.938,3.66,3.66,0,0,1,.847,2.548ZM124.6,8.414a1.245,1.245,0,0,0-.959.385,1.918,1.918,0,0,0-.441,1.113h2.7a1.827,1.827,0,0,0-.371-1.12A1.168,1.168,0,0,0,124.6,8.414Zm12.824-1.456a2.111,2.111,0,0,1,1.75.714,3.451,3.451,0,0,1,.574,2.184V14h-2.114V9.926a1.8,1.8,0,0,0-.217-1.008.836.836,0,0,0-.735-.308,1.134,1.134,0,0,0-.938.42,1.837,1.837,0,0,0-.336,1.176V14h-2.114V9.926a1.8,1.8,0,0,0-.217-1.008.836.836,0,0,0-.735-.308,1.134,1.134,0,0,0-.938.42,1.837,1.837,0,0,0-.336,1.176V14h-2.114V7.126h2.058V8.05a2.15,2.15,0,0,1,.861-.812,2.649,2.649,0,0,1,1.239-.28,2,2,0,0,1,2.044,1.274,2.462,2.462,0,0,1,.938-.931A2.639,2.639,0,0,1,137.424,6.958Zm14.84.168v6.132a3.211,3.211,0,0,1-.952,2.52,4.092,4.092,0,0,1-2.814.854,6.9,6.9,0,0,1-1.771-.224,5.335,5.335,0,0,1-1.491-.63l.56-1.456a5.473,5.473,0,0,0,2.646.728q1.736,0,1.736-1.638v-.756a2.077,2.077,0,0,1-.882.84,2.793,2.793,0,0,1-1.316.308,3,3,0,0,1-1.589-.42,2.877,2.877,0,0,1-1.085-1.2,3.943,3.943,0,0,1-.392-1.8,3.943,3.943,0,0,1,.392-1.8,2.925,2.925,0,0,1,1.085-1.2,2.967,2.967,0,0,1,1.589-.427,2.773,2.773,0,0,1,1.295.3,2.133,2.133,0,0,1,.889.833V7.126ZM148.6,12.194a1.448,1.448,0,0,0,1.155-.476,1.965,1.965,0,0,0,.413-1.33,1.993,1.993,0,0,0-.413-1.337,1.438,1.438,0,0,0-1.155-.483,1.459,1.459,0,0,0-1.162.483,1.97,1.97,0,0,0-.42,1.337,1.948,1.948,0,0,0,.42,1.323A1.459,1.459,0,0,0,148.6,12.194Zm8.344-5.236a3.12,3.12,0,0,1,2.275.728,3.054,3.054,0,0,1,.735,2.254V14h-2V12.978a1.676,1.676,0,0,1-.7.833,2.149,2.149,0,0,1-1.148.3,2.822,2.822,0,0,1-1.267-.28,2.219,2.219,0,0,1-.9-.784,2.006,2.006,0,0,1-.329-1.12,1.73,1.73,0,0,1,.385-1.19,2.3,2.3,0,0,1,1.239-.63,10.944,10.944,0,0,1,2.338-.2h.364V9.66a1.163,1.163,0,0,0-.266-.868,1.335,1.335,0,0,0-.924-.252,3.987,3.987,0,0,0-1.12.182,5.449,5.449,0,0,0-1.176.5l-.56-1.414a5.735,5.735,0,0,1,1.449-.609A5.879,5.879,0,0,1,156.94,6.958Zm-.378,5.7a1.284,1.284,0,0,0,.994-.413,1.524,1.524,0,0,0,.378-1.071v-.238H157.7a4.784,4.784,0,0,0-1.589.182.659.659,0,0,0-.455.658.843.843,0,0,0,.259.63A.9.9,0,0,0,156.562,12.656Zm7.616,1.456a6.578,6.578,0,0,1-1.743-.217,4.322,4.322,0,0,1-1.365-.623l.56-1.456a4.687,4.687,0,0,0,1.232.588,4.529,4.529,0,0,0,1.358.21,1.509,1.509,0,0,0,.763-.161.493.493,0,0,0,.273-.441.46.46,0,0,0-.189-.392,1.994,1.994,0,0,0-.707-.252l-1.12-.252a2.956,2.956,0,0,1-1.463-.693,1.731,1.731,0,0,1-.469-1.281,1.827,1.827,0,0,1,.371-1.134,2.45,2.45,0,0,1,1.05-.77,4.028,4.028,0,0,1,1.547-.28,4.7,4.7,0,0,1,1.442.224,4.43,4.43,0,0,1,1.26.63l-.56,1.4a3.782,3.782,0,0,0-2.156-.756,1.5,1.5,0,0,0-.77.168.527.527,0,0,0-.28.476.413.413,0,0,0,.168.35,1.825,1.825,0,0,0,.588.238l1.162.266a3.114,3.114,0,0,1,1.533.721,1.769,1.769,0,0,1,.483,1.309,1.816,1.816,0,0,1-.791,1.561A3.677,3.677,0,0,1,164.178,14.112Zm4.172-6.986h2.114V14H168.35Zm2.2-3.3V5.8H168.28V3.822ZM42.042,25.958a2.805,2.805,0,0,1,1.575.455A3.019,3.019,0,0,1,44.7,27.687a4.379,4.379,0,0,1,.385,1.883,4.286,4.286,0,0,1-.385,1.869,2.818,2.818,0,0,1-2.653,1.673,2.765,2.765,0,0,1-1.267-.287,2.089,2.089,0,0,1-.875-.805v3.5H37.786V26.126h2.086v.966a2.143,2.143,0,0,1,.882-.833A2.731,2.731,0,0,1,42.042,25.958ZM41.426,31.5a1.4,1.4,0,0,0,1.148-.5,2.218,2.218,0,0,0,.406-1.435,2.366,2.366,0,0,0-.406-1.477,1.367,1.367,0,0,0-1.148-.525,1.382,1.382,0,0,0-1.148.511,2.3,2.3,0,0,0-.406,1.463,2.279,2.279,0,0,0,.406,1.449A1.382,1.382,0,0,0,41.426,31.5Zm7.994-5.544a3.12,3.12,0,0,1,2.275.728,3.054,3.054,0,0,1,.735,2.254V33h-2V31.978a1.676,1.676,0,0,1-.7.833,2.149,2.149,0,0,1-1.148.3,2.822,2.822,0,0,1-1.267-.28,2.219,2.219,0,0,1-.9-.784,2.005,2.005,0,0,1-.329-1.12,1.73,1.73,0,0,1,.385-1.19,2.3,2.3,0,0,1,1.239-.63,10.944,10.944,0,0,1,2.338-.2h.364V28.66a1.163,1.163,0,0,0-.266-.868,1.335,1.335,0,0,0-.924-.252,3.987,3.987,0,0,0-1.12.182,5.449,5.449,0,0,0-1.176.5l-.56-1.414a5.735,5.735,0,0,1,1.449-.609A5.879,5.879,0,0,1,49.42,25.958Zm-.378,5.7a1.284,1.284,0,0,0,.994-.413,1.524,1.524,0,0,0,.378-1.071v-.238h-.238a4.784,4.784,0,0,0-1.589.182.659.659,0,0,0-.455.658.843.843,0,0,0,.259.63A.9.9,0,0,0,49.042,31.656Zm11.984-5.53v6.132a3.211,3.211,0,0,1-.952,2.52,4.092,4.092,0,0,1-2.814.854,6.9,6.9,0,0,1-1.771-.224A5.335,5.335,0,0,1,54,34.778l.56-1.456a5.473,5.473,0,0,0,2.646.728q1.736,0,1.736-1.638v-.756a2.077,2.077,0,0,1-.882.84,2.793,2.793,0,0,1-1.316.308,3,3,0,0,1-1.589-.42,2.877,2.877,0,0,1-1.085-1.2,4.324,4.324,0,0,1,0-3.6,2.925,2.925,0,0,1,1.085-1.2,2.967,2.967,0,0,1,1.589-.427,2.773,2.773,0,0,1,1.3.3,2.133,2.133,0,0,1,.889.833v-.966Zm-3.668,5.068a1.448,1.448,0,0,0,1.155-.476,1.965,1.965,0,0,0,.413-1.33,1.993,1.993,0,0,0-.413-1.337,1.438,1.438,0,0,0-1.155-.483,1.459,1.459,0,0,0-1.162.483,1.97,1.97,0,0,0-.42,1.337,1.948,1.948,0,0,0,.42,1.323A1.459,1.459,0,0,0,57.358,31.194Zm5.292-5.068h2.114V33H62.65Zm2.2-3.3V24.8H62.58V22.822ZM70.7,25.958a2.254,2.254,0,0,1,1.834.721,3.338,3.338,0,0,1,.6,2.177V33H71.022V28.954a1.627,1.627,0,0,0-.259-1.022.971.971,0,0,0-.8-.322,1.39,1.39,0,0,0-1.057.42,1.559,1.559,0,0,0-.4,1.12V33H66.388V26.126h2.058v.98a2.409,2.409,0,0,1,.945-.854A2.858,2.858,0,0,1,70.7,25.958Zm7.07,0a3.12,3.12,0,0,1,2.275.728,3.054,3.054,0,0,1,.735,2.254V33h-2V31.978a1.676,1.676,0,0,1-.7.833,2.149,2.149,0,0,1-1.148.3,2.822,2.822,0,0,1-1.267-.28,2.219,2.219,0,0,1-.9-.784,2.005,2.005,0,0,1-.329-1.12,1.73,1.73,0,0,1,.385-1.19,2.3,2.3,0,0,1,1.239-.63,10.944,10.944,0,0,1,2.338-.2h.364V28.66a1.163,1.163,0,0,0-.266-.868,1.335,1.335,0,0,0-.924-.252,3.987,3.987,0,0,0-1.12.182,5.449,5.449,0,0,0-1.176.5l-.56-1.414a5.735,5.735,0,0,1,1.449-.609A5.879,5.879,0,0,1,77.77,25.958Zm-.378,5.7a1.284,1.284,0,0,0,.994-.413,1.524,1.524,0,0,0,.378-1.071v-.238h-.238a4.784,4.784,0,0,0-1.589.182.659.659,0,0,0-.455.658.843.843,0,0,0,.259.63A.9.9,0,0,0,77.392,31.656Zm12.152,1.456A3.606,3.606,0,0,1,86.9,32.16a3.471,3.471,0,0,1-.966-2.59,3.8,3.8,0,0,1,.462-1.9,3.183,3.183,0,0,1,1.3-1.267,4.074,4.074,0,0,1,1.946-.448,4.616,4.616,0,0,1,1.456.231,3.132,3.132,0,0,1,1.134.623l-.56,1.442a3.147,3.147,0,0,0-.889-.5,2.764,2.764,0,0,0-.945-.175,1.662,1.662,0,0,0-1.281.49,2.07,2.07,0,0,0-.455,1.456,2.1,2.1,0,0,0,.455,1.463,1.649,1.649,0,0,0,1.281.5,2.764,2.764,0,0,0,.945-.175,3.147,3.147,0,0,0,.889-.5l.56,1.456a3.339,3.339,0,0,1-1.176.616A5.022,5.022,0,0,1,89.544,33.112Zm6.692-7.154a3.12,3.12,0,0,1,2.275.728,3.054,3.054,0,0,1,.735,2.254V33h-2V31.978a1.676,1.676,0,0,1-.7.833,2.149,2.149,0,0,1-1.148.3,2.822,2.822,0,0,1-1.267-.28,2.219,2.219,0,0,1-.9-.784,2.005,2.005,0,0,1-.329-1.12,1.73,1.73,0,0,1,.385-1.19,2.3,2.3,0,0,1,1.239-.63,10.944,10.944,0,0,1,2.338-.2h.364V28.66a1.163,1.163,0,0,0-.266-.868,1.335,1.335,0,0,0-.924-.252,3.987,3.987,0,0,0-1.12.182,5.449,5.449,0,0,0-1.176.5l-.56-1.414a5.735,5.735,0,0,1,1.449-.609A5.879,5.879,0,0,1,96.236,25.958Zm-.378,5.7a1.284,1.284,0,0,0,.994-.413,1.524,1.524,0,0,0,.378-1.071v-.238h-.238a4.784,4.784,0,0,0-1.589.182.659.659,0,0,0-.455.658.843.843,0,0,0,.259.63A.9.9,0,0,0,95.858,31.656Zm11.592-5.53V33h-2.058v-.98a2.175,2.175,0,0,1-.847.812,2.84,2.84,0,0,1-3.122-.441,3.208,3.208,0,0,1-.637-2.177V26.126H102.9v4.13a1.35,1.35,0,0,0,.259.91,1,1,0,0,0,.791.294,1.3,1.3,0,0,0,1-.42,1.573,1.573,0,0,0,.385-1.106V26.126Zm5.432,5.432a5.645,5.645,0,0,0,.672-.042l-.112,1.54a5.936,5.936,0,0,1-.812.056,3.235,3.235,0,0,1-2.289-.686,2.753,2.753,0,0,1-.721-2.086V27.708h-1.3V26.126h1.3V24.11h2.114v2.016h1.722v1.582h-1.722v2.618Q111.734,31.558,112.882,31.558Zm4.662-5.6a3.12,3.12,0,0,1,2.275.728,3.054,3.054,0,0,1,.735,2.254V33h-2V31.978a1.676,1.676,0,0,1-.7.833,2.149,2.149,0,0,1-1.148.3,2.822,2.822,0,0,1-1.267-.28,2.219,2.219,0,0,1-.9-.784,2.005,2.005,0,0,1-.329-1.12,1.73,1.73,0,0,1,.385-1.19,2.3,2.3,0,0,1,1.239-.63,10.944,10.944,0,0,1,2.338-.2h.364V28.66a1.163,1.163,0,0,0-.266-.868,1.335,1.335,0,0,0-.924-.252,3.987,3.987,0,0,0-1.12.182,5.449,5.449,0,0,0-1.176.5l-.56-1.414a5.735,5.735,0,0,1,1.449-.609A5.879,5.879,0,0,1,117.544,25.958Zm-.378,5.7a1.284,1.284,0,0,0,.994-.413,1.524,1.524,0,0,0,.378-1.071v-.238H118.3a4.784,4.784,0,0,0-1.589.182.659.659,0,0,0-.455.658.843.843,0,0,0,.259.63A.9.9,0,0,0,117.166,31.656Zm8.778-.1a5.645,5.645,0,0,0,.672-.042l-.112,1.54a5.936,5.936,0,0,1-.812.056,3.235,3.235,0,0,1-2.289-.686,2.753,2.753,0,0,1-.721-2.086V27.708h-1.3V26.126h1.3V24.11H124.8v2.016h1.722v1.582H124.8v2.618Q124.8,31.558,125.944,31.558Zm4.662-5.6a3.12,3.12,0,0,1,2.275.728,3.054,3.054,0,0,1,.735,2.254V33h-2V31.978a1.676,1.676,0,0,1-.7.833,2.149,2.149,0,0,1-1.148.3,2.822,2.822,0,0,1-1.267-.28,2.219,2.219,0,0,1-.9-.784,2.005,2.005,0,0,1-.329-1.12,1.73,1.73,0,0,1,.385-1.19,2.3,2.3,0,0,1,1.239-.63,10.944,10.944,0,0,1,2.338-.2h.364V28.66a1.163,1.163,0,0,0-.266-.868,1.335,1.335,0,0,0-.924-.252,3.987,3.987,0,0,0-1.12.182,5.449,5.449,0,0,0-1.176.5l-.56-1.414A5.735,5.735,0,0,1,129,26.2,5.879,5.879,0,0,1,130.606,25.958Zm-.378,5.7a1.284,1.284,0,0,0,.994-.413,1.524,1.524,0,0,0,.378-1.071v-.238h-.238a4.784,4.784,0,0,0-1.589.182.659.659,0,0,0-.455.658.843.843,0,0,0,.259.63A.9.9,0,0,0,130.228,31.656Zm7.112-.9V33h-2.268V30.76Z" transform="translate(119 256)" fill="#262626"/><path d="M-35.4-7.05h4.86v1.21h-3.34v1.65h3.14v1.21h-3.14v1.77h3.34V0H-35.4Zm9.32,3.26-.85.09a1.315,1.315,0,0,0-.89.355,1.144,1.144,0,0,0-.26.785V0h-1.51V-4.91h1.45v.83a1.627,1.627,0,0,1,1.53-.93l.44-.03Zm4.01,0-.85.09a1.315,1.315,0,0,0-.89.355,1.144,1.144,0,0,0-.26.785V0h-1.51V-4.91h1.45v.83a1.627,1.627,0,0,1,1.53-.93l.44-.03ZM-19.31.08a2.866,2.866,0,0,1-1.37-.315,2.209,2.209,0,0,1-.91-.89,2.743,2.743,0,0,1-.32-1.355,2.743,2.743,0,0,1,.32-1.355,2.177,2.177,0,0,1,.91-.885,2.9,2.9,0,0,1,1.37-.31,2.9,2.9,0,0,1,1.37.31,2.177,2.177,0,0,1,.91.885,2.743,2.743,0,0,1,.32,1.355,2.743,2.743,0,0,1-.32,1.355,2.209,2.209,0,0,1-.91.89A2.866,2.866,0,0,1-19.31.08Zm0-1.15q1.1,0,1.1-1.41a1.656,1.656,0,0,0-.285-1.06.991.991,0,0,0-.815-.35q-1.1,0-1.1,1.41T-19.31-1.07Zm7.03-2.72-.85.09a1.315,1.315,0,0,0-.89.355,1.144,1.144,0,0,0-.26.785V0h-1.51V-4.91h1.45v.83a1.627,1.627,0,0,1,1.53-.93l.44-.03ZM-6.65.08A2.575,2.575,0,0,1-8.54-.6a2.479,2.479,0,0,1-.69-1.85A2.711,2.711,0,0,1-8.9-3.805a2.273,2.273,0,0,1,.93-.9,2.91,2.91,0,0,1,1.39-.32,3.3,3.3,0,0,1,1.04.165,2.237,2.237,0,0,1,.81.445l-.4,1.03a2.248,2.248,0,0,0-.635-.355A1.974,1.974,0,0,0-6.44-3.87a1.187,1.187,0,0,0-.915.35A1.479,1.479,0,0,0-7.68-2.48a1.5,1.5,0,0,0,.325,1.045,1.178,1.178,0,0,0,.915.355,1.974,1.974,0,0,0,.675-.125A2.248,2.248,0,0,0-5.13-1.56l.4,1.04a2.385,2.385,0,0,1-.84.44A3.587,3.587,0,0,1-6.65.08Zm4.96,0A2.866,2.866,0,0,1-3.06-.235a2.209,2.209,0,0,1-.91-.89A2.743,2.743,0,0,1-4.29-2.48a2.743,2.743,0,0,1,.32-1.355,2.177,2.177,0,0,1,.91-.885,2.9,2.9,0,0,1,1.37-.31,2.9,2.9,0,0,1,1.37.31,2.177,2.177,0,0,1,.91.885A2.743,2.743,0,0,1,.91-2.48,2.743,2.743,0,0,1,.59-1.125a2.209,2.209,0,0,1-.91.89A2.866,2.866,0,0,1-1.69.08Zm0-1.15q1.1,0,1.1-1.41A1.656,1.656,0,0,0-.875-3.54a.991.991,0,0,0-.815-.35q-1.1,0-1.1,1.41T-1.69-1.07ZM6.8-7.05V0H5.3V-.73a1.538,1.538,0,0,1-.625.6A1.921,1.921,0,0,1,3.76.08,2,2,0,0,1,2.635-.245a2.156,2.156,0,0,1-.77-.91A3.127,3.127,0,0,1,1.59-2.5a3.061,3.061,0,0,1,.275-1.335A2.077,2.077,0,0,1,2.63-4.72a2.068,2.068,0,0,1,1.13-.31,1.936,1.936,0,0,1,.9.21,1.505,1.505,0,0,1,.625.59V-7.05ZM4.2-1.07a.973.973,0,0,0,.815-.365A1.667,1.667,0,0,0,5.3-2.48a1.645,1.645,0,0,0-.285-1.04A.979.979,0,0,0,4.2-3.88a1,1,0,0,0-.82.355A1.585,1.585,0,0,0,3.09-2.5a1.69,1.69,0,0,0,.29,1.055A.976.976,0,0,0,4.2-1.07Zm8.18-1.1H9.18a1.264,1.264,0,0,0,.385.855,1.353,1.353,0,0,0,.9.265,2.374,2.374,0,0,0,.755-.125A2.432,2.432,0,0,0,11.9-1.53l.4,1.01a2.729,2.729,0,0,1-.875.44A3.471,3.471,0,0,1,10.39.08,2.709,2.709,0,0,1,8.435-.605,2.461,2.461,0,0,1,7.72-2.47,2.778,2.778,0,0,1,8.03-3.8a2.273,2.273,0,0,1,.86-.905,2.41,2.41,0,0,1,1.25-.325,2.093,2.093,0,0,1,1.635.67,2.614,2.614,0,0,1,.6,1.82Zm-2.2-1.82a.889.889,0,0,0-.685.275,1.37,1.37,0,0,0-.315.795h1.93a1.305,1.305,0,0,0-.265-.8A.834.834,0,0,0,10.18-3.99Zm4.64-.92v1.6H13.2v-1.6Zm0,3.31V0H13.2V-1.6Zm9.07.31h-.96V0H21.41V-1.29H18.46V-2.44l3.22-4.61h1.25v4.57h.96ZM21.41-2.48v-2.2l-1.53,2.2ZM27.1.09a2.266,2.266,0,0,1-1.955-.93,4.539,4.539,0,0,1-.675-2.69A4.45,4.45,0,0,1,25.15-6.2,2.274,2.274,0,0,1,27.1-7.12a2.274,2.274,0,0,1,1.95.925,4.45,4.45,0,0,1,.68,2.665,4.539,4.539,0,0,1-.675,2.69A2.266,2.266,0,0,1,27.1.09Zm0-1.19a.881.881,0,0,0,.845-.58,4.752,4.752,0,0,0,.265-1.85,4.638,4.638,0,0,0-.265-1.83.881.881,0,0,0-.845-.57.881.881,0,0,0-.845.57,4.638,4.638,0,0,0-.265,1.83,4.752,4.752,0,0,0,.265,1.85A.881.881,0,0,0,27.1-1.1Zm8.79-.19h-.96V0H33.41V-1.29H30.46V-2.44l3.22-4.61h1.25v4.57h.96ZM33.41-2.48v-2.2l-1.53,2.2Z" transform="translate(207 304)" fill="rgba(63,63,63,0.5)"/></g></svg>