<svg xmlns="http://www.w3.org/2000/svg" xmlns:xlink="http://www.w3.org/1999/xlink" width="965.186" height="666.294" viewBox="0 0 965.186 666.294"><defs><linearGradient id="a" y1="0.5" x2="1" y2="0.5" gradientUnits="objectBoundingBox"><stop offset="0" stop-color="gray" stop-opacity="0.251"/><stop offset="0.54" stop-color="gray" stop-opacity="0.122"/><stop offset="1" stop-color="gray" stop-opacity="0.102"/></linearGradient></defs><g transform="translate(0 0.006)"><path d="M562.845,138.178c-61.867.083-121.416-17.455-178.375-36.938S270.991,59.94,210.274,50.7C171.226,44.753,126.822,45.3,96.3,66.876,66.917,87.633,58.408,121.989,54.3,153.729c-3.087,23.878-4.511,48.939,7.052,70.781,8.028,15.163,21.767,27.66,31.451,42.111,33.8,50.272,13.474,114.489-19.375,165.927-15.4,24.134-33.445,47.267-45.09,72.784S11.919,559.783,23.8,584.969c11.769,24.962,38.353,43.079,66.882,55.453,57.936,25.177,125.389,30.573,191.03,32.651,145.3,4.61,290.886-4.792,436.081-14.194,53.731-3.476,107.7-6.977,160.324-17.05,29.216-5.587,59.3-13.88,80.017-32.055,26.294-23.075,31.674-60.749,12.539-87.83-32.088-45.422-116.7-53.988-139.708-103.134-12.688-27.056-1.746-58.085,14.368-84.164,34.563-55.957,94.054-106.08,95.056-168.667C941.074,123,910.136,81.07,863.928,62.39,815.494,42.824,749.456,47.856,715.522,84.323,680.628,121.89,617.47,138.12,562.845,138.178Z" transform="translate(-16.91 -47.46)" fill="#f35" opacity="0.1"/><path d="M1005.223,692.059s-10.172-6.712-20.252-1.937c0,0,3.1,5.976,15.866,5.413Z" transform="translate(-183.754 -157.928)" fill="#f35"/><path d="M1009.6,693.25s3.1,11.786-4.668,19.806c0,0-4.668-4.858,0-16.76Z" transform="translate(-186.836 -158.762)" fill="#f35"/><path d="M1021.409,678.045s-.753-10.023-23.389-6.7c0,0-.108,6.464,7.838,9.526S1017.445,681.356,1021.409,678.045Z" transform="translate(-186.003 -154.871)" fill="#f35"/><path d="M1026.618,679.5s9.568,3.071,1.035,24.3c0,0-6.315-1.407-7.449-9.857S1022.43,682.579,1026.618,679.5Z" transform="translate(-189.788 -156.393)" fill="#f35"/><path d="M1038.886,659.212s1.3-16.5-21.833-14.807c0,0-1.656,14.9,17.753,18.771Z" transform="translate(-189.278 -150.323)" fill="#f35"/><path d="M1056.435,636.871s-3.17-18.7-26.295-13.127c0,0-.082,16.164,22.521,17.579Z" transform="translate(-191.539 -146.604)" fill="#f35"/><path d="M1069.533,613.691s-5.313-18.208-28.223-12.762c0,0,5.454,16.379,26.7,16.123Z" transform="translate(-193.464 -142.676)" fill="#f35"/><path d="M1082.543,590.863s-5.19-18.9-27.312-13.242c0,0,7.383,17.952,25.847,16.437Z" transform="translate(-195.864 -138.652)" fill="#f35"/><path d="M1091.365,568.359s-3.989-23.108-24.615-17.993c0,0,5.992,21.022,23.1,21.362Z" transform="translate(-197.849 -134.009)" fill="#f35"/><path d="M1098.9,542.489s-4.792-23.29-25.657-16.553c0,0,8.177,22.015,24.176,19.739Z" transform="translate(-198.967 -129.715)" fill="#f35"/><path d="M1104.057,517.207s-7.606-23.3-23.737-22.669c0,0,7.772,24.606,22.388,27.313Z" transform="translate(-200.188 -124.512)" fill="#f35"/><path d="M1107.623,492.836s-8.277-28.041-21.4-25.881c0,0,5.728,21.436,20.94,30.251Z" transform="translate(-201.204 -119.74)" fill="#f35"/><path d="M1109.511,464.94s-7.763-23.365-20.691-24.3c0,0,5.28,22.992,20.435,30.375Z" transform="translate(-201.653 -115.225)" fill="#f35"/><path d="M1111.918,438.659s-9.675-23.389-18.208-23.919c0,0,4.2,23.034,17.381,27.759Z" transform="translate(-202.495 -110.761)" fill="#f35"/><path d="M1113.981,413.391s-5.951-25.4-14.5-27.511c0,0,1.167,20.782,13.64,29.415Z" transform="translate(-203.49 -105.787)" fill="#f35"/><path d="M1118.155,382.14s-6.258-20.253-13.185-23.34c0,0,1.366,23.878,11.588,28.289Z" transform="translate(-204.436 -101.12)" fill="#f35"/><path d="M1123.046,358.565l1.258-35.705s-12.953,26.915-2.193,41.97Z" transform="translate(-206.654 -94.926)" fill="#f35"/><path d="M1135.161,317.358s9.328-26.071,11.587-27.528c0,0-18.291,16.917-16.5,38.676Z" transform="translate(-208.771 -89.233)" fill="#f35"/><path d="M1043.419,662.159s16.4-2.144,15.916,21.039c0,0-14.823,2.417-19.665-16.76Z" transform="translate(-193.182 -153.395)" fill="#f35"/><path d="M1062.063,639.06s18.953-.058,17.381,23.671c0,0-15.916,2.847-21.163-19.185Z" transform="translate(-196.389 -149.423)" fill="#f35"/><path d="M1075.313,618.09s17.207-8.07,28.214,12.762c0,0-15.891,6.721-29.737-9.394Z" transform="translate(-199.062 -145.544)" fill="#f35"/><path d="M1088.387,593.676s17.621-8.583,27.967,11.761c0,0-18.357,6.323-29.423-8.541Z" transform="translate(-201.327 -141.291)" fill="#f35"/><path d="M1096.058,571.382s16.959-16.2,30.491.182c0,0-17.323,13.334-31.269,3.426Z" transform="translate(-202.766 -136.527)" fill="#f35"/><path d="M1102.953,544.034s17.058-16.553,30.482.762c0,0-19.143,13.6-31.1,2.715Z" transform="translate(-203.983 -131.815)" fill="#f35"/><path d="M1106.93,517.643s13.143-20.691,28.62-16.073c0,0-13.639,21.908-28.471,20.931Z" transform="translate(-204.774 -125.611)" fill="#f35"/><path d="M1111.54,493.5s13.242-26.055,25.773-21.519c0,0-9.551,20.029-26.112,25.914Z" transform="translate(-205.51 -120.535)" fill="#f35"/><path d="M1112.444,464.567s13.615-20.509,26.369-18c0,0-11.132,20.8-27.693,23.936Z" transform="translate(-205.496 -116.21)" fill="#f35"/><path d="M1114,438.264s10.553-23.017,19.127-23.174c0,0-5.065,22.851-18.415,27.081Z" transform="translate(-205.992 -110.822)" fill="#f35"/><path d="M1116.5,413.656s11.728-23.307,20.542-23.356c0,0-6,19.93-20.153,25.4Z" transform="translate(-206.423 -106.549)" fill="#f35"/><path d="M1118.63,384.289s8.773-19.284,16.04-21.469c0,0-4.387,23.505-15.072,26.584Z" transform="translate(-206.79 -101.813)" fill="#f35"/><path d="M1124.794,358.93l19.607-29.87s-5.024,29.464-22.471,35.589Z" transform="translate(-207.359 -95.994)" fill="#f35"/><path d="M1139.673,322.2s22.785-15.725,23.612-18.266c0,0-11.587,22.024-33.106,25.914Z" transform="translate(-208.781 -91.663)" fill="#f35"/><path d="M1143.169,312.218s26.162-25.152,32.841-25.128c0,0-21.577.985-33.47,23.787Z" transform="translate(-210.911 -88.761)" fill="#f35"/><path d="M1118.94,379.772l.952.124c4.917-38.477,12.084-61.246,20.178-64.035l-.314-.91C1131.173,317.93,1123.956,340.351,1118.94,379.772Z" transform="translate(-206.844 -93.563)" fill="#444053"/><path d="M1110.2,484.694l1.44.116c.306-3.592.538-7.267.695-10.933,1.374-31.848,3.5-61.1,6.3-83.022l-.828-1.034c-2.805,21.974-5.537,52.1-6.911,84C1110.738,477.46,1110.506,481.118,1110.2,484.694Z" transform="translate(-205.337 -106.467)" fill="#444053"/><path d="M976.838,678.14c.248-.108,25.6-11.43,51.91-38.428a208.754,208.754,0,0,0,37.948-53.8c12.167-24.772,19.582-55.213,22.065-84.785l-1.5.7c-5.587,66.377-35.8,111.733-59.831,136.438-26.055,26.758-51.124,37.964-51.372,38.072Z" transform="translate(-182.218 -125.651)" fill="#444053"/><path d="M889.228,132.69H93.955a7.085,7.085,0,0,0-7.085,7.085v20.642H896.313V139.775A7.085,7.085,0,0,0,889.228,132.69Z" transform="translate(-28.968 -62.15)" fill="#262626"/><path d="M86.87,166.19V630.7a14.285,14.285,0,0,0,14.285,14.285H882.028A14.285,14.285,0,0,0,896.313,630.7V166.19Z" transform="translate(-28.968 -67.924)" fill="#fff"/><circle cx="3.311" cy="3.311" r="3.311" transform="translate(67.412 80.885)" fill="#fa5959" opacity="0.8"/><circle cx="3.311" cy="3.311" r="3.311" transform="translate(76.516 80.885)" fill="#fed253" opacity="0.8"/><circle cx="3.311" cy="3.311" r="3.311" transform="translate(85.621 80.885)" fill="#8ccf4d" opacity="0.8"/><rect width="650.534" height="286.053" transform="translate(133.144 175.718)" opacity="0.05"/><rect width="640.602" height="279.746" rx="19" transform="translate(138.11 177.886)" fill="#262626"/><path d="M381.509,349.38a63.729,63.729,0,1,0,63.729,63.729,63.729,63.729,0,0,0-63.729-63.729Zm11.43,65.26v30.176H370.41V414.64a18.663,18.663,0,1,1,22.529,0Z" transform="translate(-68.765 -99.497)" fill="#f35"/><path d="M381.509,349.38a63.729,63.729,0,1,0,63.729,63.729,63.729,63.729,0,0,0-63.729-63.729Zm11.43,65.26v30.176H370.41V414.64a18.663,18.663,0,1,1,22.529,0Z" transform="translate(-68.765 -99.497)" opacity="0.05"/><path d="M377.717,327.38a81.937,81.937,0,1,0,81.937,81.937,81.937,81.937,0,0,0-81.937-81.937Zm14.691,83.907v38.792H363.44V411.287a24,24,0,1,1,28.968,0Z" transform="translate(-64.973 -95.705)" fill="#f35"/><rect width="264.848" height="28.14" rx="4" transform="translate(428.616 302.861)" fill="#fff"/><rect width="57.108" height="28.14" rx="4" transform="translate(636.356 354.176)" fill="#f35"/><path d="M563.781,428.674h-4.792l4.263-4.254a.422.422,0,0,0,0-.588.414.414,0,0,0-.588,0l-4.263,4.262v-4.8a.414.414,0,0,0-.414-.414.422.422,0,0,0-.414.414v4.8l-4.254-4.287a.414.414,0,0,0-.588,0,.422.422,0,0,0,0,.588l4.263,4.254h-4.8a.422.422,0,0,0-.414.414.414.414,0,0,0,.414.414h4.8l-4.263,4.262a.422.422,0,0,0,0,.588.431.431,0,0,0,.588,0l4.254-4.262v4.792a.414.414,0,1,0,.828,0v-4.792l4.263,4.262a.43.43,0,0,0,.588,0,.422.422,0,0,0,0-.588l-4.263-4.262h4.792a.4.4,0,1,0,0-.8Z" transform="translate(-109.094 -112.164)" fill="#f35"/><path d="M584.781,428.674h-4.792l4.263-4.254a.422.422,0,0,0,0-.588.414.414,0,0,0-.588,0l-4.262,4.262v-4.8a.414.414,0,0,0-.414-.414.422.422,0,0,0-.414.414v4.8l-4.254-4.287a.414.414,0,0,0-.588,0,.422.422,0,0,0,0,.588l4.262,4.254h-4.8a.422.422,0,0,0-.414.414.414.414,0,0,0,.414.414h4.8l-4.262,4.262a.422.422,0,0,0,0,.588.43.43,0,0,0,.588,0l4.254-4.262v4.792a.414.414,0,1,0,.828,0v-4.792l4.262,4.262a.43.43,0,0,0,.588,0,.422.422,0,0,0,0-.588l-4.263-4.262h4.792a.4.4,0,1,0,0-.8Z" transform="translate(-112.714 -112.164)" fill="#f35"/><path d="M605.781,428.674h-4.792l4.262-4.254a.422.422,0,0,0,0-.588.414.414,0,0,0-.588,0l-4.263,4.262v-4.8a.414.414,0,0,0-.414-.414.422.422,0,0,0-.414.414v4.8l-4.254-4.287a.414.414,0,0,0-.588,0,.422.422,0,0,0,0,.588l4.262,4.254h-4.8a.422.422,0,0,0-.414.414.414.414,0,0,0,.414.414h4.8l-4.262,4.262a.422.422,0,0,0,0,.588.43.43,0,0,0,.588,0l4.254-4.262v4.792a.414.414,0,1,0,.828,0v-4.792l4.263,4.262a.43.43,0,0,0,.588,0,.422.422,0,0,0,0-.588l-4.262-4.262h4.792a.4.4,0,1,0,0-.8Z" transform="translate(-116.333 -112.164)" fill="#f35"/><path d="M626.781,428.674h-4.792l4.263-4.254a.423.423,0,0,0,0-.588.414.414,0,0,0-.588,0l-4.262,4.262v-4.8a.414.414,0,0,0-.414-.414.422.422,0,0,0-.414.414v4.8l-4.254-4.287a.414.414,0,0,0-.588,0,.422.422,0,0,0,0,.588l4.263,4.254h-4.8a.422.422,0,0,0-.414.414.414.414,0,0,0,.414.414h4.8l-4.263,4.262a.422.422,0,0,0,0,.588.43.43,0,0,0,.588,0l4.254-4.262v4.792a.414.414,0,1,0,.827,0v-4.792l4.263,4.262a.43.43,0,0,0,.588,0,.423.423,0,0,0,0-.588l-4.263-4.262h4.792a.4.4,0,1,0,0-.8Z" transform="translate(-119.952 -112.164)" fill="#f35"/><path d="M647.781,428.674h-4.792l4.262-4.254a.422.422,0,0,0,0-.588.414.414,0,0,0-.588,0l-4.262,4.262v-4.8a.414.414,0,0,0-.414-.414.422.422,0,0,0-.414.414v4.8l-4.254-4.287a.414.414,0,0,0-.587,0,.422.422,0,0,0,0,.588l4.262,4.254h-4.8a.422.422,0,0,0-.414.414.414.414,0,0,0,.414.414h4.8l-4.262,4.262a.422.422,0,0,0,0,.588.43.43,0,0,0,.587,0l4.254-4.262v4.792a.414.414,0,1,0,.828,0v-4.792l4.263,4.262a.43.43,0,0,0,.588,0,.422.422,0,0,0,0-.588l-4.262-4.262h4.792a.4.4,0,1,0,0-.8Z" transform="translate(-123.572 -112.164)" fill="#f35"/><path d="M668.781,428.674h-4.792l4.262-4.254a.422.422,0,0,0,0-.588.414.414,0,0,0-.588,0l-4.263,4.262v-4.8a.414.414,0,0,0-.414-.414.422.422,0,0,0-.414.414v4.8l-4.254-4.287a.414.414,0,0,0-.587,0,.422.422,0,0,0,0,.588l4.262,4.254h-4.8a.422.422,0,0,0-.414.414.414.414,0,0,0,.414.414h4.8l-4.262,4.262a.422.422,0,0,0,0,.588.43.43,0,0,0,.587,0l4.254-4.262v4.792a.414.414,0,1,0,.828,0v-4.792l4.263,4.262a.43.43,0,0,0,.588,0,.422.422,0,0,0,0-.588l-4.262-4.262h4.792a.4.4,0,1,0,0-.8Z" transform="translate(-127.191 -112.164)" fill="#f35"/><path d="M689.781,428.674h-4.792l4.262-4.254a.422.422,0,0,0,0-.588.414.414,0,0,0-.588,0l-4.262,4.262v-4.8a.414.414,0,0,0-.414-.414.422.422,0,0,0-.414.414v4.8l-4.254-4.287a.414.414,0,0,0-.588,0,.422.422,0,0,0,0,.588l4.263,4.254h-4.8a.422.422,0,0,0-.414.414.414.414,0,0,0,.414.414h4.8l-4.263,4.262a.422.422,0,0,0,0,.588.43.43,0,0,0,.588,0l4.254-4.262v4.792a.414.414,0,0,0,.828,0v-4.792l4.262,4.262a.431.431,0,0,0,.588,0,.422.422,0,0,0,0-.588l-4.262-4.262h4.792a.4.4,0,1,0,0-.8Z" transform="translate(-130.81 -112.164)" fill="#f35"/><path d="M710.781,428.674h-4.792l4.262-4.254a.423.423,0,0,0,0-.588.414.414,0,0,0-.588,0l-4.262,4.262v-4.8a.414.414,0,0,0-.414-.414.422.422,0,0,0-.414.414v4.8l-4.254-4.287a.414.414,0,0,0-.588,0,.422.422,0,0,0,0,.588l4.263,4.254h-4.8a.422.422,0,0,0-.414.414.413.413,0,0,0,.414.414h4.8l-4.263,4.262a.422.422,0,0,0,0,.588.43.43,0,0,0,.588,0l4.254-4.262v4.792a.414.414,0,1,0,.828,0v-4.792l4.262,4.262a.43.43,0,0,0,.588,0,.423.423,0,0,0,0-.588l-4.262-4.262h4.792a.4.4,0,1,0,0-.8Z" transform="translate(-134.43 -112.164)" fill="#f35"/><path d="M731.781,428.674h-4.792l4.263-4.254a.423.423,0,0,0,0-.588.414.414,0,0,0-.588,0l-4.262,4.262v-4.8a.414.414,0,0,0-.414-.414.422.422,0,0,0-.414.414v4.8l-4.254-4.287a.414.414,0,0,0-.588,0,.422.422,0,0,0,0,.588l4.262,4.254h-4.8a.422.422,0,0,0-.414.414.414.414,0,0,0,.414.414h4.8l-4.262,4.262a.422.422,0,0,0,0,.588.43.43,0,0,0,.588,0l4.254-4.262v4.792a.414.414,0,1,0,.828,0v-4.792l4.262,4.262a.431.431,0,0,0,.588,0,.423.423,0,0,0,0-.588l-4.263-4.262h4.792a.4.4,0,1,0,0-.8Z" transform="translate(-138.049 -112.164)" fill="#f35"/><path d="M752.781,428.674h-4.792l4.263-4.254a.423.423,0,0,0,0-.588.414.414,0,0,0-.588,0l-4.263,4.262v-4.8a.414.414,0,0,0-.414-.414.422.422,0,0,0-.414.414v4.8l-4.254-4.287a.414.414,0,0,0-.588,0,.422.422,0,0,0,0,.588l4.262,4.254h-4.8a.422.422,0,0,0-.414.414.414.414,0,0,0,.414.414h4.8l-4.262,4.262a.422.422,0,0,0,0,.588.43.43,0,0,0,.588,0l4.254-4.262v4.792a.414.414,0,1,0,.828,0v-4.792l4.263,4.262a.43.43,0,0,0,.588,0,.423.423,0,0,0,0-.588l-4.263-4.262h4.792a.4.4,0,1,0,0-.8Z" transform="translate(-141.668 -112.164)" fill="#f35"/><path d="M773.781,428.674h-4.792l4.262-4.254a.422.422,0,0,0,0-.588.414.414,0,0,0-.588,0l-4.262,4.262v-4.8a.414.414,0,0,0-.414-.414.422.422,0,0,0-.414.414v4.8l-4.254-4.287a.414.414,0,0,0-.588,0,.422.422,0,0,0,0,.588l4.262,4.254h-4.8a.422.422,0,0,0-.414.414.414.414,0,0,0,.414.414h4.8l-4.262,4.262a.422.422,0,0,0,0,.588.43.43,0,0,0,.588,0l4.254-4.262v4.792a.414.414,0,1,0,.828,0v-4.792l4.262,4.262a.43.43,0,0,0,.588,0,.422.422,0,0,0,0-.588l-4.262-4.262h4.792a.4.4,0,1,0,0-.8Z" transform="translate(-145.288 -112.164)" fill="#f35"/><path d="M911.1,537.022a14.8,14.8,0,0,0-.372-2.971c-.745-2.8-2.425-6.182-5.189-7.027a43.571,43.571,0,0,1-8.227-3.476c-.5-8.873,1.54-17.952-.679-26.551-.828-3.145-2.193-6.158-2.557-9.377-.455-4.006.637-8.277-.96-11.968a11.81,11.81,0,0,0-6.994-6.042,37.264,37.264,0,0,0-9.328-1.655c-3.973-.323-16.835-1.846-21.32,1.7h0a4.7,4.7,0,0,0-.828.828h0a3.328,3.328,0,0,0-.265.43l-.041.066a3.378,3.378,0,0,0-.224.538h0a4.193,4.193,0,0,0-.141.621v1.49c.058.745.166,1.49.166,2.226a4.8,4.8,0,0,1-.1,1.093,7.65,7.65,0,0,1-1.374,2.682h0l-.149.215c-.091.132-.182.256-.265.389s-.149.232-.215.348-.133.19-.19.3a4.006,4.006,0,0,0-.215.422c0,.083-.091.157-.124.24a4.075,4.075,0,0,0-.248.7,4.622,4.622,0,0,0-.05,2.2,8.194,8.194,0,0,0,1.134,2.607c.207.339.43.671.662,1l.579.786a17.878,17.878,0,0,0-.174,2.317,17.122,17.122,0,0,0,6.536,13.456,50.7,50.7,0,0,1-.106,10.5c-.074.728-.165,1.465-.265,2.193s-.174,1.208-.273,1.813a8.4,8.4,0,0,1-3.617-.273,17,17,0,0,0-1.655-.637c-2.409-.6-4.867,1.8-7.25,1.067a.968.968,0,0,1-.108.331,3.246,3.246,0,0,0-1.655-.488c-1.415-.066-2.566-1.093-3.592-2.061l-3.153-2.971a3.484,3.484,0,0,1-.546-.612,4.3,4.3,0,0,1-.381-1.018,11.73,11.73,0,0,0-3.054-4.378,2.069,2.069,0,0,0-.9-.654,1.378,1.378,0,0,0-.414,0,3.6,3.6,0,0,0-.273-.331,7.757,7.757,0,0,0-.687-.7c-1.506-1.39-1.655-2.582-2.963-4.138a39.743,39.743,0,0,1-3.1-4.676c-.108-.869-.257-1.763-.439-2.665a34.3,34.3,0,0,0-1.813-6.042l-1.655-3.666-.19.19c-1.2-1.788-2.483-2.764-3.633-2.533-1.928.4-2.88,4.138-2.574,9.03l.662,4.966a1.519,1.519,0,0,0,.091.372,9.166,9.166,0,0,0-.182,1.788c0,.7.646,1.208.985,1.829a5.171,5.171,0,0,1,.828,2.822c-.041.356-.149.7-.165,1.043a4.011,4.011,0,0,0,.778,2.152l4.138,6.952.828,1.457.05.066a3.535,3.535,0,0,0,1.109,1.275,15.16,15.16,0,0,0,1.365,5.024c.141.315.3.612.463.91a29.28,29.28,0,0,0,3.907,5.073l1.97,2.21c1.945,2.168,3.89,4.345,6,6.348a8.03,8.03,0,0,0,2.681,1.879,3.037,3.037,0,0,0,3.013-.438v3.079a1.73,1.73,0,0,1,1.308,2.723,68.246,68.246,0,0,1-6.125,12.961,27.6,27.6,0,0,1,5.132,3.915,23.087,23.087,0,0,1,2.673,3.617c.074.612.132,1.217.166,1.821.612,9.865-3.2,19.657-6.621,29.059-.985,2.665-2.061,5.454-1.978,8.227a16.161,16.161,0,0,0-1.854,1.332c.679,1.771.414,3.352.339,5.247a9.288,9.288,0,0,1-.687,3.31,23.16,23.16,0,0,1-1.192,2.127c-2.144,3.782-2.615,8.276-3.046,12.6-.257,2.607.753,5.794-.43,8.128-2.044,4.006-3.857,8.276-4.138,12.729a12.769,12.769,0,0,1-.381,2.971c-.257.827-.712,1.531-.944,2.342a10.028,10.028,0,0,0-.166,3.311A31.679,31.679,0,0,1,824.5,668.8c-1.035,2.955-2.177,6.116-1.366,9.154a12.9,12.9,0,0,0-3.5,7.689,12.122,12.122,0,0,1-.265,2.193,10.67,10.67,0,0,1-.993,2.11,18.471,18.471,0,0,0-2.251,9.932c-2.483,3.369-3.724,7.523-4.461,11.653s-1.059,8.334-2,12.415c-1.258,5.4-3.534,10.85-3.981,16.379-2.682,1.713-3.841,5.032-4.353,8.169s-.6,6.431-1.912,9.327c-.679,1.507-1.655,2.856-2.3,4.4a20.173,20.173,0,0,0-.993,3.782,14.759,14.759,0,0,0-.256,6.207,9.35,9.35,0,0,1-2.425,1.846c.132-.513.24-1.026.331-1.548-2.136,1.937-6.009,1.258-7.714,3.584a3.493,3.493,0,0,0,.828,4.792,6.63,6.63,0,0,0,1.713.737c4.138,1.324,8.392,2.657,12.646,1.953a3.767,3.767,0,0,0,1.432-.455A4.6,4.6,0,0,0,804,781.577c.637-1.01,1.275-2.019,1.9-3.029a39.262,39.262,0,0,0,4.643,1.084c.157,1.324.273,2.649.331,3.973.828.166,1.937.215,2.326-.555a2.011,2.011,0,0,0,.141-.919c0-.587.083-1.366.133-2.16h.166a15.721,15.721,0,0,0,7.325-1.481c-.886-7.333,2.036-14.5,4.569-21.436,2.673-7.3,4.966-14.732,7.275-22.165,1.655-5.231,3.484-10.3,5.106-15.535q3.062-9.932,6.15-19.864c.894-2.913,1.8-5.794,2.822-8.69a135.426,135.426,0,0,1,7.672-17.075c.828-1.564,1.656-3.112,2.334-4.734.828-1.978,1.416-4.047,2.078-6.092a94.37,94.37,0,0,1,5.2-12.233c.058-.108.1-.207.157-.306.67,2.74,1.341,5.521,1.788,8.276a31.456,31.456,0,0,1,.141,10.23c-.4,2.309-1.151,4.593-1.06,6.936.124,3.236,1.854,6.174,2.706,9.295a35.356,35.356,0,0,1,.927,7.118c.232,3.724,2.251,7.9.828,11.355-4.428,10.933-2.284,23.282-4.809,34.761-1.3,5.893-5.28,11.43-4.966,17.455q.331,6.414,1.126,12.8a12.178,12.178,0,0,0,1.035,3.882,14.245,14.245,0,0,0,1.134,1.854c-.364.141-.67.513-.935,1.3a5.107,5.107,0,0,0,1.837,5.794,8.039,8.039,0,0,0,2.392.827,12.594,12.594,0,0,0,3.459.48,8.076,8.076,0,0,0,1.084-.132,39.457,39.457,0,0,0,3.915,1.407,8.483,8.483,0,0,0,.108,1.018,1.265,1.265,0,0,0,.431.935,1.291,1.291,0,0,0,.662.116h4.494v-1.125a3.7,3.7,0,0,0,2.856-.927,4.418,4.418,0,0,0,.828-1.722q1.837-6.232,3.65-12.473a39.871,39.871,0,0,0,1.78-14.235c-1.6-15.254,1.912-30.557.77-45.852a109.836,109.836,0,0,1,1.407-27.511c.373-2.053.828-4.138.993-6.183.364-3.857-.083-7.755.19-11.587.091-1.341.273-2.673.438-4.006a192.344,192.344,0,0,0,1.78-24.954,78.737,78.737,0,0,0-.513-8.277,4.727,4.727,0,0,0,2.259-1.324c.737-.96.546-2.309.538-3.534,0-2.93,1.233-5.694,2.227-8.459a100.49,100.49,0,0,0,3.129-11.637,40.64,40.64,0,0,0,1.391-9.725q0-.5-.05-.993a2.566,2.566,0,0,0,.761-.828,4.809,4.809,0,0,0,.4-1.531c.3-2.11.6-4.229.9-6.348q.331-2.276.654-4.544l2.632-18.366c.224-1.6.455-3.186.679-4.776l.687-4.751c.074-.563.157-1.126.215-1.655C913.247,545.365,911.318,540.863,911.1,537.022Zm-21.958,68.761c-.977-2.317-1.887-4.693-1.655-7.192H887.4a3.693,3.693,0,0,0-.108-2.334c-.256-.6-.7-1.117-.977-1.722a6.308,6.308,0,0,1-.447-2.317,63.181,63.181,0,0,1,1.184-15.014c.108-.579.224-1.167.331-1.746a4.325,4.325,0,0,0,.944-.737,6.722,6.722,0,0,0,1.068-1.655c.935-1.879,1.788-3.791,2.574-5.736.257-.629.629-1.357,1.266-1.515-.132,4.842.364,9.783-1.606,14.153a8.949,8.949,0,0,0-.828,2.235c-.182,1.233.331,2.483.149,3.708-.091.637-.364,1.225-.472,1.854a1.813,1.813,0,0,0,.48,1.755,1.443,1.443,0,0,0,.356.182c-.05.331-.091.67-.124.993-.066.679-.1,1.316-.141,1.713a53.42,53.42,0,0,0-.223,6.091c0,2.193.083,4.387.05,6.621a4.5,4.5,0,0,1-.314,1.879,3.263,3.263,0,0,1-.629.828A21.467,21.467,0,0,0,889.145,605.784Z" transform="translate(-149.366 -119.829)" fill="url(#a)"/><ellipse cx="4.668" cy="13.218" rx="4.668" ry="13.218" transform="matrix(0.98, -0.201, 0.201, 0.98, 664.572, 364.961)" fill="#fbbebe"/><path d="M878.346,839.243a5.011,5.011,0,0,0,1.837,5.735,8.172,8.172,0,0,0,2.375.828,12.533,12.533,0,0,0,3.451.472c1.432-.066,2.806-.629,4.238-.828a.664.664,0,0,1,.488.066.7.7,0,0,1,.182.579,21.876,21.876,0,0,0,.182,2.433,1.25,1.25,0,0,0,.43.935,1.291,1.291,0,0,0,.662.116h4.486a43.747,43.747,0,0,0-1.283-11.7,2.618,2.618,0,0,0-.331-.828,2.741,2.741,0,0,0-1.432-.828,8,8,0,0,0-3.468-.6,10.15,10.15,0,0,0-3.89,1.9,5.928,5.928,0,0,1-4.411,1.068C880.366,838.192,879.116,836.942,878.346,839.243Z" transform="translate(-165.333 -183.298)" fill="#262626"/><path d="M797.663,835.256a12.409,12.409,0,0,1-4.527,3.079l-.761.364a.529.529,0,0,0-.256.207.446.446,0,0,0,.083.372,5.355,5.355,0,0,0,6.075,2.21,3.221,3.221,0,0,0,1.333-.7,4.37,4.37,0,0,0,1.026-2.665,5.454,5.454,0,0,0-.124-3.054C799.36,832.483,798.938,833.659,797.663,835.256Z" transform="translate(-150.514 -182.944)" fill="#fbbebe"/><path d="M813.806,845.552a2.019,2.019,0,0,1-.141.919c-.389.761-1.473.72-2.318.554a55.655,55.655,0,0,0-1.018-8.359c-1.605-.075-2.764,1.448-3.625,2.814L804.487,845a4.587,4.587,0,0,1-1.324,1.539,3.924,3.924,0,0,1-1.432.455c-4.238.7-8.517-.629-12.605-1.953a6.676,6.676,0,0,1-1.713-.728,3.5,3.5,0,0,1-.828-4.784c1.714-2.317,5.562-1.655,7.7-3.575a19.282,19.282,0,0,1-1.092,3.948c2.855-.43,4.776-3.046,7.076-4.792a4.356,4.356,0,0,1,2.02-.96,4.445,4.445,0,0,1,1.655.174,19.422,19.422,0,0,1,7.283,3.584c.869.687,2.227,1.655,2.607,2.715C814.237,841.885,813.806,844.2,813.806,845.552Z" transform="translate(-149.459 -183.043)" fill="#262626"/><circle cx="17.099" cy="17.099" r="17.099" transform="translate(704.182 355.235)" fill="#fbbebe"/><path d="M925.4,618.188a40.545,40.545,0,0,1-1.382,9.675,99.87,99.87,0,0,1-3.128,11.587c-.985,2.756-2.218,5.521-2.21,8.442,0,1.216.2,2.566-.546,3.526a5.149,5.149,0,0,1-2.417,1.382,3.021,3.021,0,0,0-2.036,1.813,12.79,12.79,0,0,1-1.721-3.791q-2.226-6.82-4.138-13.714a1.778,1.778,0,0,1,.116-1.655,2.053,2.053,0,0,1,.72-.406,7.451,7.451,0,0,0,2.293-1.473,3.353,3.353,0,0,0,.761-.985,4.461,4.461,0,0,0,.323-1.871c0-2.193,0-4.378-.058-6.572a54.793,54.793,0,0,1,.232-6.067c0-.4.075-1.035.141-1.713.124-1.3.373-2.806,1.076-3.311,1.051-.7,4.2.24,5.388.406,2.053.281,4.138.613,6.141,1A16.368,16.368,0,0,1,925.4,618.188Z" transform="translate(-170.431 -144.897)" fill="#262626"/><path d="M841.771,516.893c-.662,1.324-2.251,1.962-3.476,2.8l-4.2,2.88a2.8,2.8,0,0,1-2.077.712,2.731,2.731,0,0,1-1.547-1.448.317.317,0,0,0,0-.066l-.869-1.457-4.138-6.936a3.949,3.949,0,0,1-.77-2.135c0-.356.124-.687.157-1.043a5.009,5.009,0,0,0-.828-2.814c-.331-.621-.993-1.134-.977-1.829a6.621,6.621,0,0,1,.464-2.673,5.413,5.413,0,0,1,1.812-1.937c.389-.281.786-.546,1.2-.828a2.368,2.368,0,0,1,.72-.331c.687-.141,1.366.43,2.061.455,2.988,2,4.138,5.794,6.489,8.525,1.324,1.556,1.457,2.748,2.955,4.138.24.215.472.447.7.687a4.806,4.806,0,0,1,.745,1.076C840.463,515.378,842.11,516.214,841.771,516.893Z" transform="translate(-155.847 -125.415)" fill="#262626"/><path d="M879.525,515.38c1.233,2.607,2.193,5.471,1.838,8.334a5.21,5.21,0,0,1-.72,2.193c-1.192,1.829-3.691,2.16-5.868,2.268a3.46,3.46,0,0,0-2.549.828,2.318,2.318,0,0,0,.157,2.831,6.387,6.387,0,0,0,2.533,1.655c3.443,1.515,7.159,2.764,10.9,2.417,1.738-.165,3.427-.67,5.156-.927a54.174,54.174,0,0,1,5.678-.314c2.251-.083,4.494-.306,6.737-.53l5.943-.588a1.324,1.324,0,0,0,.886-.323c.439-.513-.124-1.266-.67-1.655-3.153-2.334-7.167-3.94-8.963-7.449-.828-1.655-1.084-3.625-1.7-5.413a45.445,45.445,0,0,1-1.97-5.223,34.654,34.654,0,0,1-.273-4.817,6.464,6.464,0,0,0-1.655-4.4,6.9,6.9,0,0,0-4.5-1.448c-3.956-.174-8.169.77-10.975,3.559-.753.753-1.4,1.655-2.177,2.334s-1.837.877-1.324,1.771,1.523,1.448,2.069,2.235a19.043,19.043,0,0,1,1.449,2.665Z" transform="translate(-164.252 -125.938)" fill="#fbbebe"/><path d="M909.5,542.66a94.031,94.031,0,0,1-5.065,18.647,70.3,70.3,0,0,0-2.98,8.359c-.637,2.566-.513,5.313-1.1,7.888-.728,3.2-1.457,6.414-2.044,9.642a63.205,63.205,0,0,0-1.175,14.981,6.26,6.26,0,0,0,.447,2.309c.273.6.712,1.109.968,1.721a4.138,4.138,0,0,1-.232,3.311,9.6,9.6,0,0,1-1.705,2.582c-7.714,2.3-15.966,1.548-24,2.036-7.407.447-14.9,1.97-22.2.7-.828-3.311.554-6.779,1.738-10.006,3.435-9.377,7.234-19.144,6.621-28.968a29.922,29.922,0,0,0-.389-3.418c-1.2-6.961.108-14.169,2.2-20.915,1.3-4.2,1.242-8.682.943-13.06a23.851,23.851,0,0,1-.058-4.279,7.524,7.524,0,0,1,1.556-4c0-.058.075-.116.116-.174a1.133,1.133,0,0,1,.621,0h0a.53.53,0,0,0,.414,0l.091-.058a.207.207,0,0,1,.24,0c.19.116.3.513.712.588a16.491,16.491,0,0,0,1.846.174,9.94,9.94,0,0,1,2.2.315h.1a6.461,6.461,0,0,0,3.211-.273,8.533,8.533,0,0,0,1.97-.762c.182-.2,1.324-.381,1.556-.521.753-.455.588-2.591.745-3.468a9.543,9.543,0,0,1,.621-2.566,4.371,4.371,0,0,1,3.543-2.061,18.847,18.847,0,0,1,4.246.381c3.087.439,6.249.364,9.278,1.076,1.523.356,3.186.894,4.585.2.381.091.439.422.439.828a5.286,5.286,0,0,1-.232,1.134c-.53,2.284,1.266,4.387,2.922,6.042a9.371,9.371,0,0,0,2.442,1.945c.828.381,1.655.538,2.483.952a4.517,4.517,0,0,1,1.655,1.515,6.322,6.322,0,0,1,.944,2.409,14.4,14.4,0,0,1-.273,4.792Z" transform="translate(-160.521 -129.141)" fill="#262626"/><path d="M911.126,544.438a94.012,94.012,0,0,1-5.065,18.647,70.211,70.211,0,0,0-2.979,8.359c-.637,2.566-.513,5.313-1.1,7.888-.728,3.2-1.456,6.414-2.044,9.642-.174.1-.356.19-.538.273a12.7,12.7,0,0,1-3.244,1.043,19.872,19.872,0,0,1-6.058-.2l-11.811-1.581c-4.718-.637-9.741-1.407-13.242-4.6-1.945-1.755-3.22-4.072-4.619-6.307a30.006,30.006,0,0,0-.389-3.418c-1.2-6.961.108-14.169,2.2-20.915,1.3-4.2,1.241-8.682.943-13.06a23.854,23.854,0,0,1-.058-4.279,7.523,7.523,0,0,1,1.556-4,5.893,5.893,0,0,1,.737-.166h0a3.7,3.7,0,0,1,.5-.066h.24a3.622,3.622,0,0,1,.828.1,15.008,15.008,0,0,1,1.655.637h.1a6.331,6.331,0,0,0,2.2.315c1.093,0,2.218-.174,3.311-.248a6.108,6.108,0,0,1,3.923.7,23.478,23.478,0,0,1,2.185,1.994,9.382,9.382,0,0,0,2.756,1.5,29.289,29.289,0,0,0,22.032-.463,4.31,4.31,0,0,1,2.21-.563,4.14,4.14,0,0,1,1.589.679c.5.289.985.571,1.49.828a6.326,6.326,0,0,1,.944,2.408A14.4,14.4,0,0,1,911.126,544.438Z" transform="translate(-162.143 -130.919)" opacity="0.1"/><path d="M916.846,538.628a44.165,44.165,0,0,1-9.435-4.138,4.224,4.224,0,0,0-1.589-.679,4.445,4.445,0,0,0-2.218.563,29.274,29.274,0,0,1-22.024.463,9.58,9.58,0,0,1-2.756-1.5,24.767,24.767,0,0,0-2.185-1.995c-2.723-1.763-6.489.306-9.535-.828a16.915,16.915,0,0,0-1.656-.637c-2.408-.6-4.858,1.8-7.225,1.068a40.266,40.266,0,0,0-1.945,7.383,80.513,80.513,0,0,0-.538,8.707c0,1.746-.083,3.493,0,5.239a1.719,1.719,0,0,1,1.308,2.715,67.845,67.845,0,0,1-6.108,12.919,28.074,28.074,0,0,1,5.115,3.907c2.9,3.062,4.32,7.358,7.449,10.188,3.526,3.186,8.55,3.964,13.242,4.593l11.811,1.581a20.182,20.182,0,0,0,6.067.207,12.78,12.78,0,0,0,3.236-1.051,5.8,5.8,0,0,0,1.8-1.192,6.621,6.621,0,0,0,1.067-1.655c.935-1.87,1.788-3.782,2.574-5.719.273-.687.687-1.49,1.432-1.547,4.386-3.956,8.525-8.012,12.911-11.968a28.609,28.609,0,0,0,4.71-4.966c2.177-3.22.2-7.78,0-11.67a14.724,14.724,0,0,0-.373-2.955C921.274,542.841,919.6,539.464,916.846,538.628Z" transform="translate(-160.654 -130.589)" fill="#f35"/><path d="M843.316,519.741c-.662,1.324-2.251,1.961-3.476,2.8l-4.2,2.88a2.8,2.8,0,0,1-2.078.712,2.731,2.731,0,0,1-1.548-1.448v-.6a5.553,5.553,0,0,1,.265-1.978,6.166,6.166,0,0,1,1.854-2.384,15.177,15.177,0,0,1,5.438-3.311,1.863,1.863,0,0,1,.993-.1,1.312,1.312,0,0,1,.364.157,4.808,4.808,0,0,1,.745,1.076C842.009,518.226,843.656,519.062,843.316,519.741Z" transform="translate(-157.392 -128.263)" opacity="0.1"/><path d="M853.412,528.576c-1.407-.066-2.557-1.084-3.584-2.053l-3.137-2.913a2.925,2.925,0,0,1-.546-.612,4.281,4.281,0,0,1-.381-1.018,11.678,11.678,0,0,0-3.046-4.37,1.986,1.986,0,0,0-.9-.646,1.811,1.811,0,0,0-1,.1,15.138,15.138,0,0,0-5.438,3.31,6.181,6.181,0,0,0-1.854,2.384,5.5,5.5,0,0,0-.265,1.978,15.2,15.2,0,0,0,1.44,6.323c.141.306.3.612.463.911a28.69,28.69,0,0,0,3.89,5.057l1.97,2.2c1.937,2.168,3.873,4.337,5.975,6.332a7.9,7.9,0,0,0,2.682,1.87,3,3,0,0,0,3.079-.5,4.454,4.454,0,0,0,.877-1.573c1.275-3.311,2.483-6.754,2.558-10.321a39,39,0,0,0-.182-4.279C855.887,529.254,854.819,528.667,853.412,528.576Z" transform="translate(-157.606 -128.374)" fill="#f35"/><path d="M897.521,663.058a191.262,191.262,0,0,1-1.771,24.887c-.166,1.332-.348,2.665-.439,4-.273,3.865.174,7.747-.19,11.587-.19,2.078-.621,4.138-.985,6.166a109.621,109.621,0,0,0-1.407,27.436c1.142,15.254-2.359,30.516-.77,45.728a36.964,36.964,0,0,1-.489,8.848,37.458,37.458,0,0,1-1.283,5.346q-1.813,6.216-3.642,12.415a4.3,4.3,0,0,1-.828,1.721,3.922,3.922,0,0,1-3.1.919c-4.776-.149-9.27-2.21-13.607-4.221a4.74,4.74,0,0,1-1.366-.828c-.9-.935-.828-2.408-1.225-3.642s-1.473-2.392-2.085-3.658a11.936,11.936,0,0,1-.9-3.766q-.828-6.357-1.126-12.762c-.315-6.009,3.658-11.538,4.966-17.381,2.483-11.488.381-23.8,4.792-34.7,1.391-3.443-.629-7.615-.828-11.322a35.9,35.9,0,0,0-.927-7.1c-.828-3.112-2.574-6.042-2.7-9.27-.091-2.334.662-4.61,1.051-6.911a31.052,31.052,0,0,0-.141-10.205c-.439-2.781-1.109-5.562-1.779-8.277l-.149.306a93.477,93.477,0,0,0-5.189,12.208c-.662,2.028-1.241,4.1-2.069,6.067-.679,1.655-1.515,3.17-2.334,4.726a135.761,135.761,0,0,0-7.656,17.008c-1.026,2.864-1.928,5.794-2.822,8.666l-6.133,19.864c-1.655,5.222-3.468,10.271-5.09,15.485-2.293,7.449-4.585,14.832-7.25,22.115-2.483,6.911-5.438,14.07-4.552,21.37a15.719,15.719,0,0,1-7.308,1.482,42.785,42.785,0,0,1-12.415-3.012,9.655,9.655,0,0,1-4.287-2.549c-1.837-2.243-1.382-5.529-.827-8.384a20.247,20.247,0,0,1,.993-3.774c.629-1.523,1.656-2.872,2.3-4.378,1.3-2.888,1.382-6.158,1.9-9.295s1.655-6.447,4.337-8.152c.455-5.512,2.723-10.95,3.973-16.338.943-4.08,1.258-8.277,2-12.415s1.945-8.276,4.444-11.628a18.433,18.433,0,0,1,2.251-9.932,10.866,10.866,0,0,0,.985-2.11,12.141,12.141,0,0,0,.265-2.185,12.918,12.918,0,0,1,3.493-7.672c-.828-3.021.323-6.174,1.357-9.1a31.629,31.629,0,0,0,1.738-11.645,10.209,10.209,0,0,1,.157-3.311c.232-.827.687-1.531.952-2.325a13.25,13.25,0,0,0,.373-2.971c.323-4.478,2.135-8.7,4.138-12.7,1.192-2.334.182-5.5.43-8.1.43-4.32.9-8.79,3.046-12.555.4-.712.828-1.39,1.184-2.127a9.217,9.217,0,0,0,.687-3.311c.074-1.9.339-3.468-.339-5.231,4.428-3.683,10.47-4.718,16.23-4.966s11.587.273,17.223-.952c1.655-.373,3.311-.886,5.057-1.134,3.964-.579,7.987.323,11.9,1.217-.273,2.483.637,4.866,1.655,7.176A77.025,77.025,0,0,1,897.521,663.058Z" transform="translate(-151.559 -146.985)" fill="#33313f"/><path d="M892.278,673.29l-9.51,21.386c-.439-2.781-1.109-5.562-1.78-8.276l-.149.306v-.447l5.181-11.4Z" transform="translate(-165.807 -155.322)" opacity="0.1"/><path d="M926.36,618.188a3.576,3.576,0,0,1-1.887.7,9.177,9.177,0,0,1-3.1-.422l-7.449-1.862a3.647,3.647,0,0,1-.679-.24c.124-1.3.372-2.806,1.076-3.311,1.051-.7,4.2.24,5.388.406,2.052.281,4.138.612,6.141,1A16.4,16.4,0,0,1,926.36,618.188Z" transform="translate(-171.393 -144.897)" opacity="0.1"/><path d="M932.5,559.26c.157.687.381,1.366.513,2.061a15.726,15.726,0,0,1-.174,5.123l-.678,4.734-.679,4.759-2.623,18.316-.646,4.535-.91,6.331a4.546,4.546,0,0,1-.4,1.523,3.17,3.17,0,0,1-2.59,1.531,9.386,9.386,0,0,1-3.1-.422l-7.449-1.87a2.335,2.335,0,0,1-.911-.372,1.8,1.8,0,0,1-.48-1.746c.108-.629.381-1.217.472-1.846.182-1.225-.331-2.483-.149-3.7a9.209,9.209,0,0,1,.828-2.227c2.483-5.487,1.043-11.893,1.887-17.852a27.064,27.064,0,0,1,5.744-12.779,36.675,36.675,0,0,1,6.34-6.224c.927-.72,2.4-2.2,3.567-2.483C932.564,556.338,932.249,558.217,932.5,559.26Z" transform="translate(-171.232 -135.214)" fill="#f35"/><path d="M866.982,472.8c-.546,1.738.306,3.65-.083,5.421-.422,1.953-2.259,3.311-2.781,5.272-.828,2.988,1.7,5.711,3.559,8.194,6.87,9.22,5.967,21.983,3.617,33.23a171.618,171.618,0,0,1-7.821,26.485c-1.034,2.673-2.177,5.388-4.213,7.391,3.807-1.092,7.854-2.193,11.67-1.134,4.834,1.341,9.005,6.033,13.9,4.966,2.946-.654,5.015-3.269,7.664-4.718,4.966-2.673,10.95-.993,16.487-.132a6.473,6.473,0,0,0,3.6-.182,5.983,5.983,0,0,0,2.185-2.011,20.408,20.408,0,0,0,4.254-11.008,14.118,14.118,0,0,0-4.064-10.867,23.243,23.243,0,0,1-3.484-3.311,10.28,10.28,0,0,1-1.366-5.016c-.654-9.1,1.564-18.4-.72-27.2-.828-3.137-2.177-6.141-2.541-9.352-.455-4,.629-8.277-.96-11.935a11.7,11.7,0,0,0-6.977-6.025,38.222,38.222,0,0,0-9.3-1.655C885.074,468.822,868.877,466.877,866.982,472.8Z" transform="translate(-162.088 -120.043)" fill="#33313f"/><g transform="translate(697.172 350.857)" opacity="0.1"><path d="M872.18,527.475a171.247,171.247,0,0,1-7.78,26.377c.571-1.134,1.051-2.326,1.506-3.509a170.681,170.681,0,0,0,7.821-26.485c2.359-11.256,3.261-24-3.608-33.23-1.655-2.2-3.782-4.585-3.708-7.167a8.823,8.823,0,0,0-1.407,2.6c-.828,2.988,1.705,5.711,3.559,8.194C875.433,503.464,874.53,516.227,872.18,527.475Z" transform="translate(-860.146 -473.462)"/><path d="M868.565,477.861a8.051,8.051,0,0,0,1.457-2.789,14.186,14.186,0,0,0-.1-3.691,3.981,3.981,0,0,0-1.374,1.9C868.06,474.74,868.623,476.329,868.565,477.861Z" transform="translate(-860.826 -471.38)"/><path d="M916.327,568.685a5.958,5.958,0,0,1-2.185,2,6.322,6.322,0,0,1-3.6.182c-5.537-.828-11.587-2.533-16.487.141-2.657,1.44-4.717,4.055-7.672,4.718-4.891,1.092-9.063-3.6-13.9-4.966-3.427-.952-7.035-.166-10.486.828a14.471,14.471,0,0,1-2.74,3.956c3.807-1.092,7.854-2.193,11.67-1.134,4.834,1.341,9,6.034,13.9,4.966,2.946-.654,5.016-3.269,7.664-4.718,4.966-2.673,10.95-.993,16.487-.133a6.472,6.472,0,0,0,3.6-.182,5.982,5.982,0,0,0,2.185-2.011,22.246,22.246,0,0,0,3.427-6.555,24.051,24.051,0,0,1-1.871,2.9Z" transform="translate(-859.26 -487.65)"/></g></g></svg>