<svg xmlns="http://www.w3.org/2000/svg" width="1018" height="612.304" viewBox="0 0 1018 612.304"><g transform="translate(0 0)"><path d="M132.635,708.873l60.039-86.264L132.6,718.256l-.035,9.815q-6.422-.054-12.715-.418c-.019-2.229,5.084-124.845,4.867-127.064.3-.084.462-11.6.58-12.1L62.578,494.22l62.791,85.346.187,2.523,3.725-95.266L75.363,389.268l54.344,80.817c.02-1.3,2.572-196.9,2.6-198.105.015.641,1.187,155.66,1.2,156.313l51.566-62.4L133.45,441.7l-.264,85.262,47.852-82.449c-59.719,120.239-46.5,78.164-48.028,142.395l69.508-114.8L132.951,603.448Z" transform="translate(-62.26 -134.328)" fill="#f35"/><path d="M1105.341,735.643l25.02-35.948-25.032,39.859-.015,4.09q-2.676-.023-5.3-.174c-.008-.929,2.119-52.026,2.028-52.951.123-.035.193-4.833.242-5.043l-26.135-39.283,26.166,35.566.078,1.051,1.552-39.7-22.469-40.654,22.646,33.678c.008-.54,1.072-82.052,1.082-82.555.006.267.495,64.867.5,65.14l21.489-26-21.512,31.59-.11,35.531,19.941-34.359c-24.886,50.107-19.379,32.572-20.015,59.339l28.966-47.842-28.991,54.734Z" transform="translate(-116.464 -149.387)" fill="#f35"/><ellipse cx="507.336" cy="19.877" rx="507.336" ry="19.877" transform="translate(0 572.55)" fill="#ffeaed"/><rect width="579.271" height="345.357" transform="translate(174.16 234.767)" fill="#262626"/><path d="M389.6,374.581a138.527,138.527,0,0,1-138.5,136.271c-1.628,0-3.247-.028-4.865-.085V374.581Z" transform="translate(-72.082 -139.815)" fill="#f35"/><path d="M579.066,738.365H523.972a29.35,29.35,0,0,1,55.094,0Z" transform="translate(-86.935 -158.241)" fill="#f35"/><path d="M855.112,550.721V667.049a58.233,58.233,0,0,1,0-116.328Z" transform="translate(-101.681 -149.234)" fill="#f35"/><rect width="399.567" height="34.134" rx="17.067" transform="translate(264.514 360.26)" fill="#fff"/><rect width="399.567" height="34.134" rx="17.067" transform="translate(264.514 427.524)" fill="#fff"/><rect width="140.089" height="34.134" rx="17.067" transform="translate(523.992 494.788)" fill="#fff"/><path d="M954.294,238.669s15.929,6.195,16.814,26.548-4.425,76.989-4.425,76.989,19.469,28.318,4.425,36.282-16.814-31.858-16.814-31.858l-17.7-84.069S947.214,237.784,954.294,238.669Z" transform="translate(-109.001 -132.545)" fill="#a0616a"/><path d="M781.008,301.285s-38.052,24.778-39.822,5.31,11.5-95.573,11.5-95.573,1.77-32.742,20.353-24.778-5.31,35.4-5.31,35.4l2.655,61.945,17.7-.885Z" transform="translate(-98.542 -129.676)" fill="#a0616a"/><path d="M841.514,331.184S724.7,287.822,730.9,338.263,767.18,452.419,767.18,452.419L777.8,469.233h22.123l-14.159-91.148S836.2,406.4,851.248,401.978c0,0,19.469,130.085,26.548,139.819s19.469,127.43,19.469,127.43l11.5,14.159h22.123V484.277s38.052-123.89,8.849-130.085S841.514,331.184,841.514,331.184Z" transform="translate(-97.988 -136.567)" fill="#33313f"/><path d="M773.838,465.614s-5.31-9.734-14.159,0-30.088,21.238-30.088,21.238-46.016,10.619-8.849,19.469,41.592,0,41.592,0,6.195,1.77,11.5,3.54,39.822-4.425,39.822-9.735-11.716-37.041-16.477-32.237S773.838,465.614,773.838,465.614Z" transform="translate(-96.682 -144.452)" fill="#f35"/><path d="M917.482,694.546s-13.048-10.745-16.118-7.675-19.188,23.793-19.188,23.793-42.981,33-3.838,38.376,36.841-9.21,36.841-9.21h12.28c1.535,0,22.258-9.21,21.491-13.048s-9.978-35.131-13.048-32.916S917.482,694.546,917.482,694.546Z" transform="translate(-105.005 -156.486)" fill="#f35"/><circle cx="30.088" cy="30.088" r="30.088" transform="translate(663.882 12.321)" fill="#a0616a"/><path d="M816.809,167.615s23.008,19.469,38.937,19.469-23.008,36.283-23.008,36.283l-34.512-30.973Z" transform="translate(-101.601 -128.746)" fill="#a0616a"/><path d="M824.283,223.407l-.689-6.972s17.5-31.08,22.812-33.735,8.849-2.655,8.849-2.655,17.7-18.584,37.167-8.849,65.485,71.679,65.485,71.679-32.742,2.655-28.318,28.318c0,0,32.742,84.069,23.893,84.953s-35.4-5.31-62.83,7.079-39.822,4.425-39.822,4.425l-14.159-46.016s-26.548-15.044-25.663-28.318l-38.494,17.257,3.54-32.742,23.451-26.99S795.081,247.3,824.283,223.407Z" transform="translate(-100.226 -128.787)" fill="#f35"/><path d="M765.329,172.212a11.108,11.108,0,0,1-4.369,2.976c-1.714.483-3.873-.109-4.556-1.754l1.272-1.656-3.814-2.37,1.662-1.95-3.072-3.336,2.425-1.924-4.616-3.3c5.983-9.763,12.454-19.648,21.9-26.12s22.645-8.772,32.322-2.65c5.024,3.178,8.577,8.223,11.422,13.442,5.723,10.5,10.768,20.729,11.513,32.662-3.595-3.5-8.844-5.474-12.439-8.975a26.942,26.942,0,0,0-5.366-4.392c-3.76-2.12-8.259-2.308-12.469-3.265-3.54-.8-5.836-2.4-8.514-4.681-3.186-2.713-3.315-1.664-6.532,1.391Q773.719,164.266,765.329,172.212Z" transform="translate(-99.036 -126.55)" fill="#262626"/></g></svg>