<svg xmlns="http://www.w3.org/2000/svg" xmlns:xlink="http://www.w3.org/1999/xlink" width="24" height="18" viewBox="0 0 24 18"><defs><clipPath id="b"><rect width="24" height="18"/></clipPath></defs><g id="a" clip-path="url(#b)"><g transform="translate(255 2891.521)"><path d="M18.539,21.556H13.852A.852.852,0,0,1,13,20.7v-.852A.852.852,0,0,1,13.852,19h4.687a1.278,1.278,0,0,1,1.278,1.278h0A1.278,1.278,0,0,1,18.539,21.556Z" transform="translate(-255.331 -2895.285)" fill="#262626"/><path d="M9.965,10h5.113V20.226H7.409A3.409,3.409,0,0,1,4,16.817v-.852A5.965,5.965,0,0,1,9.965,10Z" transform="translate(-254 -2893.955)" fill="#fff"/><path d="M11.852,21.7h0A.852.852,0,0,1,11,20.852V20h1.7v.852A.852.852,0,0,1,11.852,21.7Z" transform="translate(-255.035 -2895.433)" fill="#f35"/><path d="M15.852,21.7h0A.852.852,0,0,1,15,20.852V20h1.7v.852A.852.852,0,0,1,15.852,21.7Z" transform="translate(-255.626 -2895.433)" fill="#f35"/><path d="M13.556,13.261h0A2.556,2.556,0,0,1,11,10.7V9h5.113v1.7a2.556,2.556,0,0,1-2.557,2.556Z" transform="translate(-255.035 -2893.807)" fill="#f35"/><path d="M12.556,3.661,10,5.365V2.133a.426.426,0,0,1,.727-.3Z" transform="translate(-254.887 -2892.729)" fill="#262626"/><path d="M15,3.661l2.556,1.7V2.133a.426.426,0,0,0-.727-.3Z" transform="translate(-255.626 -2892.729)" fill="#262626"/><path d="M13.409,9.965h0A3.409,3.409,0,0,1,10,6.556V4h6.817V6.556a3.409,3.409,0,0,1-3.409,3.409Z" transform="translate(-254.887 -2893.068)" fill="#262626"/><circle cx="0.639" cy="0.639" r="0.639" transform="translate(-243.609 -2887.363)" fill="#fff"/><circle cx="0.639" cy="0.639" r="0.639" transform="translate(-240.413 -2887.363)" fill="#fff"/></g></g></svg>