<svg xmlns="http://www.w3.org/2000/svg" xmlns:xlink="http://www.w3.org/1999/xlink" width="24" height="18" viewBox="0 0 24 18"><defs><clipPath id="b"><rect width="24" height="18"/></clipPath></defs><g id="a" clip-path="url(#b)"><g transform="translate(255.1 3072)"><path d="M19.428,152.24a.245.245,0,0,1-.134.1,2.35,2.35,0,0,1-.513.109c-.3.037-.617.1-.91.161-.374.081-.742.192-1.106.309q-.5.16-.977.36c-.3.127-.6.269-.9.419q-.376.191-.738.409t-.729.468c-.272.188-.535.386-.8.587-.152.117-.305.233-.449.36a1.4,1.4,0,0,1-.214.184.321.321,0,0,1-.324,0c-.109-.052-.29-.159-.29-.159s.217-.162.388-.281l-.01,0a1.4,1.4,0,0,1-.357-.042,1,1,0,0,0-.2-.009,3.106,3.106,0,0,0-.428.07c-.7.139-1.4.288-2.085.488a13.241,13.241,0,0,0-1.456.509,2.541,2.541,0,0,0-.458.231,1.605,1.605,0,0,0-.349.318,1.949,1.949,0,0,0-.22.39,1.729,1.729,0,0,0-.149.388,3.185,3.185,0,0,0-.021.648c0,.233.008.467.031.7s.058.444.068.683a.46.46,0,0,1-.019.177.462.462,0,0,0-.03.077.154.154,0,0,0,.019.1.648.648,0,0,0,.14.2c.029.029.07.042.1.07s.068.1.11.14a1.264,1.264,0,0,0,.3.229,2.089,2.089,0,0,0,.509.161,4.137,4.137,0,0,0,.57.079,2.022,2.022,0,0,0,.4.01l.192,0a2.258,2.258,0,1,1,4.292-.085h.134c4.955-.06,7.514-.143,11.271-.2l.195,0a2.258,2.258,0,1,1,4.445-.284.806.806,0,0,0,.2-.061,1.671,1.671,0,0,0,.36-.239,2.541,2.541,0,0,0,.329-.329.7.7,0,0,0,.17-.239c.033-.119-.023-.092-.03-.37-.01-.439,0-.878-.03-1.316a2.609,2.609,0,0,0-.059-.519.481.481,0,0,0-.1-.144c-.032-.038-.094-.046-.1-.1-.02-.189-.022-.386-.031-.578-.006-.125,0-.249-.009-.373a.173.173,0,0,1-.006.025c-.013.041-.059.062-.079.1a.429.429,0,0,0-.04.129,1.255,1.255,0,0,0-.01.265c0,.092.029.182.036.274a.371.371,0,0,1,0,.176.182.182,0,0,1-.1.085.509.509,0,0,1-.254.019.648.648,0,0,1-.25-.085,2.084,2.084,0,0,1-.379-.354,6.471,6.471,0,0,1-.573-.629.471.471,0,0,1-.115-.184.254.254,0,0,1,.039-.184.741.741,0,0,1,.309-.189,1.912,1.912,0,0,1,.4-.146,1.464,1.464,0,0,1,.309-.03,1.064,1.064,0,0,1,.3.025.555.555,0,0,1,.244.125.225.225,0,0,1,.024.028,2.32,2.32,0,0,0-.254-.421c-.018-.007-.226-.084-.342-.112a1.363,1.363,0,0,0-.239-.019s-.2-.292-.314-.43a5.659,5.659,0,0,0-.434-.477,5.462,5.462,0,0,0-.534-.459c-.186-.139-.583-.379-.583-.379l.327-.162c-.049-.054.018-.193-.033-.256-.039-.047-.1-.047-.184-.049-.219,0-.425-.017-.644-.031-.281-.019-.558-.063-.837-.1s-.551-.09-.828-.12c-.573-.063-1.149-.1-1.725-.129-.631-.03-1.265-.02-1.9-.04q-.354-.011-.708-.03C19.846,152.269,19.638,152.235,19.428,152.24Zm1.645.564s.462,0,.693.01c.333.014.666.04,1,.07s.679.062,1.017.11c.246.035.5.078.733.129.056.012.133.047.135.1.013.35.015.682.019,1.023,0,.364,0,1.092,0,1.092s-1.233.01-1.85.021c-.67.012-2.009.049-2.009.049Zm-1.087.006s-.159.88-.259,1.316c-.105.459-.36,1.367-.36,1.367s-.738.032-1.106.059c-.683.052-1.364.122-2.045.2-.256.029-.729.065-.729.065a1.3,1.3,0,0,0-.024-.275,1.318,1.318,0,0,0-.129-.244l.393-1.581s.442-.192.669-.269c.353-.12.714-.213,1.077-.3s.736-.164,1.108-.22c.291-.044.584-.066.877-.089C19.634,152.825,19.986,152.81,19.986,152.81Zm5.261.5s.323.078.479.135a3.91,3.91,0,0,1,.633.289,4.6,4.6,0,0,1,.7.514,2.05,2.05,0,0,1,.409.428c.093.148.045.141-.091.205a4.45,4.45,0,0,1-.9.254c-.291.067-.882.159-.882.159Zm-9.749.5c-.106.432-.258.9-.364,1.331a1.076,1.076,0,0,0-.244-.03.961.961,0,0,0-.284.1,1.536,1.536,0,0,0-.244.159.728.728,0,0,0-.195.26.889.889,0,0,0,0,.378s-.2.018-.324.031-.379.03-.379.03.123-.511.21-.758c.059-.167.21-.489.21-.489s.185-.181.288-.259a5.584,5.584,0,0,1,.629-.4C15.027,154.038,15.5,153.816,15.5,153.816ZM9.056,156.2a.183.183,0,0,1,.1.021.1.1,0,0,1,.049.091c0,.059-.068.1-.11.14a4.918,4.918,0,0,1-.458.369c-.215.171-.421.354-.648.509a1.619,1.619,0,0,1-.309.178,1.393,1.393,0,0,1-.309.07,3.725,3.725,0,0,1-.587.04c-.07,0-.151.018-.21-.019-.039-.025-.04-.085-.07-.121a.856.856,0,0,0-.161-.14c-.031-.023-.093-.021-.1-.06-.02-.114.141-.185.22-.269a.752.752,0,0,1,.239-.219c.046-.018.1.011.149,0a2.248,2.248,0,0,0,.339-.17c.146-.062.3-.111.449-.161s.3-.1.46-.14a3.982,3.982,0,0,1,.418-.07c.119-.015.24-.025.36-.03C8.934,156.217,9,156.2,9.056,156.2Zm17.423,1.906a1.975,1.975,0,1,0,1.975,1.975A1.975,1.975,0,0,0,26.478,158.105Zm-15.956.059a1.975,1.975,0,1,0,1.973,1.975A1.975,1.975,0,0,0,10.522,158.165Zm15.956.479a1.437,1.437,0,1,1-1.435,1.436A1.437,1.437,0,0,1,26.478,158.643Zm-15.956.059a1.437,1.437,0,1,1-1.437,1.436A1.435,1.435,0,0,1,10.522,158.7Z" transform="translate(-260.997 -3220.24)" fill="#fff"/></g></g></svg>