<svg xmlns="http://www.w3.org/2000/svg" width="16.121" height="12.401" viewBox="0 0 16.121 12.401"><g transform="translate(0 0)"><path d="M62.819,97.976H60.2L58.638,96.4s-.008-.008-.012-.008l-.008-.008h0a1.268,1.268,0,0,0-.9-.38H54.46a1.282,1.282,0,0,0-.953.422v0l-1.531,1.55H49.3A1.287,1.287,0,0,0,48,99.263v7.832a1.3,1.3,0,0,0,1.3,1.306H62.819a1.306,1.306,0,0,0,1.3-1.306V99.263A1.289,1.289,0,0,0,62.819,97.976Zm-6.758,8.467a3.588,3.588,0,1,1,3.581-3.588A3.591,3.591,0,0,1,56.061,106.444Zm6.514-6.394a.546.546,0,1,1,.543-.546A.545.545,0,0,1,62.575,100.05Z" transform="translate(-48 -96)" fill="#f35"/><path d="M188.9,202.9a2.713,2.713,0,1,0,2.7,2.713A2.707,2.707,0,0,0,188.9,202.9Z" transform="translate(-180.844 -198.757)" fill="#f35"/></g></svg>