<svg xmlns="http://www.w3.org/2000/svg" xmlns:xlink="http://www.w3.org/1999/xlink" width="24" height="18" viewBox="0 0 24 18"><defs><clipPath id="b"><rect width="24" height="18"/></clipPath></defs><g id="a" clip-path="url(#b)"><g transform="translate(255 2854.962)"><path d="M3.176,1.058a.72.72,0,0,0-.5.221,1.468,1.468,0,0,0-.309.479,3.644,3.644,0,0,0-.254,1.412v.012a3.636,3.636,0,0,0,.254,1.41,1.475,1.475,0,0,0,.309.48.719.719,0,0,0,.5.219H13.758a.719.719,0,0,0,.5-.219,1.475,1.475,0,0,0,.309-.48,3.45,3.45,0,0,0,.243-1.152h.541V6.152L8.39,8.212a.265.265,0,0,0-.19.254V9H7.674a.8.8,0,0,0-.8.793v.266a.8.8,0,0,0,.8.793H9.26a.8.8,0,0,0,.795-.793V9.789A.8.8,0,0,0,9.26,9H8.73V8.664L15.685,6.6a.265.265,0,0,0,.19-.254V3.176a.265.265,0,0,0-.264-.266H14.8a3.455,3.455,0,0,0-.243-1.152,1.467,1.467,0,0,0-.309-.479.72.72,0,0,0-.5-.221Zm.53.793H8.467a.265.265,0,1,1,0,.529H3.705a.265.265,0,1,1,0-.529Zm5.82,0h.793a.265.265,0,1,1,0,.529H9.526a.265.265,0,1,1,0-.529Zm-7.832.317a.916.916,0,0,0-.052,1.725,4.919,4.919,0,0,1-.054-.712V3.17a4.683,4.683,0,0,1,.106-1Zm.952,3.52V8.2a1.159,1.159,0,0,0,.025.239,1.19,1.19,0,0,0,.179.426,1.211,1.211,0,0,0,.524.433,1.183,1.183,0,0,0,.924,0,1.2,1.2,0,0,0,.729-1.1V7.144a.677.677,0,0,1,.051-.26.655.655,0,0,1,.611-.4.672.672,0,0,1,.372.114h0a.7.7,0,0,1,.177.168.582.582,0,0,1,.1.2.414.414,0,0,1,.013.1,1.036,1.036,0,0,0,.272.709.928.928,0,0,0,.295.213.868.868,0,0,0,.173.057h0a.864.864,0,0,0,.186.02.924.924,0,0,0,.516-.159A.927.927,0,0,0,8.2,7.144V5.82H3.176a1.161,1.161,0,0,1-.53-.132Zm4.5,5.575v3.818a.8.8,0,0,0,.793.793H9a.8.8,0,0,0,.793-.793V11.264a1.305,1.305,0,0,1-.529.113H7.674a1.309,1.309,0,0,1-.53-.113Zm1.848.642a.265.265,0,0,1,.268.268V13.5a.265.265,0,1,1-.53,0V12.174a.265.265,0,0,1,.262-.268Zm0,2.381a.265.265,0,0,1,.268.267v.266a.265.265,0,1,1-.53,0v-.266a.265.265,0,0,1,.262-.267Z" transform="translate(-251.059 -2854.021)" fill="#fff"/></g></g></svg>