<svg xmlns="http://www.w3.org/2000/svg" xmlns:xlink="http://www.w3.org/1999/xlink" width="24" height="18" viewBox="0 0 24 18"><defs><clipPath id="b"><rect width="24" height="18"/></clipPath></defs><g id="a" clip-path="url(#b)"><g transform="translate(183 2889.339)"><path d="M18.336,29.916H12.123a3.579,3.579,0,1,0,6.322,0Zm-.657,1.675a2.4,2.4,0,1,1-4.791,0s0,0,0,0h4.79Z" transform="translate(-185.784 -2908.556)" fill="#fff"/><path d="M14.471,20.328a.486.486,0,0,0-.823,0h0a1.368,1.368,0,0,1-.959.439v0H3.665a1.368,1.368,0,0,1-1.029-.522l0,0a.472.472,0,0,0-.75.055,1.361,1.361,0,0,0-.214.732A1.385,1.385,0,0,0,2.845,22.4a.549.549,0,0,0,.105.02H13.345v-.006a1.384,1.384,0,0,0,1.324-1.381A1.354,1.354,0,0,0,14.471,20.328Z" transform="translate(-178.669 -2901.585)" fill="#fff"/><path d="M16.386,4.373a.6.6,0,0,1,.224.545v.219c-.013.142-.066.323-.256.344v.554H19.62V5.482c-.215-.061-.245-.339-.247-.454V4.85a.754.754,0,0,1,.247-.5V4.34a2.469,2.469,0,1,0-3.23.022ZM16.33,2.419A1.658,1.658,0,0,1,17.952.763a.686.686,0,0,1,.293.1c.069.073.1.18-.134.279a.259.259,0,0,0-.025.015A1.654,1.654,0,0,0,16.9,2.738a1.565,1.565,0,0,0,.115.581s0,0,0,0c.055.16.085.283.087.288-.057.143-.245,0-.3-.045A1.635,1.635,0,0,1,16.33,2.419Z" transform="translate(-188.49 -2887.371)" fill="#fff"/></g></g></svg>