<svg xmlns="http://www.w3.org/2000/svg" width="24" height="24" viewBox="0 0 24 24"><circle cx="12" cy="12" r="12" fill="#f35"/><g transform="translate(5.809 6.857)" opacity="0.2"><path d="M20.824,20.737a3.692,3.692,0,0,0-2.1-2.7A.4.4,0,0,0,18.487,18c-2.152.357-2.475,1.609-2.488,1.661a.4.4,0,0,0,.008.219c2.566,7.962,7.9,9.438,9.653,9.924.135.037.246.067.331.1a.39.39,0,0,0,.125.019.406.406,0,0,0,.168-.037,3.294,3.294,0,0,0,1.63-2.568.405.405,0,0,0-.039-.249,3.858,3.858,0,0,0-2.528-1.76.4.4,0,0,0-.359.085,5.432,5.432,0,0,1-1.726,1.077A7.667,7.667,0,0,1,19.6,22.758a4.359,4.359,0,0,1,1.113-1.708A.4.4,0,0,0,20.824,20.737Z" transform="translate(-15.987 -17.999)" fill="#f35"/></g><g transform="translate(4.258 7.626)"><path d="M54.091,128.761c.4.213,6.026,3.278,6.235,3.388a1.838,1.838,0,0,0,1.508,0c.21-.11,5.831-3.175,6.235-3.388.151-.077.4-.217.46-.375.1-.28-.007-.386-.416-.386H54.047c-.408,0-.511.11-.416.386C53.686,128.548,53.94,128.684,54.091,128.761Z" transform="translate(-53.397 -128)" fill="#fff"/><path d="M63,151.529c-.3.154-3.009,2.082-4.8,3.241l3.024,3.4c.074.074.107.162.066.206s-.14.018-.217-.052l-3.627-3.061c-.548.353-.934.6-1,.633a1.838,1.838,0,0,1-1.508,0c-.07-.037-.452-.28-1-.633l-3.627,3.061c-.074.074-.173.1-.217.052s-.011-.132.063-.206l3.02-3.4c-1.792-1.159-4.528-3.086-4.83-3.241-.324-.166-.342.029-.342.18v7.541a.993.993,0,0,0,.864.769H62.512a.914.914,0,0,0,.791-.769v-7.54C63.3,151.555,63.325,151.364,63,151.529Z" transform="translate(-48.005 -150.602)" fill="#fff"/></g></svg>