<svg xmlns="http://www.w3.org/2000/svg" xmlns:xlink="http://www.w3.org/1999/xlink" width="24" height="17" viewBox="0 0 24 17"><defs><clipPath id="b"><rect width="24" height="17"/></clipPath></defs><g id="a" clip-path="url(#b)"><path d="M19.654,964.862a.9.9,0,0,0-.9.9v14.459a.972.972,0,0,0,.9.9h4.519v-2.711a.953.953,0,0,1,.9-.9h.9a.953.953,0,0,1,.9.9v2.711H31.4a.972.972,0,0,0,.9-.9V965.766a.9.9,0,0,0-.9-.9Zm1.807,2.711h2.711v1.807H21.461Zm5.422,0h2.711v1.807H26.883ZM21.461,973h2.711V974.8H21.461Zm5.422,0h2.711V974.8H26.883Z" transform="translate(-13.75 -964.362)" fill="#fff"/></g></svg>