<svg xmlns="http://www.w3.org/2000/svg" xmlns:xlink="http://www.w3.org/1999/xlink" width="23" height="30" viewBox="0 0 23 30"><defs><clipPath id="b"><rect width="23" height="30"/></clipPath></defs><g id="a" clip-path="url(#b)"><g transform="translate(-11 -5.552)"><g transform="translate(16.215 10.333)"><path d="M31.789,20.588H29.328v-3.61a4.184,4.184,0,1,0-8.367,0v3.61H18.5v-3.61a6.645,6.645,0,1,1,13.289,0Z" transform="translate(-18.5 -10.333)" fill="#3f3f3f"/></g><g transform="translate(14 17.552)"><path d="M30.243,25H15.477A1.477,1.477,0,0,0,14,26.477v9.352a1.477,1.477,0,0,0,1.477,1.477H30.243a1.477,1.477,0,0,0,1.477-1.477V26.477A1.477,1.477,0,0,0,30.243,25Zm-6.4,7.11v1.258a.984.984,0,0,1-1.969,0V32.11a1.969,1.969,0,1,1,1.969,0Z" transform="translate(-14 -25)" fill="#3f3f3f"/></g></g></g></svg>