<svg xmlns="http://www.w3.org/2000/svg" xmlns:xlink="http://www.w3.org/1999/xlink" width="24" height="18" viewBox="0 0 24 18"><defs><clipPath id="b"><rect width="24" height="18"/></clipPath></defs><g id="a" clip-path="url(#b)"><g transform="translate(182 2924.775)"><path d="M236.781,380.877v9.118l.269.236a21.245,21.245,0,0,0,8.912,0l.268-.236v-9.118l1.658,1.656a.467.467,0,0,0,.662,0l1.325-1.325a.467.467,0,0,0,0-.662L246.328,377h-2.507a2.363,2.363,0,0,1-4.631,0h-2.507l-3.546,3.547a.467.467,0,0,0,0,.662l1.325,1.325a.468.468,0,0,0,.662,0Z" transform="translate(-412 -3299.775)" fill="#fff" fill-rule="evenodd"/></g></g></svg>