<svg xmlns="http://www.w3.org/2000/svg" xmlns:xlink="http://www.w3.org/1999/xlink" width="23" height="30" viewBox="0 0 23 30"><defs><clipPath id="b"><rect width="23" height="30"/></clipPath></defs><g id="a" clip-path="url(#b)"><g transform="matrix(0.819, -0.574, 0.574, 0.819, -4551.518, 2408.594)"><g transform="translate(5104.5 643.03)"><path d="M212.832,255.717a7.876,7.876,0,0,1-2.807-.511l-.025,13,2.1,1.57,2.1-1.57v-2.032l-.96-.96.96-.96v-1.5l-1.1-1.1,1.071-1.071h.037v-2.068l1.459-1.638V255.2A7.88,7.88,0,0,1,212.832,255.717Z" transform="translate(-205.826 -240.72)" fill="#3f3f3f"/><path d="M149.206,20a7.006,7.006,0,0,0-3.583,13.027,6.275,6.275,0,0,0,.757.388,7.021,7.021,0,0,0,5.639,0q.388-.175.757-.388A7,7,0,0,0,149.206,20Zm0,3.257a2.167,2.167,0,1,1-2.167,2.167A2.166,2.166,0,0,1,149.206,23.257Z" transform="translate(-142.2 -20)" fill="#3f3f3f"/></g><path d="M4.243,0A4.243,4.243,0,1,1,0,4.243,4.243,4.243,0,0,1,4.243,0Z" transform="translate(5107.288 645.782)" fill="#eee"/></g></g></svg>