<svg xmlns="http://www.w3.org/2000/svg" width="24" height="24" viewBox="0 0 24 24"><circle cx="12" cy="12" r="12" fill="#f35"/><g transform="translate(6 4.199)"><path d="M26.511,14.441H20.93a.93.93,0,0,1-.93-.93V10.72a3.72,3.72,0,1,1,7.441,0v2.79a.93.93,0,0,1-.93.931Zm-4.651-1.86h3.72V10.72a1.86,1.86,0,1,0-3.72,0Z" transform="translate(-17.785 -7)" fill="#fff"/><rect width="12" height="10" rx="3" transform="translate(0 5.778)" fill="#fff"/><path d="M25.72,17.859a1.86,1.86,0,1,0-2.79,1.6V20.65a.93.93,0,1,0,1.86,0V19.459a1.86,1.86,0,0,0,.93-1.6Z" transform="translate(-17.925 -8.01)" fill="#f35"/></g></svg>