<svg xmlns="http://www.w3.org/2000/svg" width="24" height="24" viewBox="0 0 24 24"><circle cx="12" cy="12" r="12" fill="#f35"/><g transform="translate(5.809 6.111)"><path d="M20.824,18.737a3.692,3.692,0,0,0-2.1-2.7A.4.4,0,0,0,18.487,16c-2.152.357-2.475,1.609-2.488,1.661a.4.4,0,0,0,.008.219c2.566,7.962,7.9,9.438,9.653,9.924.135.037.246.067.331.1a.39.39,0,0,0,.125.019.406.406,0,0,0,.168-.037,3.294,3.294,0,0,0,1.63-2.568.4.4,0,0,0-.039-.249,3.858,3.858,0,0,0-2.528-1.76.4.4,0,0,0-.359.085,5.432,5.432,0,0,1-1.726,1.077A7.667,7.667,0,0,1,19.6,20.758a4.359,4.359,0,0,1,1.113-1.708.405.405,0,0,0,.108-.313Z" transform="translate(-15.987 -15.999)" fill="#fff"/></g></svg>