<svg xmlns="http://www.w3.org/2000/svg" xmlns:xlink="http://www.w3.org/1999/xlink" width="20.891" height="29.936" viewBox="0 0 20.891 29.936"><defs><filter id="a" x="0" y="0" width="20.891" height="29.936" filterUnits="userSpaceOnUse"><feOffset dy="1" input="SourceAlpha"/><feGaussianBlur stdDeviation="1" result="b"/><feFlood flood-opacity="0.251"/><feComposite operator="in" in2="b"/><feComposite in="SourceGraphic"/></filter></defs><g transform="matrix(1, 0, 0, 1, 0, 0)" filter="url(#a)"><path d="M7.7,14.276l9.586-9.585a2.267,2.267,0,0,1,3.195,0l.8.8a2.266,2.266,0,0,1,0,3.194L13.968,16l7.315,7.315a2.266,2.266,0,0,1,0,3.194l-.8.8a2.265,2.265,0,0,1-3.195,0L7.7,17.722A2.241,2.241,0,0,1,7.054,16,2.248,2.248,0,0,1,7.7,14.276Z" transform="translate(-4.05 -2.03)" fill="#fff"/></g></svg>