<svg xmlns="http://www.w3.org/2000/svg" xmlns:xlink="http://www.w3.org/1999/xlink" width="24" height="18" viewBox="0 0 24 18"><defs><clipPath id="b"><rect width="24" height="18"/></clipPath></defs><g id="a" clip-path="url(#b)"><g transform="translate(253.5 2927.042)"><circle cx="0.5" cy="0.5" r="0.5" transform="translate(-239.5 -2921.042)" fill="#fff"/><path d="M7.367,14.233A1.133,1.133,0,1,1,6.233,13.1,1.133,1.133,0,0,1,7.367,14.233Zm5.1-.19v.38a.283.283,0,0,1-.231.278l-.56.1a.576.576,0,0,0-.452.462,5,5,0,0,1-.15.568.576.576,0,0,0,.161.623l.43.369a.283.283,0,0,1,.061.357l-.19.329a.284.284,0,0,1-.339.126l-.54-.19a.577.577,0,0,0-.621.173,5.181,5.181,0,0,1-.414.414.577.577,0,0,0-.173.621l.19.54a.283.283,0,0,1-.126.339l-.329.19a.284.284,0,0,1-.357-.061l-.369-.43a.576.576,0,0,0-.623-.161,4.972,4.972,0,0,1-.568.15.576.576,0,0,0-.462.452l-.1.56a.281.281,0,0,1-.277.23h-.38a.283.283,0,0,1-.278-.231l-.1-.56a.576.576,0,0,0-.462-.452,5,5,0,0,1-.568-.15.576.576,0,0,0-.623.161l-.369.43a.283.283,0,0,1-.357.061l-.329-.19a.284.284,0,0,1-.126-.339l.19-.54a.577.577,0,0,0-.173-.621,5.18,5.18,0,0,1-.414-.414.577.577,0,0,0-.621-.173l-.539.191a.283.283,0,0,1-.339-.126l-.19-.329A.284.284,0,0,1,.8,16.829l.43-.369a.576.576,0,0,0,.161-.623,4.972,4.972,0,0,1-.15-.568.576.576,0,0,0-.452-.462l-.56-.1A.283.283,0,0,1,0,14.423v-.38a.283.283,0,0,1,.231-.278l.56-.1a.576.576,0,0,0,.452-.462,5,5,0,0,1,.15-.568.576.576,0,0,0-.161-.623L.8,11.638a.283.283,0,0,1-.061-.357l.19-.329a.284.284,0,0,1,.339-.126l.54.19a.577.577,0,0,0,.621-.173,5.181,5.181,0,0,1,.414-.414.577.577,0,0,0,.173-.621l-.191-.539a.283.283,0,0,1,.126-.339l.329-.19a.284.284,0,0,1,.357.061l.369.43a.576.576,0,0,0,.623.161,5,5,0,0,1,.568-.15.576.576,0,0,0,.462-.452l.1-.56A.283.283,0,0,1,6.043,8h.38a.283.283,0,0,1,.278.231l.1.56a.576.576,0,0,0,.462.452,5,5,0,0,1,.568.15.576.576,0,0,0,.623-.161l.369-.43a.283.283,0,0,1,.357-.061l.329.19a.284.284,0,0,1,.126.339l-.19.539a.577.577,0,0,0,.173.621,5.181,5.181,0,0,1,.414.414.577.577,0,0,0,.621.173l.54-.19a.283.283,0,0,1,.339.126l.19.329a.284.284,0,0,1-.061.357l-.43.369a.576.576,0,0,0-.161.623,5,5,0,0,1,.15.568.576.576,0,0,0,.452.462l.56.1A.282.282,0,0,1,12.467,14.044Zm-2.833.19a3.4,3.4,0,1,0-3.4,3.4A3.4,3.4,0,0,0,9.633,14.233Z" transform="translate(-250.5 -2929.508)" fill="#fff"/><path d="M21.581,5.2l-.666-.125a.429.429,0,0,1-.338-.342,4.534,4.534,0,0,0-.125-.473.43.43,0,0,1,.122-.464l.513-.44A.283.283,0,0,0,21.148,3l-.19-.329a.284.284,0,0,0-.339-.126l-.639.225a.429.429,0,0,1-.462-.126,4.551,4.551,0,0,0-.347-.347.429.429,0,0,1-.126-.462l.225-.639a.283.283,0,0,0-.126-.339l-.329-.19a.284.284,0,0,0-.357.061l-.44.513a.43.43,0,0,1-.464.122,4.534,4.534,0,0,0-.473-.125A.431.431,0,0,1,16.738.9L16.612.231A.28.28,0,0,0,16.335,0h-.38a.283.283,0,0,0-.278.231L15.552.9a.429.429,0,0,1-.342.338,4.534,4.534,0,0,0-.473.125.43.43,0,0,1-.464-.122l-.44-.513a.283.283,0,0,0-.357-.061l-.329.19a.284.284,0,0,0-.126.339l.225.639a.429.429,0,0,1-.126.462,4.551,4.551,0,0,0-.347.347.429.429,0,0,1-.462.126l-.639-.225a.283.283,0,0,0-.339.126L11.143,3a.284.284,0,0,0,.061.357l.056.048a1.415,1.415,0,0,1,1.368,1.153l.034.18L12.78,4.6a1.413,1.413,0,0,1,1-.488A2.832,2.832,0,1,1,17.7,8.03a1.41,1.41,0,0,1-.487,1l-.139.119.18.034a1.415,1.415,0,0,1,1.153,1.368l.048.056a.283.283,0,0,0,.357.061l.329-.19a.284.284,0,0,0,.126-.339L19.043,9.5a.429.429,0,0,1,.126-.462,4.551,4.551,0,0,0,.347-.347.429.429,0,0,1,.462-.126l.639.225a.283.283,0,0,0,.339-.126l.19-.329a.284.284,0,0,0-.061-.357l-.513-.44a.43.43,0,0,1-.122-.464,4.534,4.534,0,0,0,.125-.473.431.431,0,0,1,.338-.342l.666-.125a.279.279,0,0,0,.231-.277v-.38A.283.283,0,0,0,21.581,5.2Z" transform="translate(-255.312 -2926.042)" fill="#fff"/></g></g></svg>