<svg xmlns="http://www.w3.org/2000/svg" xmlns:xlink="http://www.w3.org/1999/xlink" width="24" height="18" viewBox="0 0 24 18"><defs><clipPath id="b"><rect width="24" height="18"/></clipPath></defs><g id="a" clip-path="url(#b)"><g transform="translate(254 2818)"><path d="M9.784,10.9l1.175,2.558.137.3a.76.76,0,0,1-.694,1.08H5" transform="translate(-252.685 -2821.203)" fill="none" stroke="#fff" stroke-miterlimit="10" stroke-width="2"/><path d="M6,4.73l3.164-.849a1.577,1.577,0,0,1,1.312.231l3.009,2.238a1.536,1.536,0,0,1,.617.926l.154.849A1.577,1.577,0,0,0,15.8,9.36h2.546" transform="translate(-252.914 -2819.586)" fill="none" stroke="#fff" stroke-miterlimit="10" stroke-width="2"/><path d="M14.35,7.769l-2.778,2.238v3.318l-2.16-3.009a1.556,1.556,0,0,1,.231-2.083L13.116,5.3l1.312.926Z" transform="translate(-253.625 -2819.924)" fill="#fff"/><circle cx="1.5" cy="1.5" r="1.5" transform="translate(-239 -2816)" fill="#fff"/><path d="M7.512,21.086,10.521,18H8.36L6.2,20.238Z" transform="translate(-252.959 -2822.825)" fill="#fff"/><path d="M7.4,7.617,8.25,7H2v.772H7.17C7.247,7.694,7.324,7.694,7.4,7.617Z" transform="translate(-252 -2820.313)" fill="#fff"/><path d="M6.244,11H2v.772H6.475A2.94,2.94,0,0,1,6.244,11Z" transform="translate(-252 -2821.226)" fill="#fff"/><path d="M6.552,9H2v.772H6.321A2.264,2.264,0,0,1,6.552,9Z" transform="translate(-252 -2820.769)" fill="#fff"/></g></g></svg>