<svg xmlns="http://www.w3.org/2000/svg" xmlns:xlink="http://www.w3.org/1999/xlink" width="23" height="30" viewBox="0 0 23 30"><defs><clipPath id="b"><rect width="23" height="30"/></clipPath></defs><g id="a" clip-path="url(#b)"><g transform="translate(-7 -11.85)"><path d="M28.807,27.567v4.348a.435.435,0,0,1-.433.433H8.433A.435.435,0,0,1,8,31.915V27.567A2.6,2.6,0,0,1,9.517,25.2l1.123-4.946A1.807,1.807,0,0,1,12.4,18.85H24.407a1.807,1.807,0,0,1,1.76,1.409L27.289,25.2A2.6,2.6,0,0,1,28.807,27.567Z" fill="#5aff8c" stroke="#3f3f3f" stroke-width="1"/><path d="M28.782,22.906a.07.07,0,0,0-.069-.056H16.705a.066.066,0,0,0-.069.056L15.6,27.471H29.818Z" transform="translate(-4.306 -2.266)" fill="#fff" stroke="#3f3f3f" stroke-width="1"/><g transform="translate(8.65 32.348)"><path d="M9.5,49.99v.98a.869.869,0,0,0,.867.867h1.617a.869.869,0,0,0,.867-.867v-.98Z" transform="translate(-9.5 -49.99)" fill="#5aff8c" stroke="#3f3f3f" stroke-width="1"/><path d="M46.77,49.99v.98a.869.869,0,0,0,.867.867h1.617a.869.869,0,0,0,.867-.867v-.98Z" transform="translate(-30.615 -49.99)" fill="#5aff8c" stroke="#3f3f3f" stroke-width="1"/></g><g transform="translate(10.679 27.207)"><path d="M15.749,38.13A1.569,1.569,0,1,0,17.318,39.7,1.569,1.569,0,0,0,15.749,38.13Z" transform="translate(-14.18 -38.13)" fill="#fafafa" stroke="#3f3f3f" stroke-width="1"/><path d="M44.149,38.13A1.569,1.569,0,1,0,45.718,39.7,1.569,1.569,0,0,0,44.149,38.13Z" transform="translate(-30.269 -38.13)" fill="#fafafa" stroke="#3f3f3f" stroke-width="1"/></g><rect width="6.42" height="1.261" transform="translate(15.191 28.144)" fill="#fafafa" stroke="#3f3f3f" stroke-width="1"/></g></g></svg>