<svg xmlns="http://www.w3.org/2000/svg" xmlns:xlink="http://www.w3.org/1999/xlink" width="52" height="31" viewBox="0 0 52 31"><defs><filter id="a" x="6.264" y="-2.5" width="23.917" height="27.517" filterUnits="userSpaceOnUse"><feOffset dy="1" input="SourceAlpha"/><feGaussianBlur stdDeviation="1" result="b"/><feFlood flood-opacity="0.251"/><feComposite operator="in" in2="b"/><feComposite in="SourceGraphic"/></filter><filter id="c" x="19.629" y="1.614" width="20.836" height="21.35" filterUnits="userSpaceOnUse"><feOffset dy="1" input="SourceAlpha"/><feGaussianBlur stdDeviation="1" result="d"/><feFlood flood-opacity="0.251"/><feComposite operator="in" in2="d"/><feComposite in="SourceGraphic"/></filter><filter id="e" x="11.926" y="6.755" width="32.653" height="18.255" filterUnits="userSpaceOnUse"><feOffset dy="1" input="SourceAlpha"/><feGaussianBlur stdDeviation="1" result="f"/><feFlood flood-opacity="0.251"/><feComposite operator="in" in2="f"/><feComposite in="SourceGraphic"/></filter><clipPath id="h"><rect width="52" height="31"/></clipPath></defs><g id="g" clip-path="url(#h)"><g transform="translate(1 1)"><g transform="translate(28.795 7.713)"><path d="M18.284,29.085a7.2,7.2,0,1,0,7.2,7.2,7.207,7.207,0,0,0-7.2-7.2m0-3.085A10.284,10.284,0,1,1,8,36.284,10.284,10.284,0,0,1,18.284,26Z" transform="translate(-8 -26)" fill="#3f3f3f"/></g><g transform="translate(0 7.713)"><path d="M46.284,29.085a7.2,7.2,0,1,0,7.2,7.2,7.207,7.207,0,0,0-7.2-7.2m0-3.085A10.284,10.284,0,1,1,36,36.284,10.284,10.284,0,0,1,46.284,26Z" transform="translate(-36 -26)" fill="#3f3f3f"/></g><g transform="matrix(1, 0, 0, 1, -1, -1)" filter="url(#a)"><path d="M32,36.5l9.255-18H46.4" transform="translate(-20.72 -17.5)" fill="none" stroke="#5aff8c" stroke-linecap="round" stroke-linejoin="round" stroke-miterlimit="10" stroke-width="3"/></g><g transform="matrix(1, 0, 0, 1, -1, -1)" filter="url(#c)"><path d="M22,34.326,28.17,22.5h5.142" transform="translate(2.65 -17.39)" fill="none" stroke="#5aff8c" stroke-linecap="round" stroke-linejoin="round" stroke-miterlimit="10" stroke-width="3"/></g><g transform="matrix(1, 0, 0, 1, -1, -1)" filter="url(#e)"><path d="M41.653,36.755h-14.4L18,27.5H30.341Z" transform="translate(-1.57 -17.24)" fill="none" stroke="#5aff8c" stroke-linecap="round" stroke-linejoin="round" stroke-miterlimit="10" stroke-width="3"/></g></g></g></svg>