<svg xmlns="http://www.w3.org/2000/svg" xmlns:xlink="http://www.w3.org/1999/xlink" width="52" height="31" viewBox="0 0 52 31"><defs><clipPath id="b"><rect width="52" height="31"/></clipPath></defs><g id="a" clip-path="url(#b)"><g transform="translate(-3769 -728)"><g transform="translate(3769.797 731.5)"><g transform="translate(7.831 24.388)"><path d="M29.4,51.132h9.8c.773,0,1.4-.254,1.4-.566S39.975,50,39.2,50H29.4c-.773,0-1.4.254-1.4.566S28.627,51.132,29.4,51.132Z" transform="translate(-28 -50)" fill="#3f3f3f"/></g><path d="M-.668,0H24.411" transform="translate(2.397 0)" fill="#4f5d73" stroke="#3f3f3f" stroke-linecap="round" stroke-width="2"/><path d="M50.935,22a9.916,9.916,0,0,1,.071,1.122c0,6.381-6.015,11.63-13.739,12.3A9.153,9.153,0,0,1,37,33.25C37,27.056,43.233,22.035,50.935,22Z" transform="translate(-37 -19.376)" fill="#fff" stroke="#3f3f3f" stroke-width="1"/><path d="M24,23.125A9.737,9.737,0,0,0,23.925,22c.025,0,.048,0,.072,0a16.482,16.482,0,0,1,9.552,2.908,4.143,4.143,0,0,0,2.478.841H58.148l-.515.83-1.168,1.883L39.586,31.746s-1.319.517-1.319,1.5c0,6.212-6.389,8.249-14.269,8.249-6.937,0-12.712-.9-14-6.074C17.869,34.755,24,29.506,24,23.125Z" transform="translate(-9.786 -19.375)" fill="#5aff8c" stroke="#3f3f3f" stroke-width="1"/><g transform="translate(44.235 3.714)"><circle cx="2.5" cy="2.5" r="2.5" transform="translate(0.967 0.786)" fill="#fff"/><g transform="translate(0 0)"><path d="M11.205,22.923a1.282,1.282,0,1,0,1.282,1.282,1.283,1.283,0,0,0-1.282-1.282m0-1.923A3.205,3.205,0,1,1,8,24.205,3.205,3.205,0,0,1,11.205,21Z" transform="translate(-8 -21)" fill="#3f3f3f"/></g></g><line y2="3" transform="translate(11.775 21.747)" fill="none" stroke="#3f3f3f" stroke-width="1"/><line y1="3" transform="translate(16.275 21.747)" fill="none" stroke="#3f3f3f" stroke-width="1"/></g><path d="M3800.344,748.658c-.84-.981-.227,3.654-4.278,4.614-4.643,1.1-12.252-.145-11.037,1.2,2.169,2.4,10.48.778,13.255,0S3801.464,749.033,3800.344,748.658Z" transform="translate(-5.277 -4.257)" fill="#3f3f3f"/><path d="M10.782.1c-.522-.584-1.328,1.69-3.845,2.262-2.885.655-7.611-.086-6.857.713C1.428,4.5,6.8,3.867,8.523,3.4S11.478.318,10.782.1Z" transform="translate(3782.319 745.275) rotate(-13)" fill="#3f3f3f"/><line y2="2.25" transform="translate(3783.823 732.25)" fill="none" stroke="#3f3f3f" stroke-width="2"/></g></g></svg>