<svg xmlns="http://www.w3.org/2000/svg" xmlns:xlink="http://www.w3.org/1999/xlink" width="52" height="31" viewBox="0 0 52 31"><defs><filter id="a" x="-2.759" y="2.121" width="57.486" height="26.047" filterUnits="userSpaceOnUse"><feOffset dy="1" input="SourceAlpha"/><feGaussianBlur stdDeviation="1" result="b"/><feFlood flood-opacity="0.251"/><feComposite operator="in" in2="b"/><feComposite in="SourceGraphic"/></filter><clipPath id="d"><rect width="52" height="31"/></clipPath></defs><g id="c" clip-path="url(#d)"><g transform="translate(0 4)"><ellipse cx="1.05" cy="1.05" rx="1.05" ry="1.05" transform="translate(43.048 17.812)" fill="#3f3f3f"/><ellipse cx="1.05" cy="1.05" rx="1.05" ry="1.05" transform="translate(8.135 18.018)" fill="#3f3f3f"/><path d="M42.3,286.94a4.183,4.183,0,1,1-4.183,4.183A4.183,4.183,0,0,1,42.3,286.94Zm0,7.024a2.841,2.841,0,1,0-2.841-2.841A2.841,2.841,0,0,0,42.3,293.964Z" transform="translate(1.795 -272.261)" fill="#3f3f3f"/><path d="M380.622,288.94a4.183,4.183,0,0,1,0,8.367,4.195,4.195,0,1,1,0-8.367Zm0,7.024c1.5,0,1.816-.746,2.483-2.184,0-.041,0-.394,0-.468,0-1.569-.914-3.029-2.483-3.029a2.841,2.841,0,1,0,0,5.681Z" transform="translate(-371.23 -274.055)" fill="#3f3f3f"/><g transform="matrix(1, 0, 0, 1, 0, -4)" filter="url(#a)"><path d="M45.28,165.34l-24.6.7s-.15-6.059-4.6-6.128c-6.115-.081-5.371,6.128-5.371,6.128s-1.721.034-2.169-.034-1.293-.142-1.43-.417A14.919,14.919,0,0,1,6.832,163a5.588,5.588,0,0,1,.137-2.311,2.647,2.647,0,0,1,.839-1.164s1.4-2.6,2.671-3.013,5.6-1.321,5.6-1.321l1.219-.348s4.015-3.13,5.255-4.163,2.744-2.172,2.744-2.172a28.654,28.654,0,0,1,9.72-2.166c5.647-.276,16.251-.344,16.251-.344s3.575.437,4.057.609.385.47.522.677,1.283,3.4,1.283,3.4.3,5.349.3,5.969.207,3.086.207,3.086v2.518l.621.6-.226.677s.568.74-.6,1.016-2.106.414-2.106.414.226-4.7-4.3-5.226C44.753,159.961,45.28,165.34,45.28,165.34Z" transform="translate(-6.53 -141.88)" fill="#5aff8c"/></g><path d="M11.12,194.738l.413,4.58.516.137.688,1.085-.447-5.87Z" transform="translate(38.436 -189.522)" fill="#5aff8c"/><path d="M467.1,248.612a2.879,2.879,0,0,1-1.061,2.02,6.017,6.017,0,0,1-2.02.8,9.981,9.981,0,0,1,1.455-2.363A2.847,2.847,0,0,1,467.1,248.612Z" transform="translate(-462.599 -237.892)" fill="#f0f0f0"/><path d="M16.517,151.757l1,3.2.207.758-1.17.068s-.62-3.89-.689-4.235A.952.952,0,0,0,15.45,151l.654.241Z" transform="translate(33.004 -150.363)" fill="#3f3f3f"/><path d="M5.081,278.979l.473,1.694.043.994.447.482-.171,1a1.669,1.669,0,0,1-.792-.256,2.682,2.682,0,0,1-.89-1.693,6.668,6.668,0,0,1,0-1.959C4.308,279.046,5.081,278.979,5.081,278.979Z" transform="translate(45.956 -265.122)" fill="#3f3f3f"/><path d="M489.1,290.05h1.549a2.714,2.714,0,0,1-.736,1.233,2.291,2.291,0,0,1-1.027.342,3.245,3.245,0,0,1,0-.565A5.66,5.66,0,0,1,489.1,290.05Z" transform="translate(-488.724 -275.05)" fill="#3f3f3f"/><path d="M30.086,231l-9.306.37.077-1.007L30,230Z" transform="translate(19.884 -221.203)" fill="#3f3f3f"/><path d="M326.914,172.995a19.434,19.434,0,0,1,2.131-1.412l.5.2a21.708,21.708,0,0,0-3.358,2.281c-1.265,1.136-3.14,3.161-3.372,3.29a4.008,4.008,0,0,1-1.2.059S326.165,173.614,326.914,172.995Z" transform="translate(-310.343 -168.82)" fill="#fff"/><path d="M242.617,175.681c1.963-1.394,6.132-1.745,6.132-1.745a14.909,14.909,0,0,1,2.689.127c.439.181.171.924.171.924l-.171,3.955a1.966,1.966,0,0,1-.171.959,1.318,1.318,0,0,1-1.02.671s-9.877.691-10.575.536-.531-.455-.428-1.746S240.655,177.076,242.617,175.681Z" transform="translate(-223.967 -170.923)" fill="#fff"/><path d="M43.958,294.117a4.338,4.338,0,1,0-4.338-4.338A4.338,4.338,0,0,0,43.958,294.117Zm0-8.367a4.028,4.028,0,1,1-4.028,4.028A4.028,4.028,0,0,1,43.958,285.75Zm0,7.024a3,3,0,1,0-3-3A3,3,0,0,0,43.958,292.774Zm0-5.681a2.686,2.686,0,1,1-2.686,2.686A2.686,2.686,0,0,1,43.958,287.093Z" transform="translate(0.037 -270.916)" fill="#3f3f3f"/><path d="M381.958,296.117a4.338,4.338,0,1,0-4.338-4.338A4.338,4.338,0,0,0,381.958,296.117Zm0-8.367a4.028,4.028,0,1,1-4.028,4.028A4.028,4.028,0,0,1,381.958,287.75Zm0,7.024a3,3,0,1,0-3-3A3,3,0,0,0,381.958,294.774Zm0-5.681a2.686,2.686,0,1,1-2.686,2.686A2.686,2.686,0,0,1,381.958,289.093Z" transform="translate(-372.876 -272.71)" fill="#3f3f3f"/><path d="M71.144,318.181a1.205,1.205,0,1,0-1.2-1.205A1.205,1.205,0,0,0,71.144,318.181Zm0-2.1a.9.9,0,1,1-.895.895.9.9,0,0,1,.895-.895Z" transform="translate(-27.15 -298.113)" fill="#3f3f3f"/><path d="M409.144,320.181a1.205,1.205,0,1,0-1.2-1.205A1.206,1.206,0,0,0,409.144,320.181Zm0-2.1a.9.9,0,1,1-.894.895A.9.9,0,0,1,409.144,318.081Z" transform="translate(-400.062 -299.907)" fill="#3f3f3f"/><path d="M7.619,165.188c.639,0,1.224-.008,1.273-.009a.153.153,0,0,0,.152-.171c0-.029-.293-2.977,1.27-4.7a4.089,4.089,0,0,1,3.18-1.254h.042a4.572,4.572,0,0,1,3.375,1.315,7.334,7.334,0,0,1,1.671,4.656.154.154,0,0,0,.045.113.162.162,0,0,0,.113.044l24.756-.62a.158.158,0,0,0,.109-.049.153.153,0,0,0,.041-.112A6.47,6.47,0,0,1,45.1,160.23a4.6,4.6,0,0,1,3.388-1.352A4.36,4.36,0,0,1,51.9,160.1a5.624,5.624,0,0,1,1.251,3.815.153.153,0,0,0,.041.117.156.156,0,0,0,.113.05,8.58,8.58,0,0,0,1.826-.28,1.451,1.451,0,0,0,1.256-1.343l.171-.771a.155.155,0,0,0-.036-.139l-.413-.441-.169-2.975c0-.022-.137-1.963-.137-2.573s-.463-5.752-.482-5.97a.163.163,0,0,0-.006-.031c-.236-.8-1.016-3.409-1.156-3.622a2.618,2.618,0,0,0-1.144-.817,39.144,39.144,0,0,0-4.283-.285c-.112,0-10.677.072-16.263.345a24.634,24.634,0,0,0-9.326,2.187,27.92,27.92,0,0,0-3.229,2.187c-1.161.968-4.626,3.993-5.026,4.338l-1.362.133H13.5c-.167.036-4.119.9-5.386,1.312s-2.223,2.72-2.355,3.051a3.915,3.915,0,0,0-.978,1.446,3.125,3.125,0,0,0-.092,1.737,2.728,2.728,0,0,1,.048.384v.223A9.364,9.364,0,0,0,4.86,164.5a1.512,1.512,0,0,0,1.113.634A14.408,14.408,0,0,0,7.619,165.188Zm1.1-.317c-.879.011-2.376.015-2.7-.034a1.221,1.221,0,0,1-.883-.467,10.622,10.622,0,0,1-.089-2.185v-.225A2.79,2.79,0,0,0,5,161.525a2.85,2.85,0,0,1,.075-1.575,3.615,3.615,0,0,1,.918-1.349.146.146,0,0,0,.045-.063c.01-.025.987-2.518,2.176-2.9,1.223-.4,5.133-1.256,5.347-1.3l1.4-.137a.153.153,0,0,0,.087-.037c.038-.033,3.834-3.351,5.061-4.37a27.521,27.521,0,0,1,3.179-2.151,24.411,24.411,0,0,1,9.193-2.148c5.578-.272,16.138-.343,16.245-.344a36.933,36.933,0,0,1,4.182.266,2.375,2.375,0,0,1,.99.7c.1.17.734,2.246,1.112,3.523.028.313.474,5.338.474,5.924,0,.62.132,2.512.138,2.593l.171,3.028a.156.156,0,0,0,.041.1l.393.422-.155.713a.126.126,0,0,0,0,.039c0,.032.008.807-1.017,1.048a10.3,10.3,0,0,1-1.594.263,5.708,5.708,0,0,0-1.343-3.874,4.691,4.691,0,0,0-3.644-1.317,4.882,4.882,0,0,0-3.609,1.451,6.564,6.564,0,0,0-1.537,4.235l-24.446.611a7.4,7.4,0,0,0-1.756-4.714,4.853,4.853,0,0,0-3.6-1.41h-.044A4.383,4.383,0,0,0,10.08,160.1,6.914,6.914,0,0,0,8.722,164.871Z" transform="translate(-4.611 -144.83)" fill="#3f3f3f"/><path d="M10.878,241.868h.009l1.173-.069a.154.154,0,0,0,.146-.161l-.1-2.169a.166.166,0,0,0-.02-.07l-.689-1.2a.6.6,0,0,0-.692-.207.154.154,0,0,0-.114.155l.129,3.577a.156.156,0,0,0,.051.108A.152.152,0,0,0,10.878,241.868Zm1.008-.369-.859.051-.126-3.28c.082,0,.181.009.221.081l.67,1.169Z" transform="translate(39.126 -228.337)" fill="#3f3f3f"/><path d="M22.147,274.533a.138.138,0,0,0,.04-.006,17.242,17.242,0,0,0,2.7-.853,3.981,3.981,0,0,0,.413-.62.155.155,0,0,0-.271-.152,3.853,3.853,0,0,1-.36.545,26.466,26.466,0,0,1-2.57.78.155.155,0,0,0-.109.19A.157.157,0,0,0,22.147,274.533Z" transform="translate(24.831 -259.602)" fill="#3f3f3f"/><path d="M13.413,199.348a.138.138,0,0,0,.05-.008.154.154,0,0,0,.1-.158l-.45-5.871a.157.157,0,0,0-.164-.143l-1.17.069a.154.154,0,0,0-.108.053.157.157,0,0,0-.037.116l.413,4.579a.157.157,0,0,0,.115.136l.458.122.657,1.033A.153.153,0,0,0,13.413,199.348Zm-.59-5.862.388,5.1-.356-.561a.154.154,0,0,0-.091-.067l-.413-.109-.389-4.312Z" transform="translate(37.657 -188.175)" fill="#3f3f3f"/><path d="M23.438,230.178h.006l9.306-.37a.156.156,0,0,0,.109-.053.153.153,0,0,0,.038-.116l-.086-1a.158.158,0,0,0-.161-.142l-9.141.362a.155.155,0,0,0-.148.143l-.077,1.007a.155.155,0,0,0,.042.12A.159.159,0,0,0,23.438,230.178Zm9.137-.673-8.969.356.054-.7,8.854-.35Z" transform="translate(17.122 -219.857)" fill="#3f3f3f"/><path d="M462.02,248.244a.135.135,0,0,0,.029,0,5.793,5.793,0,0,0,2-.878,4.469,4.469,0,0,0,1.407-2.419.155.155,0,0,0-.041-.143.158.158,0,0,0-.143-.042,5.35,5.35,0,0,0-1.874.781,10.179,10.179,0,0,0-1.514,2.479.154.154,0,0,0,.14.219Zm3.063-3.117a3.87,3.87,0,0,1-1.213,1.982,5.782,5.782,0,0,1-1.568.747,8.305,8.305,0,0,1,1.289-2.074A4.413,4.413,0,0,1,465.082,245.127Z" transform="translate(-460.736 -234.437)" fill="#3f3f3f"/><path d="M17.208,152.583h.008l1.171-.069a.153.153,0,0,0,.117-.064.156.156,0,0,0,.024-.131l-.207-.757-1-3.207a.133.133,0,0,0-.027-.051l-.413-.516a.143.143,0,0,0-.067-.049l-.654-.242a.155.155,0,0,0-.133.279.811.811,0,0,1,.341.448c.067.337.682,4.19.688,4.229A.154.154,0,0,0,17.208,152.583Zm.971-.367-.841.05c-.113-.708-.605-3.8-.669-4.107a.782.782,0,0,0-.053-.166l.048.018.369.46.99,3.174Z" transform="translate(32.244 -147.212)" fill="#3f3f3f"/><path d="M6.31,282.217a.156.156,0,0,0,.153-.128l.171-1a.153.153,0,0,0-.037-.131l-.413-.441-.04-.937L6,278.135A.156.156,0,0,0,5.842,278c-.373.015-1.021.076-1.159.31a2.663,2.663,0,0,0,.009,1.275c.018.153.036.31.052.465a2.775,2.775,0,0,0,.683,1.831,1.9,1.9,0,0,0,.87.339Zm.006-1.1-.132.771a1.6,1.6,0,0,1-.574-.256,2.436,2.436,0,0,1-.557-1.611c-.015-.156-.034-.31-.052-.47a4,4,0,0,1-.052-1.079,2.119,2.119,0,0,1,.761-.149l.127,1.285.036.985a.159.159,0,0,0,.041.1Zm-.282-.531Z" transform="translate(45.312 -264.244)" fill="#3f3f3f"/><path d="M486.574,289.686a1.942,1.942,0,0,0,.99-.336,3.978,3.978,0,0,0,.961-1.384.156.156,0,0,0-.013-.148.153.153,0,0,0-.131-.069c-.017,0-1.627.026-1.728.026a.156.156,0,0,0-.15.116,4.308,4.308,0,0,0-.134.917,5.469,5.469,0,0,0,.054.747A.155.155,0,0,0,486.574,289.686Zm1.562-1.623a3.157,3.157,0,0,1-.744,1.033,1.739,1.739,0,0,1-.683.271,5.166,5.166,0,0,1-.032-.555,3.679,3.679,0,0,1,.1-.723Z" transform="translate(-486.35 -272.987)" fill="#3f3f3f"/><path d="M228.276,174.674a2.884,2.884,0,0,0,.413-.03l11.817-.31a.155.155,0,0,0,.151-.151l.413-17.766a.155.155,0,0,0-.046-.115.163.163,0,0,0-.117-.043c-.02,0-1.986.1-3.473.31a19.686,19.686,0,0,0-6.792,2.032c-2.661,1.433-4.487,3.347-4.751,8.029-.27,4.715,1.353,7.573,1.594,7.814A1.146,1.146,0,0,0,228.276,174.674Zm12.074-.646-11.68.31h-.021c-.279.044-.784.054-.95-.112-.217-.218-1.763-3.045-1.5-7.576s2.023-6.39,4.592-7.777a19.357,19.357,0,0,1,6.688-2c1.222-.169,2.774-.27,3.281-.3Z" transform="translate(-211.974 -155.078)" fill="#3f3f3f"/><path d="M112.714,171.449h0c.868-.01,8.495-.112,9.151-.4.677-.3,1.095-1.549,1.136-1.686a24.078,24.078,0,0,0,1.452-4.592,22.359,22.359,0,0,0,.34-7.9c-.243-2.385-.575-2.961-.989-3.464-.368-.451-2.323-.363-2.711-.341l-7.977.31a.156.156,0,0,0-.149.161.154.154,0,0,0,.161.149l7.979-.31a5.288,5.288,0,0,1,2.456.227c.3.363.662.815.921,3.305a21.958,21.958,0,0,1-.333,7.8,24.026,24.026,0,0,1-1.435,4.539.123.123,0,0,0-.008.021c-.109.348-.5,1.3-.973,1.506-.452.2-5.648.333-9.03.374a.155.155,0,0,0,0,.31Z" transform="translate(-84.187 -152.193)" fill="#3f3f3f"/><path d="M200.3,251.2a.855.855,0,1,0-.93-.852A.892.892,0,0,0,200.3,251.2Zm0-1.394a.547.547,0,1,1-.62.542A.585.585,0,0,1,200.3,249.81Z" transform="translate(-169.397 -238.688)" fill="#3f3f3f"/><path d="M245.05,253.825a.8.8,0,1,0-.93-.787A.866.866,0,0,0,245.05,253.825Zm0-1.265a.494.494,0,1,1-.62.478A.564.564,0,0,1,245.05,252.56Z" transform="translate(-218.769 -241.154)" fill="#3f3f3f"/><path d="M192.335,254.43h2.556a.465.465,0,0,0,0-.93h-2.556a.465.465,0,0,0,0,.93Zm2.556-.62a.155.155,0,1,1,0,.31h-2.556a.155.155,0,0,1,0-.31Z" transform="translate(-162.749 -242.275)" fill="#3f3f3f"/><path d="M233.835,256.43h2.608a.465.465,0,1,0,0-.93h-2.608a.465.465,0,0,0,0,.93Zm2.608-.62a.155.155,0,0,1,0,.31h-2.608a.155.155,0,0,1,0-.31Z" transform="translate(-208.588 -244.069)" fill="#3f3f3f"/><rect width="3.822" height="2.892" rx="1.446" transform="translate(15.228 7.351)" fill="#3f3f3f"/><path d="M455.176,273.913a.156.156,0,1,0,.031-.31l-.854-.17-1.876-2.076a.155.155,0,0,0-.23.207l1.911,2.117a.153.153,0,0,0,.085.049l.9.181Z" transform="translate(-449.632 -258.247)" fill="#3f3f3f"/><path d="M321.73,175.875a1.494,1.494,0,0,0,.59-.077,10.217,10.217,0,0,0,1.026-1.026c.651-.688,1.541-1.632,2.256-2.272a27.95,27.95,0,0,1,3.642-2.512.157.157,0,0,0,.076-.143.155.155,0,0,0-.092-.133l-.465-.207a.153.153,0,0,0-.134,0,21.014,21.014,0,0,0-2.661,1.619c-.752.623-5.249,4.379-5.295,4.417a.155.155,0,0,0,.084.273A9.182,9.182,0,0,0,321.73,175.875Zm7.1-6a25.965,25.965,0,0,0-3.433,2.4c-.723.651-1.621,1.6-2.272,2.292-.424.45-.863.915-.951.968a3.459,3.459,0,0,1-1.008.013c1.012-.845,4.374-3.653,5-4.174a20.233,20.233,0,0,1,2.541-1.549Z" transform="translate(-309.805 -166.942)" fill="#3f3f3f"/><path d="M239.5,179.455c1.942,0,8.563-.5,9.4-.563.131-.006,1.332-.08,1.6-.742a3.529,3.529,0,0,0,.27-.9v-.007l.181-4.08c.011-.109.1-1.146-.432-1.364a13.654,13.654,0,0,0-3.151.145h0a19.785,19.785,0,0,0-2.205.31,9.821,9.821,0,0,0-3.727,1.375c-1.87,1.328-3.305,2.456-3.421,3.858-.1,1.266.151,1.756,1,1.945A2.869,2.869,0,0,0,239.5,179.455Zm10.963-2.227a3.469,3.469,0,0,1-.248.8c-.167.413-1.02.535-1.335.549-2.542.194-9.245.669-9.8.546-.813-.181-.826-.732-.757-1.619.1-1.268,1.488-2.349,3.292-3.631,1.9-1.352,5.744-1.622,5.784-1.624a13.945,13.945,0,0,1,3-.166c.25.1.271.755.241,1.055Z" transform="translate(-223.123 -168.958)" fill="#3f3f3f"/><path d="M323.014,215.7h1.343a1.4,1.4,0,0,0,1.394-1.394v-.413a1.4,1.4,0,0,0-1.394-1.394h-1.343a1.4,1.4,0,0,0-1.394,1.394v.413A1.4,1.4,0,0,0,323.014,215.7Zm1.343-2.892a1.086,1.086,0,0,1,1.085,1.085v.413a1.086,1.086,0,0,1-1.085,1.085h-1.343a1.086,1.086,0,0,1-1.085-1.085v-.413a1.086,1.086,0,0,1,1.085-1.085Z" transform="translate(-306.65 -205.304)" fill="#3f3f3f"/><path d="M195.287,251.737l.39.312.686.109.14.319-.14.171-.538.07-.281.078-.179.164-.522.14-.436-.14s-.078-.234-.109-.242a3.186,3.186,0,0,0-.545,0,1.611,1.611,0,0,1-.366-.07l-.07-.288.14-.312h.608l.288-.086.281-.226h.655Z" transform="translate(-164.045 -240.695)" fill="#3f3f3f"/><path d="M236.825,253.819l.312.249h.631l.429.1.093.288-.226.226h-.678l-.382.07-.226.179a3.646,3.646,0,0,1-.382.047,2.224,2.224,0,0,1-.273-.132c-.031-.016-.553-.164-.553-.164s-.319.047-.351,0-.148-.3-.148-.3l.148-.312.553-.062.507-.288.421.1Z" transform="translate(-210.145 -242.47)" fill="#3f3f3f"/></g></g></svg>