<svg xmlns="http://www.w3.org/2000/svg" xmlns:xlink="http://www.w3.org/1999/xlink" width="52" height="31" viewBox="0 0 52 31"><defs><clipPath id="b"><rect width="52" height="31"/></clipPath></defs><g id="a" clip-path="url(#b)"><g transform="translate(2 2)"><g transform="translate(29.944 9.327)"><path d="M16.836,30.945a5.891,5.891,0,1,0,5.891,5.891,5.9,5.9,0,0,0-5.891-5.891m0-2.945A8.836,8.836,0,1,1,8,36.836,8.835,8.835,0,0,1,16.836,28Z" transform="translate(-8 -28)" fill="#3f3f3f"/></g><g transform="translate(0.49 9.327)"><path d="M46.836,30.945a5.891,5.891,0,1,0,5.891,5.891,5.9,5.9,0,0,0-5.891-5.891m0-2.945A8.836,8.836,0,1,1,38,36.836,8.835,8.835,0,0,1,46.836,28Z" transform="translate(-38 -28)" fill="#3f3f3f"/></g><path d="M34.69,36.473H19.964L18,35" transform="translate(3.108 -18.801)" fill="none" stroke="#3f3f3f" stroke-linecap="round" stroke-linejoin="round" stroke-miterlimit="10" stroke-width="3"/><line x1="0.982" y2="1.816" transform="translate(12.272 2.602)" stroke-width="3" stroke="#5aff8c" stroke-linecap="round" stroke-linejoin="round" stroke-miterlimit="10" fill="none"/><g transform="translate(0 7.845)"><path d="M41.973,32.285a1.464,1.464,0,0,0,.942-.342c5.137-4.281,11.18-1.767,11.24-1.741a1.473,1.473,0,0,0,1.16-2.708c-.315-.135-7.778-3.237-14.286,2.186a1.472,1.472,0,0,0,.943,2.6Z" transform="translate(-40.499 -26.491)" fill="#3f3f3f"/></g><g transform="translate(19.144 9.713)" opacity="0.2"><path d="M32.227,28.393h4.49C28.083,38.488,21.427,32.32,21.427,32.32,21.427,29.446,26.336,28.393,32.227,28.393Z" transform="translate(-21.427 -28.393)" fill="#231f20"/></g><g transform="translate(17.672 8.24)"><path d="M13.509,35.8c3.278,0,6.744-2,10.306-5.962l0,0h7.738a7.451,7.451,0,0,1,4.033,1.184,1.473,1.473,0,0,0,1.759-2.362,10.319,10.319,0,0,0-5.793-1.767H19.775C9.631,26.893,7.5,29.83,7.5,32.293a1.473,1.473,0,0,0,.305.9A7.451,7.451,0,0,0,13.2,35.8C13.3,35.8,13.406,35.8,13.509,35.8Zm6.158-5.965c-2.3,2.055-4.462,3.091-6.353,3.017A4.569,4.569,0,0,1,10.6,31.832C11.259,30.808,14.159,29.85,19.667,29.838Z" transform="translate(-7.503 -26.893)" fill="#3f3f3f"/></g><path d="M54.763,25.984S47.891,23.038,42,27.947" transform="translate(-40.528 -18.62)" fill="none" stroke="#5aff8c" stroke-linecap="round" stroke-linejoin="round" stroke-miterlimit="10" stroke-width="3"/><path d="M32.227,25.5h4.49c-8.633,10.095-15.289,3.927-15.289,3.927C21.427,26.554,26.336,25.5,32.227,25.5Z" transform="translate(-2.283 -18.628)" fill="#3f3f3f"/><path d="M36.49,26.973A8.8,8.8,0,0,0,31.581,25.5H19.8C13.909,25.5,9,26.554,9,29.427c0,0,4.909,6.382,13.745-3.436" transform="translate(10.144 -18.628)" fill="none" stroke="#5aff8c" stroke-linecap="round" stroke-linejoin="round" stroke-miterlimit="10" stroke-width="3"/><g transform="translate(7.854 0.491)" opacity="0.2"><path d="M31.972,40.108a1.472,1.472,0,0,0,1.3-.773l9.4-17.39H46.7A1.473,1.473,0,0,0,46.7,19H41.79a1.47,1.47,0,0,0-1.295.773L30.678,37.936a1.472,1.472,0,0,0,1.294,2.173Z" transform="translate(-30.5 -19)" fill="#231f20"/></g><path d="M46.727,18.5H41.818L32,36.663" transform="translate(-22.674 -18.5)" fill="none" stroke="#3f3f3f" stroke-linecap="round" stroke-linejoin="round" stroke-miterlimit="10" stroke-width="3"/></g></g></svg>