<svg xmlns="http://www.w3.org/2000/svg" xmlns:xlink="http://www.w3.org/1999/xlink" width="52" height="31" viewBox="0 0 52 31"><defs><filter id="a" x="-0.292" y="3.487" width="54.221" height="26.69" filterUnits="userSpaceOnUse"><feOffset dy="1" input="SourceAlpha"/><feGaussianBlur stdDeviation="1" result="b"/><feFlood flood-opacity="0.251"/><feComposite operator="in" in2="b"/><feComposite in="SourceGraphic"/></filter><clipPath id="d"><rect width="52" height="31"/></clipPath></defs><g id="c" clip-path="url(#d)"><g transform="translate(-14 -25.008)"><path d="M53.9,52a6.2,6.2,0,1,0,6.2,6.2A6.2,6.2,0,0,0,53.9,52ZM22.2,52a6.2,6.2,0,1,0,6.2,6.2A6.2,6.2,0,0,0,22.2,52Z" transform="translate(0 -8.394)" fill="#3f3f3f"/><path d="M55.14,56a3.445,3.445,0,1,0,3.445,3.445A3.445,3.445,0,0,0,55.14,56ZM23.445,56a3.445,3.445,0,1,0,3.445,3.445A3.445,3.445,0,0,0,23.445,56Z" transform="translate(-1.244 -9.638)" fill="#fff"/><g transform="matrix(1, 0, 0, 1, 14, 25.01)" filter="url(#a)"><path d="M65.219,52.672l.025-.061c0-6.094-4.835-11.819-10.851-12.055H43.7s-.8-.354-1.2,1.569v2.039a.938.938,0,0,0-.006.361,1.2,1.2,0,0,0,.9.892,2.517,2.517,0,0,1,1.884,2.417,2.915,2.915,0,0,1-2.822,3.011l-.088.039h-3.81l-.034-.014a6.818,6.818,0,0,1-7.038-6.578L33.879,34.1a.912.912,0,0,0-.888-1.12H28.03s-.792-.351-2.239,3.947l-1.175,3.688a10.183,10.183,0,0,0-7.189,3.078c-.345.345-.533.721-.286,1.142l5,8.78,6.462.048H64.338a.913.913,0,0,0,.911-.914l-.03-.075Z" transform="translate(-14.32 -27.48)" fill="#5aff8c"/></g><path d="M66.034,52.067h6.2a1.034,1.034,0,0,0,0-2.067h-6.2a1.034,1.034,0,1,0,0,2.067Zm6.2.689h-6.2a1.034,1.034,0,1,0,0,2.067h6.2a1.034,1.034,0,0,0,0-2.067Z" transform="translate(-15.238 -7.772)" fill="#3f3f3f"/><path d="M34.568,30.5V28.555a1.4,1.4,0,0,1,1.5-1.5H39.2a1.032,1.032,0,0,0,.912-1.044.99.99,0,0,0-.912-1H35.983l-.018.007a3.5,3.5,0,0,0-3.457,3.5V30.5ZM27,29.826a3.286,3.286,0,0,1,3.445,3.1A3.286,3.286,0,0,1,27,36.027Z" transform="translate(-3.421 0)" fill="#3f3f3f"/><g transform="translate(16.709 38.054)"><path d="M43.4,48.83a2.517,2.517,0,0,1,1.884,2.417,2.905,2.905,0,0,1-.3,1.357,2.907,2.907,0,0,0,1.678-2.735,2.518,2.518,0,0,0-1.884-2.417,1.2,1.2,0,0,1-.9-.892.938.938,0,0,1,.006-.361V44.159l.045-.191H43.7s-.8-.354-1.2,1.569v2.039a.938.938,0,0,0-.006.361A1.2,1.2,0,0,0,43.4,48.83Zm21.846,7.194-.016-.329H29.985l-6.462-.045-5-8.781a.717.717,0,0,1-.043-.689,10.98,10.98,0,0,0-1.049.925c-.345.345-.533.721-.286,1.142l5,8.78,6.462.046H64.338a.913.913,0,0,0,.911-.914l-.03-.074Z" transform="translate(-17.028 -43.943)" fill="#3f3f3f"/></g><path d="M53.1,36h9.646a3.1,3.1,0,1,1,0,6.2H53.1a3.1,3.1,0,1,1,0-6.2Z" transform="translate(-10.574 -3.418)" fill="#3f3f3f"/><g transform="translate(49.762 42.917)"><path d="M72.235,54.445h-6.2a1.031,1.031,0,0,1-.97-.689A1.022,1.022,0,0,0,65,54.1a1.034,1.034,0,0,0,1.034,1.034h6.2A1.034,1.034,0,0,0,73.268,54.1a1.022,1.022,0,0,0-.063-.345A1.031,1.031,0,0,1,72.235,54.445Zm0-2.756h-6.2a1.031,1.031,0,0,1-.97-.689,1.022,1.022,0,0,0-.063.345,1.034,1.034,0,0,0,1.034,1.034h6.2a1.034,1.034,0,0,0,1.034-1.034A1.022,1.022,0,0,0,73.2,51,1.031,1.031,0,0,1,72.235,51.689Z" transform="translate(-65 -51)" fill="#3f3f3f"/></g><path d="M28.378,32.262A3.747,3.747,0,0,0,27,32v6.2a3.747,3.747,0,0,0,1.378-.262Z" transform="translate(-3.421 -2.174)" fill="#3f3f3f"/><path d="M62.747,41.067H53.1A3.092,3.092,0,0,1,50.189,39,3.072,3.072,0,0,0,53.1,43.134h9.646A3.072,3.072,0,0,0,65.658,39,3.092,3.092,0,0,1,62.747,41.067Z" transform="translate(-10.574 -4.351)" fill="#3f3f3f"/></g></g></svg>