<svg xmlns="http://www.w3.org/2000/svg" xmlns:xlink="http://www.w3.org/1999/xlink" width="52" height="31" viewBox="0 0 52 31"><defs><clipPath id="b"><rect width="52" height="31"/></clipPath></defs><g id="a" clip-path="url(#b)"><g transform="translate(0 7)"><g transform="translate(0)"><circle cx="1.232" cy="1.232" r="1.232" transform="translate(39.495 12.252)" fill="#3f3f3f"/><circle cx="1.232" cy="1.232" r="1.232" transform="translate(8.594 12.252)" fill="#3f3f3f"/><path d="M84.119,295.75a3.809,3.809,0,1,1-3.809,3.809A3.809,3.809,0,0,1,84.119,295.75Zm0,6.757a2.949,2.949,0,1,0-2.949-2.949A2.948,2.948,0,0,0,84.119,302.507Z" transform="translate(-43.546 -286.103)" fill="#3f3f3f"/><path d="M372.149,295.75a3.809,3.809,0,1,1-3.809,3.809A3.809,3.809,0,0,1,372.149,295.75Zm0,6.757a2.949,2.949,0,1,0-2.947-2.948,2.949,2.949,0,0,0,2.947,2.948Z" transform="translate(-362.425 -285.995)" fill="#3f3f3f"/><path d="M46.205,221.293s-5.8.311-8.013.311H24.008s.617-6.224-4.343-6.432-4.406,6.432-4.406,6.432l-5.066-.311-.207-.286.207-.493a7.965,7.965,0,0,1,0-2.671,7.283,7.283,0,0,1,1.543-3.427c.713-.857,2.356-1.3,4.284-1.714s7.825-1.141,7.825-1.141,6.01-3.89,8.681-4.487a41.151,41.151,0,0,1,12.48-.467,22.893,22.893,0,0,1,8.357,2.8,14.937,14.937,0,0,0,2.372.934c.991.184,4.144.6,4.213.6a1.314,1.314,0,0,1,.253.674c-.024.13-.107.518,0,.648a1.357,1.357,0,0,1,.321.6c.07.286.162,1.323.184,1.5s.51.835.582,1.1a24.542,24.542,0,0,1,.321,2.619,4.252,4.252,0,0,1-.276,1.4,10.186,10.186,0,0,1-3.339,1.452,14.983,14.983,0,0,1-3.32.233s.938-5.991-4.271-5.861S46.205,221.293,46.205,221.293Z" transform="translate(-9.806 -206.164)" fill="#5aff8c"/><path d="M20.18,260.026v-.75l-3.22-1.531,5.462-.306.027.514a8.352,8.352,0,0,1,.364.781c.015.1.155,1.319.155,1.319Z" transform="translate(28.091 -251.789)" fill="#3f3f3f"/><path d="M78.234,213.548s-5.091.028-5.947-.4S67.9,210.792,68,210.363s1.663-.142,1.663-.142a23.8,23.8,0,0,1,5.3,1.75C75.578,212.336,78.234,213.548,78.234,213.548Z" transform="translate(-32.106 -209.543)" fill="#3f3f3f"/><path d="M437.726,275.73s-1.262.207-2.2.414a10.616,10.616,0,0,1-1.793.285,4.02,4.02,0,0,1-.606-.077,9.321,9.321,0,0,0-.877,1.207c-.234.45-.506,1.1-.506,1.1a.834.834,0,0,0,.6.157,20.252,20.252,0,0,0,3.206-1.427c.429-.259,2.07-.881,2.171-1.166A.672.672,0,0,0,437.726,275.73Z" transform="translate(-431.032 -268.013)" fill="#3f3f3f"/><path d="M18.807,220.261l-.015-.185c0-.034-.267-3.473,1.422-5.232a3.537,3.537,0,0,1,2.821-1.025,3.9,3.9,0,0,1,2.907,1.3c1.577,1.815,1.285,4.927,1.285,4.957l-.017.177H41.58c2.191,0,7.97-.308,8.027-.312l.18-.01-.03-.178c0-.028-.459-2.785.93-4.475a3.952,3.952,0,0,1,3.117-1.328,3.775,3.775,0,0,1,3.1,1.16c1.441,1.642,1.016,4.487,1.011,4.515l-.028.179.181.006a15.117,15.117,0,0,0,3.366-.239c1.029-.278,3.177-1.071,3.438-1.527a3.953,3.953,0,0,0,.29-1.385l.006-.081a26.562,26.562,0,0,0-.321-2.678,3.029,3.029,0,0,0-.321-.618,3.024,3.024,0,0,1-.246-.45c-.005-.045-.016-.142-.029-.27-.052-.519-.107-1.044-.159-1.251a1.52,1.52,0,0,0-.357-.665c-.017-.026-.039-.123.027-.468l.009-.046a1.6,1.6,0,0,0-.258-.784.2.2,0,0,0-.153-.079c-.141-.011-3.241-.421-4.188-.593a7.774,7.774,0,0,1-1.845-.708,2.637,2.637,0,0,0-.525-.226c-.041-.015-.176-.088-.321-.166a22.134,22.134,0,0,0-8.059-2.637,41.565,41.565,0,0,0-12.542.47c-2.607.586-8.192,4.155-8.712,4.491-.5.062-5.97.75-7.808,1.139-1.791.384-3.6.838-4.378,1.766a7.478,7.478,0,0,0-1.579,3.5,8.116,8.116,0,0,0-.009,2.678l-.224.536.305.42Zm30.608-.634c-.986.051-5.867.3-7.835.3H27.561a9.9,9.9,0,0,0-.061-1.69,6.32,6.32,0,0,0-1.315-3.332,4.2,4.2,0,0,0-3.136-1.409,3.821,3.821,0,0,0-3.066,1.125,6.248,6.248,0,0,0-1.436,3.456,10.871,10.871,0,0,0-.085,1.84l-4.813-.3-.107-.151.192-.455-.01-.048a7.836,7.836,0,0,1,0-2.611,7.182,7.182,0,0,1,1.507-3.348c.709-.85,2.463-1.285,4.2-1.658,1.9-.408,7.757-1.131,7.818-1.138h.036l.031-.02c.06-.039,6.02-3.881,8.635-4.464a41.193,41.193,0,0,1,12.435-.465,21.818,21.818,0,0,1,7.943,2.6,1.6,1.6,0,0,0,.42.2,4,4,0,0,1,.436.2,8.1,8.1,0,0,0,1.928.735c.857.157,3.673.536,4.172.592a1.66,1.66,0,0,1,.168.5l-.006.037c-.052.273-.1.577.046.74a1.184,1.184,0,0,1,.286.528c.049.2.116.857.152,1.209.013.13.024.231.029.277a1.948,1.948,0,0,0,.291.576,3.182,3.182,0,0,1,.289.536c.069.258.338,2.335.321,2.563l-.007.084a3.864,3.864,0,0,1-.248,1.252,10.638,10.638,0,0,1-3.244,1.376,13.724,13.724,0,0,1-3.094.232,8.523,8.523,0,0,0,.019-1.535,5.206,5.206,0,0,0-1.13-3.061,4.09,4.09,0,0,0-3.353-1.269,4.279,4.279,0,0,0-3.358,1.446,5.414,5.414,0,0,0-1.062,3.058A8.294,8.294,0,0,0,49.415,219.627ZM63.338,209.59Zm-6.55-1.849Z" transform="translate(-13.175 -204.674)" fill="#3f3f3f"/><path d="M28.449,257.989l-.02-.181c-.005-.049-.14-1.223-.155-1.326a5.383,5.383,0,0,0-.364-.8l-.034-.643-6.255.35,3.7,1.758v.81Zm-.878-2.608.021.388.015.03c.155.3.332.668.349.737s.086.725.133,1.129l-2.453-.024v-.694l-2.742-1.3Z" transform="translate(22.647 -249.646)" fill="#231f20"/><path d="M435,277.514h.089a19.771,19.771,0,0,0,3.279-1.449c.138-.084.428-.214.736-.356.964-.437,1.422-.668,1.5-.9a.825.825,0,0,0-.007-.617l-.052-.107-.118.02c-.013,0-1.278.214-2.205.417a10.8,10.8,0,0,1-1.758.281,3.932,3.932,0,0,1-.573-.074l-.093-.019-.062.073a9.287,9.287,0,0,0-.9,1.237c-.241.462-.5,1.085-.512,1.112l-.044.107.082.077A.949.949,0,0,0,435,277.514Zm5.338-3.066a.6.6,0,0,1-.033.257,6.438,6.438,0,0,1-1.333.71c-.33.15-.615.28-.769.373a21.073,21.073,0,0,1-3.134,1.4.8.8,0,0,1-.39-.06c.09-.214.28-.643.447-.964a8.483,8.483,0,0,1,.8-1.107,3.44,3.44,0,0,0,.543.063,10.8,10.8,0,0,0,1.827-.289C439.033,274.674,439.984,274.509,440.342,274.448Z" transform="translate(-433.766 -266.655)" fill="#3f3f3f"/><path d="M86.35,301.448a3.969,3.969,0,1,0-3.97-3.97A3.969,3.969,0,0,0,86.35,301.448Zm0-7.617A3.648,3.648,0,1,1,82.7,297.48,3.648,3.648,0,0,1,86.35,293.831Zm0,6.757a3.106,3.106,0,1,0-3.106-3.106A3.106,3.106,0,0,0,86.35,300.588Zm0-5.9a2.785,2.785,0,1,1-2.785,2.785A2.785,2.785,0,0,1,86.35,294.691Z" transform="translate(-45.73 -283.995)" fill="#3f3f3f"/><path d="M294.344,214.69a2.866,2.866,0,0,1-.556,1.446,36.132,36.132,0,0,1-4.011,2.559l-3.487.3s3.331-2.048,4.43-2.625S294.344,214.69,294.344,214.69Z" transform="translate(-272.024 -213.617)" fill="#3f3f3f"/><path d="M374.843,301.448a3.969,3.969,0,1,0-3.963-3.969A3.969,3.969,0,0,0,374.843,301.448Zm0-7.617a3.648,3.648,0,1,1-3.642,3.648,3.648,3.648,0,0,1,3.642-3.648Zm0,6.757a3.106,3.106,0,1,0-3.106-3.106A3.106,3.106,0,0,0,374.843,300.588Zm0-5.9a2.785,2.785,0,1,1-2.785,2.785A2.785,2.785,0,0,1,374.843,294.691Z" transform="translate(-365.13 -283.995)" fill="#3f3f3f"/><path d="M290.59,217.09l4.2-.364.03-.017a34.945,34.945,0,0,0,4.053-2.593,3,3,0,0,0,.6-1.538l.021-.268-.246.107c-.026.011-2.543,1.113-3.635,1.686s-4.406,2.61-4.439,2.63Zm4.1-.678-2.773.241c1.006-.614,3.035-1.842,3.84-2.264.872-.458,2.668-1.26,3.346-1.559a2.379,2.379,0,0,1-.473,1.071,32.426,32.426,0,0,1-3.939,2.512Z" transform="translate(-277.201 -211.492)" fill="#3f3f3f"/><path d="M107.816,320.354a1.392,1.392,0,1,0-.984-2.377h0a1.392,1.392,0,0,0,.984,2.377Zm0-2.463a1.071,1.071,0,1,1-.757.314h0A1.061,1.061,0,0,1,107.816,317.891Z" transform="translate(-67.196 -305.478)" fill="#3f3f3f"/><path d="M396.386,320.354a1.392,1.392,0,1,0-.984-2.377h0a1.392,1.392,0,0,0,.984,2.377Zm0-2.463a1.071,1.071,0,1,1-.75.314h0A1.064,1.064,0,0,1,396.386,317.891Z" transform="translate(-386.673 -305.478)" fill="#3f3f3f"/><path d="M92.388,312.2a.434.434,0,0,1,.214-.535,1.958,1.958,0,0,1,1.607.857,2.158,2.158,0,0,1,0,2.142c-.231.31-.75-.214-.75-.214a2.411,2.411,0,0,0,.107-1.392C93.352,312.524,92.388,312.2,92.388,312.2Z" transform="translate(-51.079 -300.191)" fill="#5aff8c"/><path d="M381.388,312.2a.434.434,0,0,1,.214-.535,1.958,1.958,0,0,1,1.607.857,2.158,2.158,0,0,1,0,2.142c-.231.31-.75-.214-.75-.214a2.411,2.411,0,0,0,.107-1.392C382.352,312.524,381.388,312.2,381.388,312.2Z" transform="translate(-371.246 -300.191)" fill="#5aff8c"/><path d="M95.661,313.592h.03a.39.39,0,0,0,.291-.162,2.3,2.3,0,0,0,.011-2.318,2.064,2.064,0,0,0-.93-.769,1.32,1.32,0,0,0-.888-.152.585.585,0,0,0-.293.734l.027.074.073.025c.25.082.928.382,1.081.764a2.3,2.3,0,0,1-.107,1.277l-.035.1.072.073A1.143,1.143,0,0,0,95.661,313.592Zm-1.295-3.119a1.985,1.985,0,0,1,1.348.8,2.016,2.016,0,0,1,.011,1.965.07.07,0,0,1-.057.033.717.717,0,0,1-.379-.2,2.348,2.348,0,0,0,.071-1.4c-.2-.5-.936-.822-1.19-.919a.255.255,0,0,1,.149-.271A.18.18,0,0,1,94.366,310.474Z" transform="translate(-52.939 -298.859)" fill="#3f3f3f"/><path d="M384.661,313.592h.03a.39.39,0,0,0,.291-.162,2.3,2.3,0,0,0,.011-2.318,2.064,2.064,0,0,0-.93-.769,1.32,1.32,0,0,0-.888-.152.585.585,0,0,0-.293.734l.027.074.073.025c.25.082.928.382,1.081.764a2.3,2.3,0,0,1-.107,1.277l-.035.1.072.073A1.143,1.143,0,0,0,384.661,313.592Zm-1.295-3.119a1.985,1.985,0,0,1,1.348.8,2.015,2.015,0,0,1,.011,1.965.07.07,0,0,1-.057.033.72.72,0,0,1-.379-.2,2.349,2.349,0,0,0,.071-1.4c-.2-.5-.936-.822-1.19-.919a.255.255,0,0,1,.149-.271A.181.181,0,0,1,383.366,310.474Z" transform="translate(-372.891 -298.859)" fill="#3f3f3f"/><path d="M156.743,214.691A39.357,39.357,0,0,0,153.1,211.8a77.341,77.341,0,0,0-8.675,0,5.367,5.367,0,0,0-2.57.75c-.214.214-3.856,3.534-3.856,3.534s12.531-.643,13.709-.75S156.743,214.691,156.743,214.691Z" transform="translate(-118.755 -210.925)" fill="#3f3f3f"/><path d="M77.759,213.221h.9l-.625-.306c-.025-.012-2.464-1.164-3.024-1.524-1.511-.974-5.213-1.6-5.361-1.628-.486-.1-1.334-.482-1.456.042-.034.148-.092.4,1.744,1.586.892.577,1.92,1.173,2.366,1.407C73.047,213.2,76.806,213.221,77.759,213.221Zm-8.733-3.458a4.545,4.545,0,0,1,.854.091,21.294,21.294,0,0,1,4.937,1.749c.4.257,1.678.9,2.461,1.292a21.209,21.209,0,0,1-4.836-.386c-.413-.222-1.382-.783-2.243-1.336-1.436-.921-1.666-1.231-1.7-1.309C68.54,209.8,68.733,209.762,69.027,209.762Z" transform="translate(-32.547 -209.055)" fill="#3f3f3f"/><path d="M140.52,214.925l.448-.024c.125-.006,12.547-.643,13.716-.75s5-.643,5.041-.643l.35-.049-.268-.231A33.079,33.079,0,0,0,156.1,210.3a73.678,73.678,0,0,0-8.735,0,5.718,5.718,0,0,0-2.663.795c-.209.214-3.814,3.5-3.85,3.529Zm18.808-1.687c-.979.134-3.723.507-4.675.593-1.035.094-11.007.61-13.255.726.908-.828,3.352-3.059,3.534-3.238a5.456,5.456,0,0,1,2.478-.7,77.5,77.5,0,0,1,8.615,0A30.542,30.542,0,0,1,159.328,213.238Z" transform="translate(-121.714 -209.583)" fill="#3f3f3f"/><path d="M146.969,252.506H147l3.573-.428.031-.021c.065-.044.393-.276.393-.562a.274.274,0,0,0-.107-.214.679.679,0,0,0-.514-.046l-3.409.428c-.229,0-.471.121-.471.375,0,.321.387.459.428.474Zm3.49-.75-3.454.419c-.084-.035-.181-.107-.181-.157,0-.028.1-.052.162-.054h.019l3.445-.428a.689.689,0,0,1,.224-.019.654.654,0,0,1-.215.243Z" transform="translate(-113.281 -246.22)" fill="#3f3f3f"/><path d="M131.391,254.21h14.284l.013-.146c0-.046.442-4.656,2.079-5.884a7.029,7.029,0,0,0,2.2-4.07l-.321-.05a6.8,6.8,0,0,1-2.08,3.856,6.314,6.314,0,0,0-1.774,3.572,20.455,20.455,0,0,0-.417,2.394H131.559a23.882,23.882,0,0,0-.222-3.815,9.97,9.97,0,0,0-2.071-4.581l-.246.207a9.856,9.856,0,0,1,2,4.416,22.085,22.085,0,0,1,.214,3.931l-.012.171Z" transform="translate(-110.379 -239.842)" fill="#3f3f3f"/><path d="M97.178,259.186A1.178,1.178,0,1,0,96,258.008,1.178,1.178,0,0,0,97.178,259.186Zm0-2.035a.857.857,0,1,1-.857.857A.857.857,0,0,1,97.178,257.151Z" transform="translate(-55.227 -251.244)" fill="#3f3f3f"/><path d="M168.384,269.389a47.349,47.349,0,0,0,9-1.083l-.071-.313a45.486,45.486,0,0,1-9.493,1.071,75.618,75.618,0,0,1-8.1-.819c-1.641-.226-3.059-.422-4-.466a57.433,57.433,0,0,0-7.528.643l.047.321a57.737,57.737,0,0,1,7.466-.643c.931.043,2.341.238,3.975.464a76.031,76.031,0,0,0,8.131.822C168,269.387,168.19,269.389,168.384,269.389Z" transform="translate(-139.841 -261.011)" fill="#3f3f3f"/></g><path d="M6065.971,1726.082l.533.621-.177.888-.834.391-.835-.249-.249-.728.249-.71.657-.3Z" transform="translate(-6023.524 -1720.211)" fill="#3f3f3f"/><path d="M6119.313,1719.663s.191-.1.191,0v.369l-.41.219-2.089.259-1.311.164-.3-.164v-.382l1.352-.219Z" transform="translate(-6081.878 -1714.52)" fill="#3f3f3f"/></g></g></svg>