<svg xmlns="http://www.w3.org/2000/svg" xmlns:xlink="http://www.w3.org/1999/xlink" width="52" height="31" viewBox="0 0 52 31"><defs><clipPath id="b"><rect width="52" height="31"/></clipPath></defs><g id="a" clip-path="url(#b)"><g transform="translate(0 9)"><path d="M69.566,277.717a3,3,0,0,0,1.98-.41A5.175,5.175,0,0,0,73,274.866a2.347,2.347,0,0,0,.109-.672L73,273.741s-.438-1.267-.545-1.507a13.834,13.834,0,0,0-.907-1.761c-.213-.24-.24-.644-1.065-.8a18.86,18.86,0,0,0-2.422-.319,54.592,54.592,0,0,0-6.974.24c-3.833.335-5.43.612-9.422.679-8.411.142-13.363.2-14.215.093a25.757,25.757,0,0,0-5.43.506c-.692.266-3.567.719-4.525,1.3s-2.416,1.247-2.709,1.992a3.108,3.108,0,0,0,0,2.006,2.634,2.634,0,0,0,.826,1.534,3.508,3.508,0,0,0,1.346.283l2.549.165s-2.174-6.527,3.895-6.633,4.314,7.005,4.314,7.005,17.107-.107,17.958,0,5.69,0,5.94.039.272,0,.272,0-1.9-5.08,1.18-6.656c3.016-1.547,5.813-.331,6.737,1.834A4.513,4.513,0,0,1,69.566,277.717Z" transform="translate(-22.174 -266.132)" fill="#5aff8c"/><path d="M439.085,286.77a19.772,19.772,0,0,1-2.852,2.388,8.663,8.663,0,0,1-2.342.479,4.772,4.772,0,0,1,1.977-1.778A23.492,23.492,0,0,1,439.085,286.77Z" transform="translate(-431.286 -281.727)" fill="#fff"/><path d="M433.284,332.159c.211-.616,1.756-.813,2.385-.869.016.079.036.155.058.231a2.9,2.9,0,0,0,.937,1.636,2.508,2.508,0,0,0,1.146.3h2.427c-.173-.568.054.492,0-.1l.345.1.091.639h-6.862S433.019,332.935,433.284,332.159Z" transform="translate(-433.066 -321.507)" fill="#3f3f3f"/><path d="M433.122,333.586h6.429l-.068-.409h0l-.009-.029-.293-1.743-.121-.019.006.067a9.293,9.293,0,0,0,.277,1.607l-2.674-.2a2.032,2.032,0,0,1-.986-.284,2.928,2.928,0,0,1-1.107-1.452c-.019-.069-.036-.143-.051-.213l-.009-.046h-.044c-.721.068-1.653.184-1.84.78h0a2.919,2.919,0,0,0,.476,1.916Zm6.31-.106h-6.256a2.764,2.764,0,0,1-.45-1.8h0c.175-.557,1.227-.657,1.71-.7.013.062.028.121.043.179a2.94,2.94,0,0,0,1.154,1.508,2.1,2.1,0,0,0,1.037.3l2.7.2Z" transform="translate(-432.052 -321.048)" fill="#3f3f3f"/><g transform="translate(46.898 9.714)"><path d="M19.549,331.29s1.244.927,1.35,1.617a2.891,2.891,0,0,1,0,1.085H16.236l.239-.845a2.766,2.766,0,0,0,1.59-.426C18.565,332.266,19.549,331.29,19.549,331.29Z" transform="translate(-16.166 -331.221)" fill="#3f3f3f"/><path d="M15.746,333.465h4.775l.011-.039a3.072,3.072,0,0,0,0-1.107c-.106-.7-1.321-1.613-1.372-1.651l-.037-.027-.032.032c-.011.01-.988.98-1.484,1.429a2.638,2.638,0,0,1-1.553.412h-.041Zm4.692-.106h-4.55l.212-.738a2.709,2.709,0,0,0,1.59-.441c.465-.419,1.272-1.227,1.444-1.395.2.157,1.2.958,1.294,1.555A3.1,3.1,0,0,1,20.437,333.358Z" transform="translate(-15.746 -330.64)" fill="#3f3f3f"/></g><path d="M58.18,252.59l9.576.116,1.135.886-1.65.8h-3.85s0-.191-2.618-1.032C58.781,252.717,58.18,252.59,58.18,252.59Z" transform="translate(-21.09 -251.186)" fill="#3f3f3f"/><path d="M62.4,254.042h3.926l1.728-.834-1.218-.952h-.018l-9.575-.116-.012.106s.623.134,2.587.768a9.974,9.974,0,0,1,2.581,1Zm3.89-.106H62.475a13.4,13.4,0,0,0-2.624-1.029c-1.1-.356-1.783-.554-2.169-.66l9.116.107,1.054.823Z" transform="translate(-20.15 -250.784)" fill="#666"/><path d="M39.806,242.508v2.062l-2.442.009-1.183-.887a5.714,5.714,0,0,1,1.072-1.1A19.7,19.7,0,0,1,39.806,242.508Z" transform="translate(10.177 -242.172)" fill="#3f3f3f"/><path d="M36.8,244.2l2.27-.01v-2.168h-.049a15.588,15.588,0,0,0-2.323.083,5.288,5.288,0,0,0-.988,1.121l-.03.042Zm2.17-.116-2.135.009-1.016-.843a4.888,4.888,0,0,1,.917-1.046,14.741,14.741,0,0,1,2.234-.077Z" transform="translate(10.912 -241.735)" fill="#3f3f3f"/><path d="M132.551,242.428a36.331,36.331,0,0,0-13.735-3.015,29.937,29.937,0,0,0-14.976,4.014s6.139.182,13.8,0S132.551,242.428,132.551,242.428Z" transform="translate(-89.611 -239.403)" fill="#3f3f3f"/><path d="M65.163,277.3l-.094-.228c-.019-.049-1.962-4.908.958-6.4a5.459,5.459,0,0,1,4.353-.438,3.778,3.778,0,0,1,2.236,2.062,4.551,4.551,0,0,1-.195,3.877v.492l.106-.2A2.179,2.179,0,0,0,74.26,276a6.087,6.087,0,0,0,1.865-2.426,4.11,4.11,0,0,0,.162-.919v-.045l-.223-.362c-.049-.224-.3-1.339-.4-1.575a19.436,19.436,0,0,0-1.2-2.011c-.232-.266-.491-.418-1.34-.582a19.189,19.189,0,0,0-2.442-.319,54.379,54.379,0,0,0-7,.241c-1.032.089-1.916.177-2.7.254-2.205.213-3.8.375-6.708.426-8.128.137-13.338.2-14.191.094a25.619,25.619,0,0,0-5.507.515,13.7,13.7,0,0,1-1.345.342,13.362,13.362,0,0,0-3.215.97c-.958.585-2.04,1.247-2.354,2.047a3.111,3.111,0,0,0-.112,2.046,2.862,2.862,0,0,0,.948,1.661,2.448,2.448,0,0,0,1.152.319l3.149.22-.072-.225c-.01-.031-.953-3.02.367-4.867a4.081,4.081,0,0,1,3.468-1.472,3.75,3.75,0,0,1,3.3,1.3c1.424,1.929.319,5.373.306,5.407l-.069.213h.221c.171,0,17.106-.106,17.937,0,.553.068,2.828.036,4.489.012.852-.012,1.664-.023,1.756-.013a4.03,4.03,0,0,0,.407.042Zm-.911-.374c-.286,0-.776.006-1.5.017-1.651.024-3.913.056-4.443-.01-.81-.1-15.688-.015-17.762,0,.228-.806.909-3.687-.416-5.484a4.055,4.055,0,0,0-3.565-1.434,4.391,4.391,0,0,0-3.726,1.608,5.069,5.069,0,0,0-.745,3.334,8.976,8.976,0,0,0,.27,1.587l-2.7-.188a2.156,2.156,0,0,1-.989-.268,2.681,2.681,0,0,1-.81-1.48,2.768,2.768,0,0,1,.106-1.84c.276-.7,1.311-1.334,2.224-1.892a13.85,13.85,0,0,1,3.111-.936,13.614,13.614,0,0,0,1.384-.356,25.928,25.928,0,0,1,5.353-.5c.876.107,5.884.049,14.236-.092,2.927-.049,4.609-.213,6.739-.426.78-.077,1.665-.164,2.7-.254a54.09,54.09,0,0,1,6.949-.238,18.74,18.74,0,0,1,2.4.319c.826.161.99.289,1.162.482a18.944,18.944,0,0,1,1.145,1.928c.073.165.274,1.011.39,1.54v.027l.2.327a4.562,4.562,0,0,1-.152.8,5.971,5.971,0,0,1-1.755,2.258,1.905,1.905,0,0,1-1.24.414,4.945,4.945,0,0,0,.106-4,4.1,4.1,0,0,0-2.426-2.236,5.774,5.774,0,0,0-4.607.456c-1.323.678-1.931,2.079-1.758,4.051a10.633,10.633,0,0,0,.562,2.515.893.893,0,0,1-.129-.017A2.471,2.471,0,0,0,64.251,276.928Z" transform="translate(-25.212 -264.715)" fill="#3f3f3f"/><path d="M182,241.2c.207.02,3.366.6,4.038,1.616a8.138,8.138,0,0,1,.932,1.826s-10.3.544-14.858.512-6.918-.08-6.918-.08a32.16,32.16,0,0,1,9.136-3.53A29.019,29.019,0,0,1,182,241.2Z" transform="translate(-151.417 -240.909)" fill="#fff"/><path d="M436,332.207h7.02l-.071-.4h.024l-.055-.171-.319-1.81-.339-.05.018.2a8.932,8.932,0,0,0,.258,1.48l-2.7-.188a2.157,2.157,0,0,1-.989-.268,2.681,2.681,0,0,1-.81-1.48c-.019-.067-.037-.137-.052-.213l-.029-.138-.142.013c-.792.071-2.154.287-2.373.941h0c-.271.81.486,1.959.519,2.008Zm6.637-.319h-6.464a2.463,2.463,0,0,1-.437-1.658h0c.107-.328.852-.6,1.961-.712l.026.094a2.863,2.863,0,0,0,.948,1.661,2.448,2.448,0,0,0,1.152.319l2.8.2Z" transform="translate(-435.38 -319.612)" fill="#3f3f3f"/><path d="M114.964,243.868c2.046,0,4.427-.02,6.967-.08,7.586-.18,14.847-.992,14.921-1l.541-.061-.489-.241a36.889,36.889,0,0,0-13.8-3.032,30.308,30.308,0,0,0-15.064,4.038l-.449.28.532.015C108.16,243.785,110.9,243.868,114.964,243.868Zm21.265-1.339c-1.876.195-7.979.786-14.305.936-6.249.147-11.534.052-13.228.014a29.872,29.872,0,0,1,14.4-3.709A37.642,37.642,0,0,1,136.229,242.528Z" transform="translate(-94.853 -239.439)" fill="#3f3f3f"/><path d="M63.386,253.03h4.046l1.916-.925-1.384-1.077-9.629-.117-.035.319c.005,0,.623.136,2.577.766a13.258,13.258,0,0,1,2.509.95Zm3.969-.319H63.6a11.379,11.379,0,0,0-2.632-1.024c-.585-.188-1.05-.332-1.416-.442l8.294.1.891.7Z" transform="translate(-21.56 -249.685)" fill="#3f3f3f"/><path d="M60.653,276.57s-1.783-1.062-5.456-.849-8.571,1.7-18.1,2.875c-8.539,1.05-8.677,3.726-8.677,3.726H48.586s-1.48-3.141.383-4.365a10.584,10.584,0,0,1,8.944-1.544c2.768.639,3.05.448,3.05.448Z" transform="translate(-11.282 -271.831)" fill="#5aff8c"/><path d="M38.988,243.223l2.555-.01v-2.379h-.157a15.475,15.475,0,0,0-2.512.092,5.13,5.13,0,0,0-1.091,1.154l-.094.126Zm2.236-.327-2.129.007-.968-.756a4.514,4.514,0,0,1,.867-.928,14.478,14.478,0,0,1,2.228-.07Z" transform="translate(8.44 -240.675)" fill="#3f3f3f"/><path d="M29.33,281.7H49.914l-.106-.228c-.015-.03-1.4-3.03.327-4.164a10.425,10.425,0,0,1,8.82-1.522,12.315,12.315,0,0,1,4.278,1.8l.229.409-.779-2.237-.053-.023a15.124,15.124,0,0,0-6.363-.958,52.348,52.348,0,0,0-6.282.969c-3,.571-6.734,1.278-11.825,1.907-8.574,1.054-8.812,3.762-8.817,3.877Zm20.091-.319H29.7c.224-.586,1.491-2.548,8.491-3.407,5.1-.627,8.837-1.338,11.845-1.91,1.185-.226,2.254-.426,3.229-.592a11.718,11.718,0,0,0-3.31,1.572,2.632,2.632,0,0,0-.958,2.8A6.984,6.984,0,0,0,49.421,281.382Zm13.026-5.372.486,1a14.4,14.4,0,0,0-6.8-1.9l.154-.01A14.965,14.965,0,0,1,62.447,276.01Z" transform="translate(-12.892 -270.991)" fill="#3f3f3f"/><path d="M178.188,244.207c4.818,0,14.78-.51,14.884-.515l.213-.011-.065-.2a8.12,8.12,0,0,0-.98-1.866c-.756-1.1-4.13-1.668-4.269-1.686h0a31.408,31.408,0,0,0-7.932.346,34.088,34.088,0,0,0-9.447,3.548l-.5.286.577.013c.024,0,2.484.049,7.117.08Zm14.648-.825c-1.541.077-10.792.532-15.052.5-3.312-.022-5.513-.053-6.505-.069a32.418,32.418,0,0,1,8.81-3.223,30.9,30.9,0,0,1,7.842-.345h0c.258.023,3.4.614,4.037,1.548A8.585,8.585,0,0,1,192.836,243.382Z" transform="translate(-157.399 -239.778)" fill="#3f3f3f"/><path d="M428.84,288.071l.3-.02a8.509,8.509,0,0,0,2.4-.494,19.307,19.307,0,0,0,2.9-2.419l.426-.417-.576.148a23.773,23.773,0,0,0-3.244,1.1,4.88,4.88,0,0,0-2.053,1.844Zm4.911-2.725a14.231,14.231,0,0,1-2.351,1.916,7.482,7.482,0,0,1-1.956.433,4.619,4.619,0,0,1,1.725-1.443A20.411,20.411,0,0,1,433.751,285.346Z" transform="translate(-426.521 -279.895)" fill="#3f3f3f"/><path d="M166.714,279.948h.03l2.651-.213a.374.374,0,0,0-.059-.745l-2.647.213a.374.374,0,0,0,.029.745Zm2.651-.639a.058.058,0,0,1,.055.05.052.052,0,0,1-.014.039.051.051,0,0,1-.036.019l-2.651.213a.053.053,0,0,1-.046-.089.056.056,0,0,1,.037-.019l2.65-.213Z" transform="translate(-133.455 -274.774)" fill="#333"/><path d="M18.743,331.912h5.018l.032-.118a2.965,2.965,0,0,0,0-1.151c-.114-.736-1.287-1.621-1.42-1.721l-.106-.082-.1.1c-.011.01-.991.977-1.491,1.426a2.556,2.556,0,0,1-1.491.384h-.124Zm4.762-.319h-4.34l.149-.526A2.689,2.689,0,0,0,20.9,330.6c.407-.367,1.133-1.079,1.4-1.337.384.3,1.115.965,1.186,1.43A3.186,3.186,0,0,1,23.506,331.592Z" transform="translate(28.155 -319.318)" fill="#3f3f3f"/><path d="M157.152,343.656,156.641,342H132.514l-.374,1.614Zm-.745-1.336.313,1.016-24.177-.039.226-.976Z" transform="translate(-117.225 -331.076)" fill="#333"/><g transform="translate(7.608 5.996)"><path d="M1.884,0A1.884,1.884,0,1,1,0,1.884,1.884,1.884,0,0,1,1.884,0Z" transform="translate(1.741 1.74)" fill="#3f3f3f"/><path d="M364.29,291.43a3.51,3.51,0,1,1-3.51,3.51A3.51,3.51,0,0,1,364.29,291.43Zm0,6.446a2.936,2.936,0,1,0-2.936-2.936A2.936,2.936,0,0,0,364.29,297.876Z" transform="translate(-360.563 -291.411)" fill="#3f3f3f"/><path d="M381.307,312.285a2.027,2.027,0,1,0-2.027-2.027A2.027,2.027,0,0,0,381.307,312.285Zm0-3.767a1.74,1.74,0,1,1-1.741,1.74A1.74,1.74,0,0,1,381.307,308.518Z" transform="translate(-377.654 -306.604)" fill="#3f3f3f"/><path d="M365.933,298.536a3.653,3.653,0,1,0-3.653-3.653A3.653,3.653,0,0,0,365.933,298.536Zm0-7.018a3.584,3.584,0,0,1,2.141.769,3.2,3.2,0,0,1,1.225,2.6,3.366,3.366,0,1,1-3.366-3.367Zm-.548,6.732a3.847,3.847,0,0,0,3.627-3.367,3.273,3.273,0,0,0-1.113-2.494,3.2,3.2,0,0,0-5.046,2.494C362.855,296.583,363.685,298.249,365.385,298.25Zm.548-6.159a2.792,2.792,0,1,1-2.792,2.792A2.792,2.792,0,0,1,365.933,292.092Z" transform="translate(-362.28 -291.23)" fill="#3f3f3f"/></g><g transform="translate(39.522 5.457)"><path d="M2.023,0A2.023,2.023,0,1,1,0,2.023,2.023,2.023,0,0,1,2.023,0Z" transform="translate(1.869 1.868)" fill="#3f3f3f"/><path d="M364.549,291.43a3.769,3.769,0,1,1-3.769,3.769A3.769,3.769,0,0,1,364.549,291.43Zm0,6.921A3.153,3.153,0,1,0,361.4,295.2,3.153,3.153,0,0,0,364.549,298.351Z" transform="translate(-360.547 -291.41)" fill="#3f3f3f"/><path d="M381.457,312.584a2.177,2.177,0,1,0-2.177-2.177A2.177,2.177,0,0,0,381.457,312.584Zm0-4.045a1.869,1.869,0,1,1-1.869,1.868A1.869,1.869,0,0,1,381.457,308.539Z" transform="translate(-377.534 -306.484)" fill="#3f3f3f"/><path d="M366.2,299.076a3.923,3.923,0,1,0-3.923-3.923A3.923,3.923,0,0,0,366.2,299.076Zm0-7.537a3.849,3.849,0,0,1,2.3.825,3.441,3.441,0,0,1,1.316,2.79,3.615,3.615,0,1,1-3.615-3.615Zm-.589,7.23c1.826,0,3.9-1.79,3.9-3.616a3.515,3.515,0,0,0-1.195-2.678,3.436,3.436,0,0,0-5.418,2.678C362.9,296.978,363.789,298.767,365.614,298.769Zm.589-6.613a3,3,0,1,1-3,3A3,3,0,0,1,366.2,292.155Z" transform="translate(-362.28 -291.23)" fill="#3f3f3f"/></g></g></g></svg>