<svg xmlns="http://www.w3.org/2000/svg" xmlns:xlink="http://www.w3.org/1999/xlink" width="52" height="31" viewBox="0 0 52 31"><defs><clipPath id="b"><rect width="52" height="31"/></clipPath></defs><g id="a" clip-path="url(#b)"><g transform="translate(0 7.474)"><path d="M70.43,295.708a3.749,3.749,0,1,1-3.788,3.711A3.749,3.749,0,0,1,70.43,295.708Zm-.036,5.928a2.179,2.179,0,1,0-2.157-2.2A2.179,2.179,0,0,0,70.394,301.637Z" transform="translate(-28.626 -286.465)" fill="#3f3f3f"/><path d="M361.4,295.708a3.749,3.749,0,1,1-3.788,3.711A3.749,3.749,0,0,1,361.4,295.708Zm-.036,5.928a2.179,2.179,0,1,0-2.157-2.2A2.179,2.179,0,0,0,361.364,301.637Z" transform="translate(-350.659 -286.465)" fill="#3f3f3f"/><path d="M92.428,226.306a2.008,2.008,0,0,0,.61-.385,3.437,3.437,0,0,0-.137-.606,9.09,9.09,0,0,0-1.3-1.295,7.86,7.86,0,0,0-2.2-.271c-.6-.042-9.715-.349-12.309-.376a21.65,21.65,0,0,0-5.881.83c-1.178.309-6.8,4.093-6.8,4.093S92.071,226.445,92.428,226.306Z" transform="translate(-47.498 -221.957)" fill="#3f3f3f"/><path d="M8.6,224.664c.32-.139.265-1.115.265-1.115-.146-.1-.229-.42-.389-.5-.107-.029-.038-1.683.248-1.858a1.94,1.94,0,0,0,.672-.973c.038-.249.67-.848.779-1.062s1.7-1.323,6.83-1.982,6.405-.973,6.405-.973,6.51-3.188,7.508-3.534a11.11,11.11,0,0,1,2.583-.513c.819-.1.013-.272.655-.372s17.429.092,18.211.206a1.64,1.64,0,0,1,1.132.724,7.427,7.427,0,0,1,1.734.2c.034.142-.532.561-.532.561s3.278,2.77,3.7,3.059.772.7.735.953a4.59,4.59,0,0,0,.3,1.293,3.159,3.159,0,0,0,.792.687c.142.049-.132.117-.207.4s-.075,1.763-.15,2.082a5.949,5.949,0,0,1-.191,1.1c-.108.106-.281.548-.395.653s-1.044.467-1.116.681a.917.917,0,0,1-.817.517c-.356-.039-1.27-.27-1.593-.1a10.82,10.82,0,0,1-1.266.463s.408-4.846-3.921-4.891C44.481,220.037,45.5,226,45.5,226l-21.683.09s.363-5.645-4.2-5.736c-5.992-.413-5.762,5.736-5.762,5.736a7.009,7.009,0,0,1-2.734.227c-.709-.291-2.576-.8-2.645-.943S8.282,224.8,8.6,224.664Zm44.526-8.792c.225-.091.195-.176.373-.34-.027-.206.064-.252,0-.449a8.772,8.772,0,0,0-1.258-1.456c-.318-.217-1.1-.1-1.7-.146s-9.715-.349-12.309-.376a21.65,21.65,0,0,0-5.881.829c-1.178.309-6.8,4.093-6.8,4.093S52.77,216.01,53.128,215.872Z" transform="translate(-8.112 -211.479)" fill="#5aff8c"/><rect width="2.135" height="0.772" rx="0.386" transform="translate(38.518 6.46)" fill="#3f3f3f"/><rect width="2.135" height="0.772" rx="0.386" transform="translate(26.336 7.557)" fill="#3f3f3f"/><path d="M429.111,274.606l4.363-.386a4.09,4.09,0,0,1-1.637,1.483c-1.121.558-3.987.32-3.987.32l.507-.849Z" transform="translate(-426.522 -267.484)" fill="#3f3f3f"/><path d="M9.95,261.888s-2.555-.651-2.661,0,.847,2.363,1.331,2.334a11.48,11.48,0,0,1,2.181.534v-.715l-.373-.235Z" transform="translate(41.051 -255.997)" fill="#3f3f3f"/><path d="M100.242,228.566,99.23,225.68l.8.046,1.215,2.84Z" transform="translate(-59.104 -223.913)" fill="#5aff8c"/><path d="M202.53,222.68l.652,4.179,1.991-.217-1.322-3.947Z" transform="translate(-173.952 -221.233)" fill="#5aff8c"/><path d="M278.649,218.941c.107-.107.854-.089.8.376s-7.153,3.667-7.153,3.667l-1.142-.472Z" transform="translate(-255.665 -217.845)" fill="#3f3f3f"/><path d="M72.876,302.209a3.91,3.91,0,0,0,.039-7.819h-.041a3.91,3.91,0,1,0-.039,7.821Zm0-7.5h.037a3.589,3.589,0,0,1-.036,7.178H72.84a3.59,3.59,0,1,1,.036-7.18Zm.025,5.929a2.339,2.339,0,1,0,.023-4.678H72.9a2.339,2.339,0,1,0-.023,4.678Zm0-4.357h.021a2.019,2.019,0,1,1-.042,4.037h0a2.019,2.019,0,0,1,.02-4.037Z" transform="translate(-31.109 -285.287)" fill="#3f3f3f"/><path d="M363.846,302.209a3.91,3.91,0,0,0,.039-7.819h-.041a3.91,3.91,0,1,0-.039,7.821Zm0-7.5h.037a3.508,3.508,0,1,1-.037,0Zm.025,5.929a2.339,2.339,0,1,0,.023-4.678h-.025a2.339,2.339,0,1,0-.023,4.678Zm0-4.357h.021a2.019,2.019,0,1,1-.042,4.037h0a2.019,2.019,0,0,1,.02-4.037Z" transform="translate(-353.143 -285.287)" fill="#3f3f3f"/><path d="M12.946,224.1c.961,0,2.009-.1,2.079-.107l.148-.014v-.148a7.239,7.239,0,0,1,1.653-4.633,4.316,4.316,0,0,1,3.265-1.2,4.308,4.308,0,0,1,3.26,1.323,6.605,6.605,0,0,1,1.326,4.39l-.013.173h.174l21.952-.132-.012-.171c0-.028-.176-2.792,1.326-4.4a3.865,3.865,0,0,1,2.95-1.151,4.135,4.135,0,0,1,3.149,1.2,5.562,5.562,0,0,1,1.23,3.693l-.015.264.24-.107c.019-.009.474-.214.8-.389a4.229,4.229,0,0,1,1.495-.006l.048.006c.379.041.983-.017,1.1-.347a4.858,4.858,0,0,1,.854-.524,2.443,2.443,0,0,0,.427-.254,2.358,2.358,0,0,0,.238-.327,2.5,2.5,0,0,1,.2-.279c.1-.1.147-.327.233-.827.026-.148.049-.288.072-.386a10.439,10.439,0,0,0,.086-1.174,10.922,10.922,0,0,1,.079-1.1c.034-.133.053-.462-.506-.664a1.815,1.815,0,0,1-.12-.38,1.52,1.52,0,0,0-.083-.272,4.053,4.053,0,0,1-.187-1.081c.06-.394-.927-1.1-1.231-1.308-.357-.243-2.575-2.091-3.185-2.6.634-.49.6-.641.581-.712-.03-.126-.061-.256-2.484-.393a1.8,1.8,0,0,0-1.2-.726c-.806-.118-16.788-.282-17.449-.179a1.132,1.132,0,0,0-.584.236,1.072,1.072,0,0,1-.625.214l-.174.021a12.192,12.192,0,0,0-2.641.527c-.978.338-6.67,3.335-7.153,3.589-.228.033-1.95.282-6.669.887-4.876.627-6.458,1.767-6.656,2.154a2.576,2.576,0,0,1-.175.262,1.65,1.65,0,0,0-.347.641,2.468,2.468,0,0,1-.721,1.017c-.368.225-.379,1.648-.343,1.9.009.059.029.2.153.231a2.6,2.6,0,0,1,.332.188,2.309,2.309,0,0,1-.335,1.155.4.4,0,0,0-.243.241.537.537,0,0,0,.115.439c.016.026.031.05.042.072.067.138.354.293,1.922.935l.214.089A5.021,5.021,0,0,0,12.946,224.1Zm1.9-.41a11.78,11.78,0,0,1-3.2-.037l-.214-.089a15.085,15.085,0,0,1-1.764-.8c-.014-.027-.031-.056-.05-.085s-.09-.144-.081-.173a.14.14,0,0,1,.065-.043c.368-.159.5-1.112.534-1.515l.009-.1-.08-.053a4.113,4.113,0,0,0-.427-.252,3.648,3.648,0,0,1,.2-1.581,2.71,2.71,0,0,0,.867-1.242,1.69,1.69,0,0,1,.29-.5,2.77,2.77,0,0,0,.2-.3c.142-.264,1.645-1.371,6.412-1.983,5.074-.652,6.687-.89,6.7-.892h.028l.023-.013c.062-.032,6.156-3.244,7.133-3.582a11.626,11.626,0,0,1,2.574-.512l.174-.021a1.366,1.366,0,0,0,.777-.274.83.83,0,0,1,.443-.176c.658-.107,16.548.061,17.353.179a1.478,1.478,0,0,1,1.016.641l.043.075h.088c.869.048,1.828.128,2.192.2a5.017,5.017,0,0,1-.543.456l-.168.127.157.13c.12.1,2.94,2.455,3.365,2.749a3.475,3.475,0,0,1,1.094,1,3.953,3.953,0,0,0,.214,1.264,1.8,1.8,0,0,1,.061.219c.082.335.143.542.307.6.107.037.358.142.32.287a9.265,9.265,0,0,0-.088,1.166c-.021.455-.045.969-.079,1.115-.025.107-.049.252-.076.406a3.467,3.467,0,0,1-.148.66,2.434,2.434,0,0,0-.231.32,2.612,2.612,0,0,1-.2.274c-.032.026-.214.123-.358.2-.662.354-.948.534-1.007.7a1.029,1.029,0,0,1-.759.132l-.048-.005a3.669,3.669,0,0,0-1.684.043c-.171.093-.385.2-.546.272a5.634,5.634,0,0,0-1.32-3.668,4.452,4.452,0,0,0-3.383-1.3h-.018a4.143,4.143,0,0,0-3.168,1.253,6.716,6.716,0,0,0-1.419,4.468L25,223.563a6.676,6.676,0,0,0-1.416-4.455,4.617,4.617,0,0,0-3.493-1.428,4.625,4.625,0,0,0-3.5,1.3A7.29,7.29,0,0,0,14.851,223.69Zm10.587-7.976.594-.04c4.625-.31,27.709-1.864,28.075-2h0a2.183,2.183,0,0,0,.664-.421l.058-.057-.012-.08a3.211,3.211,0,0,0-.151-.654,8.778,8.778,0,0,0-1.357-1.357,4.876,4.876,0,0,0-1.861-.275c-.159-.009-.3-.015-.427-.023-.68-.047-9.783-.35-12.319-.376a21.875,21.875,0,0,0-5.923.834c-1.189.312-6.619,3.961-6.852,4.117ZM54,213.373c-.6.126-17.821,1.3-27.389,1.942,1.4-.929,5.321-3.494,6.255-3.737a21.381,21.381,0,0,1,5.839-.824c2.707.028,11.752.337,12.3.375.12.009.267.016.427.023a5.9,5.9,0,0,1,1.7.221,9.8,9.8,0,0,1,1.25,1.235,2.587,2.587,0,0,1,.107.472A1.859,1.859,0,0,1,54,213.373Z" transform="translate(-9.225 -209.127)" fill="#3f3f3f"/><path d="M23.354,263.231l.32-.019c0-.051-.258-5.065,4.023-7.174a8.313,8.313,0,0,1,7.744-.009l.044.028h.052l29.952-2.15.8-.468,4.215.947.069-.313-4.331-.974-.848.493-29.835,2.135a8.687,8.687,0,0,0-8.007.019C23.08,257.952,23.351,263.175,23.354,263.231Z" transform="translate(-20.013 -248.406)" fill="#3f3f3f"/><path d="M213.778,269.562c.044-.172,1.068-4.227,1.231-5.27a14.071,14.071,0,0,0-.6-3.8l-.307.086a14.278,14.278,0,0,1,.588,3.668c-.157,1.027-1.214,5.2-1.225,5.239Z" transform="translate(-184.766 -255.007)" fill="#3f3f3f"/><path d="M338.983,272.422l.715-3.3,1.244-1.061-.208-.243-1.325,1.132-.739,3.4Z" transform="translate(-324.042 -261.554)" fill="#3f3f3f"/><path d="M100.946,256.435l1.022-3.26-.4-.975-.3.122.354.867-.988,3.15Z" transform="translate(-59.656 -247.602)" fill="#3f3f3f"/><path d="M115.467,268.548h1.363a.547.547,0,0,0,0-1.092h-1.363a.547.547,0,1,0,0,1.092Zm1.363-.772a.226.226,0,0,1,0,.452h-1.363a.226.226,0,1,1,0-.452Z" transform="translate(-76.563 -261.228)" fill="#3f3f3f"/><path d="M229.528,278.862h1.364a.547.547,0,0,0,0-1.092h-1.364a.547.547,0,0,0,0,1.092Zm1.364-.772a.226.226,0,0,1,0,.452h-1.364a.226.226,0,0,1,0-.452Z" transform="translate(-202.807 -270.442)" fill="#3f3f3f"/><path d="M430.757,273.031a7.039,7.039,0,0,0,2.7-.39,4.221,4.221,0,0,0,1.708-1.547l.147-.265-4.71.416-.816.616-.654,1.1.255.021C429.435,272.983,430.021,273.031,430.757,273.031Zm3.939-1.826a4.066,4.066,0,0,1-1.388,1.149,9.648,9.648,0,0,1-3.646.32l.357-.6.693-.523Z" transform="translate(-428.067 -264.243)" fill="#3f3f3f"/><path d="M13.619,263.935v-1.024l-.393-.249-.485-1.944-.093-.023c-.214-.054-2.1-.521-2.669-.151a.41.41,0,0,0-.19.28A3.564,3.564,0,0,0,10.708,263c.214.24.408.354.58.341a11.063,11.063,0,0,1,2.122.522Zm-.32-.848v.407a9.24,9.24,0,0,0-2.028-.47c-.012,0-.112,0-.32-.236a3.372,3.372,0,0,1-.84-1.913.093.093,0,0,1,.05-.063,4.892,4.892,0,0,1,2.321.17l.471,1.883Z" transform="translate(38.393 -254.928)" fill="#3f3f3f"/><path d="M51.046,286.627l.32-.017a9.617,9.617,0,0,1,.159-1.974,6.461,6.461,0,0,1,1.62-3.4,4.869,4.869,0,0,1,3.9-1.273,6.1,6.1,0,0,1,4.428,1.867,5.415,5.415,0,0,1,1.22,3.61l.32.026a5.639,5.639,0,0,0-1.3-3.843,6.4,6.4,0,0,0-4.65-1.977,5.164,5.164,0,0,0-4.141,1.365C50.882,283.023,51.037,286.481,51.046,286.627Z" transform="translate(-15.409 -272.102)" fill="#3f3f3f"/><rect width="0.32" height="22.023" transform="translate(15.523 13.175) rotate(-91.24)" fill="#231f20"/><path d="M101.182,227.33l1.352-.154-1.344-3-1.14-.066Zm.875-.32h-.648l-.895-2.552.462.027Z" transform="translate(-60.158 -222.51)" fill="#3f3f3f"/><path d="M204.2,225.619l2.359-.137-1.421-4.243-1.625-.019Zm1.929-.415-1.642.178-.6-3.843,1.018.012Z" transform="translate(-175.226 -219.929)" fill="#3f3f3f"/><path d="M93.271,210.647l-1.654-1.057-17.48-.18-1.688.7Zm-1.749-.747.609.389-18.188-.458.258-.107Z" transform="translate(-47.95 -209.38)" fill="#3f3f3f"/><path d="M276.193,221.744l.063-.028c.018-.009,1.8-.811,3.56-1.661,3.643-1.756,3.668-1.984,3.685-2.135a.493.493,0,0,0-.3-.517.884.884,0,0,0-.747-.015l-7.805,3.719Zm6.993-3.88a52.625,52.625,0,0,1-7,3.53l-.747-.307,7.192-3.427.011-.011a.65.65,0,0,1,.462.067A.159.159,0,0,1,283.186,217.864ZM282.64,217.651Z" transform="translate(-259.771 -216.439)" fill="#3f3f3f"/></g></g></svg>