<svg xmlns="http://www.w3.org/2000/svg" xmlns:xlink="http://www.w3.org/1999/xlink" width="52" height="31" viewBox="0 0 52 31"><defs><clipPath id="b"><rect width="52" height="31"/></clipPath></defs><g id="a" clip-path="url(#b)"><g transform="translate(-3816 -648)"><path d="M3825.722,657.269l-1.9,1.424-1.9,5.411,2.563,3.133,5.6-1.8.57-1.8,2.088-.949,1.519-3.987-1.139-3.227Z" transform="translate(0.757 1.994)" fill="#fff"/><path d="M3821.274,664.341l-1.355,1.151-.153,1.892,1.866,1.023s1.15-1.2,1.15-1.278v-2.352Z" transform="translate(0.198 4.29)" fill="#fff"/><g transform="translate(3819 647.755)"><g transform="translate(0 9.119)"><path d="M265.338,574.764a1.665,1.665,0,1,0,1.413.785A1.663,1.663,0,0,0,265.338,574.764Z" transform="translate(-256.345 -558.79)" fill="#3f3f3f"/><path d="M694.935,574.764a1.665,1.665,0,1,0,1.413.785A1.663,1.663,0,0,0,694.935,574.764Z" transform="translate(-657.726 -558.79)" fill="#3f3f3f"/><path d="M163.908,337.986l-2.556,1.387,1.168,2.994,5.623,1.9,9.128,1.241,7.74-1.606,7.521.365.949-2.994-.365-2.264H166.464Z" transform="translate(-149.692 -329.901)" fill="#5aff8c"/><path d="M197.052,347.136a1.44,1.44,0,0,0,.028-.285v-1.686c0-.812-.611-.477-1.422-.477H171.211s-.884-3.033-.048-3.212,23.2-.623,23.473,0,2.444.313,2.444-.26v-.235a1.039,1.039,0,0,0-1.039-1.039H171.164v-6.3a2.083,2.083,0,0,0-2.371-2.062l-10.237,1.438a1.574,1.574,0,0,0-1.255,1.009l-3.321,8.938-.919.793a1.44,1.44,0,0,0-.5,1.09v2.029a1.447,1.447,0,0,0,.044.355,1.076,1.076,0,0,0-.207.161,1.056,1.056,0,0,0,.747,1.8h3.449a4.488,4.488,0,0,0,8.976,0h19.24a4.488,4.488,0,1,0,8.976,0h2.948a1.056,1.056,0,0,0,.318-2.064Zm-41.678-1.1a.578.578,0,0,1-.579.579h-.635a.579.579,0,0,1-.579-.579v-.986a.58.58,0,0,1,.13-.366l.636-.78a.578.578,0,0,1,1.027.366Zm5.708,6.048a2.889,2.889,0,1,1,2.888-2.888A2.891,2.891,0,0,1,161.081,352.088Zm5.089-9.657a.56.56,0,1,1-1.12,0v-1.5a.56.56,0,0,1,1.12,0Zm-.467-4.95a2.023,2.023,0,0,1-.826,1.329l-.86.61a2.02,2.02,0,0,0-.707.9,2.042,2.042,0,0,1-1.739,1.3l-3.2.237a2.024,2.024,0,0,1-1.327-.374,1.019,1.019,0,0,1-.36-1.182l1.636-4.4a2.3,2.3,0,0,1,1.84-1.48l6.176-.868ZM189.3,352.088a2.888,2.888,0,1,1,2.888-2.888A2.892,2.892,0,0,1,189.3,352.088Z" transform="translate(-152.088 -331.562)" fill="#3f3f3f"/></g><path d="M3783.27,614.915l8.386-8.13s.409-1.125,1.33-1.023a14.25,14.25,0,0,1,3.145.741c.2.179.46.665,0,.869a4.964,4.964,0,0,1-.562.23v4.04h1.022v3.733H3794.6v-7.568l-1.841.562-8.155,8.82Z" transform="translate(-3754.203 -605.755)" fill="#3f3f3f"/><path d="M3784.791,613.375v.472a1.27,1.27,0,0,1,.9,1.239,1.248,1.248,0,0,1-1.258,1.3c-1.042.039-1.259-.61-1.318-.885a.74.74,0,0,1,0-.413h.629a.562.562,0,0,0,.59.551.623.623,0,0,0,.688-.551c-.02-.216.02-.492-.413-.629h-.511v-1.082Z" transform="translate(-3743.086 -603.784)" fill="#3f3f3f"/><path d="M3790.949,637.868l-1.917,7.029h-6.348v-3.146h3.146l3.7-5.752Z" transform="translate(-3760.426 -626.881)" fill="#3f3f3f"/><path d="M3785.154,640.555l6.647.256.562,2.864-6.8.741Z" transform="translate(-3759.787 -625.703)" fill="#3f3f3f"/><path d="M3798.853,643.916v4.268h1.83l-.337-4.268Z" transform="translate(-3756.243 -625.9)" fill="#3f3f3f"/></g></g></g></svg>