<svg xmlns="http://www.w3.org/2000/svg" xmlns:xlink="http://www.w3.org/1999/xlink" width="52" height="31" viewBox="0 0 52 31"><defs><filter id="a" x="-2.9" y="18.911" width="56.429" height="10.263" filterUnits="userSpaceOnUse"><feOffset dy="1" input="SourceAlpha"/><feGaussianBlur stdDeviation="1" result="b"/><feFlood flood-opacity="0.251"/><feComposite operator="in" in2="b"/><feComposite in="SourceGraphic"/></filter><filter id="c" x="13.667" y="3.099" width="41.118" height="21.146" filterUnits="userSpaceOnUse"><feOffset dy="1" input="SourceAlpha"/><feGaussianBlur stdDeviation="1" result="d"/><feFlood flood-opacity="0.251"/><feComposite operator="in" in2="d"/><feComposite in="SourceGraphic"/></filter><clipPath id="f"><rect width="52" height="31"/></clipPath></defs><g id="e" clip-path="url(#f)"><g transform="translate(0 3)"><g transform="translate(0)"><path d="M385.382,189.765a1.145,1.145,0,0,1,.239.756v8.9s-.011.676-.6.718-12.879,0-12.879,0v-3.936s.047-.433.708-.667l4.025-1.436,2.061-3.707a2.312,2.312,0,0,1,.637-.7,2.352,2.352,0,0,1,1.02-.169h3.917A1.322,1.322,0,0,1,385.382,189.765Z" transform="translate(-371.818 -182.83)" fill="#3f3f3f"/><path d="M437.484,246.487h2.55a.5.5,0,0,0,.376-.239l.616-1.059c.076-.131.03-.239-.1-.239h-2.549a.5.5,0,0,0-.377.239l-.616,1.059C437.3,246.379,437.352,246.487,437.484,246.487Z" transform="translate(-433.435 -232.565)" fill="#e4e5e6"/><rect width="1.113" height="14.595" transform="translate(14.42 2.822)" fill="#3f3f3f"/><path d="M349.9,125.44v1.166a1.614,1.614,0,0,0-.864,1.429H347.94A2.7,2.7,0,0,1,349.9,125.44Z" transform="translate(-333.507 -125.316)" fill="#3f3f3f"/><rect width="0.755" height="1.392" rx="0.378" transform="translate(50.804 18.348)" fill="#3f3f3f"/><g transform="matrix(1, 0, 0, 1, 0, -3)" filter="url(#a)"><path d="M16.644,298.82H66.111a.478.478,0,0,1,.478.477V302.6a.478.478,0,0,1-.291.44,3.414,3.414,0,1,0-6.828.038H43.2a3.413,3.413,0,0,0-6.816-.255,3.413,3.413,0,0,0-6.814.254h-.348a.7.7,0,0,0,.023-.168v-1.9a.718.718,0,0,0-.718-.718h-4.17a.718.718,0,0,0-.718.718v1.9a.7.7,0,0,0,.022.168h-.308a3.414,3.414,0,1,0-6.828-.014.477.477,0,0,1-.364-.463V299.3a.477.477,0,0,1,.484-.477Z" transform="translate(-16.06 -277.91)" fill="#3f3f3f"/></g><g transform="matrix(1, 0, 0, 1, 0, -3)" filter="url(#c)"><rect width="35.118" height="15.146" transform="translate(16.67 5.1)" fill="#5aff8c"/></g><circle cx="2.704" cy="2.704" r="2.704" transform="translate(44.019 19.469)" fill="#3f3f3f"/><circle cx="2.704" cy="2.704" r="2.704" transform="translate(21.098 19.469)" fill="#414042"/><circle cx="2.704" cy="2.704" r="2.704" transform="translate(14.274 19.469)" fill="#414042"/><circle cx="2.704" cy="2.704" r="2.704" transform="translate(1.213 19.469)" fill="#3f3f3f"/><circle cx="1.616" cy="1.616" r="1.616" transform="translate(45.173 20.518)" fill="#e4e5e6"/><circle cx="1.616" cy="1.616" r="1.616" transform="translate(22.174 20.518)" fill="#e4e5e6"/><circle cx="1.616" cy="1.616" r="1.616" transform="translate(15.269 20.518)" fill="#e4e5e6"/><circle cx="1.616" cy="1.616" r="1.616" transform="translate(2.228 20.621)" fill="#e4e5e6"/><path d="M392.581,222.267l.217,5.425a12.858,12.858,0,0,1-1.411,1.156h-2.312s-6.444-1.717-6.546-1.785a26.947,26.947,0,0,0-2.652,1.071h-.238v-2.976l.561-.442,1.785-.255,2.721-.646,2.942.119,4.149-.442.187-1.513Z" transform="translate(-379.25 -211.95)" fill="#3f3f3f"/><circle cx="0.756" cy="0.756" r="0.756" transform="translate(3.088 21.371)" fill="#3f3f3f"/><circle cx="0.756" cy="0.756" r="0.756" transform="translate(16.231 21.371)" fill="#3f3f3f"/><circle cx="0.756" cy="0.756" r="0.756" transform="translate(23.034 21.371)" fill="#3f3f3f"/><circle cx="0.756" cy="0.756" r="0.756" transform="translate(46.135 21.371)" fill="#3f3f3f"/><path d="M5.288,158.7H39.854a.467.467,0,0,0,.467-.467V143.707a.467.467,0,0,0-.467-.467H5.288a.468.468,0,0,0-.468.467V158.23A.468.468,0,0,0,5.288,158.7Zm34.566-15.271a.281.281,0,0,1,.28.28V158.23a.28.28,0,0,1-.28.28H5.288a.28.28,0,0,1-.28-.28V143.707a.28.28,0,0,1,.28-.28Z" transform="translate(11.68 -141.29)" fill="#3f3f3f"/><path d="M30.878,318.685a2.8,2.8,0,1,0-2.8-2.8A2.8,2.8,0,0,0,30.878,318.685Zm0-5.407a2.611,2.611,0,1,1-2.611,2.61A2.611,2.611,0,0,1,30.878,313.278Z" transform="translate(15.938 -293.715)" fill="#3f3f3f"/><path d="M449.528,318.685a2.8,2.8,0,1,0-2.8-2.8A2.8,2.8,0,0,0,449.528,318.685Zm0-5.407a2.611,2.611,0,1,1-2.611,2.61A2.611,2.611,0,0,1,449.528,313.278Z" transform="translate(-445.661 -293.715)" fill="#3f3f3f"/><path d="M5.191,0H.41A.41.41,0,0,0,0,.41V2.919a.41.41,0,0,0,.41.41H5.294A.308.308,0,0,0,5.6,3.021V.41A.41.41,0,0,0,5.191,0Z" transform="translate(7.577 19.47)" fill="#5aff8c"/><path d="M322.368,318.685a2.8,2.8,0,1,0-2.8-2.8A2.8,2.8,0,0,0,322.368,318.685Zm0-5.407a2.611,2.611,0,1,1-2.611,2.61A2.611,2.611,0,0,1,322.368,313.278Z" transform="translate(-305.456 -293.715)" fill="#3f3f3f"/><path d="M256.058,318.685a2.8,2.8,0,1,0-2.8-2.8A2.8,2.8,0,0,0,256.058,318.685Zm0-5.407a2.611,2.611,0,1,1-2.613,2.61A2.611,2.611,0,0,1,256.058,313.278Z" transform="translate(-232.343 -293.715)" fill="#3f3f3f"/><path d="M40.388,327.1a1.709,1.709,0,1,0-1.708-1.707A1.709,1.709,0,0,0,40.388,327.1Zm0-3.231a1.522,1.522,0,1,1-1.522,1.521,1.522,1.522,0,0,1,1.522-1.521Z" transform="translate(6.428 -303.218)" fill="#3f3f3f"/><path d="M265.579,327.1a1.709,1.709,0,1,0-1.709-1.709A1.709,1.709,0,0,0,265.579,327.1Zm0-3.231a1.522,1.522,0,1,1-1.522,1.521,1.522,1.522,0,0,1,1.522-1.521Z" transform="translate(-241.864 -303.218)" fill="#3f3f3f"/><path d="M331.889,327.1a1.709,1.709,0,1,0-1.709-1.709A1.709,1.709,0,0,0,331.889,327.1Zm0-3.231a1.522,1.522,0,1,1-1.522,1.521,1.523,1.523,0,0,1,1.522-1.521Z" transform="translate(-314.977 -303.218)" fill="#3f3f3f"/><path d="M459.049,327.1a1.709,1.709,0,1,0-1.709-1.709A1.709,1.709,0,0,0,459.049,327.1Zm0-3.231a1.522,1.522,0,1,1-1.523,1.521,1.522,1.522,0,0,1,1.523-1.521Z" transform="translate(-455.183 -303.218)" fill="#3f3f3f"/><path d="M18.92,302.37v-.119a3.321,3.321,0,1,1,6.642.014v.093h.406v-.093h0a.794.794,0,0,1,0-.168l.065-1.9a.623.623,0,0,1,.622-.623h4.171a.623.623,0,0,1,.623.623v1.972c0,.05.1.045.084.093v.093h.428v-.093a3.32,3.32,0,0,1,6.63-.248h.186a3.32,3.32,0,0,1,6.63.248v.093H61.865v-.093a3.321,3.321,0,0,1,6.64-.037v.139l.129-.055a.57.57,0,0,0,.346-.524V298.48a.571.571,0,0,0-.571-.57H18.94a.571.571,0,0,0-.57.57v3.308a.568.568,0,0,0,.435.553Zm6.931-.2h-.1a3.508,3.508,0,0,0-7.011-.06.381.381,0,0,1-.181-.324V298.48a.385.385,0,0,1,.384-.384h49.47a.385.385,0,0,1,.385.384v3.308a.387.387,0,0,1-.109.268,3.508,3.508,0,0,0-7.007.116H45.592a3.507,3.507,0,0,0-6.909-.751,3.507,3.507,0,0,0-6.8-.011,3.441,3.441,0,0,0-.107.762h-.144a.617.617,0,0,0,0-.075v-1.9a.81.81,0,0,0-.809-.809h-4.17a.809.809,0,0,0-.808.809v1.9A.62.62,0,0,0,25.851,302.172Z" transform="translate(-18.37 -280.092)" fill="#3f3f3f"/><path d="M383.043,316.615h4.481a.655.655,0,0,0,.654-.653v-2.208a.654.654,0,0,0-.654-.654h-4.481a.653.653,0,0,0-.653.654v2.209A.653.653,0,0,0,383.043,316.615Zm4.481-3.328a.467.467,0,0,1,.467.467v2.209a.467.467,0,0,1-.467.467h-4.481a.467.467,0,0,1-.468-.467v-2.209a.467.467,0,0,1,.467-.467Z" transform="translate(-374.913 -293.724)" fill="#3f3f3f"/><path d="M8.279,303.785h.164a.389.389,0,0,0,.389-.389v-.8a.389.389,0,0,0-.389-.389H8.279a.389.389,0,0,0-.389.389v.8A.389.389,0,0,0,8.279,303.785Zm.164-1.391a.205.205,0,0,1,.205.205v.8a.205.205,0,0,1-.205.205H8.279a.205.205,0,0,1-.205-.205v-.8a.205.205,0,0,1,.205-.205Z" transform="translate(42.853 -283.951)" fill="#3f3f3f"/><path d="M496.364,250.924s.556-.005.615.292a17.345,17.345,0,0,1-1.072,2.725V251.3a1.653,1.653,0,0,1,.181-.338C496.161,250.889,496.364,250.924,496.364,250.924Z" transform="translate(-495.363 -237.918)" fill="#f7eb32"/><path d="M385.872,199.431c1.918,0,3.425,0,3.627-.018a.777.777,0,0,0,.689-.807V189.7a1.221,1.221,0,0,0-.267-.821,1.4,1.4,0,0,0-.941-.266h-3.917a2.262,2.262,0,0,0-1.067.183,2.382,2.382,0,0,0-.671.735l-2.045,3.673c-.373.133-3.779,1.354-3.992,1.429-.707.251-.767.725-.769.745v4.04h.092C376.944,199.414,382.172,199.431,385.872,199.431Zm3.108-10.636a1.213,1.213,0,0,1,.809.211,1.063,1.063,0,0,1,.211.689v8.9c0,.023-.018.589-.513.623-.554.037-11.642,0-12.78,0v-3.841s.055-.369.645-.579l4.025-1.441.034-.011.016-.031,2.062-3.7a2.21,2.21,0,0,1,.6-.659,2.148,2.148,0,0,1,.973-.157Z" transform="translate(-376.321 -182.005)" fill="#3f3f3f"/><path d="M497.572,253.244a.092.092,0,0,0,.084-.054,14.5,14.5,0,0,0,1.078-2.782c-.074-.351-.625-.367-.7-.368s-.254-.029-.346.063a1.568,1.568,0,0,0-.2.368.086.086,0,0,0-.007.036v2.645a.092.092,0,0,0,.073.09A.073.073,0,0,0,497.572,253.244Zm.458-3.017c.128,0,.484.039.522.219a12.128,12.128,0,0,1-.886,2.28v-2.2a1.382,1.382,0,0,1,.153-.29.376.376,0,0,1,.191-.009.037.037,0,0,0,.015,0Z" transform="translate(-497.279 -237.128)" fill="#3f3f3f"/><path d="M391.48,197.914h4.09a.478.478,0,0,0,.477-.477v-3.18a.479.479,0,0,0-.477-.477h-2.182a.821.821,0,0,0-.718.477l-1.67,3.18a.478.478,0,0,0,.48.477Z" transform="translate(-383.666 -186.645)" fill="#5aff8c"/><rect width="0.491" height="4.773" rx="0.246" transform="translate(12.839 10.41)" fill="#e4e5e6"/><path d="M393.38,197.2h4.09a.57.57,0,0,0,.57-.57v-3.18a.571.571,0,0,0-.57-.57H395.29a.906.906,0,0,0-.8.528l-1.68,3.2v.023a.571.571,0,0,0,.57.572Zm4.09-4.132a.384.384,0,0,1,.384.384v3.18a.383.383,0,0,1-.384.384h-4.09a.385.385,0,0,1-.384-.361l1.659-3.157a.727.727,0,0,1,.634-.428Z" transform="translate(-385.537 -185.837)" fill="#3f3f3f"/><path d="M382.715,229.749h.1a.286.286,0,0,0,.286-.286v-4.387a.286.286,0,0,0-.286-.286h-.1a.285.285,0,0,0-.285.286v4.387a.285.285,0,0,0,.285.286Zm.1-4.773a.1.1,0,0,1,.1.1v4.387a.1.1,0,0,1-.1.1h-.1a.1.1,0,0,1-.1-.1v-4.39a.1.1,0,0,1,.1-.1Z" transform="translate(-369.843 -214.473)" fill="#3f3f3f"/><path d="M439.467,245.785h2.548a.591.591,0,0,0,.458-.286l.616-1.059a.271.271,0,0,0,.021-.273.224.224,0,0,0-.205-.1h-2.55a.59.59,0,0,0-.458.285l-.616,1.059a.272.272,0,0,0-.021.274A.223.223,0,0,0,439.467,245.785Zm3.438-1.539c.024,0,.038.006.041.012a.121.121,0,0,1-.022.086l-.616,1.059a.4.4,0,0,1-.3.193h-2.546c-.024,0-.038-.006-.041-.012a.124.124,0,0,1,.022-.087l.616-1.059a.41.41,0,0,1,.3-.192Z" transform="translate(-435.703 -231.77)" fill="#5aff8c"/><path d="M445.87,248.2h.181c.043,0,.073-.008.186-.184l.4-.625c.091-.142.1-.186.079-.236l-.027-.049h-.236c-.044,0-.074.008-.187.184l-.4.626c-.091.142-.1.186-.079.236l.027.048Z" transform="translate(-439.968 -234.504)" fill="#5aff8c"/><path d="M453.706,248.2h.18c.043,0,.074-.008.187-.184l.4-.625c.091-.143.1-.187.079-.236l-.027-.049h-.236c-.044,0-.074.008-.187.184l-.4.626c-.092.144-.1.186-.079.236l.027.048Z" transform="translate(-448.608 -234.504)" fill="#5aff8c"/><path d="M461.221,248.2h.181c.043,0,.073-.008.186-.184l.4-.625c.091-.142.1-.186.079-.236l-.027-.049h-.236c-.043,0-.073.008-.187.184l-.4.625c-.092.144-.1.186-.079.236l.027.048Z" transform="translate(-456.893 -234.504)" fill="#5aff8c"/><path d="M359.27,164.611h1.284V149.83H359.27Zm1.1-.187h-.908V150.017h.908Z" transform="translate(-344.918 -147.101)" fill="#3f3f3f"/><path d="M350.94,127.043h1.275v-.093a1.519,1.519,0,0,1,.814-1.346l.05-.027V124.23l-.119.034a2.811,2.811,0,0,0-2.02,2.686Zm1.092-.187h-.908a2.625,2.625,0,0,1,1.764-2.375v.984A1.7,1.7,0,0,0,352.032,126.856Z" transform="translate(-336.588 -124.23)" fill="#3f3f3f"/><rect width="1.948" height="1.131" rx="0.565" transform="translate(10.433 14.96)" fill="#e4e5e6"/><path d="M466.569,333.779a.849.849,0,1,0-.849-.849A.849.849,0,0,0,466.569,333.779Zm0-1.511a.662.662,0,1,1-.469.193A.663.663,0,0,1,466.569,332.268Z" transform="translate(-462.703 -310.757)" fill="#3f3f3f"/><path d="M339.409,333.779a.849.849,0,1,0-.849-.849A.849.849,0,0,0,339.409,333.779Zm0-1.511a.662.662,0,1,1-.469.193A.663.663,0,0,1,339.409,332.268Z" transform="translate(-322.497 -310.757)" fill="#3f3f3f"/><path d="M273.088,333.779a.849.849,0,1,0-.848-.849A.849.849,0,0,0,273.088,333.779Zm0-1.511a.663.663,0,1,1-.662.662A.663.663,0,0,1,273.088,332.268Z" transform="translate(-249.374 -310.757)" fill="#3f3f3f"/><path d="M47.908,333.779a.849.849,0,1,0-.848-.849A.85.85,0,0,0,47.908,333.779Zm0-1.511a.663.663,0,1,1-.662.662A.663.663,0,0,1,47.908,332.268Z" transform="translate(-1.092 -310.757)" fill="#3f3f3f"/><rect width="0.187" height="12.905" transform="translate(49.745 3.118)" fill="#3f3f3f"/><rect width="0.187" height="12.905" transform="translate(46.739 3.118)" fill="#3f3f3f"/><rect width="0.187" height="12.905" transform="translate(43.733 3.118)" fill="#3f3f3f"/><rect width="0.187" height="12.905" transform="translate(19.685 3.118)" fill="#3f3f3f"/><rect width="0.187" height="12.905" transform="translate(22.691 3.118)" fill="#3f3f3f"/><rect width="0.187" height="12.905" transform="translate(28.703 3.118)" fill="#3f3f3f"/><rect width="0.187" height="12.905" transform="translate(31.709 3.118)" fill="#3f3f3f"/><rect width="0.187" height="12.905" transform="translate(34.716 3.118)" fill="#3f3f3f"/><rect width="0.187" height="12.905" transform="translate(37.721 3.118)" fill="#3f3f3f"/><rect width="0.187" height="12.905" transform="translate(40.727 3.118)" fill="#3f3f3f"/><rect width="0.187" height="12.905" transform="translate(25.697 3.118)" fill="#3f3f3f"/><path d="M393.09,270.477h1.575a.28.28,0,0,0,.28-.28v-.757a.28.28,0,0,0-.28-.28H393.09a.28.28,0,0,0-.28.28v.757A.28.28,0,0,0,393.09,270.477Zm1.575-1.129a.093.093,0,0,1,.093.093v.757a.093.093,0,0,1-.093.093H393.09A.093.093,0,0,1,393,270.2v-.757a.093.093,0,0,1,.093-.093Z" transform="translate(-382.749 -254.292)" fill="#3f3f3f"/><rect width="0.187" height="2.283" transform="translate(12.288 19.992)" fill="#3f3f3f"/><rect width="0.187" height="2.283" transform="translate(10.34 19.992)" fill="#3f3f3f"/><rect width="0.187" height="2.283" transform="translate(8.411 19.992)" fill="#3f3f3f"/></g><path d="M2050.718,625.887l.689.661v5.172a11.215,11.215,0,0,1-1.494,1.063c-.173,0-5.316.172-5.517.172s-6.006-.431-6.006-.431l-.23-1.782.23-1.408.316-.546,2.04-.259a12.253,12.253,0,0,0,.2,2.414,31.379,31.379,0,0,0,5.948-.46c.086-.23,2.213-2.529,2.213-2.529a11.675,11.675,0,0,0,1.322-.8C2050.488,627.037,2050.718,625.887,2050.718,625.887Z" transform="translate(-2037.882 -615.948)" fill="#3f3f3f"/></g></g></svg>