<svg xmlns="http://www.w3.org/2000/svg" xmlns:xlink="http://www.w3.org/1999/xlink" width="60" height="60" viewBox="0 0 60 60"><defs><clipPath id="b"><rect width="60" height="60"/></clipPath></defs><g id="a" clip-path="url(#b)"><circle cx="30" cy="30" r="30" fill="#3f3f3f"/><g transform="translate(4 6.385)"><g transform="translate(7.5 8.098)"><g transform="translate(0 0)"><g transform="translate(0 9.821)"><g transform="translate(0.27 0)"><g transform="translate(0.001 1.88)"><path d="M17.174,5.3a.541.541,0,0,1-.539.539H1.53a.541.541,0,0,1-.469-.27.563.563,0,0,1,0-.539l3.75-3.372A3.273,3.273,0,0,1,5.978.944L15.989.99s3.324-.072,3.6,0-2.544,3.962-2.544,3.962A.54.54,0,0,1,17.174,5.3Z" transform="translate(-0.993 -0.944)" fill="#5aff8c"/></g><g transform="translate(0 7.057)"><path d="M17.162,9V20.321a.541.541,0,0,1-.539.539H1.529a.541.541,0,0,1-.539-.539V9Z" transform="translate(-0.99 -9)" fill="#5aff8c"/></g><g transform="translate(7.472 0)"><path d="M1.3-2.031C2.572-3.089,7.4-1.27,5.737-.6S1.06,4.192,1.06,4.192-.9,4.95.284,3.5C.111-.042.022-.973,1.3-2.031Z" transform="translate(0.098 2.354)" fill="#3f3f3f"/></g><g transform="translate(4.823 15.682)"><path d="M15.935,26.078H10.476a.539.539,0,0,1,0-1.078h5.459a.539.539,0,1,1,0,1.078Z" transform="translate(-9.937 -25)" fill="#3f3f3f"/></g></g><line x2="16.711" transform="translate(0 6.508)" fill="none" stroke="#3f3f3f" stroke-width="1"/></g><g transform="translate(17.131 11.673)"><g transform="translate(0.27 0)"><g transform="translate(0.001 0)"><path d="M17.174,5.3a.541.541,0,0,1-.539.539H1.53a.541.541,0,0,1-.469-.27.563.563,0,0,1,0-.539L3.218,1.253a.541.541,0,0,1,.469-.27H14.468c.194,0,5.251-.167,5.348,0L17.54,5.027C17.621,5.124,17.174,5.161,17.174,5.3Z" transform="translate(-0.993 -0.909)" fill="#5aff8c"/></g><g transform="translate(0 5.205)"><path d="M17.162,9V20.321a.541.541,0,0,1-.539.539H1.529a.541.541,0,0,1-.539-.539V9Z" transform="translate(-0.99 -9)" fill="#5aff8c"/></g><g transform="translate(7.552 0.074)"><rect width="1.078" height="4.62" fill="#3f3f3f"/></g><g transform="translate(4.823 13.83)"><path d="M15.935,26.078H10.476a.539.539,0,0,1,0-1.078h5.459a.539.539,0,1,1,0,1.078Z" transform="translate(-9.937 -25)" fill="#3f3f3f"/></g></g><line x2="16.711" transform="translate(0 4.656)" fill="none" stroke="#3f3f3f" stroke-width="1"/></g><g transform="translate(8.902 0)"><rect width="1" height="5" transform="translate(15.598 11.517)" fill="#3f3f3f"/><g transform="translate(0.252 0)"><g transform="translate(0 4.81)"><path d="M16.179,9V19.785a.511.511,0,0,1-.506.514H1.5a.511.511,0,0,1-.506-.514V9Z" transform="translate(-0.99 -9)" fill="#5aff8c"/></g><g transform="translate(0.001 0.731)"><path d="M16.134,5.022a.506.506,0,0,1-.5.5H1.5a.506.506,0,0,1-.439-.252.527.527,0,0,1,0-.5L4.566,1.615A3.063,3.063,0,0,1,5.658.944l9.368.043s3.11-.067,3.368,0-2.381,3.708-2.381,3.708A.5.5,0,0,1,16.134,5.022Z" transform="translate(-0.993 -0.944)" fill="#5aff8c"/></g><g transform="translate(6.79 0)"><path d="M3.359-.4c1.193-.99,3.5-.627,1.941,0S.924,4.086.924,4.086l-1.286-.3A42.826,42.826,0,0,1,3.359-.4Z" transform="translate(0.362 1.011)" fill="#3f3f3f"/></g><g transform="translate(4.513 12.881)"><path d="M15.549,26.009H10.441a.5.5,0,0,1,0-1.009h5.108a.5.5,0,1,1,0,1.009Z" transform="translate(-9.937 -25)" fill="#3f3f3f"/></g></g><line x2="15.637" transform="translate(0 5.062)" fill="none" stroke="#3f3f3f" stroke-width="1"/></g></g><path d="M2039.371,458.706s-2.745,4.863-2.788,5.208.929.843,1.275-.3a20.2,20.2,0,0,1,2.4-4.625C2040.862,458.317,2039.371,458.706,2039.371,458.706Z" transform="translate(-2011.969 -447.552)" fill="#3f3f3f"/><path d="M2039.038,446.312a22.88,22.88,0,0,0-2.137,4.029c-.093.392-.088,9.116,0,10.744.285.379,2.158-3.677,2.163-4.269S2039.577,445.875,2039.038,446.312Z" transform="translate(-2012.014 -445.133)" fill="#5aff8c"/><path d="M2039.2,446.333a26.34,26.34,0,0,0-2.3,4.4c-.091.429-.086,9.976,0,11.757.278.415,2.107-4.024,2.112-4.671l.188-8.1Z" transform="translate(-2002.525 -434.101)" fill="#5aff8c"/></g></g></g></svg>