<svg xmlns="http://www.w3.org/2000/svg" xmlns:xlink="http://www.w3.org/1999/xlink" width="60" height="60" viewBox="0 0 60 60"><defs><clipPath id="b"><rect width="60" height="60"/></clipPath></defs><g id="a" clip-path="url(#b)"><circle cx="30" cy="30" r="30" fill="#3f3f3f"/><path d="M28.035,2A2.9,2.9,0,0,1,31.15,4.62V20.343a2.9,2.9,0,0,1-3.115,2.62H3.115A2.9,2.9,0,0,1,0,20.343V4.62A2.909,2.909,0,0,1,3.115,2ZM21.229,13.923l9.921,6.42v-2.62l-7.974-5.11L31.15,7.241V4.62L15.575,15.1,0,4.62v2.62l7.974,5.372L0,17.723v2.62l9.921-6.42,5.654,3.8Z" transform="translate(14 17.037)" fill="#5aff8c"/></g></svg>