<svg xmlns="http://www.w3.org/2000/svg" xmlns:xlink="http://www.w3.org/1999/xlink" width="60" height="60" viewBox="0 0 60 60"><defs><clipPath id="b"><rect width="60" height="60"/></clipPath></defs><g id="a" clip-path="url(#b)"><circle cx="30" cy="30" r="30" fill="#3f3f3f"/><g transform="translate(7 7.83)"><path d="M34.246,30a4.889,4.889,0,0,0-4.883,4.883v.892a20.267,20.267,0,0,0-6.714-.892,20.27,20.27,0,0,0-6.714.892V34.88A4.889,4.889,0,0,0,11.052,30a3.052,3.052,0,0,0-1.173,5.87.914.914,0,0,1,.562.844l.61,2.441A4.278,4.278,0,0,0,14.84,43.4a1.49,1.49,0,1,0,1.33.029H29.13a1.486,1.486,0,1,0,1.33-.029,4.278,4.278,0,0,0,3.786-4.243l.61-2.441a.913.913,0,0,1,.562-.844A3.052,3.052,0,0,0,34.246,30Z" transform="translate(0 -8.797)" fill="#5aff8c"/><path d="M21.12,24.656a28.131,28.131,0,0,1,5.036-.4,28.131,28.131,0,0,1,5.036.4,6.735,6.735,0,0,1,4.121-4.823V16.576a9.156,9.156,0,0,0-18.312,0v3.259A6.734,6.734,0,0,1,21.12,24.656Z" transform="translate(-3.507)" fill="#5aff8c"/></g></g></svg>