<svg xmlns="http://www.w3.org/2000/svg" xmlns:xlink="http://www.w3.org/1999/xlink" width="60" height="60" viewBox="0 0 60 60"><defs><clipPath id="b"><rect width="60" height="60"/></clipPath></defs><g id="a" clip-path="url(#b)"><circle cx="30" cy="30" r="30" fill="#3f3f3f"/><g transform="translate(-3.213 -2.999)"><path d="M2203.894,626.291l-11.835,6.318v10.722l11.835,6.451,11.967-6.451-.223-10.722Z" transform="translate(-2170.986 -604.926)" fill="#5aff8c"/><g transform="translate(21 21)"><path d="M14.378,310.588l-11.909-6.5V293.266l11.909-6.5,11.909,6.5v10.826Z" transform="translate(-2.469 -286.77)" fill="none" stroke="#3f3f3f" stroke-width="0.706"/><path d="M2.469,288.886l9.924,5.413,1.985,1.083,11.909-6.5" transform="translate(-2.469 -282.392)" fill="none" stroke="#3f3f3f" stroke-width="0.706"/><path d="M6.35,295.382l11.909-6.5v10.826l-11.909,6.5Z" transform="translate(5.559 -282.391)" fill="rgba(0,0,0,0.38)" stroke="#3f3f3f" stroke-width="1"/><path d="M6.448,299.334l.135-2.639,10.556-7.037L15.481,288.2,4.249,295.646l-.2,3.214Z" transform="translate(0.792 -283.805)" fill="none"/><path d="M4.233,298.875v-4.262l10.826-7.072,2.165,1.183L6.4,295.8v4.187Z" transform="translate(1.18 -285.175)" fill="#3f3f3f"/></g></g></g></svg>