<svg xmlns="http://www.w3.org/2000/svg" xmlns:xlink="http://www.w3.org/1999/xlink" width="60" height="60" viewBox="0 0 60 60"><defs><clipPath id="b"><rect width="60" height="60"/></clipPath></defs><g id="a" clip-path="url(#b)"><circle cx="30" cy="30" r="30" fill="#3f3f3f"/><g transform="translate(6.5 6)"><g transform="translate(14.797 15)"><g transform="translate(0.001 0)"><path d="M18.808,5.748a.6.6,0,0,1-.593.593H1.585a.6.6,0,0,1-.516-.3.62.62,0,0,1,0-.593L3.442,1.3A.6.6,0,0,1,3.958,1h11.87a.6.6,0,0,1,.516.3l2.321,4.065A.594.594,0,0,1,18.808,5.748Z" transform="translate(-0.993 -1)" fill="#5aff8c"/></g><g transform="translate(0 4.748)"><path d="M18.795,9V21.463a.6.6,0,0,1-.593.593H1.583a.6.6,0,0,1-.593-.593V9Z" transform="translate(-0.99 -9)" fill="#5aff8c"/></g><g transform="translate(8.315 0)"><rect width="1.187" height="5.086" fill="#3f3f3f"/></g><g transform="translate(5.31 14.244)"><path d="M16.54,26.187H10.53a.593.593,0,0,1,0-1.187h6.01a.593.593,0,1,1,0,1.187Z" transform="translate(-9.937 -25)" fill="#3f3f3f"/></g></g><line x2="18.398" transform="translate(14.5 20.045)" fill="none" stroke="#3f3f3f" stroke-width="1"/></g></g></svg>