<svg xmlns="http://www.w3.org/2000/svg" xmlns:xlink="http://www.w3.org/1999/xlink" width="60" height="60" viewBox="0 0 60 60"><defs><clipPath id="b"><rect width="60" height="60"/></clipPath></defs><g id="a" clip-path="url(#b)"><circle cx="30" cy="30" r="30" fill="#3f3f3f"/><g transform="translate(-47.416 -95.498)"><g transform="translate(57.416 117.498)"><path d="M63.36,130.146a.337.337,0,1,0,.337.337A.337.337,0,0,0,63.36,130.146Zm-.48-.678c.033-.016.067-.03.1-.042V128.27a2.232,2.232,0,0,0-.919.381Zm.48,1.633a.143.143,0,1,0,.143.143A.143.143,0,0,0,63.36,131.1Zm.378.438v1.156a2.232,2.232,0,0,0,.919-.381l-.817-.817C63.806,131.512,63.772,131.526,63.738,131.539Zm.678-.678c-.012.035-.026.069-.042.1l.817.817a2.232,2.232,0,0,0,.381-.919Zm-1.056-4.052a3.674,3.674,0,1,0,3.674,3.674A3.674,3.674,0,0,0,63.36,126.808Zm0,6.3a2.624,2.624,0,1,1,2.624-2.624A2.624,2.624,0,0,1,63.36,133.107Zm.619-2.624a.143.143,0,1,0,.143-.143A.143.143,0,0,0,63.978,130.482Zm-.619-.619a.143.143,0,1,0-.143-.143A.143.143,0,0,0,63.36,129.864Zm1.3-1.213a2.231,2.231,0,0,0-.919-.381v1.155c.035.012.068.027.1.042ZM62.345,130l-.817-.817a2.232,2.232,0,0,0-.381.919H62.3C62.316,130.07,62.33,130.036,62.345,130Zm-.042.858H61.148a2.232,2.232,0,0,0,.381.919l.817-.817C62.33,130.929,62.316,130.895,62.3,130.86Zm-.24,1.453a2.231,2.231,0,0,0,.919.381v-1.156c-.035-.012-.069-.027-.1-.042Zm.678-1.831a.143.143,0,1,0-.143.143A.143.143,0,0,0,62.741,130.482Zm1.675-.378h1.156a2.232,2.232,0,0,0-.381-.919l-.817.817C64.389,130.036,64.4,130.069,64.416,130.1Zm26.352-.148a.337.337,0,1,0,.337.337A.337.337,0,0,0,90.768,129.957Zm.378,1.393v1.155a2.232,2.232,0,0,0,.919-.381l-.817-.817A1.086,1.086,0,0,1,91.146,131.35Zm-.378-.438a.143.143,0,1,0,.143.143A.143.143,0,0,0,90.768,130.912Zm6.812-2.16c.177-1.11-.007-1.206-.742-2.843a2.471,2.471,0,0,0-1.154-.948c-2.229-1.216-7.8-1.97-8.158-1.978a36.665,36.665,0,0,0-5.478-4.949,6.366,6.366,0,0,0-2.1-.366s-13.44-.515-16.645.247a2.664,2.664,0,0,0-.7.165,10.255,10.255,0,0,0-.742.783c-.037.073-.255.311-.33.412a23.183,23.183,0,0,0-1.524,2.06c-.186.321-.272.627-.453.948s-.808.546-.906,1.112c-.047.272-.357.17-.371.577a1.665,1.665,0,0,0,.33.124,19.454,19.454,0,0,0-.413,2.678h0c0,.021,0,.019,0,0-.775.243-.7,1.636-.776,1.384.093.371.35.854.447,1.253.083.342-.193.488-.206.824.06.035.118.4.165.453.2.539,1.729,1.028,1.729,1.028H59.7a3.858,3.858,0,1,1,7.31.009l20.182.025a3.858,3.858,0,1,1,7.143.009h.317s2.368.22,2.678-.536a3.2,3.2,0,0,0,.165-1.277c0-.43.091-.347.206-.618S97.539,128.872,97.58,128.751Zm-26.945-6.427c-.076.053-.071.081-.165.124-.3.227-3.229-.082-7.21-.082.068.1-.466.013-.041-.906a11.974,11.974,0,0,1,1.409-2.144,52.882,52.882,0,0,1,6.007-.081C70.6,120.223,70.615,120.759,70.635,122.324Zm11.907.948c-.061-.087-.254-.2-.288-.288s.064-.308,0-.453a1.481,1.481,0,0,0-1.36-.659c-.142.164-.356.237-.453.453a5.166,5.166,0,0,0-.124.659c.02.089.071.105.084.151.106,0,.055.016,0,.055a.107.107,0,0,0,0-.055c-.3-.012-1.833.038-7.994-.274-.171-3.243-.324-3.349.041-3.873,3.605,0,7.416-.041,7.416-.041s2.712,3.31,3.543,4.367A3.264,3.264,0,0,1,82.542,123.272Zm2.6-.33c-1.338-1.073-3.1-3.388-3.955-4.079-.289,0,.675-.016,1.195-.124a47.054,47.054,0,0,1,4.565,4.216C86.275,122.986,85.7,123.4,85.137,122.942Zm5.631,3.677a3.674,3.674,0,1,0,3.674,3.674A3.674,3.674,0,0,0,90.768,126.619Zm0,6.3a2.624,2.624,0,1,1,2.624-2.624A2.624,2.624,0,0,1,90.768,132.918Zm1.014-2.145.817.817a2.232,2.232,0,0,0,.381-.919H91.825C91.812,130.706,91.8,130.74,91.783,130.773Zm.042-.858H92.98A2.232,2.232,0,0,0,92.6,129l-.817.817C91.8,129.847,91.812,129.88,91.825,129.915Zm-1.536-.636c.033-.016.067-.03.1-.042v-1.156a2.234,2.234,0,0,0-.919.381Zm-.139,1.014a.143.143,0,1,0-.143.143A.143.143,0,0,0,90.15,130.293Zm.619-.619a.143.143,0,1,0-.143-.143A.143.143,0,0,0,90.768,129.675Zm1.3-1.213a2.232,2.232,0,0,0-.919-.381v1.156c.035.012.068.027.1.042Zm-.678,1.831a.143.143,0,1,0,.143-.143A.143.143,0,0,0,91.387,130.293Zm-1.633-.48L88.937,129a2.232,2.232,0,0,0-.381.919h1.156Q89.731,129.863,89.754,129.813Zm-.282,2.311a2.232,2.232,0,0,0,.919.381V131.35c-.035-.012-.069-.027-.1-.042Zm.24-1.453H88.556a2.232,2.232,0,0,0,.381.919l.817-.817C89.738,130.74,89.724,130.706,89.712,130.671Z" transform="translate(-57.416 -117.498)" fill="#5aff8c"/></g></g></g></svg>