<svg xmlns="http://www.w3.org/2000/svg" xmlns:xlink="http://www.w3.org/1999/xlink" width="16" height="14" viewBox="0 0 16 14"><defs><clipPath id="b"><rect width="16" height="14"/></clipPath></defs><g id="a" clip-path="url(#b)"><g transform="translate(1 1)"><g transform="translate(0.061)"><path d="M27.652,22.377a3.921,3.921,0,0,0-3.835-3.816,3.815,3.815,0,0,0-2.988,1.51,3.815,3.815,0,0,0-2.988-1.51,3.922,3.922,0,0,0-3.835,3.816H14c0,.012,0,.024,0,.036s0,.018,0,.028c0,.057.014.1.017.154.188,5.142,6.758,7.251,6.758,7.251S27.442,27.74,27.64,22.6c0-.057.019-.1.019-.162,0-.01,0-.019,0-.028s0-.024,0-.036h-.007Z" transform="translate(-14 -18.561)" fill="none" stroke="#f35" stroke-width="2"/></g><path d="M.506.05c.42-.232.506.395.506.882s-.227.882-.506.882S0,1.418,0,.931.114-.136.506.05Z" transform="matrix(0.996, -0.087, 0.087, 0.996, 0, 0.435)" fill="#f35"/></g></g></svg>