<svg xmlns="http://www.w3.org/2000/svg" width="93.903" height="22.893" viewBox="0 0 93.903 22.893"><path d="M3.24-18.288l-.36-2.88H9.5l10.152,10.3,1.4,1.584h.4v-11.88h6.912V0H22.356L11.916-10.4l-1.4-1.692h-.36V0H3.24Zm32.919.276a2.553,2.553,0,0,1-1-.2,2.726,2.726,0,0,1-.816-.521,2.5,2.5,0,0,1-.559-.778,2.294,2.294,0,0,1-.212-.982,2.243,2.243,0,0,1,.2-.944,2.423,2.423,0,0,1,.552-.771,2.505,2.505,0,0,1,.816-.506,2.781,2.781,0,0,1,1.012-.181,2.946,2.946,0,0,1,1.043.181,2.629,2.629,0,0,1,.839.5,2.309,2.309,0,0,1,.559.756,2.228,2.228,0,0,1,.2.952,2.366,2.366,0,0,1-.2.982,2.378,2.378,0,0,1-.567.786,2.8,2.8,0,0,1-.846.529A2.7,2.7,0,0,1,36.159-18.012ZM31.913-.952,33.59-1.5a1,1,0,0,0,.484-.3.806.806,0,0,0,.181-.544v-9.324a.982.982,0,0,0-.2-.627,1.541,1.541,0,0,0-.7-.431l-1.39-.514v-.831l6.468-1.073v12.8a.772.772,0,0,0,.181.544,1.168,1.168,0,0,0,.484.3l1.556.544V0H31.913ZM42.783-2.16l6.588-7.308,1.044-1.116-1.044-1.188-7.956-9.4h9.036l4.428,6.516h.4L59.7-21.168h9.036l-1.4,2.124-6.552,7.272-1.044,1.188,1.044,1.116L68.739,0H59.7L55.275-6.552h-.4L50.451,0H41.415Zm28.044,0,6.588-7.308,1.044-1.116-1.044-1.188-7.956-9.4H78.5l4.428,6.516h.4l4.428-6.516h9.036l-1.4,2.124-6.552,7.272-1.044,1.188,1.044,1.116L96.783,0H87.747L83.319-6.552h-.4L78.5,0H69.459Z" transform="translate(-2.88 22.893)" fill="#f35"/></svg>