<svg xmlns="http://www.w3.org/2000/svg" xmlns:xlink="http://www.w3.org/1999/xlink" width="23" height="30" viewBox="0 0 23 30"><defs><clipPath id="b"><rect width="23" height="30"/></clipPath></defs><g id="a" clip-path="url(#b)"><g transform="translate(2 6)"><path d="M8.278,0H7.4a.391.391,0,0,0-.39.39v3.7H3.568a1.972,1.972,0,0,0-.552.1,1.932,1.932,0,0,0-.507.23L.2,6a.369.369,0,0,0,0,.652L2.509,8.244a1.954,1.954,0,0,0,.507.23,1.98,1.98,0,0,0,.552.1H7.012v8.571a.391.391,0,0,0,.39.39h.877a.391.391,0,0,0,.39-.39V.39A.391.391,0,0,0,8.278,0Zm11,4.057L16.969,2.469a1.954,1.954,0,0,0-.507-.231,1.987,1.987,0,0,0-.552-.1H9.252l.78,4.48H15.91a1.979,1.979,0,0,0,.552-.1,1.944,1.944,0,0,0,.507-.23l2.313-1.588a.369.369,0,0,0,0-.652Z" fill="#3f3f3f" fill-rule="evenodd"/></g></g></svg>