<svg xmlns="http://www.w3.org/2000/svg" xmlns:xlink="http://www.w3.org/1999/xlink" width="23" height="30" viewBox="0 0 23 30"><defs><clipPath id="b"><rect width="23" height="30"/></clipPath></defs><g id="a" clip-path="url(#b)"><path d="M8.5,10.5a2.465,2.465,0,0,1-1.063-.357L0,6.251v7.44a1.066,1.066,0,0,0,1.063,1.063h14.88a1.066,1.066,0,0,0,1.063-1.063V6.251l-7.44,3.894A2.465,2.465,0,0,1,8.5,10.5ZM15.943,2H1.063A1.066,1.066,0,0,0,0,3.063v.806L8.5,8.338l8.5-4.469V3.063A1.066,1.066,0,0,0,15.943,2Z" transform="translate(3 7)" fill="#3f3f3f"/></g></svg>