<svg xmlns="http://www.w3.org/2000/svg" xmlns:xlink="http://www.w3.org/1999/xlink" width="23" height="30" viewBox="0 0 23 30"><defs><clipPath id="b"><rect width="23" height="30"/></clipPath></defs><g id="a" clip-path="url(#b)"><g transform="translate(2 5)"><path d="M13.331,20H10.116a.943.943,0,0,0-.827,1.378,3.014,3.014,0,0,0,2.48,1.378,2.741,2.741,0,0,0,2.388-1.378A.914.914,0,0,0,13.331,20Z" transform="translate(-2.549 -2.596)" fill="#3f3f3f"/><path d="M20.181,15.423l-.367-.459a10.81,10.81,0,0,1-2.2-6.613V7.708A6.568,6.568,0,0,0,11.916,1.1,6.4,6.4,0,0,0,4.752,7.433v.918a10.81,10.81,0,0,1-2.2,6.613l-.367.459A.763.763,0,0,0,2,16.158a1.957,1.957,0,0,0,1.837,1.378H18.528a1.77,1.77,0,0,0,1.745-1.378A.976.976,0,0,0,20.181,15.423Z" transform="translate(-1.961 -1.05)" fill="#3f3f3f"/></g></g></svg>