<svg xmlns="http://www.w3.org/2000/svg" xmlns:xlink="http://www.w3.org/1999/xlink" width="23" height="30" viewBox="0 0 23 30"><defs><clipPath id="b"><rect width="23" height="30"/></clipPath></defs><g id="a" clip-path="url(#b)"><g transform="translate(-22.656 -550)"><g transform="translate(23.976 551)"><g transform="translate(0 0)"><path d="M70.961,165.982a3.6,3.6,0,0,0-.552-.332,3.883,3.883,0,0,1-.684-.434c-.195-.15-.275-.213-.843-.275a1.075,1.075,0,0,1-.842-.58,1.672,1.672,0,0,0-.415-.5c-.575-.521-.689-.941.093-2.2a9.89,9.89,0,0,1,.934-1.19,5.651,5.651,0,0,0,.934-1.275l.088-.208a2.608,2.608,0,0,0-.357-1.882c-.187,0-2.158-.446-2.509-.021a.987.987,0,0,1-.8.337,3.037,3.037,0,0,1-1.069-.246,3.5,3.5,0,0,0-1.013-.3.57.57,0,0,1-.481.247,1.842,1.842,0,0,1-.714-.21,3.427,3.427,0,0,1-.866-.623l-.1.124-.091.11-.335.4-.005.006c-.247.3-.5.595-.74.9-.333.409-.658.819-.959,1.229-.229.312-.443.62-.635.928a.35.35,0,0,1-.327.179h0a.381.381,0,0,1-.327-.177,28.279,28.279,0,0,0-2.122-2.812l-.154-.19c-.543-.661-1.1-1.346-1.6-2.017q-.089-.121-.172-.237l-.046-.066-.114-.161-.007-.01-.034.036a6.367,6.367,0,0,0-.389.513,4.449,4.449,0,0,1-.619.747l-.006.005c-.277.25-.745.617-1.064.85a.307.307,0,0,0-.123.284,4.442,4.442,0,0,0,.135.667,6.962,6.962,0,0,1,.165.77.308.308,0,0,0,.191.239,1.075,1.075,0,0,1,.685.98c.008.4.026.956.039,1.407a9.436,9.436,0,0,1,.019.949,1.81,1.81,0,0,1-.274.725,1.68,1.68,0,0,0-.212,1.225,3.027,3.027,0,0,1-.333,1.692c-.257.56-.426.93.48,2.314a.313.313,0,0,0,.24.139c.051,0,.1.005.136.005a.489.489,0,0,0,.12-.009l.011-.005a.535.535,0,0,1,.234-.055c.181,0,.3.052,1.453.546a32.122,32.122,0,0,0,9.543,2.127,37.494,37.494,0,0,1,3.939.57,5.65,5.65,0,0,0,1.132.164.521.521,0,0,0,.488-.18,1.258,1.258,0,0,1,.7-.4,1.168,1.168,0,0,1,.244-.026C71.439,170.781,71.154,166.117,70.961,165.982Zm-1.983,1.746H62.39v.559a.386.386,0,1,1-.771,0v-.559H60.493a.386.386,0,0,1,0-.771h1.126V164.1H55.864a.386.386,0,1,1,0-.771h5.754v-1.986a.386.386,0,1,1,.771,0v1.986h1.96a.386.386,0,1,1,0,.771H62.39v2.854h6.588a.386.386,0,0,1,0,.771Z" transform="translate(-51.891 -145.531)" fill="#3f3f3f"/><path d="M73.361,47.233c.483.655,1.038,1.331,1.575,1.984.7.851,1.417,1.726,2.007,2.59.609-.89,1.349-1.779,2.068-2.644l.231-.278c.188-.226.377-.455.56-.68l.029-.036c1.445-1.784,2.407-3.256,2.407-4.647a5.273,5.273,0,0,0-10.546,0,5.441,5.441,0,0,0,1.083,2.869C72.948,46.657,73.139,46.933,73.361,47.233Zm3.606-6.2a2.5,2.5,0,1,1-2.441,2.5A2.472,2.472,0,0,1,76.967,41.036Z" transform="translate(-70.165 -38.251)" fill="#3f3f3f"/><path d="M120.084,87.805a1.729,1.729,0,1,0-1.67-1.728A1.7,1.7,0,0,0,120.084,87.805Z" transform="translate(-113.282 -80.794)" fill="#3f3f3f"/></g><path d="M3992.7,410.234l-.694,3.548,4.319,1-.385,2.16a22.529,22.529,0,0,0,3.626,1.388c.617,0,5.708.154,6.094,0a24.9,24.9,0,0,0,2.391-2.006l-3.163-1.543-2.931-4.551L3996.938,409l-2.468,1.234Z" transform="translate(-3989.139 -394.498)" fill="#3f3f3f"/></g><path d="M.982,0S-1.988,5.517,2.4,7.2s2.97.613,4.132,0a5.592,5.592,0,0,1,5.035.766c1.42,1.073,2.969,1.992,4.519,1.379s2.195,1.226,3.227,0-.129-4.291-.129-4.291l-6.714-.766-9.3-2.452Z" transform="matrix(0.996, 0.087, -0.087, 0.996, 24.509, 568.536)" fill="#3f3f3f"/></g></g></svg>