<svg xmlns="http://www.w3.org/2000/svg" xmlns:xlink="http://www.w3.org/1999/xlink" width="23" height="30" viewBox="0 0 23 30"><defs><clipPath id="b"><rect width="23" height="30"/></clipPath></defs><g id="a" clip-path="url(#b)"><g transform="translate(-2 2)"><circle cx="1.5" cy="1.5" r="1.5" transform="translate(8 8)" fill="#3f3f3f"/><path d="M21.827,13.2,13.3,4.675A2.3,2.3,0,0,0,11.671,4H6.3A2.3,2.3,0,0,0,4,6.3v5.37A2.3,2.3,0,0,0,4.675,13.3l8.53,8.53a2.3,2.3,0,0,0,3.252,0l5.37-5.37a2.3,2.3,0,0,0,0-3.252ZM9.37,12.438A3.068,3.068,0,1,1,12.438,9.37,3.068,3.068,0,0,1,9.37,12.438Z" transform="translate(0 0)" fill="#3f3f3f"/></g></g></svg>