<svg xmlns="http://www.w3.org/2000/svg" xmlns:xlink="http://www.w3.org/1999/xlink" width="23" height="30" viewBox="0 0 23 30"><defs><clipPath id="b"><rect width="23" height="30"/></clipPath></defs><g id="a" clip-path="url(#b)"><g transform="translate(-4 1)"><g transform="translate(6 5)"><path d="M414.781,316.112A1.781,1.781,0,0,0,413,317.894v12.274a1.782,1.782,0,0,0,1.781,1.782h15.444a1.782,1.782,0,0,0,1.781-1.782V317.894a1.782,1.782,0,0,0-1.781-1.782h-1.387V317.5a1.782,1.782,0,0,1-1.782,1.782h-.66a1.782,1.782,0,0,1-1.782-1.782l-.008-1.386h-4.215V317.5a1.782,1.782,0,0,1-1.782,1.782h-.66a1.782,1.782,0,0,1-1.782-1.782v-1.386Zm-.2,7.392h3.168v-1.584h-3.168Zm0,2.639h3.168v-1.584h-3.168Zm0,2.64h3.168V327.2h-3.168Zm4.224-5.279h3.168v-1.584h-3.168Zm0,2.639h3.168v-1.584h-3.168Zm0,2.64h3.168V327.2h-3.168Zm8.447-5.279h3.168v-1.584h-3.168Zm0,2.639h3.168v-1.584h-3.168Zm0,2.64h3.168V327.2h-3.168Zm-4.223-5.279H426.2v-1.584h-3.168Zm0,2.639H426.2v-1.584h-3.168Zm0,2.64H426.2V327.2h-3.168ZM417.818,314a.594.594,0,0,0-.6.594v3.036a.594.594,0,0,0,.6.594h.923a.594.594,0,0,0,.594-.594v-3.036a.594.594,0,0,0-.594-.594Zm8.445,0a.6.6,0,0,0-.594.594v3.036a.594.594,0,0,0,.594.594h.924a.593.593,0,0,0,.594-.594v-3.036a.593.593,0,0,0-.594-.594Z" transform="translate(-413 -314)" fill="#3f3f3f" fill-rule="evenodd"/></g></g></g></svg>