<svg xmlns="http://www.w3.org/2000/svg" xmlns:xlink="http://www.w3.org/1999/xlink" width="23" height="30" viewBox="0 0 23 30"><defs><clipPath id="b"><rect width="23" height="30"/></clipPath></defs><g id="a" clip-path="url(#b)"><g transform="translate(-50 -506)"><circle cx="8.5" cy="8.5" r="8.5" transform="translate(53 513)" fill="#3f3f3f"/><g transform="translate(-27.9 30.2)"><path d="M2205.4,2476.452l-1.152,2.3-2.812.474,1.9,2.3-.339,2.575,2.406-1.084,2.507,1.084-.237-2.948,1.762-1.931-2.812-.474Z" transform="translate(-2116.104 -1989.109)" fill="#fff"/><path d="M8.586,4.112a.62.62,0,0,0-.5-.407L5.847,3.372,4.873,1.348a.63.63,0,0,0-1.127,0L2.771,3.372.529,3.705a.619.619,0,0,0-.5.407.594.594,0,0,0,.145.615L1.821,6.368,1.44,8.644a.6.6,0,0,0,.255.593.636.636,0,0,0,.66.035L4.309,8.22,6.265,9.273a.636.636,0,0,0,.66-.035.6.6,0,0,0,.255-.593L6.8,6.368,8.442,4.728A.6.6,0,0,0,8.586,4.112ZM6.353,5.945a.6.6,0,0,0-.169.521l.381,2.276L4.61,7.69a.636.636,0,0,0-.6,0L2.053,8.742l.381-2.276a.6.6,0,0,0-.169-.521L.622,4.3l2.242-.334a.621.621,0,0,0,.469-.341l.975-2.023L5.284,3.63a.622.622,0,0,0,.469.341L8,4.3Z" transform="translate(85 486)" fill="#fff"/></g></g></g></svg>