<svg xmlns="http://www.w3.org/2000/svg" xmlns:xlink="http://www.w3.org/1999/xlink" width="23" height="30" viewBox="0 0 23 30"><defs><clipPath id="b"><rect width="23" height="30"/></clipPath></defs><g id="a" clip-path="url(#b)"><g transform="translate(0.245 3.071)"><path d="M32.9,29.632l-6.988-6.99c-.925-.925-.479-1.605-.479-1.605l0,0a1.7,1.7,0,0,0-.323-1.95l-2.72-2.72a1.71,1.71,0,0,0-2.418,0l-.416.415-.044.045s-.191.38.679.43h0a1.4,1.4,0,0,1,.791.425l.963.963a1.083,1.083,0,0,1,.345.883A2.291,2.291,0,0,1,20.414,21.4a1.244,1.244,0,0,1-1-.436l-.73-.731a2.145,2.145,0,0,1-.558-1.053h0c-.178-.807-.422-.555-.422-.555l-.46.46a1.711,1.711,0,0,0,0,2.418l2.72,2.72a1.707,1.707,0,0,0,2.05.273l0,.005s.6-.378,1.4.428l7.252,7.254a1.206,1.206,0,0,0,1.713.034l.686-.686A1.266,1.266,0,0,0,32.9,29.632Z" transform="translate(-10.716 -9.646)" fill="#3f3f3f"/><path d="M14.6,19.034a1,1,0,0,0-1.131-.2l0,0c-.059.02-.118.044-.178.063-.019.007-.031.015-.053.024a1.273,1.273,0,0,0-.96,1.074v.849a.849.849,0,0,1-.888.868h-.345c-.741.015-.873-.438-.892-.68v-.977c0-.9-1-1.147-1-1.147l0,0a7.339,7.339,0,0,1-1.539-.663c-.02-.009-.036-.014-.058-.025a1.269,1.269,0,0,0-1.417.167l-.69.69c-.482.48-.838.256-.969.138l-.056-.056,0,0h0l-.567-.567,0,0c-.444-.443.133-1.052.21-1.129l.673-.672s0,0,0,0a1.229,1.229,0,0,0,.111-1.326h.007a7.327,7.327,0,0,1-.625-1.5c0-.014-.011-.023-.016-.037a1.32,1.32,0,0,0-1.22-.929l-.654,0c-.765,0-.9-.5-.924-.758l0-.527a.8.8,0,0,1,.858-.84h0l.838,0a1.116,1.116,0,0,0,1.07-.8c0-.011.009-.016.013-.027a7.243,7.243,0,0,1,.726-1.75h0A1.28,1.28,0,0,0,4.672,6.8L4.1,6.231h0a.766.766,0,0,1-.042-1.162l.3-.3a.872.872,0,0,1,1.29,0h0l.648.648a1.149,1.149,0,0,0,1.336.174l.006,0a7.309,7.309,0,0,1,1.47-.622c.014-.006.021-.012.037-.019.83-.326.985-.838,1.008-1.1V2.88a.765.765,0,0,1,.81-.8h.465A.832.832,0,0,1,12.276,3v.73a1.254,1.254,0,0,0,.877,1.184l0,0a7.159,7.159,0,0,1,1.385.548l0,0A1.469,1.469,0,0,0,16.3,5.324l.5-.5c.023-.023.706-.684,1.216-.174,0,0,0,0,0,0l.418.417a.917.917,0,0,1-.131,1.255l-.565.565A1.356,1.356,0,0,0,17.581,8.4c.007.016.007.025.014.041a7.3,7.3,0,0,1,.618,1.515l.007-.006s.183.917,1,.915l.794,0h.057c.023,0,.969-.016.971.878l0,.376h0v.092c-.008.221-.113.774-.993.777l-.761,0a1.158,1.158,0,0,0-1.021.8.912.912,0,0,0,.255.988l.108.106,0,0c.627.673,1.075-.269,1.075-.269a1.148,1.148,0,0,1,.923-.583H21.8a.639.639,0,0,0,.639-.639V10.455a.639.639,0,0,0-.639-.639H20.689A1.132,1.132,0,0,1,19.6,9.01l-.007,0a8.781,8.781,0,0,0-.452-1.084,0,0,0,0,0,0,0A1.143,1.143,0,0,1,19.427,6.7L20.134,6a.64.64,0,0,0,0-.9L18.05,3.008a.64.64,0,0,0-.9,0l-.513.513a1.351,1.351,0,0,1-1.553.417v0a9.187,9.187,0,0,0-.886-.371c-.014-.007-.024-.013-.039-.019a1.327,1.327,0,0,1-.767-1.239V1.568a.639.639,0,0,0-.639-.639H9.681a.639.639,0,0,0-.639.639v.924a1.015,1.015,0,0,1-.782,1.065l0,0a9.07,9.07,0,0,0-.989.414l-.015,0A.929.929,0,0,1,6.18,3.9l-.022-.022,0,0h0L5.29,3.006a.641.641,0,0,0-.9,0L2.3,5.088a.639.639,0,0,0,0,.9l.692.693a1.171,1.171,0,0,1,.3,1.229h0A8.8,8.8,0,0,0,2.85,8.97c-.009.019-.017.033-.026.055A1.167,1.167,0,0,1,1.8,9.816H.794a.639.639,0,0,0-.639.639V13.4a.639.639,0,0,0,.639.639H1.941a.857.857,0,0,1,.82.6l.007-.016a8.883,8.883,0,0,0,.473,1.2l0,0s.405.687-.049,1.141h0l-.892.891a.639.639,0,0,0,0,.9l2.084,2.084a.638.638,0,0,0,.9,0l.8-.8,0,0,.036-.035a1.1,1.1,0,0,1,1.242-.082l.019.007a9.093,9.093,0,0,0,.876.362l0,0a1.115,1.115,0,0,1,.785,1.022v.967a.639.639,0,0,0,.639.639h3.068a.639.639,0,0,0,.639-.639V21.23a.99.99,0,0,1,.668-.891l.051-.024c.212-.074.416-.164.622-.252.5-.275.036-.837.036-.837Z" fill="#3f3f3f"/></g></g></svg>