<svg xmlns="http://www.w3.org/2000/svg" xmlns:xlink="http://www.w3.org/1999/xlink" width="47" height="35" viewBox="0 0 47 35"><defs><clipPath id="b"><rect width="47" height="35"/></clipPath></defs><g id="a" clip-path="url(#b)"><path d="M15.318,2A13.318,13.318,0,1,0,28.635,15.318,13.318,13.318,0,0,0,15.318,2Zm-.666,4a2,2,0,1,1-2,2A2,2,0,0,1,14.652,6Zm3.329,17.313H16.649a2.664,2.664,0,0,1-2.664-2.664V15.318a1.332,1.332,0,0,1,0-2.664h1.332a1.332,1.332,0,0,1,1.332,1.332v6.659h1.332a1.332,1.332,0,1,1,0,2.664Z" transform="translate(8.604 2)" fill="#3f3f3f"/></g></svg>