<svg xmlns="http://www.w3.org/2000/svg" xmlns:xlink="http://www.w3.org/1999/xlink" width="47" height="35" viewBox="0 0 47 35"><defs><clipPath id="b"><rect width="47" height="35"/></clipPath></defs><g id="a" clip-path="url(#b)"><g transform="translate(2.61 4)"><g transform="translate(0)"><path d="M15.936,100.147a6.6,6.6,0,0,0,2.831-5.406A6.694,6.694,0,1,0,8.1,100.059c-4.7,1.011-8.1,3.89-8.1,7.291,0,4.251,5.29,7.692,11.823,7.692s11.823-3.441,11.823-7.692C23.646,104.045,20.436,101.23,15.936,100.147Zm-3.661,13.731-2.661-3.064,2.137-7.956a.924.924,0,0,1-.427-.762.944.944,0,0,1,1.887,0,.924.924,0,0,1-.427.762l1.936,8.422Z" transform="translate(0 -88.1)" fill="#3f3f3f"/><g transform="translate(20.718 4.82)"><path d="M276.11,150.911H258.263a1.363,1.363,0,0,1-1.363-1.355h0a1.363,1.363,0,0,1,1.363-1.355H276.11a1.363,1.363,0,0,1,1.363,1.355h0A1.363,1.363,0,0,1,276.11,150.911Z" transform="translate(-256.9 -148.2)" fill="#3f3f3f"/><path d="M276.11,214.011H258.263a1.363,1.363,0,0,1-1.363-1.355h0a1.363,1.363,0,0,1,1.363-1.355H276.11a1.363,1.363,0,0,1,1.363,1.355h0A1.363,1.363,0,0,1,276.11,214.011Z" transform="translate(-256.9 -206.239)" fill="#3f3f3f"/><path d="M327.778,272.411H314.463a1.363,1.363,0,0,1-1.363-1.355h0a1.363,1.363,0,0,1,1.363-1.355h13.323a1.363,1.363,0,0,1,1.363,1.355h0A1.375,1.375,0,0,1,327.778,272.411Z" transform="translate(-308.568 -259.955)" fill="#3f3f3f"/><path d="M327.778,332.811H314.463a1.363,1.363,0,0,1-1.363-1.356h0a1.363,1.363,0,0,1,1.363-1.355h13.323a1.363,1.363,0,0,1,1.363,1.355h0A1.375,1.375,0,0,1,327.778,332.811Z" transform="translate(-308.568 -315.511)" fill="#3f3f3f"/></g></g></g></g></svg>