<svg xmlns="http://www.w3.org/2000/svg" xmlns:xlink="http://www.w3.org/1999/xlink" width="41" height="35" viewBox="0 0 41 35"><defs><clipPath id="b"><rect width="41" height="35"/></clipPath></defs><g id="a" clip-path="url(#b)"><g transform="translate(9.639 3)"><path d="M14.535,274.922c3.743.784,6.378,2.663,6.378,4.857,0,2.9-4.6,5.248-10.277,5.248S.361,282.677.361,279.779c0-2.162,2.561-4.02,6.219-4.823l3.958,4.728Zm0,0" transform="translate(0 -255.468)" fill="#5aff8c"/><path d="M19.318,19.487l-2.576-3.076a9.8,9.8,0,0,1,.1-13.553A9.272,9.272,0,0,1,23.512,0a9,9,0,0,1,6.5,2.761,9.6,9.6,0,0,1,2.673,6.7,9.787,9.787,0,0,1-2.772,6.855l-2.636,3.14-4,4.761Zm0,0" transform="translate(-12.739 0)" fill="#3f3f3f"/><path d="M85,61.738a4.614,4.614,0,1,1-4.614,4.614A4.614,4.614,0,0,1,85,61.738Zm0,0" transform="translate(-74.367 -57.37)" fill="#fafafa"/></g></g></svg>