<svg xmlns="http://www.w3.org/2000/svg" xmlns:xlink="http://www.w3.org/1999/xlink" width="200" height="200" viewBox="0 0 200 200"><defs><filter id="a" x="46.444" y="28" width="106.902" height="105.481" filterUnits="userSpaceOnUse"><feOffset dy="3" input="SourceAlpha"/><feGaussianBlur stdDeviation="3" result="b"/><feFlood flood-opacity="0.161"/><feComposite operator="in" in2="b"/><feComposite in="SourceGraphic"/></filter><filter id="c" x="62.916" y="76.162" width="73.933" height="61.647" filterUnits="userSpaceOnUse"><feOffset dy="7" input="SourceAlpha"/><feGaussianBlur stdDeviation="3" result="d"/><feFlood flood-color="#3f3f3f" flood-opacity="0.161"/><feComposite operator="in" in2="d"/><feComposite in="SourceGraphic"/></filter><clipPath id="f"><rect width="200" height="200"/></clipPath></defs><g id="e" clip-path="url(#f)"><rect width="200" height="200" fill="#f0f0f0"/><g transform="translate(32.248 27.184)"><g transform="translate(8.752 6.816)"><path d="M55.044,28.349l-.42,4.915L35.682,38.34c-10.27,2.753-18.367,9.34-21.851,17.776l-5.079,12.3s56.454,21.348,117.8.1l-5.078-12.3c-3.484-8.436-11.582-15.023-21.851-17.775L80.681,33.361,80.3,28.6" transform="translate(-8.752 54.827)" fill="#3f3f3f"/><g transform="matrix(1, 0, 0, 1, -41, -34)" filter="url(#a)"><path d="M43.945,94.258a1.833,1.833,0,0,1-.457.039,5.823,5.823,0,0,1-1.792-.309A4.853,4.853,0,0,1,38.569,90.1c-.381-.193-.8-.385-1.182-.578a4.4,4.4,0,0,1-2.135.617,5.044,5.044,0,0,1-2.784-.848A4.833,4.833,0,0,1,30.3,84.779a9.891,9.891,0,0,1-.953-.848,3.423,3.423,0,0,1-1.221.231A4.985,4.985,0,0,1,23.47,77.65c-.229-.347-.5-.655-.724-1-.076,0-.153.077-.229.077a4.859,4.859,0,0,1-4.156-2.544,4.956,4.956,0,0,1-.572-3.506,4.33,4.33,0,0,1,.648-1.541c-.153-.386-.343-.771-.5-1.156a4.792,4.792,0,0,1-3.66-3.391,4.706,4.706,0,0,1,1.258-4.778c-.114-.462-.153-.925-.229-1.387a4.3,4.3,0,0,1-2.021-1.58,5.4,5.4,0,0,1-.267-5.163,4.385,4.385,0,0,1,1.83-1.811c0-.463.038-.887.038-1.349a4.853,4.853,0,0,1,1.487-8.439c.114-.424.229-.809.343-1.194a4.9,4.9,0,0,1-.686-5.009,4.813,4.813,0,0,1,4.118-2.929c.191-.385.419-.694.61-1.04a4.872,4.872,0,0,1,.458-5.087,4.718,4.718,0,0,1,4.69-1.888c.267-.308.533-.617.8-.886a4.807,4.807,0,0,1,1.6-4.817,5.167,5.167,0,0,1,3.317-1.194,4.185,4.185,0,0,1,1.678.385c.305-.193.648-.385.953-.578a4.417,4.417,0,0,1,.724-2.581,5.126,5.126,0,0,1,4.537-2.312A4.042,4.042,0,0,1,42,11.912c.381-.155.763-.27,1.144-.424a4.483,4.483,0,0,1,1.182-2.312,5.031,5.031,0,0,1,4.957-1.194,4.345,4.345,0,0,1,2.135,1.541c.419-.039.8-.154,1.22-.193a4.916,4.916,0,0,1,8.579,0c.42.039.8.154,1.221.193a4.521,4.521,0,0,1,2.135-1.541,5.1,5.1,0,0,1,4.957,1.194,4.483,4.483,0,0,1,1.182,2.312c.42.154.8.308,1.182.424a4.69,4.69,0,0,1,5.033-.424,5.158,5.158,0,0,1,2.4,2.621,4.438,4.438,0,0,1,.229,1.695c.343.232.686.424.991.617a4.328,4.328,0,0,1,1.678-.385,4.941,4.941,0,0,1,4.919,6.011c.267.269.534.578.8.847a4.442,4.442,0,0,1,2.631.27,5.25,5.25,0,0,1,3.05,4.123,4.388,4.388,0,0,1-.5,2.62c.19.346.381.694.61,1.04a4.807,4.807,0,0,1,4.08,2.929,4.9,4.9,0,0,1-.686,5.009c.114.386.229.771.343,1.194A4.709,4.709,0,0,1,99,40.812a4.842,4.842,0,0,1,1.754,3.083,4.713,4.713,0,0,1-1.792,4.624c0,.462.038.886.038,1.349a4.386,4.386,0,0,1,1.831,1.811,5.2,5.2,0,0,1-.267,5.163,4.3,4.3,0,0,1-2.021,1.58c-.076.462-.114.925-.229,1.387a4.706,4.706,0,0,1,1.258,4.778,4.792,4.792,0,0,1-3.66,3.391c-.153.385-.343.809-.5,1.195a4.994,4.994,0,0,1-2.631,7.283,4.1,4.1,0,0,1-1.449.231c-.076,0-.153-.039-.229-.039-.229.347-.5.655-.724,1a4.918,4.918,0,0,1-1.068,4.932,5,5,0,0,1-3.584,1.579,3.582,3.582,0,0,1-1.22-.231,9.94,9.94,0,0,1-.953.847,4.8,4.8,0,0,1-2.174,4.509,5.043,5.043,0,0,1-2.783.848,4.394,4.394,0,0,1-2.135-.617c-.381.193-.763.385-1.182.578a5.556,5.556,0,0,1-.42,1.58,5.21,5.21,0,0,1-2.707,2.312,5.638,5.638,0,0,1-1.792.309,2.148,2.148,0,0,1-.5-.039" transform="translate(42.95 27.18)" fill="#5aff8c"/></g><path d="M46.652,34.309c0,14.867-26.02,14.723-26.02-.125V28.018h26.02Z" transform="translate(25.258 53.879)" fill="#f0f0f0"/><g transform="matrix(1, 0, 0, 1, -41, -34)" filter="url(#c)"><path d="M65.256,43.705c3.017.54,6.315-2.063,7.2-5.727s-.776-8.322-3.793-8.863a6.852,6.852,0,0,0-5.659.47c-2.89,1.637.425,7.45.425,7.45L63,24.6h0a5.466,5.466,0,0,0-6.025-6.3l-12.255,1.5-12.255-1.5a5.466,5.466,0,0,0-6.024,6.3h0l-.654,12.813s1.381-4.849.654-7.382-5.867-1.059-5.867-1.059c-2.811.54-4.425,5.349-3.6,9.012s3.765,6.195,6.577,5.654C26.3,53.843,34.553,61.9,44.32,61.9,54.268,61.9,62.658,54.207,65.256,43.705Z" transform="translate(55.16 59.91)" fill="#fff"/></g></g></g></g></svg>