<svg xmlns="http://www.w3.org/2000/svg" xmlns:xlink="http://www.w3.org/1999/xlink" width="47" height="35" viewBox="0 0 47 35"><defs><clipPath id="b"><rect width="47" height="35"/></clipPath></defs><g id="a" clip-path="url(#b)"><path d="M25.719,11.653,23.306,9.241V3.329a1.67,1.67,0,0,0-1.665-1.665H19.976a1.67,1.67,0,0,0-1.665,1.665V4.25L14.982.924A2.335,2.335,0,0,0,13.318,0a2.335,2.335,0,0,0-1.665.924L.916,11.653A2.3,2.3,0,0,0,0,13.318a1.637,1.637,0,0,0,1.665,1.665H3.329V24.97a1.67,1.67,0,0,0,1.665,1.665H9.988V18.312a1.67,1.67,0,0,1,1.665-1.665h3.329a1.67,1.67,0,0,1,1.665,1.665v8.323h4.994a1.67,1.67,0,0,0,1.665-1.665V14.982H24.97a1.637,1.637,0,0,0,1.665-1.665A2.3,2.3,0,0,0,25.719,11.653Z" transform="translate(10 4)" fill="#3f3f3f"/></g></svg>