<svg xmlns="http://www.w3.org/2000/svg" xmlns:xlink="http://www.w3.org/1999/xlink" width="41" height="35" viewBox="0 0 41 35"><defs><filter id="a" x="17" y="-1" width="25" height="26" filterUnits="userSpaceOnUse"><feOffset dy="1" input="SourceAlpha"/><feGaussianBlur stdDeviation="1" result="b"/><feFlood flood-opacity="0.251"/><feComposite operator="in" in2="b"/><feComposite in="SourceGraphic"/></filter><clipPath id="d"><rect width="41" height="35"/></clipPath></defs><g id="c" clip-path="url(#d)"><g transform="translate(-31 -196)"><g transform="translate(30 193)"><path d="M4,37H19.5V50.286H4Z" transform="translate(-0.446 -13.839)" fill="#3f3f3f"/><path d="M32,37H47.5V50.286H32Z" transform="translate(-12.946 -13.839)" fill="#3f3f3f"/><path d="M18,13H33.5V26.286H18Z" transform="translate(-6.696 -3.125)" fill="#3f3f3f"/><g transform="translate(3.554 6.554)"><path d="M54.643,34.321,52.429,31H48l.554,3.321Z" transform="translate(-23.643 -17.714)" fill="#3f3f3f"/><path d="M24.643,7H20.214L18,10.321h6.089Z" transform="translate(-10.25 -7)" fill="#5aff8c"/><path d="M10.643,31H6.214L4,34.321h6.089Z" transform="translate(-4 -17.714)" fill="#3f3f3f"/></g><path d="M47.661,34.321,47.107,31H46v3.321Z" transform="translate(-19.196 -11.161)" fill="#5aff8c"/><path d="M40.643,10.321,38.429,7H34l.554,3.321Z" transform="translate(-13.839 -0.446)" fill="#5aff8c"/><path d="M16.661,34.321V31H15.554L15,34.321Z" transform="translate(-5.357 -11.161)" fill="#5aff8c"/><path d="M44.661,41.429l1.661,1.107V37H43v5.536Z" transform="translate(-17.857 -13.839)" fill="#3f3f3f"/><path d="M15,37v5.536l1.661-1.107,1.661,1.107V37H15Z" transform="translate(-5.357 -13.839)" fill="#3f3f3f"/><path d="M29,18.536l1.661-1.107,1.661,1.107V13H29Z" transform="translate(-11.607 -3.125)" fill="#3f3f3f"/><path d="M32.321,10.321,31.768,7H29.554L29,10.321Z" transform="translate(-11.607 -0.446)" fill="#5aff8c"/><path d="M35.014,22.853,32.8,19.532a.554.554,0,0,0-.461-.246H27.357V9.875a.98.98,0,0,0-.093-.307L25.05,6.246A.554.554,0,0,0,24.589,6H13.518a.554.554,0,0,0-.461.246L10.843,9.568a.283.283,0,0,0-.034.069.546.546,0,0,0-.059.238v9.411H5.768a.554.554,0,0,0-.461.246L3.093,22.853A.989.989,0,0,0,3,23.161V36.446A.554.554,0,0,0,3.554,37h31a.554.554,0,0,0,.554-.554V23.161A.989.989,0,0,0,35.014,22.853Zm-1.495-.246H28.933l-.369-2.214h3.479ZM25.7,23.714h2.214v3.948l-.8-.533a.554.554,0,0,0-.614,0l-.8.533Zm1.745-3.321.369,2.214h-.453V20.393ZM24.293,7.107l1.476,2.214H21.183l-.369-2.214Zm-5.878,0h1.277l.369,2.214H18.047Zm-.469,3.321h2.214v3.948l-.8-.533a.554.554,0,0,0-.614,0l-.8.533ZM13.814,7.107h3.479l-.369,2.214H12.338Zm-1.957,3.321h4.982v4.982a.554.554,0,0,0,.861.461l1.353-.9,1.353.9a.554.554,0,0,0,.861-.459V10.429H26.25V22.607H11.857ZM10.2,23.714h2.214v3.948l-.8-.533a.554.554,0,0,0-.614,0l-.8.533Zm.554-3.321v2.214H10.3l.369-2.214Zm-4.686,0H9.543l-.369,2.214H4.588ZM4.107,23.714H9.089V28.7a.554.554,0,0,0,.861.461l1.353-.9,1.353.9a.554.554,0,0,0,.861-.459V23.714H18.5V35.893H4.107ZM34,35.893H19.607V23.714h4.982V28.7a.554.554,0,0,0,.861.461l1.353-.9,1.353.9a.554.554,0,0,0,.861-.459V23.714H34Z" transform="translate(0 0)" fill="#5aff8c"/></g><g transform="translate(9.054 -12)"><g transform="matrix(1, 0, 0, 1, 21.95, 208)" filter="url(#a)"><path d="M5,0h9a5,5,0,0,1,5,5V15a5,5,0,0,1-5,5H5a5,5,0,0,1-5-5V5A5,5,0,0,1,5,0Z" transform="translate(20 1)" fill="#fff"/></g><text transform="translate(46.946 225)" fill="#3f3f3f" font-size="17" font-family="Roboto-Black, Roboto" font-weight="800"><tspan x="0" y="0">+</tspan></text></g></g></g></svg>