<svg xmlns="http://www.w3.org/2000/svg" xmlns:xlink="http://www.w3.org/1999/xlink" width="41" height="35" viewBox="0 0 41 35"><defs><clipPath id="b"><rect width="41" height="35"/></clipPath></defs><g id="a" clip-path="url(#b)"><g transform="translate(0 -2)"><g transform="translate(24.446 12.815)"><path d="M34.63,18.815v9.118a1.306,1.306,0,0,1-1.3,1.3H20.3a1.306,1.306,0,0,1-1.3-1.3V12.3A1.306,1.306,0,0,1,20.3,11h7.815a1.3,1.3,0,0,1,1.016.495l5.21,6.5a2.294,2.294,0,0,1,.182.3v.026A1.092,1.092,0,0,1,34.63,18.815Z" transform="translate(-19 -11)" fill="#3f3f3f"/></g><g transform="translate(8.815 5)"><path d="M25.235,6.3V31.051H8.3a1.306,1.306,0,0,1-1.3-1.3V6.3A1.306,1.306,0,0,1,8.3,5h15.63A1.306,1.306,0,0,1,25.235,6.3Z" transform="translate(-7 -5)" fill="#5aff8c"/></g><g transform="translate(32.261 12.815)"><path d="M32.815,18.815v.013L25,18.815V11h1.3a1.3,1.3,0,0,1,1.016.495l5.21,6.5a2.294,2.294,0,0,1,.182.3v.026A1.092,1.092,0,0,1,32.815,18.815Z" transform="translate(-25 -11)" fill="#5aff8c"/></g><g transform="translate(28.353 25.841)"><path d="M29.815,24.908A3.908,3.908,0,1,1,25.908,21,3.919,3.919,0,0,1,29.815,24.908Z" transform="translate(-22 -21)" fill="#3f3f3f"/></g><g transform="translate(14.025 25.841)"><path d="M18.815,24.908A3.908,3.908,0,1,1,14.908,21,3.919,3.919,0,0,1,18.815,24.908Z" transform="translate(-11 -21)" fill="#3f3f3f"/></g><g transform="translate(1 10.21)"><path d="M16.63,11.605H2.3A1.3,1.3,0,0,1,2.3,9H16.63a1.3,1.3,0,0,1,0,2.605Z" transform="translate(-1 -9)" fill="#3f3f3f"/></g><g transform="translate(4.908 19.328)"><path d="M17.025,18.605H5.3A1.3,1.3,0,1,1,5.3,16H17.025a1.3,1.3,0,1,1,0,2.605Z" transform="translate(-4 -16)" fill="#3f3f3f"/></g></g></g></svg>